<?xml version="1.0" encoding="utf-8"?>
<svg width="61" height="48" viewBox="0 0 61 48" fill="none" xmlns="http://www.w3.org/2000/svg">
<path d="M30.5003 28.1001C30.366 28.1001 30.2269 28.0657 30.107 28.0019L10.2465 17.2249C9.96829 17.0727 9.79559 16.7781 9.80039 16.4589C9.80039 16.1398 9.97789 15.8452 10.2561 15.6979L30.1118 5.19584C30.3564 5.06818 30.6443 5.06818 30.8841 5.19584L50.7446 15.693C51.0228 15.8403 51.2003 16.1349 51.2003 16.454C51.2003 16.7732 51.0276 17.0727 50.7542 17.22L30.8937 27.997C30.769 28.0657 30.6347 28.0952 30.5003 28.0952V28.1001ZM12.458 16.4688L30.5003 26.2589L48.5426 16.4688L30.5003 6.93391L12.458 16.4688Z" fill="black"/>
<path d="M30.2062 47.6499C30.0554 47.6499 29.8998 47.6118 29.7636 47.5307C29.5058 47.3782 29.3501 47.1065 29.3501 46.811V27.0781C29.3501 26.7826 29.5106 26.5109 29.7684 26.3584C30.0262 26.2059 30.3473 26.2011 30.6148 26.3394L38.6602 30.61L49.9451 24.7474C50.2078 24.6092 50.5288 24.6187 50.7866 24.7712C51.0444 24.9237 51.2001 25.1954 51.2001 25.4909V36.3488C51.2001 36.6586 51.025 36.9446 50.7477 37.0876L30.6099 47.5498C30.4835 47.6165 30.3473 47.6451 30.2111 47.6451L30.2062 47.6499ZM31.0623 28.4842V45.4192L49.4928 35.8435V26.8827L39.059 32.3069C38.8061 32.4403 38.5045 32.4356 38.2516 32.3069L31.0672 28.4938L31.0623 28.4842Z" fill="black"/>
<path d="M38.8875 32.7002C38.7429 32.7002 38.5983 32.6656 38.4687 32.5963L29.8088 27.9421C29.5246 27.7888 29.3501 27.492 29.3501 27.1754C29.3501 26.854 29.5296 26.5621 29.8138 26.4088L50.4539 15.5522C50.7132 15.4137 51.0223 15.4187 51.2815 15.5522L59.9414 20.2065C60.2256 20.3598 60.4001 20.6565 60.4001 20.9731C60.4001 21.2946 60.2206 21.5864 59.9364 21.7397L39.2963 32.5963C39.1666 32.6656 39.0271 32.6952 38.8875 32.6952V32.7002ZM32.0822 27.1853L38.8875 30.8454L57.668 20.9632L50.8578 17.3031L32.0772 27.1853H32.0822Z" fill="black"/>
<path d="M30.7893 47.6499C30.6531 47.6499 30.5121 47.6165 30.3905 47.5546L10.2527 37.0923C9.97054 36.9493 9.80029 36.6634 9.80029 36.3535V25.4909C9.80029 25.1954 9.95595 24.9237 10.2138 24.7712C10.4716 24.6187 10.7926 24.6092 11.0553 24.7474L22.3402 30.61L30.3856 26.3394C30.6483 26.1964 30.9693 26.2059 31.232 26.3584C31.4898 26.5109 31.6503 26.7826 31.6503 27.0781V46.811C31.6503 47.1065 31.4946 47.3782 31.2368 47.5307C31.1006 47.6118 30.9499 47.6499 30.7942 47.6499H30.7893ZM11.5076 35.8435L29.9381 45.4192V28.4842L22.7537 32.2973C22.5007 32.4308 22.1991 32.4308 21.9462 32.2973L11.5125 26.8732V35.8388L11.5076 35.8435Z" fill="black"/>
<path d="M22.1174 32.6952C21.9778 32.6952 21.8333 32.6606 21.7086 32.5963L1.06375 21.736C0.779575 21.5876 0.600098 21.2909 0.600098 20.9743C0.600098 20.6529 0.774589 20.3562 1.05876 20.2078L9.71854 15.5541C9.97779 15.4156 10.2869 15.4156 10.5461 15.5541L31.186 26.4095C31.4652 26.5578 31.6447 26.8397 31.6497 27.1563C31.6596 27.4678 31.4951 27.7646 31.2259 27.9228L22.5362 32.5963C22.4066 32.6656 22.262 32.7002 22.1174 32.7002V32.6952ZM3.33214 20.9595L22.1124 30.8407L28.9226 27.181L10.1423 17.2998L3.33713 20.9595H3.33214Z" fill="black"/>
<path d="M10.1359 16.6C9.99632 16.6 9.85176 16.5671 9.72216 16.5014L1.06368 12.1708C0.779548 12.0252 0.600098 11.7434 0.600098 11.4381C0.600098 11.1328 0.784533 10.8509 1.07365 10.71L21.7104 0.592797C21.9696 0.46598 22.2737 0.470677 22.5329 0.597494L31.1914 5.00793C31.4755 5.15354 31.655 5.43535 31.65 5.74065C31.645 6.04596 31.4656 6.32777 31.1764 6.46868L10.5397 16.5061C10.415 16.5671 10.2755 16.6 10.1359 16.6ZM3.36164 11.4474L10.1409 14.8433L28.8984 5.72187L22.1092 2.26021L3.36164 11.4474Z" fill="black"/>
<path d="M50.8643 16.6C50.7247 16.6 50.5901 16.5671 50.4605 16.5061L29.8236 6.47273C29.5345 6.33188 29.3501 6.05487 29.3501 5.74499C29.3501 5.43512 29.5246 5.15811 29.8087 5.01256L38.4672 0.599191C38.7214 0.467729 39.0305 0.467729 39.2897 0.594496L59.9266 10.7077C60.2157 10.8485 60.3951 11.1302 60.4001 11.4354C60.4001 11.7406 60.2206 12.0223 59.9365 12.1679L51.278 16.5014C51.1484 16.5671 51.0088 16.6 50.8643 16.6ZM32.1017 5.72152L50.8593 14.844L57.6385 11.4495L38.8909 2.26125L32.1017 5.72152Z" fill="black"/>
</svg>
