<?xml version="1.0" encoding="utf-8"?>
<svg width="69" height="69" viewBox="0 0 69 69" fill="none" xmlns="http://www.w3.org/2000/svg">
<path d="M51.2504 22.1038V27.1491C51.2504 16.6562 42.5858 8.07167 31.9951 8.07167C26.6943 8.07167 21.8822 10.2151 18.3963 13.676C14.9032 17.1297 12.7397 21.8973 12.7397 27.1491V22.1038C12.7397 16.852 14.9032 12.0844 18.3963 8.63068C21.8822 5.16982 26.6943 3.02637 31.9951 3.02637C42.5858 3.02637 51.2504 11.6109 51.2504 22.1038Z" fill="white"/>
<path d="M35.5889 26.3411C33.5548 28.8512 30.2809 29.8019 27.3304 29.015L12.6212 47.1489C12.0678 47.8326 11.2736 48.2313 10.465 48.3168C9.6348 48.4058 8.78668 48.1851 8.09308 47.6367C6.71308 46.5365 6.49027 44.5177 7.60074 43.1504L22.31 25.0165C20.8976 22.3283 21.1348 18.96 23.1689 16.4498C25.0053 14.1853 27.8443 13.1919 30.5432 13.5871L26.335 18.7749L28.0168 23.0725L32.6168 23.7775L36.8251 18.5897C37.799 21.1177 37.4289 24.0765 35.5889 26.3411Z" fill="white"/>
<path d="M35.5924 26.3338C33.5548 28.844 30.2845 29.7947 27.334 29.0114L16.2221 42.6981C14.8673 40.7256 13.8574 38.5074 13.2932 36.1254L22.3135 25.0093C20.9048 22.3211 21.1348 18.9528 23.1724 16.4426C25.0088 14.1781 27.8443 13.1883 30.5396 13.5799L26.3313 18.7712L28.0132 23.0688L32.6168 23.7738L36.8251 18.5825C37.8026 21.1069 37.4288 24.0729 35.5924 26.3303V26.3338Z" fill="#FFCB65"/>
<path d="M33.5405 32.832V48.2136C33.5405 49.3957 34.518 50.3641 35.7112 50.3641H52.0016L58.4704 58.03V50.3641H62.5133C63.7065 50.3641 64.684 49.3957 64.684 48.2136V32.832C64.684 31.6499 63.7065 30.6814 62.5133 30.6814H35.7112C34.518 30.6814 33.5405 31.6499 33.5405 32.832Z" fill="#FFCB65"/>
<path d="M53.4605 47.2663H36.6633V33.7754H61.5572V47.2663H55.3436H53.4605Z" fill="white"/>
<path d="M44.9973 50.3392C44.9973 56.3031 38.9346 61.1384 31.456 61.1384L25.3251 66.6679V59.9669C20.9264 58.1902 17.9148 54.5407 17.9148 50.3392C17.9148 44.3753 23.9775 39.54 31.456 39.54C38.9346 39.54 44.9973 44.3753 44.9973 50.3392Z" fill="white"/>
<path d="M51.2542 20.4624H55.5846C57.766 20.4624 59.5342 22.2178 59.5342 24.3755V33.2021C59.5342 35.3633 57.7624 37.1151 55.5846 37.1151H51.2542V20.4624Z" fill="#FFCB65"/>
<path d="M59.5341 24.8706V33.2094C59.5341 35.3671 57.766 37.1153 55.581 37.1153H51.2505V33.9607L59.0525 22.5063L59.0597 22.5135L59.5341 24.8706Z" fill="white"/>
<path d="M12.7434 37.1189H8.41294C6.23153 37.1189 4.46341 35.3635 4.46341 33.2058L4.46341 24.3792C4.46341 22.218 6.23513 20.4662 8.41294 20.4662H12.7434L12.7434 37.1189Z" fill="#FFCB65"/>
<path d="M4.30542 23.0867L4.45995 33.2058C4.45995 35.3635 6.22808 37.1117 8.41308 37.1117H12.7435V33.9571L4.94151 22.5063L4.93433 22.5135L4.30901 23.0903L4.30542 23.0867Z" fill="white"/>
<path d="M31.4596 58.0407C27.8838 58.0407 24.7501 56.6877 22.8813 54.6938C21.7888 53.4583 21.0449 52.0946 21.0449 50.3321C21.0449 46.0879 25.7168 42.6306 31.4596 42.6306C36.9077 42.6306 41.2095 45.8031 41.7665 49.2639C41.7737 49.2853 41.7809 49.3031 41.7809 49.3173C41.8491 49.7019 41.8132 49.531 41.8599 49.9013C42.1402 54.8718 36.746 58.0371 31.4596 58.0371V58.0407Z" fill="#FFCB65"/>
<path d="M28.8721 47.8716H33.3248C34.7767 47.8716 35.9662 49.0501 35.9662 50.4886C35.9662 51.9271 34.7767 53.1056 33.3248 53.1056H28.8721C27.4202 53.1056 26.2307 51.9271 26.2307 50.4886C26.2307 49.0501 27.4202 47.8716 28.8721 47.8716Z" fill="white"/>
<path d="M10.7094 43.332C10.138 43.332 9.67798 43.7913 9.67798 44.3539C9.67798 44.9165 10.1416 45.3758 10.7094 45.3758C11.2772 45.3758 11.7408 44.9165 11.7408 44.3539C11.7408 43.7913 11.2772 43.332 10.7094 43.332Z" fill="#1A2433"/>
<path d="M62.5133 29.6487H60.5763V24.3755C60.5763 23.5531 60.3679 22.7413 59.9798 22.0185L59.9187 21.9188C59.0526 20.3592 57.4318 19.4299 55.5882 19.4299H52.1094C50.7905 9.6028 42.2769 1.9939 31.9952 1.9939C26.5866 1.9939 21.4943 4.09106 17.6598 7.8973C14.4613 11.0591 12.4596 15.0825 11.881 19.4299H8.41663C5.65663 19.4299 3.41772 21.6482 3.41772 24.3755V33.2057C3.41772 35.9296 5.65663 38.1513 8.41663 38.1513H10.3213L6.78866 42.5059C5.31522 44.3253 5.60991 46.9886 7.43913 48.4485C8.2046 49.0538 9.13538 49.3706 10.1057 49.3706C10.2602 49.3706 10.4219 49.3635 10.5801 49.3493C11.6941 49.2282 12.7327 48.6657 13.4407 47.7969L16.1827 44.4108C16.6858 45.0481 17.2213 45.6534 17.7927 46.2231V46.2302C17.2033 47.512 16.8799 48.8935 16.8799 50.3462C16.8799 54.6687 19.701 58.5604 24.2866 60.6505V69.0107L31.8658 62.178C39.2905 62.0106 45.3424 57.332 45.9929 51.4073H51.5165L59.5126 60.8819V51.4073H62.5205C64.2887 51.4073 65.7298 49.9795 65.7298 48.2206V32.8425C65.7298 31.0836 64.2887 29.6559 62.5205 29.6559L62.5133 29.6487ZM52.2927 31.7139V21.4951H55.5846C56.6771 21.4951 57.5899 22.0078 58.0787 22.8837L58.2008 23.1151C58.3877 23.4997 58.4883 23.9376 58.4883 24.3755V33.2057C58.4883 34.7937 57.1874 36.0862 55.581 36.0862H52.2891V31.7174L52.2927 31.7139ZM19.1296 9.35712C22.576 5.94255 27.1401 4.05902 31.9916 4.05902C40.189 4.05902 47.1393 9.4497 49.4177 16.8414C45.8671 10.9701 39.384 7.0392 31.9916 7.0392C26.583 7.0392 21.4907 9.13637 17.6562 12.9426C16.4558 14.1318 15.4173 15.4528 14.5655 16.8592C15.4244 14.0571 16.9769 11.4935 19.1296 9.35712ZM8.41304 36.0827C6.81022 36.0827 5.49851 34.7937 5.49851 33.2022V24.372C5.49851 22.784 6.80663 21.4915 8.41304 21.4915H11.6977V36.0791H8.41304V36.0827ZM11.8055 46.5008C11.4498 46.9388 10.9143 47.2308 10.3501 47.2913C9.76788 47.3518 9.19647 47.1916 8.74726 46.832C7.80929 46.0878 7.66194 44.7277 8.41304 43.7984L12.8513 38.3258C13.3616 39.8319 14.0696 41.2739 14.9357 42.6412L11.8055 46.5044V46.5008ZM14.4326 36.3746L23.5463 25.1339L23.2373 24.5358C21.9758 22.1324 22.2598 19.2092 23.9812 17.0978C25.088 15.7305 26.6693 14.8546 28.3835 14.6089L25.1527 18.5932L27.2694 23.9981L33.059 24.8883L36.2898 20.904C36.3041 21.0642 36.3041 21.2351 36.3041 21.3954C36.3041 22.93 35.7758 24.4574 34.7768 25.693C33.0626 27.8044 30.2451 28.7194 27.6001 28.0109L26.9424 27.8435L16.3265 40.925C15.4891 39.4901 14.853 37.9697 14.4362 36.3711L14.4326 36.3746ZM17.5304 42.7373L27.7258 30.1614C30.9638 30.7596 34.306 29.5562 36.3976 26.9819C38.3885 24.5251 38.924 21.1639 37.7919 18.2229L37.1487 16.5423L32.1749 22.6594L28.7644 22.136L27.5174 18.9493L32.484 12.8215L30.6943 12.5616C27.539 12.1023 24.3477 13.3378 22.3496 15.7946C20.2652 18.3725 19.7908 21.8689 21.0882 24.8705L13.9115 33.7149C13.818 32.9992 13.7785 32.2729 13.7785 31.5358V27.1457C13.7785 22.3389 15.676 17.817 19.126 14.4024C22.5724 10.9879 27.1365 9.0972 31.988 9.0972C42.029 9.0972 50.2012 17.1939 50.2048 27.1421C50.2048 27.1421 50.2048 27.1457 50.2048 27.1492V29.6523H35.7076C33.9323 29.6523 32.4912 31.0801 32.4912 32.839V38.543C32.1498 38.5216 31.8012 38.511 31.4526 38.511C26.1051 38.511 21.4188 40.8609 18.8852 44.3538C18.3893 43.8482 17.9401 43.3106 17.5304 42.7409V42.7373ZM43.8833 51.3966C43.2005 56.2852 37.8854 60.1022 31.4562 60.1022H31.0537L26.3674 64.3321V59.2725L25.7169 59.0126C21.5482 57.3249 18.9607 53.9994 18.9607 50.3391C18.9607 49.4241 19.1224 48.541 19.4351 47.7043C21.1852 49.1321 23.1474 50.2679 25.2462 51.0761C25.5157 52.8101 27.043 54.1382 28.8723 54.1382H33.3285C35.0427 54.1382 36.491 52.9704 36.8935 51.3966C36.9726 51.1046 37.0085 50.8055 37.0085 50.4922C37.0085 50.0863 36.9402 49.6947 36.8144 49.3315C36.4587 48.2811 35.6357 47.4337 34.5827 47.067C34.1946 46.9139 33.7705 46.8355 33.3285 46.8355H28.8723C27.3916 46.8355 26.123 47.7043 25.5337 48.9541C23.6757 48.185 21.9399 47.1275 20.4054 45.7994C22.4898 42.691 26.6657 40.5725 31.4633 40.5725C31.8119 40.5725 32.1605 40.5796 32.5019 40.6117C33.2135 40.6508 33.9107 40.7505 34.5863 40.8787C39.5672 41.8935 43.3587 45.2404 43.9013 49.3315C43.9408 49.6626 43.9624 50.0009 43.9624 50.3356C43.9624 50.6952 43.9408 51.0512 43.8941 51.3966H43.8833ZM27.2694 50.4922C27.2694 50.186 27.3557 49.9012 27.5102 49.6555C27.7905 49.2033 28.2937 48.9042 28.8651 48.9042H33.3213C34.2054 48.9042 34.9169 49.6199 34.9169 50.4922C34.9169 50.7593 34.8487 51.0156 34.7229 51.2435C34.5073 51.6423 34.1191 51.9342 33.6627 52.0339C33.5549 52.0553 33.4363 52.0731 33.3213 52.0731H28.8651C28.8112 52.0731 28.7573 52.0731 28.7033 52.066C28.689 52.066 28.6818 52.066 28.6638 52.0589C28.5776 52.0446 28.4841 52.0268 28.3943 52.0055H28.3871C27.7438 51.7989 27.273 51.1901 27.273 50.4922H27.2694ZM63.6418 48.2135C63.6418 48.8188 63.1243 49.335 62.5098 49.335H57.4282V55.185L52.4832 49.335H45.9821C45.4394 44.1295 40.728 39.8782 34.5755 38.7851V32.8354C34.5755 32.2301 35.093 31.7139 35.7076 31.7139H50.2048V37.1117C50.2048 37.1117 50.2048 37.1152 50.2048 37.1188V38.1478H55.581C58.3302 38.1478 60.5727 35.9296 60.5727 33.2022V31.7139H62.5098C63.1207 31.7139 63.6418 32.2266 63.6418 32.8354V48.2135Z" fill="#1A2433"/>
</svg>
