<?xml version="1.0" encoding="utf-8"?>
<svg width="63" height="63" viewBox="0 0 63 63" fill="none" xmlns="http://www.w3.org/2000/svg">
<g clip-path="url(#clip0_1042_1635)">
<path d="M12.5434 9.99015L18.3179 15.0254C18.3675 15.0703 18.4124 15.1081 18.4643 15.1388C19.6972 16.1496 21.315 16.5724 22.8808 16.263C22.8926 16.263 22.8997 16.2559 22.9115 16.2559C25.0914 15.8143 27.3209 15.6938 29.5268 15.9843L29.9567 16.041L28.3318 17.3494L39.7296 28.0151L39.7415 28.008L48.2981 36.5647C49.3538 37.6251 49.3538 39.3374 48.2981 40.4002C47.2377 41.4559 45.5254 41.4559 44.4626 40.4002L38.3126 34.2431L38.2937 34.262L44.4508 40.412C45.5065 41.4724 45.5065 43.1847 44.4508 44.2475C43.3904 45.3079 41.671 45.3079 40.6153 44.2475L32.949 36.5812L40.6035 44.2593C41.6592 45.3197 41.6592 47.0391 40.6035 48.0948C39.5431 49.1553 37.8237 49.1553 36.768 48.0948L29.0757 40.4096L29.0639 40.4215L36.7491 48.1066C37.8095 49.1671 37.8095 50.8864 36.7491 51.9421C35.6934 53.0026 33.9764 53.0026 32.9207 51.9421L28.5774 47.5989L12.73 32.6631C12.2812 32.2403 11.9034 31.7656 11.5869 31.2413L11.3602 30.8563C10.8807 30.0344 10.6209 29.0874 10.6209 28.1214V27.5971C10.6209 26.3335 11.1689 24.1678 10.4485 23.1499C10.2525 22.8665 10.0305 22.6067 9.78487 22.3611L4.97632 17.5525L12.541 9.98779L12.5434 9.99015Z" fill="white"/>
<path d="M34.836 53.5862C33.8842 53.5862 32.9914 53.2154 32.323 52.54L27.9821 48.199L12.1536 33.2798C11.6576 32.8122 11.2231 32.2737 10.8664 31.6809L10.635 31.2888C10.0729 30.33 9.77767 29.2365 9.77767 28.1241V27.5998C9.77767 27.1983 9.8249 26.7448 9.87214 26.2677C9.96425 25.3584 10.0918 24.1114 9.76114 23.6414C9.59581 23.4005 9.41159 23.1809 9.18959 22.9613L4.38104 18.1527C4.05039 17.8221 4.05039 17.2883 4.38104 16.9577C4.71169 16.6294 5.24545 16.6294 5.57609 16.9577L10.3846 21.7662C10.6799 22.0614 10.9278 22.359 11.1451 22.6731C11.8371 23.6509 11.686 25.1317 11.5537 26.4378C11.5088 26.8723 11.4663 27.2833 11.4663 27.5974V28.1217C11.4663 28.9342 11.6812 29.7324 12.0898 30.4315L12.3166 30.8141C12.5905 31.2676 12.9283 31.688 13.3132 32.0493L29.1583 46.9851L33.5205 51.3449C34.2243 52.0534 35.4524 52.0511 36.1538 51.3449C36.5105 50.9907 36.7041 50.5254 36.7041 50.0271C36.7041 49.5264 36.5105 49.0564 36.1562 48.7021L28.471 41.0169C28.1404 40.6863 28.1404 40.1525 28.471 39.8219C28.8017 39.4936 29.3472 39.4794 29.6779 39.8101L37.3701 47.4952C37.722 47.8495 38.1873 48.0432 38.6856 48.0432C39.1863 48.0432 39.6563 47.8495 40.0082 47.4952C40.7333 46.7702 40.7333 45.5846 40.0082 44.8524L32.3561 37.1743C32.3561 37.1743 32.3396 37.1578 32.3325 37.1484C32.0302 36.8177 32.0278 36.2958 32.3467 35.9746C32.6584 35.6605 33.1497 35.6345 33.4827 35.9155C33.4992 35.9297 33.5134 35.9439 33.5299 35.958L41.2198 43.6479C41.5717 44.0022 42.037 44.1959 42.5353 44.1959H42.5377C43.036 44.1959 43.506 44.0022 43.8603 43.6479C44.583 42.9205 44.583 41.7349 43.8603 41.0051L37.7055 34.8575C37.5473 34.6992 37.4575 34.4843 37.4575 34.2599C37.4575 34.0356 37.5473 33.8206 37.7055 33.6624C37.8637 33.5042 38.0881 33.405 38.3125 33.405C38.5368 33.405 38.7612 33.4853 38.9194 33.6435L45.0695 39.8006C45.7945 40.5233 46.9825 40.5233 47.7123 39.8006C48.4326 39.0756 48.4326 37.8876 47.7099 37.1602L39.2548 28.7051C39.2218 28.6814 39.1911 28.6578 39.1604 28.6295L27.7625 17.9638C27.583 17.7961 27.4862 17.5599 27.4956 17.3166C27.5051 17.0734 27.6184 16.8443 27.8097 16.6908L27.8168 16.6837C26.2793 16.6223 24.6946 16.7569 23.0838 17.0828C23.0791 17.0828 23.0768 17.0828 23.072 17.0852C23.0649 17.0852 23.0555 17.0876 23.0484 17.0899C21.2535 17.4465 19.4042 16.9813 17.9659 15.8169C17.8998 15.7697 17.8336 15.7177 17.7651 15.6563L11.993 10.6234C11.6411 10.3164 11.6057 9.78263 11.9103 9.43309C12.2174 9.08119 12.7511 9.04576 13.1007 9.35043L18.8752 14.3857C18.9059 14.4046 18.9744 14.4613 19.0003 14.4825C20.0513 15.3446 21.407 15.6918 22.7178 15.432C22.7178 15.432 22.7225 15.432 22.7248 15.432C22.7319 15.432 22.739 15.4296 22.7461 15.4272C25.1055 14.9478 27.4248 14.8533 29.6401 15.1462L30.0699 15.2029C30.4053 15.2477 30.6816 15.4863 30.7714 15.8122C30.8635 16.1381 30.7501 16.4853 30.488 16.6979L29.6212 17.397L40.2066 27.3022C40.2538 27.3329 40.3011 27.3683 40.3412 27.4108L48.8979 35.9675C50.2772 37.3538 50.2772 39.6093 48.8979 40.9957C48.1232 41.7656 47.0817 42.1057 46.0685 42.0183C46.1559 43.0292 45.8182 44.0707 45.0482 44.843C44.3728 45.5184 43.48 45.8892 42.5306 45.8892C42.4479 45.8892 42.3251 45.8845 42.2236 45.8751C42.3086 46.8859 41.9685 47.9227 41.1986 48.6927C40.5254 49.3658 39.6327 49.7366 38.6809 49.7366C38.5983 49.7366 38.4754 49.7318 38.3739 49.7224C38.3833 49.8263 38.3881 49.9279 38.3881 50.0318C38.3881 50.9812 38.0149 51.8716 37.3418 52.54C36.6758 53.2107 35.783 53.5815 34.8312 53.5815L34.836 53.5862Z" fill="#1A2433"/>
<path d="M12.5434 9.99015L18.3179 15.0254C18.3675 15.0703 18.4124 15.1081 18.4643 15.1388C19.6972 16.1496 21.315 16.5724 22.8808 16.263C22.8926 16.263 22.8997 16.2559 22.9115 16.2559C25.0914 15.8143 27.3209 15.6938 29.5268 15.9843L29.9567 16.041L28.3318 17.3494L39.7296 28.0151L39.7415 28.008L48.2981 36.5647C49.3538 37.6251 49.3538 39.3374 48.2981 40.4002C47.2377 41.4559 45.5254 41.4559 44.4626 40.4002L38.3126 34.2431L38.2937 34.262L44.4508 40.412C45.5065 41.4724 45.5065 43.1847 44.4508 44.2475C43.3904 45.3079 41.671 45.3079 40.6153 44.2475L32.949 36.5812L40.6035 44.2593C41.6592 45.3197 41.6592 47.0391 40.6035 48.0948C39.5431 49.1553 37.8237 49.1553 36.768 48.0948L29.0757 40.4096L29.0639 40.4215L36.7491 48.1066C37.8095 49.1671 37.8095 50.8864 36.7491 51.9421C35.6934 53.0026 33.9764 53.0026 32.9207 51.9421L28.5774 47.5989L12.73 32.6631C12.2812 32.2403 11.9034 31.7656 11.5869 31.2413L11.3602 30.8563C10.8807 30.0344 10.6209 29.0874 10.6209 28.1214V27.5971C10.6209 26.3335 11.1689 24.1678 10.4485 23.1499C10.2525 22.8665 10.0305 22.6067 9.78487 22.3611L4.97632 17.5525L12.541 9.98779L12.5434 9.99015Z" fill="white"/>
<path d="M34.836 53.586C33.8842 53.586 32.9914 53.2153 32.323 52.5398L27.9821 48.1989L12.1536 33.2796C11.6576 32.812 11.2231 32.2735 10.8664 31.6807L10.635 31.2887C10.0729 30.3298 9.77767 29.2363 9.77767 28.1239V27.5996C9.77767 27.1981 9.8249 26.7446 9.87214 26.2675C9.96425 25.3583 10.0918 24.1113 9.76114 23.6413C9.59581 23.4004 9.41159 23.1807 9.18959 22.9611L4.38104 18.1525C4.05039 17.8219 4.05039 17.2881 4.38104 16.9575C4.71169 16.6292 5.24545 16.6292 5.57609 16.9575L10.3846 21.766C10.6799 22.0612 10.9278 22.3588 11.1451 22.6729C11.8371 23.6507 11.686 25.1315 11.5537 26.4376C11.5088 26.8722 11.4663 27.2831 11.4663 27.5972V28.1215C11.4663 28.934 11.6812 29.7323 12.0898 30.4313L12.3142 30.8139C12.5882 31.2674 12.9259 31.6878 13.3109 32.0491L29.1559 46.9849L33.5181 51.3447C34.2219 52.0533 35.45 52.0509 36.1515 51.3447C36.5081 50.9905 36.7018 50.5252 36.7018 50.0269C36.7018 49.5262 36.5081 49.0562 36.1538 48.7019L28.4687 41.0168C28.138 40.6861 28.138 40.1523 28.4687 39.8217C28.7993 39.4934 29.3449 39.4792 29.6755 39.8099L37.3678 47.4951C37.7197 47.8493 38.1849 48.043 38.6833 48.043C39.184 48.043 39.654 47.8493 40.0059 47.4951C40.7309 46.77 40.7309 45.5844 40.0059 44.8523L32.3538 37.1742C32.042 36.8624 32.016 36.357 32.2971 36.024C32.3089 36.0098 32.3207 35.9956 32.3349 35.9838C32.3467 35.972 32.3585 35.9626 32.3703 35.9508C32.6986 35.6674 33.1875 35.6697 33.5016 35.9815L41.1915 43.6714C41.5434 44.0256 42.0323 44.224 42.5093 44.2193C43.0077 44.2193 43.4776 44.0256 43.8319 43.6714C44.5546 42.944 44.5546 41.7583 43.8319 41.0286L37.6772 34.8809C37.5189 34.7227 37.4292 34.5077 37.4292 34.2834C37.4292 34.059 37.5189 33.8441 37.6772 33.6858C37.8354 33.5276 38.0598 33.4284 38.2841 33.4284C38.5085 33.4284 38.7329 33.5087 38.8911 33.6669L45.0411 39.8241C45.7662 40.5468 46.9542 40.5468 47.6839 39.8241C48.4043 39.099 48.4043 37.911 47.6816 37.1836L39.2265 28.7285C39.1934 28.7049 39.1627 28.6813 39.132 28.6529L27.7341 17.9872C27.5546 17.8195 27.4578 17.5833 27.4673 17.3401C27.4767 17.0968 27.5901 16.8677 27.7814 16.7142L27.7885 16.7071C26.2533 16.6457 24.6662 16.7803 23.0555 17.1063C23.0508 17.1063 23.0484 17.1063 23.0437 17.1086C23.0366 17.1086 23.0272 17.111 23.0201 17.1134C21.2251 17.47 19.3759 17.0047 17.9376 15.8404C17.8714 15.7931 17.8053 15.7412 17.7368 15.6798L11.9647 10.6469C11.6128 10.3398 11.5773 9.80607 11.882 9.45653C12.189 9.10462 12.7228 9.0692 13.0723 9.37386L18.8468 14.4091C18.8775 14.428 18.946 14.4847 18.972 14.506C20.023 15.368 21.3786 15.7152 22.6894 15.4554C22.6894 15.4554 22.6941 15.4554 22.6965 15.4554C22.7036 15.4554 22.7107 15.453 22.7154 15.4507C25.0748 14.9712 27.3941 14.8768 29.6094 15.1696L30.0392 15.2263C30.3746 15.2712 30.6509 15.5097 30.7407 15.8356C30.8328 16.1616 30.7194 16.5087 30.4573 16.7213L29.5905 17.4204L40.1759 27.3256C40.2231 27.3563 40.2704 27.3917 40.3105 27.4343L48.8672 35.9909C50.2465 37.3773 50.2465 39.6328 48.8672 41.0191C48.0925 41.789 47.051 42.1291 46.0378 42.0418C46.1252 43.0526 45.7875 44.0941 45.0175 44.8664C44.3421 45.5419 43.4493 45.9127 42.4999 45.9127C42.4172 45.9127 42.2944 45.908 42.1928 45.8985C42.2779 46.9093 41.9378 47.9462 41.1678 48.7161C40.4947 49.3892 39.602 49.76 38.6502 49.76C38.551 49.76 38.4447 49.7553 38.3432 49.7458C38.3526 49.8497 38.3573 49.9513 38.3573 50.0552C38.3573 51.0046 37.9842 51.895 37.3111 52.5634C36.6451 53.2341 35.7523 53.6049 34.8005 53.6049L34.836 53.586Z" fill="#1A2433"/>
<path d="M46.9117 35.1783L48.8791 33.2062C49.9041 32.1812 50.4756 30.7925 50.4756 29.3447V28.8228C50.4756 27.2121 51.1157 25.6675 52.254 24.5268L57.7073 19.0711L49.2451 10.6089L43.6785 16.1756C42.2165 17.6375 40.0484 18.1453 38.0905 17.4793L38.0787 17.4722L35.6485 16.6432L34.9281 16.4235L33.2607 15.911L32.7128 15.7386C31.1824 15.2923 29.6968 15.7386 28.5419 16.818C28.4876 16.8605 28.4357 16.9124 28.3861 16.962L23.8373 21.5108C22.8666 22.4815 22.706 24.0591 23.5799 25.1219C24.5813 26.3382 26.3809 26.4044 27.4721 25.3132L31.2769 21.5084C31.5744 21.2108 32.0562 20.9888 32.6396 21.3691C32.6467 21.3691 34.2362 22.8782 34.2362 22.8782L46.9117 35.1759V35.1783Z" fill="#FFCB65"/>
<path d="M46.9117 35.1783L48.8791 33.2062C49.9041 32.1812 50.4756 30.7925 50.4756 29.3447V28.8228C50.4756 27.2121 51.1157 25.6675 52.254 24.5268L57.7073 19.0711L49.2451 10.6089L43.6785 16.1756C42.2165 17.6375 40.0484 18.1453 38.0905 17.4793L38.0787 17.4722L35.6485 16.6432L34.9281 16.4235L33.2607 15.911L32.7128 15.7386C31.1824 15.2923 29.6968 15.7386 28.5419 16.818C28.4876 16.8605 28.4357 16.9124 28.3861 16.962L23.8373 21.5108C22.8666 22.4815 22.706 24.0591 23.5799 25.1219C24.5813 26.3382 26.3809 26.4044 27.4721 25.3132L31.2769 21.5084C31.5744 21.2108 32.0562 20.9888 32.6396 21.3691C32.6467 21.3691 34.2362 22.8782 34.2362 22.8782L46.9117 35.1759V35.1783Z" fill="#FFCB65"/>
<path d="M46.9212 36.3643L33.6481 23.4856C33.6481 23.4856 32.4011 22.3024 32.1247 22.0449C32.0279 21.9906 31.9783 22.0001 31.8744 22.1063L28.0696 25.9111C27.3776 26.6031 26.4187 26.9716 25.4433 26.9267C24.4679 26.8795 23.5515 26.4165 22.928 25.6584C21.8062 24.2957 21.9432 22.2102 23.2398 20.9136L27.7885 16.3649C27.8523 16.3011 27.9208 16.2374 27.9869 16.1807C29.3969 14.877 31.2036 14.4212 32.9466 14.9313L35.8941 15.8406L38.4188 16.7026C40.0697 17.2387 41.8528 16.8113 43.0833 15.5808L49.2451 9.41895L58.9 19.0738L52.8492 25.1247C51.862 26.1119 51.3164 27.425 51.3164 28.8232V29.3451C51.3164 31.0314 50.6622 32.6138 49.4719 33.8041L46.9188 36.3643H46.9212ZM33.0883 20.6822C33.3505 20.8759 33.8039 21.3057 34.8171 22.2669L46.9023 33.9931L48.2815 32.6114C49.153 31.74 49.6325 30.5803 49.6325 29.3451V28.8232C49.6325 26.9763 50.3528 25.238 51.6589 23.9296L56.517 19.0715L49.2499 11.8043L44.2807 16.7735C42.5779 18.4763 40.1051 19.0526 37.8237 18.2803L34.6849 17.234L32.4601 16.5467C31.2934 16.2066 30.1007 16.5208 29.1182 17.4371L29.0592 17.4867C29.0355 17.5056 29.0096 17.534 28.9883 17.5552L24.4372 22.1063C23.7476 22.796 23.6578 23.8824 24.2341 24.5838C24.56 24.9806 25.0205 25.212 25.526 25.238C26.0267 25.2593 26.5203 25.0727 26.8769 24.7161L30.6817 20.9113C31.3642 20.2287 32.2924 20.1319 33.1025 20.6633L33.0907 20.6822H33.0883Z" fill="#1A2433"/>
<path d="M22.4061 49.4081L18.573 45.575L26.3574 37.7906C27.4154 36.7326 29.1324 36.7326 30.1905 37.7906C31.2486 38.8487 31.2486 40.5657 30.1905 41.6238L22.4061 49.4081Z" fill="#FFCB65"/>
<path d="M25.1197 52.1216L22.4155 49.4174L28.9364 42.8966C29.9944 41.8385 31.7114 41.8385 32.7695 42.8966C33.8276 43.9546 33.8276 45.6716 32.7695 46.7297L27.3776 52.1216C26.7541 52.7451 25.7409 52.7451 25.1174 52.1216H25.1197Z" fill="#FFCB65"/>
<path d="M14.7231 41.7255L12.0189 39.0212C11.3954 38.3977 11.3954 37.3845 12.0189 36.761L14.6192 34.1607C15.6773 33.1027 17.3943 33.1027 18.4523 34.1607C19.5104 35.2188 19.5104 36.9358 18.4523 37.9939L14.7231 41.7231V41.7255Z" fill="#FFCB65"/>
<path d="M18.5658 45.5679L14.7327 41.7348L21.2535 35.214C22.3116 34.1559 24.0286 34.1559 25.0866 35.214C26.1447 36.272 26.1447 37.989 25.0866 39.0471L18.5658 45.5679Z" fill="#FFCB65"/>
<path d="M22.4061 49.4081L18.573 45.575L26.3574 37.7906C27.4154 36.7326 29.1324 36.7326 30.1905 37.7906C31.2486 38.8487 31.2486 40.5657 30.1905 41.6238L22.4061 49.4081Z" fill="#1A2433"/>
<path d="M22.4059 50.2536C22.191 50.2536 21.9737 50.1709 21.8084 50.0056L17.9753 46.1724C17.6446 45.8418 17.6446 45.308 17.9753 44.9774L25.7596 37.1906C27.146 35.8043 29.4015 35.8043 30.7878 37.1906C32.1742 38.577 32.1742 40.8325 30.7878 42.2188L23.0011 50.0056C22.8358 50.1709 22.6209 50.2536 22.4036 50.2536H22.4059ZM19.7655 45.5749L22.4059 48.2153L29.5951 41.0261C30.3226 40.2987 30.3226 39.1131 29.5951 38.3857C28.8677 37.6583 27.6821 37.6583 26.9547 38.3857L19.7655 45.5749Z" fill="#1A2433"/>
<path d="M25.1197 52.1216L22.4155 49.4174L28.9364 42.8966C29.9944 41.8385 31.7114 41.8385 32.7695 42.8966C33.8276 43.9546 33.8276 45.6716 32.7695 46.7297L27.3776 52.1216C26.7541 52.7451 25.7409 52.7451 25.1174 52.1216H25.1197Z" fill="#1A2433"/>
<path d="M26.2487 53.4323C25.5969 53.4323 24.9828 53.1772 24.5223 52.7167L21.8181 50.0125C21.6598 49.8542 21.5701 49.6393 21.5701 49.415C21.5701 49.1906 21.6598 48.9757 21.8181 48.8174L28.3389 42.2966C29.7252 40.9102 31.9807 40.9102 33.3671 42.2966C34.7534 43.683 34.7534 45.9384 33.3671 47.3248L27.9752 52.7167C27.5146 53.1772 26.9006 53.4323 26.2487 53.4323ZM23.6083 49.415L25.715 51.5216C25.9984 51.8074 26.4967 51.8074 26.7801 51.5216L32.172 46.1297C32.8994 45.4023 32.8994 44.2167 32.172 43.4893C31.4658 42.7855 30.2377 42.7831 29.5316 43.4893L23.6083 49.4126V49.415Z" fill="#1A2433"/>
<path d="M14.7231 41.7255L12.0189 39.0212C11.3954 38.3977 11.3954 37.3845 12.0189 36.761L14.6192 34.1607C15.6773 33.1027 17.3943 33.1027 18.4523 34.1607C19.5104 35.2188 19.5104 36.9358 18.4523 37.9939L14.7231 41.7231V41.7255Z" fill="#1A2433"/>
<path d="M14.7232 42.5684C14.5082 42.5684 14.291 42.4858 14.1256 42.3204L11.4214 39.6162C10.9609 39.1557 10.7058 38.5416 10.7058 37.8898C10.7058 37.2379 10.9609 36.6239 11.4214 36.1633L14.0217 33.563C14.6925 32.8923 15.5852 32.5215 16.537 32.5215C17.4888 32.5215 18.3792 32.8923 19.0523 33.563C19.723 34.2338 20.0938 35.1265 20.0938 36.0783C20.0938 37.0301 19.723 37.9205 19.0523 38.5936L15.3207 42.3252C15.1554 42.4905 14.9405 42.5731 14.7232 42.5731V42.5684ZM16.537 34.2101C16.0387 34.2101 15.5687 34.4038 15.2168 34.7557L12.6165 37.356C12.4748 37.4977 12.3945 37.6867 12.3945 37.8898C12.3945 38.0929 12.4724 38.2795 12.6165 38.4235L14.7232 40.5302L17.8572 37.3962C18.2091 37.0443 18.4052 36.5743 18.4052 36.0759C18.4052 35.5776 18.2115 35.1076 17.8572 34.7557C17.5053 34.4038 17.0353 34.2078 16.537 34.2078V34.2101Z" fill="#1A2433"/>
<path d="M18.5658 45.5679L14.7327 41.7348L21.2535 35.214C22.3116 34.1559 24.0286 34.1559 25.0866 35.214C26.1447 36.272 26.1447 37.989 25.0866 39.0471L18.5658 45.5679Z" fill="#1A2433"/>
<path d="M18.5658 46.411C18.3509 46.411 18.1336 46.3283 17.9683 46.163L14.1328 42.3299C13.9745 42.1716 13.8848 41.9567 13.8848 41.7323C13.8848 41.508 13.9745 41.293 14.1328 41.1348L20.6536 34.614C22.0399 33.2276 24.2954 33.2276 25.6818 34.614C27.0681 36.0003 27.0681 38.2558 25.6818 39.6422L19.1609 46.163C18.9956 46.3283 18.7807 46.411 18.5634 46.411H18.5658ZM15.9253 41.7323L18.5658 44.3728L24.4891 38.4495C25.2165 37.7221 25.2165 36.5365 24.4891 35.809C23.7829 35.1052 22.5548 35.1029 21.8486 35.809L15.9253 41.7323Z" fill="#1A2433"/>
<path d="M22.4061 49.4081L18.573 45.575L26.3574 37.7906C27.4154 36.7326 29.1324 36.7326 30.1905 37.7906C31.2486 38.8487 31.2486 40.5657 30.1905 41.6238L22.4061 49.4081Z" fill="#FFCB65"/>
<path d="M25.1197 52.1216L22.4155 49.4174L28.9364 42.8966C29.9944 41.8385 31.7114 41.8385 32.7695 42.8966C33.8276 43.9546 33.8276 45.6716 32.7695 46.7297L27.3776 52.1216C26.7541 52.7451 25.7409 52.7451 25.1174 52.1216H25.1197Z" fill="#FFCB65"/>
<path d="M14.7231 41.7255L12.0189 39.0212C11.3954 38.3977 11.3954 37.3845 12.0189 36.761L14.6192 34.1607C15.6773 33.1027 17.3943 33.1027 18.4523 34.1607C19.5104 35.2188 19.5104 36.9358 18.4523 37.9939L14.7231 41.7231V41.7255Z" fill="#FFCB65"/>
<path d="M18.5658 45.5679L14.7327 41.7348L21.2535 35.214C22.3116 34.1559 24.0286 34.1559 25.0866 35.214C26.1447 36.272 26.1447 37.989 25.0866 39.0471L18.5658 45.5679Z" fill="#FFCB65"/>
<path d="M22.4061 50.6032L17.3779 45.575L25.7598 37.1931C27.1462 35.8067 29.4017 35.8067 30.788 37.1931C32.1744 38.5794 32.1744 40.8349 30.788 42.2213L22.4061 50.6032ZM19.7657 45.575L22.4061 48.2154L29.5953 41.0262C30.3227 40.2988 30.3227 39.1132 29.5953 38.3858C28.8679 37.6584 27.6823 37.6584 26.9549 38.3858L19.7657 45.575Z" fill="#1A2433"/>
<path d="M26.2487 53.4323C25.5968 53.4323 24.9827 53.1772 24.5222 52.7167L21.2205 49.415L28.3388 42.2966C29.7252 40.9102 31.9806 40.9102 33.367 42.2966C34.7534 43.683 34.7534 45.9384 33.367 47.3248L27.9751 52.7167C27.5146 53.1772 26.9005 53.4323 26.2487 53.4323ZM23.6082 49.415L25.7149 51.5216C25.9983 51.8074 26.4966 51.8051 26.78 51.5216L32.172 46.1297C32.8994 45.4023 32.8994 44.2167 32.172 43.4893C31.4658 42.7855 30.2377 42.7831 29.5315 43.4893L23.6082 49.4126V49.415Z" fill="#1A2433"/>
<path d="M14.7232 42.9204L11.4214 39.6187C10.9609 39.1581 10.7058 38.5441 10.7058 37.8922C10.7058 37.2404 10.9609 36.6263 11.4214 36.1658L14.0217 33.5655C14.6925 32.8947 15.5852 32.5239 16.537 32.5239C17.4888 32.5239 18.3792 32.8947 19.0523 33.5655C19.723 34.2362 20.0938 35.1289 20.0938 36.0807C20.0938 37.0325 19.723 37.9229 19.0523 38.596L14.7255 42.9228L14.7232 42.9204ZM16.537 34.2126C16.0387 34.2126 15.5687 34.4062 15.2168 34.7582L12.6165 37.3584C12.4748 37.5002 12.3945 37.6891 12.3945 37.8922C12.3945 38.0953 12.4724 38.2819 12.6165 38.426L14.7232 40.5327L17.8572 37.3986C18.2091 37.0467 18.4052 36.5767 18.4052 36.0784C18.4052 35.58 18.2115 35.1101 17.8572 34.7582C17.5053 34.4062 17.0353 34.2102 16.537 34.2102V34.2126Z" fill="#1A2433"/>
<path d="M18.5658 46.7605L13.5376 41.7323L20.6559 34.614C22.0423 33.2276 24.2978 33.2276 25.6841 34.614C27.0705 36.0003 27.0705 38.2558 25.6841 39.6422L18.5658 46.7605ZM15.9253 41.7323L18.5658 44.3728L24.4891 38.4495C25.2165 37.7221 25.2165 36.5365 24.4891 35.809C23.7829 35.1052 22.5548 35.1029 21.8486 35.809L15.9253 41.7323Z" fill="#1A2433"/>
<path d="M47.6743 7.62621L42.1399 13.1606L54.7151 25.7359L60.2496 20.2014L47.6743 7.62621Z" fill="white"/>
<path d="M47.6743 7.62621L42.1399 13.1606L54.7151 25.7359L60.2496 20.2014L47.6743 7.62621Z" fill="white"/>
<path d="M54.7149 26.9289L40.9458 13.1598L47.6745 6.43115L61.4435 20.2002L54.7149 26.9289ZM43.3335 13.1598L54.7149 24.5411L59.0558 20.2002L47.6745 8.81889L43.3335 13.1598Z" fill="#1A2433"/>
<path d="M2.33105 20.2L14.9074 7.62598L20.441 13.1596L7.86703 25.7336L2.33105 20.2Z" fill="#FFCB65"/>
<path d="M2.33105 20.2L14.9074 7.62598L20.441 13.1596L7.86703 25.7336L2.33105 20.2Z" fill="#FFCB65"/>
<path d="M1.13843 20.2002L14.9075 6.43115L21.6362 13.1598L7.86709 26.9289L1.13843 20.2002Z" fill="#1A2433"/>
<path d="M14.9071 8.81951L3.52588 20.2007L7.86626 24.5411L19.2474 13.1599L14.9071 8.81951Z" fill="#1A2433"/>
<path d="M8.004 22.0187C8.56227 22.0187 9.01483 21.5662 9.01483 21.0079C9.01483 20.4496 8.56227 19.9971 8.004 19.9971C7.44573 19.9971 6.99316 20.4496 6.99316 21.0079C6.99316 21.5662 7.44573 22.0187 8.004 22.0187Z" fill="#1A2433"/>
<path d="M55.988 20.5216C55.988 19.9642 55.5345 19.5107 54.9771 19.5107C54.4198 19.5107 53.9663 19.9642 53.9663 20.5216C53.9663 21.079 54.4198 21.5324 54.9771 21.5324C55.5345 21.5324 55.988 21.079 55.988 20.5216Z" fill="#1A2433"/>
</g>
<defs>
<clipPath id="clip0_1042_1635">
<rect width="63" height="63" fill="white"/>
</clipPath>
</defs>
</svg>
