<?xml version="1.0" encoding="utf-8"?>
<svg width="55" height="60" viewBox="0 0 55 60" fill="none" xmlns="http://www.w3.org/2000/svg">
<path d="M4.04968 59.4C3.38002 59.4 2.72709 59.1799 2.15788 58.7565C1.20361 58.0284 0.734848 56.8261 0.952488 55.6238L10.5119 3.34994C10.6626 2.50326 11.1481 1.75818 11.868 1.28404C12.5879 0.792969 13.4584 0.640567 14.3123 0.826836C31.238 4.53528 45.8869 15.322 54.5255 30.4436C54.9608 31.2056 55.0612 32.137 54.8269 32.9667C54.5757 33.8134 54.0065 34.5077 53.2197 34.8971L5.45597 59.0613C5.00395 59.2815 4.51844 59.4 4.04968 59.4ZM12.839 3.79021L3.27957 56.0641C3.19586 56.5044 3.46372 56.7584 3.58091 56.843C3.69811 56.9277 4.01619 57.114 4.40125 56.9108L52.1482 32.7466C52.3491 32.645 52.483 32.4757 52.55 32.2724C52.617 32.0523 52.5835 31.8322 52.4663 31.629C44.1625 17.1 30.0828 6.71971 13.81 3.16367C13.5924 3.11287 13.358 3.16367 13.1738 3.2822C13.0064 3.40074 12.8725 3.58701 12.839 3.79021Z" fill="#2C2F35"/>
<path d="M44.5474 29.4833C44.1722 29.4833 43.7971 29.3187 43.5583 29.0059C37.1975 20.4453 28.3128 14.2553 17.8421 11.078C17.2112 10.8804 16.8531 10.2384 17.0577 9.61278C17.2623 9.00366 17.9274 8.65794 18.5754 8.8555C29.5406 12.181 38.8516 18.6838 45.5194 27.656C45.9116 28.1828 45.7923 28.9071 45.2466 29.2858C45.0419 29.434 44.7861 29.4998 44.5474 29.4998V29.4833Z" fill="#2C2F35"/>
<path d="M19.8751 24.9001C17.6589 24.9001 15.8501 23.0913 15.8501 20.8751C15.8501 18.6589 17.6589 16.8501 19.8751 16.8501C22.0913 16.8501 23.9001 18.6589 23.9001 20.8751C23.9001 23.0913 22.0913 24.9001 19.8751 24.9001ZM19.8751 19.1641C18.93 19.1641 18.1641 19.93 18.1641 20.8751C18.1641 21.8202 18.93 22.5861 19.8751 22.5861C20.8202 22.5861 21.5861 21.8202 21.5861 20.8751C21.5861 19.93 20.8202 19.1641 19.8751 19.1641Z" fill="#2C2F35"/>
<path d="M31.3751 34.0998C29.1589 34.0998 27.3501 32.291 27.3501 30.0748C27.3501 27.8586 29.1589 26.0498 31.3751 26.0498C33.5913 26.0498 35.4001 27.8586 35.4001 30.0748C35.4001 32.291 33.5913 34.0998 31.3751 34.0998ZM31.3751 28.3638C30.43 28.3638 29.6641 29.1297 29.6641 30.0748C29.6641 31.0199 30.43 31.7858 31.3751 31.7858C32.3202 31.7858 33.0861 31.0199 33.0861 30.0748C33.0861 29.1297 32.3202 28.3638 31.3751 28.3638Z" fill="#2C2F35"/>
<path d="M15.275 44.4499C13.0588 44.4499 11.25 42.6411 11.25 40.4249C11.25 38.2087 13.0588 36.3999 15.275 36.3999C17.4912 36.3999 19.3 38.2087 19.3 40.4249C19.3 42.6411 17.4912 44.4499 15.275 44.4499ZM15.275 38.7139C14.3299 38.7139 13.564 39.4798 13.564 40.4249C13.564 41.37 14.3299 42.1359 15.275 42.1359C16.2201 42.1359 16.986 41.37 16.986 40.4249C16.986 39.4798 16.2201 38.7139 15.275 38.7139Z" fill="#2C2F35"/>
<path d="M13.7406 29.5002C13.2472 29.5002 12.7918 29.2894 12.5451 28.9131C12.2035 28.3862 12.4882 27.7388 13.1523 27.4678C13.2852 27.4076 14.5756 26.9259 16.1507 27.4227C16.8338 27.6334 17.1754 28.2657 16.9097 28.8077C16.6441 29.3497 15.847 29.6206 15.1639 29.4099C14.7084 29.2593 14.3669 29.3647 14.3289 29.3798C14.1391 29.455 13.9304 29.5002 13.7406 29.5002Z" fill="#2C2F35"/>
<path d="M25.2014 40.9999C24.8914 40.9999 24.5815 40.8094 24.3842 40.4475C24.3138 40.3142 23.708 39.1713 23.9616 37.476C24.0743 36.7521 24.5956 36.2759 25.145 36.4283C25.6804 36.5807 26.0326 37.2855 25.9199 38.0284C25.8495 38.5046 25.9903 38.8284 26.0044 38.8665C26.3285 39.457 26.2439 40.2951 25.7931 40.7332C25.624 40.9047 25.4127 40.9999 25.2014 40.9999Z" fill="#2C2F35"/>
<path d="M9.08256 50.1849C9.08256 50.1849 9.02843 50.1849 9.01039 50.1849C8.30671 50.1546 7.76542 49.6555 7.80151 49.0657C7.80151 48.9447 7.90977 47.8104 9.19081 46.9786C9.75014 46.6156 10.544 46.6913 10.9771 47.1601C11.4101 47.6289 11.3199 48.2944 10.7605 48.6574C10.3997 48.8993 10.3456 49.1867 10.3456 49.1867C10.3095 49.7614 9.75014 50.2 9.06451 50.2L9.08256 50.1849Z" fill="#2C2F35"/>
</svg>
