<?xml version="1.0" encoding="utf-8"?>
<svg width="51" height="57" viewBox="0 0 51 57" fill="none" xmlns="http://www.w3.org/2000/svg">
<path d="M50.7034 29.0235C50.4708 27.4615 49.7212 26.2552 48.5322 25.5523C46.7142 24.4676 44.2415 24.7626 42.6906 25.1184C42.7078 24.32 42.7078 23.5651 42.7078 22.8361V22.1853C42.7078 19.4083 38.5722 17.8463 35.1 17.0306C34.5485 16.9004 33.9885 17.2475 33.8593 17.8029C33.73 18.367 34.0747 18.9224 34.6261 19.0525C39.3735 20.172 40.6314 21.5865 40.6314 22.1853C40.6314 23.6866 34.6347 26.4895 23.1755 26.4895C11.7163 26.4895 5.71967 23.6866 5.71967 22.1853C5.71967 21.5952 6.97759 20.1807 11.725 19.0525C12.285 18.9224 12.6296 18.3583 12.4918 17.8029C12.3625 17.2389 11.8025 16.8917 11.2511 17.0306C7.78749 17.8463 3.65184 19.4083 3.65184 22.1853V22.8361C3.63461 28.3032 3.60877 35.7923 13.8789 44.826C13.9565 44.8954 14.0426 44.9475 14.1374 44.9909C14.3097 45.069 18.4109 46.9 23.1755 46.9C27.9401 46.9 32.0499 45.069 32.2136 44.9909C32.3084 44.9475 32.3946 44.8954 32.4721 44.826C34.1005 43.3941 35.4704 41.997 36.625 40.6345C37.073 40.6606 37.5124 40.6779 37.9518 40.6779C42.2167 40.6779 45.8096 39.3155 48.1875 36.7642C50.1951 34.6121 51.117 31.7831 50.7034 29.0148V29.0235ZM31.24 43.1511C30.5249 43.4549 27.0355 44.8173 23.1755 44.8173C19.3156 44.8173 15.8348 43.4462 15.111 43.1511C7.02928 35.9919 5.88337 30.1169 5.7369 25.2312C9.13157 27.4354 16.188 28.5722 23.1755 28.5722C30.163 28.5722 37.2195 27.4354 40.6141 25.2312C40.6055 25.6217 40.5797 26.0209 40.5538 26.4201C40.5538 26.4461 40.5538 26.4635 40.5538 26.4895C40.2954 30.0648 39.2873 34.1435 35.436 38.8382C35.4015 38.8729 35.3671 38.9163 35.3326 38.9597C34.2125 40.3048 32.8684 41.7019 31.24 43.1511ZM46.6884 35.3497C44.7498 37.4237 41.7945 38.5432 38.2362 38.5952C41.2603 34.3691 42.2512 30.5768 42.57 27.2879C43.8537 26.9234 46.1283 26.5329 47.4897 27.34C48.1445 27.7305 48.5322 28.3813 48.67 29.3272C48.9888 31.462 48.2651 33.6575 46.6884 35.341V35.3497Z" fill="#333333"/>
<path d="M45.1785 45.0964C44.6213 45.0964 44.1653 45.5425 44.1653 46.0877C44.1653 49.9621 35.7387 54.1173 23.1918 54.1173C10.6448 54.1173 2.22663 49.9621 2.22663 46.0877C2.22663 45.0056 2.85144 43.9234 4.09263 42.8908C4.51481 42.5356 4.56547 41.9077 4.2024 41.4947C3.83933 41.0817 3.19763 41.0321 2.77545 41.3873C1.0952 42.7999 0.200195 44.4273 0.200195 46.0877C0.200195 51.6969 10.2986 56.0999 23.2002 56.0999C36.1018 56.0999 46.2002 51.7051 46.2002 46.0877C46.2002 45.5425 45.7442 45.0964 45.187 45.0964H45.1785Z" fill="#333333"/>
<path d="M17.977 11.0404C17.977 11.0404 17.969 11.0489 17.9609 11.0575C17.9609 11.0575 17.9528 11.0575 17.9447 11.0661C16.852 12.1233 16.2692 13.5587 16.3016 15.1144C16.3339 16.6529 16.9734 18.1656 17.977 19.0594C18.1632 19.2227 18.3818 19.3001 18.6003 19.3001C18.8755 19.3001 19.1507 19.1712 19.3449 18.9305C19.693 18.4922 19.6363 17.8476 19.2235 17.478C18.6489 16.9623 18.2603 16.0168 18.2442 15.0714C18.228 14.3924 18.3979 13.4212 19.2559 12.5874C19.2559 12.5874 19.264 12.5788 19.2721 12.5703C20.2515 11.6678 20.8747 10.1809 20.899 8.66814C20.9314 7.11246 20.3486 5.6771 19.2559 4.61992C18.8593 4.23315 18.2442 4.26753 17.8799 4.68868C17.5157 5.10984 17.5481 5.76305 17.9447 6.14982C18.8026 6.98353 18.9645 7.96336 18.9564 8.63376C18.9402 9.57921 18.5517 10.5247 17.977 11.0404Z" fill="#333333"/>
<path d="M27.1768 7.59016C27.1768 7.59016 27.1687 7.59875 27.1606 7.60735C27.1606 7.60735 27.1525 7.60735 27.1444 7.61594C26.0517 8.67312 25.4689 10.1085 25.5013 11.6642C25.5337 13.2027 26.1731 14.7154 27.1768 15.6092C27.3548 15.7725 27.5815 15.8499 27.8 15.8499C28.0752 15.8499 28.3504 15.721 28.5447 15.4803C28.8927 15.042 28.836 14.3974 28.4232 14.0278C27.8486 13.5121 27.46 12.5666 27.4439 11.6212C27.4277 10.9422 27.5976 9.97096 28.4556 9.13725C28.4556 9.13725 28.4637 9.12865 28.4718 9.12006C29.4512 8.21759 30.0744 6.73066 30.0987 5.21795C30.1311 3.66226 29.5483 2.22691 28.4556 1.16973C28.059 0.782955 27.4439 0.817335 27.0796 1.23849C26.7154 1.65964 26.7478 2.31286 27.1444 2.69963C28.0024 3.53334 28.1642 4.51316 28.1561 5.18357C28.14 6.12901 27.7514 7.07446 27.1768 7.59016Z" fill="#333333"/>
</svg>
