<?xml version="1.0" encoding="utf-8"?>
<svg width="63" height="63" viewBox="0 0 63 63" fill="none" xmlns="http://www.w3.org/2000/svg">
<path d="M51.1298 2.50928H38.8474C36.941 2.50928 35.3955 4.05473 35.3955 5.96115V9.0429C35.3955 10.9493 36.941 12.4948 38.8474 12.4948H51.1298C53.0362 12.4948 54.5816 10.9493 54.5816 9.0429V5.96115C54.5816 4.05473 53.0362 2.50928 51.1298 2.50928Z" fill="#FFCB65"/>
<path d="M51.9592 9.0429V5.96115C51.9592 5.50448 51.589 5.13428 51.1324 5.13428L38.85 5.13428C38.3933 5.13428 38.0231 5.50448 38.0231 5.96115V9.0429C38.0231 9.49957 38.3933 9.86978 38.85 9.86978H51.1324C51.589 9.86978 51.9592 9.49957 51.9592 9.0429Z" fill="white"/>
<path d="M56.5503 22.2181V24.4625H6.44434V22.2181C6.44434 18.9316 9.10871 16.2725 12.39 16.2725H50.6047C53.8912 16.2725 56.5503 18.929 56.5503 22.2181Z" fill="#FFCB65"/>
<path d="M56.5503 24.4624H6.44434V43.0737H56.5503V24.4624Z" fill="#FFCB65"/>
<path d="M53.9253 27.0874H9.06934V40.4487H53.9253V27.0874Z" fill="white"/>
<path d="M40.2989 28.1401H39.6926C38.9891 28.1401 38.4194 28.7098 38.4194 29.4133C38.4194 30.1168 38.9891 30.6864 39.6926 30.6864H40.2989C41.0024 30.6864 41.5721 30.1168 41.5721 29.4133C41.5721 28.7098 41.0024 28.1401 40.2989 28.1401Z" fill="#1A2433"/>
<path d="M45.0712 28.1401H44.4648C43.7613 28.1401 43.1917 28.7098 43.1917 29.4133C43.1917 30.1168 43.7613 30.6864 44.4648 30.6864H45.0712C45.7747 30.6864 46.3443 30.1168 46.3443 29.4133C46.3443 28.7098 45.7747 28.1401 45.0712 28.1401Z" fill="#1A2433"/>
<path d="M35.7262 28.1401H35.1198C34.4163 28.1401 33.8467 28.7098 33.8467 29.4133C33.8467 30.1168 34.4163 30.6864 35.1198 30.6864H35.7262C36.4297 30.6864 36.9993 30.1168 36.9993 29.4133C36.9993 28.7098 36.4297 28.1401 35.7262 28.1401Z" fill="#1A2433"/>
<path d="M49.8436 28.1401H49.2372C48.5337 28.1401 47.9641 28.7098 47.9641 29.4133C47.9641 30.1168 48.5337 30.6864 49.2372 30.6864H49.8436C50.5471 30.6864 51.1167 30.1168 51.1167 29.4133C51.1167 28.7098 50.5471 28.1401 49.8436 28.1401Z" fill="#1A2433"/>
<path d="M40.2989 32.4766H39.6926C38.9891 32.4766 38.4194 33.0462 38.4194 33.7497C38.4194 34.4532 38.9891 35.0228 39.6926 35.0228H40.2989C41.0024 35.0228 41.5721 34.4532 41.5721 33.7497C41.5721 33.0462 41.0024 32.4766 40.2989 32.4766Z" fill="#1A2433"/>
<path d="M45.0712 32.4766H44.4648C43.7613 32.4766 43.1917 33.0462 43.1917 33.7497C43.1917 34.4532 43.7613 35.0228 44.4648 35.0228H45.0712C45.7747 35.0228 46.3443 34.4532 46.3443 33.7497C46.3443 33.0462 45.7747 32.4766 45.0712 32.4766Z" fill="#1A2433"/>
<path d="M49.8436 32.4766H49.2372C48.5337 32.4766 47.9641 33.0462 47.9641 33.7497C47.9641 34.4532 48.5337 35.0228 49.2372 35.0228H49.8436C50.5471 35.0228 51.1167 34.4532 51.1167 33.7497C51.1167 33.0462 50.5471 32.4766 49.8436 32.4766Z" fill="#1A2433"/>
<path d="M40.2989 36.813H39.6926C38.9891 36.813 38.4194 37.3826 38.4194 38.0861C38.4194 38.7896 38.9891 39.3592 39.6926 39.3592H40.2989C41.0024 39.3592 41.5721 38.7896 41.5721 38.0861C41.5721 37.3826 41.0024 36.813 40.2989 36.813Z" fill="#1A2433"/>
<path d="M45.0712 36.813H44.4648C43.7613 36.813 43.1917 37.3826 43.1917 38.0861C43.1917 38.7896 43.7613 39.3592 44.4648 39.3592H45.0712C45.7747 39.3592 46.3443 38.7896 46.3443 38.0861C46.3443 37.3826 45.7747 36.813 45.0712 36.813Z" fill="#1A2433"/>
<path d="M49.8436 36.813H49.2372C48.5337 36.813 47.9641 37.3826 47.9641 38.0861C47.9641 38.7896 48.5337 39.3592 49.2372 39.3592H49.8436C50.5471 39.3592 51.1167 38.7896 51.1167 38.0861C51.1167 37.3826 50.5471 36.813 49.8436 36.813Z" fill="#1A2433"/>
<path d="M35.671 36.813H35.0646C34.3611 36.813 33.7915 37.3826 33.7915 38.0861C33.7915 38.7896 34.3611 39.3592 35.0646 39.3592H35.671C36.3745 39.3592 36.9441 38.7896 36.9441 38.0861C36.9441 37.3826 36.3745 36.813 35.671 36.813Z" fill="#1A2433"/>
<path d="M35.671 32.7549H35.0646C34.3611 32.7549 33.7915 33.3245 33.7915 34.028C33.7915 34.7315 34.3611 35.3011 35.0646 35.3011H35.671C36.3745 35.3011 36.9441 34.7315 36.9441 34.028C36.9441 33.3245 36.3745 32.7549 35.671 32.7549Z" fill="#1A2433"/>
<path d="M60.4485 43.0737H3.16577V55.1671H60.4485V43.0737Z" fill="#FFCB65"/>
<path d="M57.8235 52.5421V45.6987H5.79073V52.5421H57.8235Z" fill="white"/>
<path d="M61.3018 56.0203H2.31274V42.2207H61.3018V56.0203ZM4.01899 54.3141H59.5955V43.927H4.01899V54.3141Z" fill="#1A2433"/>
<path d="M51.1297 13.3483H38.8499C36.4743 13.3483 34.5449 11.4163 34.5449 9.0433V5.96418C34.5449 3.58855 36.4769 1.65918 38.8499 1.65918H51.1297C53.5053 1.65918 55.4347 3.59118 55.4347 5.96418V9.0433C55.4347 11.4189 53.5027 13.3483 51.1297 13.3483ZM38.8499 3.3628C37.4167 3.3628 36.2512 4.5283 36.2512 5.96155V9.04068C36.2512 10.4739 37.4167 11.6394 38.8499 11.6394H51.1297C52.5629 11.6394 53.7284 10.4739 53.7284 9.04068V5.96155C53.7284 4.5283 52.5629 3.3628 51.1297 3.3628H38.8499Z" fill="#1A2433"/>
<path d="M57.4061 43.9266H5.59644V22.2153C5.59644 18.4668 8.64669 15.4165 12.3952 15.4165H50.6099C54.3584 15.4165 57.4087 18.4668 57.4087 22.2153V43.9266H57.4061ZM7.30269 42.2204H55.6998V22.2126C55.6998 19.4039 53.4161 17.1201 50.6073 17.1201H12.3926C9.58381 17.1201 7.30006 19.4039 7.30006 22.2126V42.2204H7.30269Z" fill="#1A2433"/>
<path d="M30.8437 8.48161V10.243H26.4915V8.48161C26.4915 7.27149 27.468 6.28449 28.6702 6.26611C29.8803 6.28974 30.8437 7.27411 30.8437 8.48161Z" fill="#FFCB65"/>
<path d="M28.1951 21.7822H12.4163C11.8676 21.7822 11.4214 21.336 11.4214 20.7874C11.4214 20.2387 11.8676 19.7925 12.4163 19.7925H28.1951C28.7438 19.7925 29.19 20.2387 29.19 20.7874C29.19 21.336 28.7438 21.7822 28.1951 21.7822Z" fill="#1A2433"/>
<path d="M26.4916 6.26611V20.7902H14.3562V8.54199C14.3562 7.28724 15.3747 6.26874 16.6295 6.26874H26.4916V6.26611Z" fill="white"/>
<path d="M23.0527 11.1013H20.1783C19.7058 11.1013 19.3252 10.7206 19.3252 10.2481C19.3252 9.77564 19.7058 9.39502 20.1783 9.39502H23.0527C23.5252 9.39502 23.9058 9.77564 23.9058 10.2481C23.9058 10.7206 23.5252 11.1013 23.0527 11.1013ZM17.5533 11.1013C17.0808 11.1013 16.7002 10.7206 16.7002 10.2481C16.7002 9.77564 17.0808 9.39502 17.5533 9.39502C18.0258 9.39502 18.4064 9.77564 18.4064 10.2481C18.4064 10.7206 18.0258 11.1013 17.5533 11.1013Z" fill="#1A2433"/>
<path d="M23.0527 14.3615H20.1783C19.7058 14.3615 19.3252 13.9809 19.3252 13.5084C19.3252 13.0359 19.7058 12.6553 20.1783 12.6553H23.0527C23.5252 12.6553 23.9058 13.0359 23.9058 13.5084C23.9058 13.9809 23.5252 14.3615 23.0527 14.3615ZM17.5533 14.3615C17.0808 14.3615 16.7002 13.9809 16.7002 13.5084C16.7002 13.0359 17.0808 12.6553 17.5533 12.6553C18.0258 12.6553 18.4064 13.0359 18.4064 13.5084C18.4064 13.9809 18.0258 14.3615 17.5533 14.3615Z" fill="#1A2433"/>
<path d="M23.0527 17.6242H20.1783C19.7058 17.6242 19.3252 17.2436 19.3252 16.7711C19.3252 16.2986 19.7058 15.918 20.1783 15.918H23.0527C23.5252 15.918 23.9058 16.3065 23.9058 16.7711C23.9058 17.2357 23.5252 17.6242 23.0527 17.6242ZM17.5533 17.6242C17.0808 17.6242 16.7002 17.2436 16.7002 16.7711C16.7002 16.2986 17.0808 15.918 17.5533 15.918C18.0258 15.918 18.4064 16.3065 18.4064 16.7711C18.4064 17.2357 18.0258 17.6242 17.5533 17.6242Z" fill="#1A2433"/>
<path d="M26.3864 21.6407H13.5029V8.48415C13.5029 6.79365 14.8784 5.41553 16.5716 5.41553H27.7121C28.1819 5.41553 28.5652 5.79615 28.5652 6.26865C28.5652 6.74115 28.1819 7.12178 27.7121 7.12178H16.5716C15.8208 7.12178 15.2092 7.7334 15.2092 8.48415V19.9344H26.3864C26.8563 19.9344 27.2396 20.3177 27.2396 20.7875C27.2396 21.2574 26.8563 21.6407 26.3864 21.6407Z" fill="#1A2433"/>
<path d="M26.4916 21.643C26.0217 21.643 25.6384 21.2597 25.6384 20.7898V10.2452C25.6384 9.77534 26.0217 9.39209 26.4916 9.39209C26.9614 9.39209 27.3447 9.77534 27.3447 10.2452V20.7898C27.3447 21.2597 26.9614 21.643 26.4916 21.643Z" fill="#1A2433"/>
<path d="M28.707 7.11885H28.6703C28.2004 7.11885 27.8171 6.7356 27.8171 6.26572C27.8171 5.79585 28.2004 5.4126 28.6703 5.4126C29.1401 5.4126 29.5418 5.79585 29.5418 6.26572C29.5418 6.7356 29.1769 7.11885 28.707 7.11885Z" fill="#1A2433"/>
<path d="M31.6969 11.0957H25.6384V8.48122C25.6384 6.81435 26.9929 5.43885 28.6572 5.4126C30.3739 5.44672 31.6969 6.79335 31.6969 8.48122V11.0957ZM27.3447 9.38947H29.9907V8.48122C29.9907 7.7331 29.4027 7.1346 28.6546 7.11885C27.9458 7.12935 27.3447 7.74097 27.3447 8.48122V9.38947Z" fill="#1A2433"/>
<path d="M28.6702 7.11885H27.3446C26.8747 7.11885 26.4915 6.7356 26.4915 6.26572C26.4915 5.79585 26.8747 5.4126 27.3446 5.4126H28.6282C29.0981 5.4126 29.5023 5.79585 29.5023 6.26572C29.5023 6.7356 29.1427 7.11885 28.6702 7.11885Z" fill="#1A2433"/>
<path d="M44.9898 17.1231C44.52 17.1231 44.1367 16.7398 44.1367 16.27V12.4952C44.1367 12.0253 44.52 11.6421 44.9898 11.6421C45.4597 11.6421 45.843 12.0253 45.843 12.4952V16.27C45.843 16.7398 45.4597 17.1231 44.9898 17.1231Z" fill="#1A2433"/>
<path d="M32.3016 51.225C33.4614 50.9512 34.1797 49.7891 33.906 48.6292C33.6322 47.4694 32.4701 46.7511 31.3103 47.0249C30.1504 47.2986 29.4321 48.4607 29.7059 49.6206C29.9796 50.7804 31.1417 51.4987 32.3016 51.225Z" fill="#FFCB65"/>
<path d="M31.8071 52.1298C30.1481 52.1298 28.7988 50.7805 28.7988 49.1215C28.7988 47.4625 30.1481 46.1133 31.8071 46.1133C33.4661 46.1133 34.8153 47.4625 34.8153 49.1215C34.8153 50.7805 33.4661 52.1298 31.8071 52.1298ZM31.8071 47.8169C31.0878 47.8169 30.5025 48.4023 30.5025 49.1215C30.5025 49.8408 31.0878 50.4262 31.8071 50.4262C32.5263 50.4262 33.1117 49.8408 33.1117 49.1215C33.1117 48.4023 32.5263 47.8169 31.8071 47.8169Z" fill="#1A2433"/>
<path d="M56.5529 25.3127H6.44956C5.97969 25.3127 5.59644 24.9321 5.59644 24.4596C5.59644 23.9871 5.97969 23.6064 6.44956 23.6064H56.5529C57.0228 23.6064 57.4061 23.9897 57.4061 24.4596C57.4061 24.9294 57.0228 25.3127 56.5529 25.3127Z" fill="#1A2433"/>
<path d="M28.0034 29.4131H11.9673V38.0887H28.0034V29.4131Z" fill="white"/>
<path d="M11.9673 38.0861H28.0008V29.4131L11.9673 38.0861Z" fill="#FFCB65"/>
<path d="M28.854 38.9395H11.1143V28.5576H28.854V38.9395ZM12.8179 37.2332H27.1478V30.2639H12.8179V37.2332Z" fill="#1A2433"/>
<path d="M12.2429 55.167H7.42603V57.5767C7.42603 58.9076 8.5049 59.9865 9.83578 59.9865C11.1667 59.9865 12.2455 58.9076 12.2455 57.5767V55.167H12.2429Z" fill="#1A2433"/>
<path d="M56.1907 55.167H51.3738V57.5767C51.3738 58.9076 52.4527 59.9865 53.7835 59.9865C55.1144 59.9865 56.1933 58.9076 56.1933 57.5767V55.167H56.1907Z" fill="#1A2433"/>
<path d="M21.454 55.167H17.6189V56.5792C17.6189 57.6397 18.4773 58.4981 19.5378 58.4981C20.5983 58.4981 21.4566 57.6397 21.4566 56.5792V55.167H21.454Z" fill="#1A2433"/>
<path d="M45.998 55.167H42.1628V56.5792C42.1628 57.6397 43.0212 58.4981 44.0817 58.4981C45.1422 58.4981 46.0006 57.6397 46.0006 56.5792V55.167H45.998Z" fill="#1A2433"/>
<path d="M49.6729 21.2572H40.1415C39.6533 21.2572 39.2595 20.8608 39.2595 20.3752C39.2595 19.8895 39.6559 19.4932 40.1415 19.4932H49.6729C50.1611 19.4932 50.5549 19.8895 50.5549 20.3752C50.5549 20.8608 50.1585 21.2572 49.6729 21.2572ZM36.8603 21.2572H35.5478C35.0595 21.2572 34.6658 20.8608 34.6658 20.3752C34.6658 19.8895 35.0621 19.4932 35.5478 19.4932H36.8603C37.3485 19.4932 37.7423 19.8895 37.7423 20.3752C37.7423 20.8608 37.3459 21.2572 36.8603 21.2572Z" fill="white"/>
<path d="M11.4608 50.723C10.9909 50.723 10.6077 50.3398 10.6077 49.8699V48.3736C10.6077 47.9038 10.9909 47.5205 11.4608 47.5205C11.9307 47.5205 12.3139 47.9038 12.3139 48.3736V49.8699C12.3139 50.3398 11.9333 50.723 11.4608 50.723Z" fill="#1A2433"/>
<path d="M15.401 50.723C14.9311 50.723 14.5479 50.3398 14.5479 49.8699V48.3736C14.5479 47.9038 14.9311 47.5205 15.401 47.5205C15.8709 47.5205 16.2541 47.9038 16.2541 48.3736V49.8699C16.2541 50.3398 15.8709 50.723 15.401 50.723Z" fill="#1A2433"/>
<path d="M19.3385 50.723C18.8686 50.723 18.4854 50.3398 18.4854 49.8699V48.3736C18.4854 47.9038 18.866 47.5205 19.3385 47.5205C19.811 47.5205 20.1916 47.9038 20.1916 48.3736V49.8699C20.1916 50.3398 19.8084 50.723 19.3385 50.723Z" fill="#1A2433"/>
<path d="M23.276 50.723C22.8061 50.723 22.4229 50.3398 22.4229 49.8699V48.3736C22.4229 47.9038 22.8061 47.5205 23.276 47.5205C23.7459 47.5205 24.1291 47.9038 24.1291 48.3736V49.8699C24.1291 50.3398 23.7459 50.723 23.276 50.723Z" fill="#1A2433"/>
<path d="M40.089 50.723C39.6191 50.723 39.2358 50.3398 39.2358 49.8699V48.3736C39.2358 47.9038 39.6165 47.5205 40.089 47.5205C40.5615 47.5205 40.9421 47.9038 40.9421 48.3736V49.8699C40.9421 50.3398 40.5588 50.723 40.089 50.723Z" fill="#1A2433"/>
<path d="M44.0291 50.723C43.5593 50.723 43.176 50.3398 43.176 49.8699V48.3736C43.176 47.9038 43.5593 47.5205 44.0291 47.5205C44.499 47.5205 44.8823 47.9038 44.8823 48.3736V49.8699C44.8823 50.3398 44.499 50.723 44.0291 50.723Z" fill="#1A2433"/>
<path d="M47.9666 50.723C47.4968 50.723 47.1135 50.3398 47.1135 49.8699V48.3736C47.1135 47.9038 47.4968 47.5205 47.9666 47.5205C48.4365 47.5205 48.8198 47.9038 48.8198 48.3736V49.8699C48.8198 50.3398 48.4391 50.723 47.9666 50.723Z" fill="#1A2433"/>
<path d="M51.9041 50.723C51.4343 50.723 51.051 50.3398 51.051 49.8699V48.3736C51.051 47.9038 51.4343 47.5205 51.9041 47.5205C52.374 47.5205 52.7573 47.9038 52.7573 48.3736V49.8699C52.7573 50.3398 52.374 50.723 51.9041 50.723Z" fill="#1A2433"/>
</svg>
