<?xml version="1.0" encoding="utf-8"?>
<svg width="68" height="52" viewBox="0 0 68 52" fill="none" xmlns="http://www.w3.org/2000/svg">
<path d="M26.405 8.29138C26.405 6.36523 24.8347 4.79492 22.9086 4.79492C20.9824 4.79492 19.4121 6.36523 19.4121 8.29138C19.4121 10.2175 20.9824 11.7878 22.9086 11.7878C24.8347 11.7878 26.405 10.2175 26.405 8.29138ZM21.2686 8.29138C21.2686 7.38632 22.0035 6.65145 22.9086 6.65145C23.8136 6.65145 24.5485 7.38632 24.5485 8.29138C24.5485 9.19643 23.8136 9.93131 22.9086 9.93131C22.0035 9.93131 21.2686 9.19643 21.2686 8.29138Z" fill="#333333"/>
<path d="M22.9078 24.0024C23.1554 24.0024 23.3874 23.9018 23.5654 23.7316C31.2622 16.0348 31.0147 8.56229 30.9992 8.29155C30.9992 3.82815 27.3712 0.200195 22.9078 0.200195C18.4444 0.200195 14.8165 3.82815 14.8165 8.25287C14.801 8.57003 14.5535 16.0348 22.2503 23.7316C22.4205 23.9018 22.6603 24.0024 22.9078 24.0024ZM16.673 8.29155C16.673 4.85698 19.4733 2.05672 22.9078 2.05672C26.3424 2.05672 29.1427 4.85698 29.1427 8.33023C29.1427 8.39985 29.3206 14.8977 22.9078 21.7359C16.4951 14.8899 16.673 8.39211 16.673 8.28381V8.29155Z" fill="#333333"/>
<path d="M30.5195 21.7591C30.8908 22.1149 31.4787 22.0995 31.8345 21.7282L41.2332 11.904L50.3688 21.7204C50.5545 21.9138 50.802 22.0144 51.0495 22.0144C51.2739 22.0144 51.5059 21.9293 51.6838 21.7668C52.0629 21.4187 52.0784 20.8308 51.7303 20.4518L47.4061 15.8105V10.5503C47.4061 10.0398 46.9884 9.62207 46.4778 9.62207C45.9673 9.62207 45.5496 10.0398 45.5496 10.5503V13.8147L41.9216 9.91602C41.7514 9.73037 41.5039 9.62207 41.2486 9.62207C40.9934 9.62207 40.7536 9.72263 40.5756 9.90828L30.4963 20.4441C30.1404 20.8154 30.1559 21.4033 30.5272 21.7591H30.5195Z" fill="#333333"/>
<path d="M67.2887 30.8177L61.9589 23.6314C61.781 23.3916 61.5103 23.2523 61.2163 23.2523H49.6208V21.2643C49.6208 20.7538 49.203 20.336 48.6925 20.336C48.182 20.336 47.7642 20.7538 47.7642 21.2643V22.2158H38.5822C38.0716 22.2158 37.6539 22.6335 37.6539 23.144C37.6539 23.6546 38.0716 24.0723 38.5822 24.0723H47.7642V28.0638H38.5822C38.0716 28.0638 37.6539 28.4816 37.6539 28.9921C37.6539 29.5026 38.0716 29.9204 38.5822 29.9204H47.7642V34.113H38.5822C38.0716 34.113 37.6539 34.5307 37.6539 35.0413C37.6539 35.5518 38.0716 35.9695 38.5822 35.9695H47.7642V49.8084H34.4359V21.272C34.4359 20.7615 34.0182 20.3438 33.5077 20.3438C32.9971 20.3438 32.5794 20.7615 32.5794 21.272V28.528H21.3629L11.8327 18.2861C11.6548 18.1005 11.415 17.9922 11.1598 17.9922C10.9122 17.9922 10.657 18.0927 10.479 18.2784L6.08526 22.8733V19.6089C6.08526 19.0984 5.66754 18.6806 5.157 18.6806C4.64645 18.6806 4.22873 19.0984 4.22873 19.6089V24.8149L0.407386 28.8142C0.0515521 29.1855 0.0670232 29.7734 0.438328 30.1292C0.809633 30.4851 1.39753 30.4696 1.75337 30.0983L2.70484 29.1004C2.65842 29.2087 2.63522 29.3325 2.63522 29.4562V50.7366C2.63522 51.2472 3.05293 51.6649 3.56348 51.6649H63.8851C64.3956 51.6649 64.8133 51.2472 64.8133 50.7366V31.3669C64.8133 30.8564 64.3956 30.4386 63.8851 30.4386H49.6285V25.1089H60.7522L65.8035 31.9161C65.9891 32.1637 66.2676 32.2952 66.5461 32.2952C66.7395 32.2952 66.9329 32.2333 67.0953 32.1095C67.5053 31.8078 67.5904 31.2199 67.2887 30.8099V30.8177ZM32.5794 35.4358H19.6843V29.4562C19.6843 29.4562 19.6843 29.4485 19.6843 29.4408L20.2877 30.0828C20.2877 30.0828 20.2954 30.0828 20.3031 30.0905C20.3341 30.1215 20.365 30.1447 20.396 30.1756C20.4114 30.1911 20.4269 30.2066 20.4424 30.2143C20.4811 30.2375 20.5275 30.2607 20.5662 30.2839C20.5816 30.2839 20.5894 30.2994 20.6048 30.3071C20.659 30.3303 20.7209 30.3458 20.7827 30.3613C20.8292 30.369 20.8833 30.3768 20.9297 30.3768C20.9452 30.3768 20.9529 30.3768 20.9684 30.3768H32.5871V35.428L32.5794 35.4358ZM3.56348 28.528C3.4165 28.528 3.285 28.5666 3.16123 28.6208L11.152 20.2742L18.8411 28.5357C18.8411 28.5357 18.787 28.528 18.756 28.528C18.2455 28.528 17.8278 28.9457 17.8278 29.4562V32.1559H8.95514C8.44459 32.1559 8.02687 32.5736 8.02687 33.0842C8.02687 33.5947 8.44459 34.0124 8.95514 34.0124H17.8278V38.0117H8.95514C8.44459 38.0117 8.02687 38.4294 8.02687 38.94C8.02687 39.4505 8.44459 39.8682 8.95514 39.8682H17.8278V49.8161H4.49174V29.4562C4.49174 28.9457 4.07402 28.528 3.56348 28.528ZM19.692 37.2923H32.5871V49.8161H19.692V37.2923ZM62.9568 32.3029V49.8161H49.6285V32.3029H62.9568Z" fill="#333333"/>
</svg>
