<?xml version="1.0" encoding="utf-8"?>
<svg width="63" height="63" viewBox="0 0 63 63" fill="none" xmlns="http://www.w3.org/2000/svg">
<path d="M47.5452 37.4098L44.323 40.632L39.8474 36.1465C40.4905 35.7002 41.0877 35.1949 41.6619 34.6174C42.1902 34.0891 42.6758 33.5346 43.0926 32.9473L47.5485 37.4098H47.5452Z" fill="white"/>
<path d="M29.7117 44.4082H23.2837V59.3412H29.7117V44.4082Z" fill="#FFCB65"/>
<path d="M48.6835 36.2701L43.1963 41.7573L51.2497 49.8107L56.7369 44.3235L48.6835 36.2701Z" fill="#FFCB65"/>
<path d="M48.6777 40.1819L47.1072 41.7529L51.2471 45.8914L52.8176 44.3204L48.6777 40.1819Z" fill="white"/>
<path d="M61.0738 50.2784C61.0738 51.2726 60.6965 52.2701 59.9483 53.0248C58.439 54.5276 55.9715 54.5276 54.4621 53.0248L51.2498 49.8124L56.736 44.3262L59.9483 47.5385C60.6965 48.2932 61.0738 49.2907 61.0738 50.2784Z" fill="white"/>
<path d="M42.3313 15.3758C42.1246 15.1297 41.8982 14.8869 41.6652 14.6539C36.1527 9.14141 27.2113 9.14141 21.6988 14.6539C16.1863 20.1598 16.1863 29.1012 21.6988 34.6138C26.6207 39.5356 34.2726 40.0672 39.7785 36.192C39.7982 36.1789 39.8277 36.1592 39.854 36.1428C40.4938 35.6966 41.091 35.188 41.6652 34.6105C42.1935 34.0822 42.6824 33.5309 43.0926 32.9436C43.1484 32.8681 43.1943 32.7992 43.2435 32.7238C46.9316 27.477 46.6298 20.2944 42.3313 15.3725V15.3758ZM39.8605 30.358C39.539 30.8305 39.1616 31.2702 38.7416 31.6902C38.3216 32.1167 37.8754 32.4809 37.4095 32.8091C33.5179 35.5489 28.1071 35.1716 24.6257 31.6902C20.7341 27.7953 20.7341 21.4789 24.6257 17.5808C28.5271 13.6794 34.8435 13.6794 38.7416 17.5808C38.9057 17.7448 39.0632 17.9187 39.2141 18.0894C42.2493 21.5642 42.4626 26.6502 39.8605 30.358Z" fill="#FFCB65"/>
<path d="M8.37992 32.23C9.8561 30.7538 9.8561 28.3604 8.37992 26.8843C6.90374 25.4081 4.51037 25.4081 3.03419 26.8843C1.55801 28.3604 1.55801 30.7538 3.03419 32.23C4.51037 33.7062 6.90374 33.7062 8.37992 32.23Z" fill="#FFCB65"/>
<path d="M18.1782 38.3413H11.7502V59.3413H18.1782V38.3413Z" fill="white"/>
<path d="M41.2419 50.4263H34.814V59.3414H41.2419V50.4263Z" fill="white"/>
<path d="M46.7907 58.4194H42.1674V49.5043H33.8921V58.4194H30.6339V43.4865H22.3585V58.4194H19.1003V37.4194H10.825V58.4194H6.57901C6.07042 58.4194 5.65698 58.8329 5.65698 59.3415C5.65698 59.8501 6.07042 60.2635 6.57901 60.2635H46.7874C47.296 60.2635 47.7095 59.8501 47.7095 59.3415C47.7095 58.8329 47.296 58.4194 46.7874 58.4194H46.7907ZM17.2562 58.4194H12.6756V39.2668H17.2562V58.4194ZM28.7898 58.4194H24.2092V45.3305H28.7898V58.4194ZM40.3234 58.4194H35.7428V51.3483H40.3234V58.4194Z" fill="#1A2433"/>
<path d="M56.7952 48.7002C56.1488 48.7002 55.6238 49.2252 55.6238 49.8716C55.6238 50.518 56.1488 51.043 56.7952 51.043C57.4416 51.043 57.9666 50.518 57.9666 49.8716C57.9666 49.2252 57.4416 48.7002 56.7952 48.7002Z" fill="#1A2433"/>
<path d="M60.6014 46.8859L58.042 44.3232L48.6839 34.9651L47.5486 36.1004L44.2772 32.8257C47.7783 27.4674 47.4961 20.5374 43.6045 15.4909L56.8411 3.98352L56.2406 7.76023C56.1815 8.1343 56.4375 8.48539 56.8115 8.54773C56.8476 8.5543 56.8837 8.55758 56.9198 8.55758C57.2512 8.55758 57.5433 8.31805 57.599 7.98008L58.6622 1.30273L51.788 2.02461C51.4106 2.06398 51.1383 2.40195 51.1776 2.7793C51.217 3.15664 51.5484 3.4257 51.9323 3.38961L55.1053 3.0582L42.4069 14.0996C42.3773 14.0701 42.3511 14.0405 42.3215 14.011C36.458 8.14742 26.9161 8.14742 21.0492 14.011C18.2076 16.8493 16.6425 20.6227 16.6425 24.6423C16.6425 25.2788 16.695 25.9088 16.7737 26.529L10.0701 27.8021C9.37123 26.0795 7.68139 24.8621 5.71264 24.8621C3.12045 24.8621 1.00732 26.972 1.00732 29.5674C1.00732 32.1629 3.11717 34.2727 5.71264 34.2727C8.30811 34.2727 10.3884 32.1891 10.4147 29.6166L17.1183 28.3435C17.7745 30.9423 19.1034 33.3343 21.0492 35.2801C23.9728 38.2037 27.8217 39.6999 31.6936 39.6999C34.4761 39.6999 37.2651 38.9124 39.7294 37.3341L43.027 40.6384L41.8983 41.7671L51.2564 51.1252L53.819 53.6879C54.7542 54.6198 55.9814 55.0857 57.2119 55.0857C58.4423 55.0857 59.6728 54.6198 60.6112 53.6846C61.5103 52.779 62.0058 51.5715 62.0058 50.2885C62.0058 49.0055 61.5103 47.8046 60.608 46.8957L60.6014 46.8859ZM5.70607 32.4155C4.13107 32.4155 2.84811 31.1326 2.84811 29.5576C2.84811 27.9826 4.13107 26.6996 5.70607 26.6996C7.28107 26.6996 8.56404 27.9826 8.56404 29.5576C8.56404 31.1326 7.28107 32.4155 5.70607 32.4155ZM41.009 33.9643C40.7826 34.1907 40.553 34.3974 40.3233 34.5976C40.2773 34.637 40.2347 34.6829 40.1887 34.7223C40.1297 34.7748 40.064 34.8141 40.005 34.8634C39.7819 35.0471 39.5555 35.2243 39.3225 35.3884L39.2667 35.4277C39.2667 35.4277 39.2536 35.4376 39.2437 35.4441C33.997 39.1323 26.8931 38.5121 22.3486 33.9676C19.8581 31.4738 18.4833 28.1598 18.4833 24.6357C18.4833 21.1116 19.8548 17.8009 22.3486 15.3104C24.9211 12.7379 28.3008 11.4516 31.6805 11.4516C35.0601 11.4516 38.4398 12.7379 41.0123 15.3104C41.2256 15.5237 41.4323 15.7435 41.6226 15.9699L41.6358 15.983C45.6323 20.5604 45.9834 27.2279 42.4659 32.2318C42.4265 32.2909 42.3905 32.3466 42.3347 32.4221C42.1575 32.6748 41.9606 32.9241 41.744 33.1801C41.744 33.1801 41.7375 33.1866 41.7342 33.1899C41.5308 33.4262 41.3044 33.669 41.0615 33.9118C41.0451 33.9282 41.0287 33.9446 41.0123 33.9643H41.009ZM41.2486 36.2415C41.2748 36.2185 41.3011 36.1955 41.3273 36.1726C41.3634 36.143 41.3962 36.1135 41.4323 36.084C41.7309 35.828 42.0262 35.5623 42.3183 35.2702C42.5545 35.034 42.7678 34.8043 42.9745 34.5713C43.0434 34.4926 43.1156 34.4171 43.1812 34.3384L46.2426 37.4063L44.3264 39.3226L41.2519 36.2415H41.2486ZM51.2498 48.5068L44.5036 41.7605L48.6839 37.5802L55.4301 44.3265L51.2498 48.5068ZM59.2987 52.3721C58.1437 53.5205 56.2669 53.5205 55.1151 52.3721L52.5558 49.8127L56.7361 45.6324L59.2955 48.1918C59.85 48.7496 60.1551 49.4945 60.1551 50.282C60.1551 51.0695 59.85 51.8209 59.302 52.3754L59.2987 52.3721Z" fill="#1A2433"/>
<path d="M39.9099 17.4856C39.9099 17.4856 39.9099 17.4856 39.9099 17.4823C39.7459 17.2953 39.5753 17.1115 39.3948 16.9311C35.1423 12.6786 28.2254 12.6786 23.9729 16.9311C21.3643 19.5462 20.3635 23.1622 20.964 26.5517C20.964 26.5911 20.964 26.6305 20.9738 26.6698C20.9738 26.6797 20.9837 26.6862 20.9837 26.6961C21.3774 28.7698 22.3749 30.7451 23.9729 32.3464C26.0893 34.4628 28.8817 35.5522 31.6871 35.5522C33.8626 35.5522 36.0479 34.8992 37.9412 33.567C38.4957 33.1765 38.9748 32.773 39.3948 32.3464C39.8804 31.8608 40.284 31.3817 40.622 30.8862C43.5029 26.7748 43.2142 21.2689 39.9165 17.4889L39.9099 17.4856ZM25.2723 18.2337C27.0376 16.4684 29.3574 15.5858 31.6773 15.5858C33.9971 15.5858 36.1267 16.4094 37.8624 18.0369L33.8363 21.5347C33.2228 21.1081 32.4812 20.8555 31.6773 20.8555C29.6659 20.8555 28.0253 22.4272 27.9071 24.409L22.6604 25.4033C22.4438 22.8373 23.3101 20.1926 25.269 18.2337H25.2723ZM39.0995 29.8297L39.0929 29.8395C38.8206 30.2398 38.4892 30.6336 38.079 31.0437C37.7312 31.3981 37.3374 31.7295 36.8748 32.0544C33.2753 34.5875 28.396 34.1609 25.2723 31.0372C24.1698 29.9347 23.4118 28.6156 22.9984 27.2178L28.2517 26.2203C28.8521 27.5164 30.1581 28.4155 31.6806 28.4155C33.7674 28.4155 35.4606 26.7223 35.4606 24.6355C35.4606 24.0186 35.3096 23.4411 35.0504 22.9259L39.0831 19.4215C41.2749 22.5125 41.3209 26.6665 39.1028 29.8264L39.0995 29.8297Z" fill="#1A2433"/>
</svg>
