<?xml version="1.0" encoding="utf-8"?>
<svg width="63" height="63" viewBox="0 0 63 63" fill="none" xmlns="http://www.w3.org/2000/svg">
<path d="M54.2247 5.01904H22.1577V47.7777H54.2247V5.01904Z" fill="white"/>
<path d="M51.5996 45.1527V7.64404L24.7826 7.64404L24.7826 45.1527H51.5996Z" fill="#FFCB65"/>
<path d="M55.0777 48.6309H21.3044V4.16602H55.0777V48.6309ZM23.0107 46.9246H53.3714V5.87227H23.0107V46.9246Z" fill="#1A2433"/>
<path d="M48.0954 19.4353V52.0168C48.0954 55.1537 45.7119 57.7445 42.6564 58.0727C42.6065 58.0779 42.5487 58.0779 42.4989 58.0832C42.3466 58.0937 42.1865 58.0989 42.0237 58.0989H11.054C10.8886 58.0989 10.7259 58.0937 10.5657 58.0832C10.5159 58.0779 10.4581 58.0779 10.4082 58.0727C7.35536 57.7445 4.96924 55.1563 4.96924 52.0168V48.1423H12.4636V9.99316H37.2856L39.8791 12.2585L45.8274 17.4587L48.0927 19.4353H48.0954Z" fill="#FFCB65"/>
<path d="M11.054 55.4765C10.9595 55.4765 10.8676 55.4739 10.7757 55.4687C10.7337 55.466 10.6891 55.4608 10.6445 55.4582C8.90411 55.2508 7.59424 53.7782 7.59424 52.0168V50.7673H15.0886V12.6182H36.3012L45.4704 20.6297V52.0194C45.4704 53.7808 44.1605 55.2508 42.4175 55.4608C42.3702 55.4634 42.3282 55.466 42.2862 55.4713C42.2022 55.4765 42.113 55.4792 42.0237 55.4792H11.054V55.4765Z" fill="white"/>
<path d="M48.0951 19.4353H37.2854V9.99316L39.8815 12.2585L45.8272 17.4587L48.0951 19.4353Z" fill="white"/>
<path d="M40.3987 51.5732C40.3987 51.0456 40.8266 50.6177 41.3542 50.6177C41.8818 50.6177 42.3097 51.0456 42.3097 51.5732C42.3097 52.1008 41.8818 52.5287 41.3542 52.5287C40.8266 52.5287 40.3987 52.1008 40.3987 51.5732Z" fill="#1A2433"/>
<path d="M4.97168 48.1426V52.0197C4.97168 55.1566 7.35518 57.7422 10.4081 58.0703C10.4579 58.0756 10.5157 58.0756 10.5656 58.0835C10.7231 58.0966 10.8884 58.1018 11.0512 58.1018H42.0078C41.7926 58.1018 41.5773 58.0887 41.3752 58.0703C38.3223 57.7422 35.9388 55.1566 35.9388 52.0197V48.1426H4.97168Z" fill="#FFCB65"/>
<path d="M42.0105 58.9549H11.0538C10.8648 58.9549 10.6785 58.947 10.4973 58.9339C10.3923 58.926 10.3451 58.9234 10.3005 58.9181C6.78297 58.5401 4.11597 55.5739 4.11597 52.0222V47.292H36.7893V52.0222C36.7893 54.7024 38.8001 56.9389 41.4645 57.225C41.6298 57.2407 41.8188 57.2512 42.0052 57.2512V58.9575L42.0105 58.9549ZM5.82484 48.9956V52.0196C5.82484 54.6997 7.83559 56.9362 10.5 57.2224C10.584 57.2276 10.626 57.2302 10.668 57.2355C10.7703 57.2434 10.9121 57.2486 11.0538 57.2486H37.4613C35.9966 55.9729 35.0857 54.096 35.0857 52.0196V48.9956H5.82484Z" fill="#1A2433"/>
<path d="M42.021 58.9548H11.0539C10.8702 58.9548 10.6838 58.9495 10.5079 58.9364C10.4003 58.9285 10.3557 58.9259 10.3137 58.9206C6.78303 58.54 4.11865 55.5738 4.11865 52.0169V47.2893H11.613V9.14014H37.6084L48.9484 19.0495V52.0195C48.9484 55.5738 46.284 58.5426 42.7481 58.9233C42.7114 58.9285 42.6668 58.9311 42.6222 58.9338C42.3859 58.9521 42.2074 58.9574 42.021 58.9574V58.9548ZM5.82228 48.9981V52.0195C5.82228 54.7023 7.83303 56.9388 10.4974 57.2275C10.5762 57.2328 10.6182 57.2354 10.6602 57.2406C10.7625 57.2459 10.9069 57.2511 11.0513 57.2511H42.0184C42.1602 57.2511 42.2993 57.2459 42.4305 57.2354C42.4384 57.2354 42.483 57.2301 42.5276 57.2275C45.2261 56.9388 47.2369 54.6996 47.2369 52.0195V19.8239L36.9627 10.8464H13.3167V48.9981H5.82228Z" fill="#1A2433"/>
<path d="M39.5719 41.013H27.7594C27.2712 41.013 26.8774 40.6166 26.8774 40.131C26.8774 39.6454 27.2738 39.249 27.7594 39.249H39.5719C40.0602 39.249 40.4539 39.6454 40.4539 40.131C40.4539 40.6166 40.0576 41.013 39.5719 41.013Z" fill="#1A2433"/>
<path d="M34.1564 44.2367H27.8066C27.3183 44.2367 26.9246 43.8403 26.9246 43.3547C26.9246 42.869 27.3209 42.4727 27.8066 42.4727H34.1564C34.6447 42.4727 35.0384 42.869 35.0384 43.3547C35.0384 43.8403 34.6421 44.2367 34.1564 44.2367Z" fill="#1A2433"/>
<path d="M28.4733 16.8734H18.2489C17.7607 16.8734 17.3669 16.477 17.3669 15.9914C17.3669 15.5057 17.7633 15.1094 18.2489 15.1094H28.4733C28.9616 15.1094 29.3553 15.5057 29.3553 15.9914C29.3553 16.477 28.9589 16.8734 28.4733 16.8734Z" fill="#1A2433"/>
<path d="M33.3374 20.3177H18.2489C17.7607 20.3177 17.3669 19.9213 17.3669 19.4357C17.3669 18.9501 17.7633 18.5537 18.2489 18.5537H33.3374C33.8257 18.5537 34.2194 18.9501 34.2194 19.4357C34.2194 19.9213 33.8231 20.3177 33.3374 20.3177Z" fill="#1A2433"/>
<path d="M29.3791 53.9753H28.0666C27.5967 53.9753 27.2135 53.592 27.2135 53.1222C27.2135 52.6523 27.5967 52.269 28.0666 52.269H29.3791C29.849 52.269 30.2322 52.6497 30.2322 53.1222C30.2322 53.5947 29.849 53.9753 29.3791 53.9753ZM24.7853 53.9753H12.818C12.3481 53.9753 11.9648 53.592 11.9648 53.1222C11.9648 52.6523 12.3481 52.269 12.818 52.269H24.7853C25.2552 52.269 25.6385 52.6497 25.6385 53.1222C25.6385 53.5947 25.2552 53.9753 24.7853 53.9753Z" fill="white"/>
<path d="M23.1106 40.6667C23.654 41.8716 23.1159 43.2865 21.9136 43.8298C20.7087 44.3732 19.2939 43.8351 18.7505 42.6328C18.2071 41.428 18.7452 40.0131 19.9475 39.4697C21.1524 38.9263 22.5672 39.4645 23.1106 40.6667Z" fill="#FFCB65"/>
<path d="M20.9343 44.8954C19.6953 44.8954 18.5115 44.184 17.9707 42.9844C17.6137 42.1942 17.5875 41.3122 17.8946 40.5011C18.2017 39.69 18.8055 39.0495 19.5956 38.6925C21.2283 37.9575 23.1525 38.6872 23.8875 40.3174C24.2445 41.1075 24.2707 41.9895 23.9636 42.8006C23.6565 43.6117 23.0527 44.2549 22.2626 44.6092C21.8321 44.8035 21.378 44.8954 20.9343 44.8954ZM20.9265 40.1126C20.7165 40.1126 20.5012 40.1572 20.2965 40.2491C19.9211 40.4171 19.635 40.7216 19.4906 41.1075C19.3462 41.4907 19.3567 41.9107 19.5273 42.2835C19.698 42.6562 19.9998 42.945 20.3857 43.0894C20.769 43.2337 21.189 43.2206 21.5617 43.0526C21.9371 42.8846 22.2232 42.5801 22.3676 42.1942C22.512 41.811 22.5015 41.391 22.3308 41.0182C22.0736 40.4486 21.5118 40.1126 20.9265 40.1126Z" fill="#1A2433"/>
<path d="M48.0952 20.2884H36.4324V9.99316H38.1386V18.5822H48.0952V20.2884Z" fill="#1A2433"/>
<path d="M23.9846 24.355H17.7502V28.0274H23.9846V24.355Z" fill="white"/>
<path d="M30.219 24.355H23.9846V28.0274H30.219V24.355Z" fill="#FFCB65"/>
<path d="M42.6904 24.355H36.4561V28.0274H42.6904V24.355Z" fill="#FFCB65"/>
<path d="M36.4561 24.355H30.2217V28.0274H36.4561V24.355Z" fill="white"/>
<path d="M17.9812 27.7987V35.8286H24.2156V27.7987H17.9812Z" fill="#FFCB65"/>
<path d="M30.3372 27.7987V35.8286H36.5715V27.7987H30.3372Z" fill="#FFCB65"/>
<path d="M43.5436 36.6844H16.8972V23.1709H43.5436V36.6844ZM18.6035 34.9782H41.8373V24.8771H18.6035V34.9782Z" fill="#1A2433"/>
<path d="M24.8378 24.0239H23.1316V35.8312H24.8378V24.0239Z" fill="#1A2433"/>
<path d="M31.0747 24.0239H29.3684V35.8312H31.0747V24.0239Z" fill="#1A2433"/>
<path d="M18.6035 24.0239H16.8972V35.8312H18.6035V24.0239Z" fill="#1A2433"/>
<path d="M43.5434 24.0239H41.8372V35.8312H43.5434V24.0239Z" fill="#1A2433"/>
<path d="M37.309 24.0239H35.6028V35.8312H37.309V24.0239Z" fill="#1A2433"/>
<path d="M42.6904 27.1738H17.7502V28.8801H42.6904V27.1738Z" fill="#1A2433"/>
</svg>
