<?xml version="1.0" encoding="utf-8"?>
<svg width="63" height="63" viewBox="0 0 63 63" fill="none" xmlns="http://www.w3.org/2000/svg">
<path d="M61.6612 17.8765H8.63098V37.1833H61.6612V17.8765Z" fill="#FFCB65"/>
<path d="M54.306 9.93018H1.27576V30.1138H54.306V9.93018Z" fill="white"/>
<path d="M57.8759 14.3979H4.8457V33.5657H57.8759V14.3979Z" fill="white"/>
<path d="M51.681 27.4888V12.5552L3.90078 12.5552V27.4888L51.681 27.4888Z" fill="#FFCB65"/>
<path d="M30.5052 7.42625C22.9006 5.67276 14.4402 11.8074 14.4402 20.7088C14.4402 32.7969 29.5103 39.2859 38.1649 29.5681V29.5603C44.7904 22.0633 41.0971 9.55513 30.5052 7.42363V7.42625ZM35.2906 26.6754C31.9306 30.731 25.9114 31.2875 21.8637 27.9275C17.8081 24.5596 17.2489 18.551 20.6116 14.4928C23.9768 10.4371 29.9907 9.878 34.0437 13.2459C38.0914 16.6059 38.6584 22.6171 35.2906 26.6728V26.6754Z" fill="white"/>
<path d="M62.6063 37.9285H7.68604V32.6864H23.7668C24.255 32.6864 24.6777 33.0828 24.6777 33.5684C24.6777 34.054 24.3128 34.4504 23.8245 34.4504H9.45003V36.1645H60.8423V18.7581H58.8919V34.4504H32.172C31.6838 34.4504 31.2664 34.054 31.2664 33.5684C31.2664 33.0828 31.6392 32.6864 32.1248 32.6864H57.1253V16.9941H62.6037V37.9285H62.6063Z" fill="#1A2433"/>
<path d="M58.8919 34.4505H32.172C31.6838 34.4505 31.29 34.0541 31.29 33.5685C31.29 33.0829 31.6864 32.6865 32.172 32.6865H57.1253V15.2801H54.306C53.8178 15.2801 53.424 14.8837 53.424 14.3981C53.424 13.9125 53.8204 13.5161 54.306 13.5161H58.8893V34.4505H58.8919Z" fill="#1A2433"/>
<path d="M23.8245 34.4507H3.96375V30.1169C3.96375 29.6286 4.36012 29.2349 4.84574 29.2349C5.33137 29.2349 5.72774 29.6312 5.72774 30.1169V32.6867H23.8245C24.3127 32.6867 24.7065 33.0831 24.7065 33.5687C24.7065 34.0544 24.3101 34.4507 23.8245 34.4507Z" fill="#1A2433"/>
<path d="M55.1879 30.996H41.5091C41.0208 30.996 40.6271 30.5996 40.6271 30.114C40.6271 29.6283 41.0234 29.232 41.5091 29.232H53.4239V10.8123H40.2176C39.7293 10.8123 39.3356 10.416 39.3356 9.93034C39.3356 9.44471 39.7319 9.04834 40.2176 9.04834H55.1879V30.9933V30.996Z" fill="#1A2433"/>
<path d="M14.112 30.9989H2.64335C2.1551 30.9989 1.76135 30.6025 1.76135 30.1169C1.76135 29.6312 2.15773 29.2349 2.64335 29.2349H14.112C14.6002 29.2349 14.994 29.6312 14.994 30.1169C14.994 30.6025 14.5976 30.9989 14.112 30.9989Z" fill="#1A2433"/>
<path d="M4.8458 30.9986H0.393799V9.04834H15.9548C16.4431 9.04834 16.8368 9.44471 16.8368 9.93034C16.8368 10.416 16.4404 10.8123 15.9548 10.8123H2.1578V29.2346H4.8458C5.33405 29.2346 5.7278 29.631 5.7278 30.1166C5.7278 30.6022 5.33142 30.9986 4.8458 30.9986Z" fill="#1A2433"/>
<path d="M36.0496 25.6643C38.8594 21.2095 37.5257 15.3203 33.0708 12.5106C28.6159 9.70085 22.7268 11.0345 19.9171 15.4894C17.1073 19.9443 18.441 25.8334 22.8959 28.6431C27.3507 31.4529 33.2399 30.1192 36.0496 25.6643Z" fill="#FFCB65"/>
<path d="M31.9436 22.7088C31.9148 24.2261 30.8306 25.158 29.295 25.4388L29.2583 27.3393C28.8068 27.4233 28.3343 27.468 27.8513 27.4575C27.5205 27.4522 27.1898 27.4181 26.8721 27.3656L26.9089 25.3785C25.7749 25.137 24.7039 24.6198 23.9164 23.9242L24.8115 22.1733C25.788 23.0737 27.174 23.6617 28.1925 23.6827C29.085 23.7011 29.6284 23.3782 29.6389 22.7902C29.673 20.9816 24.5228 21.9371 24.5884 18.5272C24.6146 17.157 25.5859 16.2015 27.09 15.8865L27.1451 13.734C27.4628 13.6998 27.783 13.6788 28.1138 13.6867C28.6046 13.6972 29.0719 13.7576 29.5286 13.86L29.4761 15.8786C30.4211 16.0545 31.3215 16.4115 32.0014 16.8735L31.1325 18.6506C30.1245 18.0285 28.9275 17.6216 28.1584 17.6058C27.4313 17.5927 26.9273 17.8473 26.9194 18.3645C26.8853 20.139 32.0224 19.2491 31.9436 22.7062V22.7088Z" fill="#1A2433"/>
<path d="M27.9641 30.9958C25.5412 30.9958 23.2181 30.161 21.3307 28.5939C16.9102 24.9241 16.296 18.3433 19.9657 13.9228C23.6328 9.50226 30.2163 8.88801 34.6368 12.5578C39.06 16.2249 39.6716 22.8084 36.0018 27.2289C34.2247 29.3709 31.7205 30.6913 28.9485 30.9511C28.6203 30.9826 28.2896 30.9958 27.9641 30.9958ZM27.9903 11.9225C25.5018 11.9225 23.0317 12.9883 21.3202 15.0489C18.2726 18.7213 18.7818 24.1891 22.4542 27.2368C24.234 28.712 26.4862 29.4103 28.7831 29.1924C31.0852 28.9771 33.1668 27.8799 34.6421 26.1001C36.1173 24.3204 36.813 22.0734 36.5977 19.7713C36.3825 17.4691 35.2852 15.3875 33.5055 13.9123C31.8937 12.5735 29.9328 11.9225 27.9851 11.9225H27.9903Z" fill="#1A2433"/>
<path d="M43.5671 39.2017L38.3932 42.5695L35.5792 38.2462C36.5557 37.834 37.4902 37.33 38.4116 36.7289C39.2621 36.175 40.0575 35.5792 40.7741 34.915L43.5645 39.2043L43.5671 39.2017Z" fill="white"/>
<path d="M45.3905 38.007L36.5826 43.7422L43.0526 53.6785L51.8605 47.9433L45.3905 38.007Z" fill="#FFCB65"/>
<path d="M55.9466 57.0519C55.6684 58.3723 54.8887 59.5851 53.6839 60.3778C51.261 61.9476 47.9929 61.2572 46.4126 58.8422L43.0526 53.6814L51.8621 47.9458L55.2221 53.1066C56.0017 54.3167 56.2249 55.7421 55.9466 57.0546V57.0519Z" fill="white"/>
<path d="M46.872 17.6872C44.9636 5.87209 33.075 -1.09991 21.9608 2.54884H21.9529C19.9316 3.22347 18.0128 4.21572 16.0256 5.77234H16.0204C15.6975 6.03484 15.3904 6.29734 15.0964 6.56772C15.0964 6.42597 13.1171 8.64934 13.0279 8.75959V8.76747C12.8126 9.03784 12.6026 9.31347 12.4058 9.59434C12.4058 9.59434 12.4005 9.59434 12.4005 9.59959C12.2036 9.88309 12.0068 10.164 11.8309 10.4527C11.8309 10.4527 11.823 10.4527 11.823 10.4606C7.01664 18.0993 8.1979 27.7882 14.2564 34.0331C19.7374 39.6847 28.2083 41.4093 35.4664 38.2987C35.5005 38.2856 35.5373 38.2672 35.5766 38.2541H35.5845C36.6476 37.8078 37.548 37.2828 38.4143 36.7395V36.7316H38.4195C39.2726 36.1803 40.0601 35.5897 40.7741 34.9203C40.866 34.8363 40.9526 34.7576 41.0366 34.671C44.5463 31.4028 46.6095 27.0112 47.0216 22.4385C47.166 20.8635 47.1214 19.2675 46.8694 17.6925L46.872 17.6872ZM38.1964 29.5522V29.5601C31.9883 36.5452 21.4043 35.3955 16.6451 28.077C13.0515 22.5592 14.0201 15.3903 18.5614 11.0092C19.1704 10.4055 19.8529 9.85947 20.5958 9.37384C30.2899 3.06072 42.882 11.1011 41.3858 22.4332C41.0471 25.1422 39.8396 27.6911 38.1964 29.5522Z" fill="#FFCB65"/>
<path d="M50.8305 62.1022C48.8197 62.1022 46.851 61.123 45.6723 59.3249L41.8293 53.4239L52.1167 46.7275L55.9571 52.6259C56.8443 54.0014 57.1436 55.6368 56.805 57.2354C56.4663 58.8419 55.5292 60.2174 54.1642 61.1152C53.1326 61.7819 51.975 62.1022 50.8278 62.1022H50.8305ZM44.2732 53.941L47.1502 58.3615C48.468 60.3749 51.1822 60.9472 53.2035 59.6399C54.1695 59.0047 54.8388 58.0203 55.083 56.8732C55.3245 55.7313 55.1092 54.5658 54.4792 53.5867L51.6048 49.1688L44.2732 53.941Z" fill="#1A2433"/>
<path d="M42.7953 54.9019L35.3613 43.491L45.6487 36.792L53.0827 48.2029L42.7953 54.8992V54.9019ZM37.8026 44.0055L43.3124 52.4606L50.6441 47.6884L45.1342 39.2332L37.8052 44.0055H37.8026Z" fill="#1A2433"/>
<path d="M38.1386 43.7904L34.2667 37.8421L35.2406 37.4326C36.1515 37.0494 37.0335 36.5769 37.9339 35.9915C38.8106 35.4219 39.543 34.8575 40.1782 34.2695L40.9447 33.5581L44.7877 39.4644L38.136 43.7956L38.1386 43.7904ZM36.8812 38.6217L38.6557 41.3491L42.3491 38.9446L40.5904 36.2435C40.0811 36.6582 39.5194 37.0625 38.8972 37.4694C38.2226 37.9077 37.5559 38.291 36.8812 38.6244V38.6217Z" fill="#1A2433"/>
<path d="M28.0219 40.698C22.7089 40.698 17.4536 38.5875 13.6237 34.6395C7.25023 28.0717 6.13986 17.8342 10.941 10.1955V9.57073H11.3479C11.403 9.4841 11.4607 9.4001 11.5185 9.3161V8.70973H11.9542C12.0566 8.5706 12.159 8.43673 12.264 8.30548L12.3296 8.21623C12.4162 8.10335 13.0357 7.4156 13.4111 7.0061C13.9912 6.37348 14.3351 5.9981 14.616 5.8091C14.889 5.56498 15.1725 5.32348 15.4665 5.0846L15.7211 4.8851C17.4142 3.55423 19.6717 2.34935 21.6904 1.70623L21.7639 1.6826C27.09 -0.141773 33.2587 0.556477 38.2882 3.55685C43.4254 6.62023 46.7854 11.5894 47.7461 17.5455C48.0034 19.1756 48.0559 20.8451 47.9036 22.512C47.46 27.4181 45.2366 31.962 41.6404 35.3089C41.5721 35.3771 41.4802 35.4611 41.3831 35.553C40.6691 36.2197 39.858 36.8445 38.8999 37.464L38.6741 37.6057C37.8026 38.1622 36.792 38.6951 35.9257 39.06L35.7525 39.1282C33.2692 40.1861 30.6364 40.698 28.0192 40.698H28.0219ZM12.3139 11.3295C8.08236 18.2647 9.13236 27.4785 14.889 33.411C20.1101 38.7949 28.2397 40.4302 35.1199 37.4797C35.196 37.4456 35.2485 37.4246 35.2984 37.4089C36.1226 37.0571 37.1254 36.5164 37.926 35.9861L38.1544 35.8391C38.9314 35.3246 39.5902 34.8075 40.1704 34.2667C40.2622 34.1827 40.3357 34.1119 40.4119 34.0384C43.7115 30.9671 45.738 26.8222 46.1422 22.3492C46.2814 20.8294 46.2341 19.3069 45.9979 17.8237C45.1211 12.3926 42.0604 7.86185 37.3774 5.06885C32.7626 2.31785 27.1084 1.6826 22.2469 3.37573L22.0894 3.4256C20.202 4.04773 18.1046 5.19748 16.5847 6.44698L16.3354 6.64648C16.1122 6.83285 15.897 7.01923 15.687 7.21085L15.2722 7.58623C14.8076 8.07448 14.028 8.9381 13.776 9.22685L13.713 9.30823C13.5082 9.56285 13.3114 9.8201 13.125 10.0879L12.8651 10.458C12.81 10.542 12.7522 10.6234 12.6997 10.7074L12.6184 10.8334C12.6052 10.857 12.5895 10.8806 12.5764 10.9016L12.3086 11.3216L12.3139 11.3295ZM27.9982 35.1041C20.055 35.1041 13.5896 28.6414 13.5896 20.6955C13.5896 12.7496 20.0524 6.28685 27.9982 6.28685C35.9441 6.28685 42.4069 12.7496 42.4069 20.6955C42.4069 28.6414 35.9441 35.1041 27.9982 35.1041ZM27.9982 8.05348C21.0262 8.05348 15.3536 13.7261 15.3536 20.6955C15.3536 27.6649 21.0262 33.3375 27.9982 33.3375C34.9702 33.3375 40.6402 27.6649 40.6402 20.6955C40.6402 13.7261 34.9676 8.05348 27.9982 8.05348Z" fill="#1A2433"/>
<path d="M50.7176 53.7626C49.8592 53.5815 49.0166 54.1301 48.8355 54.9885C48.6543 55.8468 49.203 56.6895 50.0613 56.8706C50.9197 57.0517 51.7623 56.5031 51.9435 55.6447C52.1246 54.7863 51.576 53.9437 50.7176 53.7626Z" fill="#1A2433"/>
<path d="M20.475 7.11905C20.1653 7.11905 19.866 6.9563 19.7033 6.66755C19.467 6.2423 19.6193 5.70418 20.0445 5.46793C20.4488 5.24218 20.8662 5.03218 21.2809 4.84318C21.7245 4.64105 22.2469 4.83793 22.449 5.28155C22.6512 5.72518 22.4543 6.24755 22.0107 6.44968C21.6405 6.61768 21.2678 6.80668 20.9055 7.0088C20.769 7.08493 20.622 7.12168 20.4777 7.12168L20.475 7.11905ZM34.1224 6.5678C34.0017 6.5678 33.8757 6.54155 33.7575 6.48905C30.9855 5.23168 27.8145 4.8668 24.9402 5.48368C24.4624 5.58605 23.9952 5.28155 23.8928 4.80643C23.7904 4.32868 24.0949 3.86143 24.57 3.75905C27.8119 3.06343 31.3767 3.4703 34.4873 4.88255C34.9309 5.08468 35.1278 5.60705 34.9257 6.05068C34.7787 6.37618 34.4584 6.5678 34.1224 6.5678Z" fill="white"/>
<path d="M29.3238 57.7865C28.9117 57.7865 28.5416 57.4952 28.4602 57.0752L27.0165 49.7147C26.922 49.2369 27.2343 48.7723 27.7121 48.6804C28.1898 48.5859 28.6545 48.8983 28.7464 49.376L30.1901 56.7365C30.2846 57.2143 29.9722 57.6789 29.4945 57.7708C29.4367 57.7813 29.379 57.7865 29.3238 57.7865ZM27.2475 47.2052C26.8354 47.2052 26.4652 46.9138 26.3839 46.4938L26.1319 45.2049C26.0374 44.7272 26.3497 44.2625 26.8275 44.1707C27.3026 44.0762 27.7698 44.3885 27.8617 44.8663L28.1137 46.1552C28.2082 46.6329 27.8958 47.0975 27.4181 47.1894C27.3603 47.1999 27.3026 47.2052 27.2475 47.2052Z" fill="#1A2433"/>
<path d="M6.68328 50.4237C6.44703 50.4237 6.21078 50.3292 6.03753 50.1402C5.70678 49.7832 5.72778 49.2241 6.08478 48.8933L11.5842 43.7903C11.9412 43.4596 12.5003 43.4806 12.831 43.8376C13.1618 44.1946 13.1408 44.7537 12.7838 45.0844L7.2844 50.1874C7.11378 50.3449 6.89853 50.4237 6.6859 50.4237H6.68328ZM14.5872 43.0894C14.3509 43.0894 14.1147 42.9949 13.9414 42.8059C13.6107 42.4489 13.6317 41.8898 13.9887 41.5591L14.9494 40.6666C15.3064 40.3358 15.8655 40.3568 16.1963 40.7138C16.527 41.0708 16.506 41.6299 16.149 41.9607L15.1883 42.8532C15.0177 43.0107 14.8024 43.0894 14.5898 43.0894H14.5872Z" fill="#1A2433"/>
<path d="M16.5953 57.3143C16.5034 57.3143 16.4141 57.3012 16.3223 57.2723C15.8576 57.1201 15.6056 56.624 15.7553 56.162L18.1257 48.8697C18.2753 48.4051 18.774 48.1531 19.236 48.3027C19.7006 48.4523 19.9527 48.9511 19.803 49.4131L17.4327 56.7053C17.3119 57.0781 16.9654 57.3143 16.5953 57.3143ZM19.9815 46.901C19.8897 46.901 19.7978 46.8878 19.7085 46.859C19.2439 46.7067 18.9919 46.2106 19.1415 45.7486L19.5484 44.5017C19.698 44.0371 20.1994 43.7851 20.6588 43.9347C21.1234 44.087 21.3754 44.5831 21.2258 45.0451L20.8189 46.292C20.6981 46.6647 20.3517 46.901 19.9815 46.901Z" fill="#1A2433"/>
</svg>
