<?xml version="1.0" encoding="utf-8"?>
<svg width="69" height="69" viewBox="0 0 69 69" fill="none" xmlns="http://www.w3.org/2000/svg">
<g clip-path="url(#clip0_1042_3994)">
<path d="M13.3932 61.0588C12.6326 62.7489 10.6465 63.4969 8.9596 62.733C7.27908 61.9787 6.52157 59.9862 7.28545 58.3057C8.04614 56.6156 10.0322 55.8613 11.7191 56.6252C12.6039 57.0262 13.2277 57.7614 13.5078 58.6176C13.7752 59.3878 13.7529 60.2568 13.3932 61.062V61.0588Z" fill="#FFC121"/>
<path d="M53.8084 60.4128C53.0191 62.1729 50.9535 62.9495 49.1997 62.1601C47.6975 61.4854 46.9081 59.8685 47.2168 58.3153C47.2614 58.0575 47.3378 57.8061 47.4556 57.5546C47.7579 56.8926 48.2322 56.3674 48.8083 56.0237C49.7567 55.4349 50.9726 55.3107 52.0643 55.8073C53.818 56.5966 54.601 58.6622 53.8116 60.416L53.8084 60.4128Z" fill="#FFC121"/>
<path d="M15.5512 20.5991C15.478 20.7582 15.4016 20.9015 15.3125 21.0383C14.6091 22.13 13.3423 22.7061 12.0851 22.5565C11.7541 22.512 11.4327 22.426 11.1144 22.2828C9.43387 21.5221 8.67636 19.536 9.44023 17.8492C10.2009 16.1591 12.187 15.4048 13.8739 16.1686C14.6632 16.5283 15.2457 17.1521 15.5639 17.8937H15.5703C15.93 18.7276 15.9522 19.7047 15.548 20.6023L15.5512 20.5991Z" fill="#FFC121"/>
<path d="M61.8354 11.2002C61.0811 12.8902 59.0887 13.6382 57.4082 12.8743C56.1287 12.3078 55.3871 11.0283 55.438 9.71063C55.4444 9.28731 55.5399 8.85445 55.7245 8.44705C56.4852 6.75699 58.4712 6.00266 60.1581 6.76653C61.8482 7.52722 62.5961 9.51329 61.8323 11.2002H61.8354Z" fill="#FFC121"/>
<path d="M31.1183 55.1644C31.0547 55.5082 30.9401 55.8615 30.7873 56.1988C29.7179 58.5859 26.9075 59.649 24.5204 58.57C23.2695 58.0098 22.3784 56.9659 21.9773 55.7596C21.6113 54.6679 21.6399 53.4393 22.1492 52.3031C22.3211 51.9148 22.5375 51.571 22.7953 51.2528C24.0875 49.6582 26.3314 49.0471 28.3016 49.8873C28.3366 49.8937 28.3811 49.916 28.4161 49.9319C30.4659 50.8581 31.5353 53.051 31.1183 55.1644Z" fill="white"/>
<path d="M40.5776 9.2429C40.5617 9.83808 40.4344 10.4364 40.1766 11.0125C40.0334 11.3276 39.8615 11.6173 39.6674 11.8814C38.7475 13.1164 37.2803 13.8007 35.778 13.7434C35.1892 13.7275 34.6003 13.6002 34.0306 13.3423C32.923 12.8458 32.1114 11.9706 31.6722 10.9425C31.1693 9.79352 31.1406 8.43447 31.7008 7.19635C32.7575 4.85381 35.5106 3.80985 37.8468 4.86654C39.6164 5.66543 40.6413 7.42552 40.5776 9.2429Z" fill="white"/>
<path d="M14.9879 43.0315C14.7873 43.4835 14.5264 43.9004 14.2176 44.2665C12.6581 46.1921 9.93357 46.9114 7.56238 45.8419C4.72969 44.5688 3.47248 41.2428 4.7456 38.4165C5.78638 36.1153 8.17348 34.8517 10.5542 35.1445C11.1017 35.2082 11.6459 35.361 12.1774 35.5965C13.7657 36.3158 14.8574 37.6749 15.2839 39.2344C15.6212 40.4566 15.5512 41.7871 14.9879 43.0284V43.0315Z" fill="white"/>
<path d="M63.3823 45.2753C62.3256 47.6114 59.5788 48.6522 57.2363 47.5955C54.9574 46.5739 53.9071 43.9449 54.8364 41.6437C54.8523 41.58 54.881 41.5132 54.9096 41.4495C55.5717 39.9918 56.8925 39.0338 58.3662 38.7823C59.2414 38.6232 60.1772 38.7251 61.0556 39.1197C63.3982 40.1764 64.4421 42.9295 63.3854 45.2721L63.3823 45.2753Z" fill="white"/>
<path d="M43.0284 37.1943C41.8189 39.8679 39.4159 41.6025 36.7296 42.0672C35.1223 42.3505 33.4131 42.1563 31.8185 41.437C27.5504 39.5209 25.6471 34.4953 27.5759 30.2272C27.8337 29.6479 28.1424 29.1227 28.5021 28.6326C30.8287 25.5198 35.0968 24.3135 38.7857 25.9845C43.0538 27.9005 44.9572 32.9262 43.0284 37.1943Z" fill="white"/>
<path d="M59.2351 25.8029C58.1466 28.2378 55.2757 29.3167 52.8504 28.2187C51.0044 27.4007 49.9381 25.5547 50.0114 23.6577C50.0209 23.0466 50.1578 22.4228 50.4251 21.834C51.5232 19.3991 54.3845 18.3106 56.8226 19.4087C59.2574 20.5067 60.3364 23.3681 59.2383 25.8061L59.2351 25.8029Z" fill="white"/>
<path d="M35.2973 39.3141C34.5079 39.3141 33.7345 39.1454 32.9993 38.8144C31.6307 38.2001 30.5899 37.0957 30.0615 35.6952C29.53 34.2948 29.5778 32.7702 30.1952 31.408C30.3703 31.0133 30.5708 30.6664 30.8159 30.3354C31.8566 28.9445 33.5403 28.1042 35.3068 28.1042C36.0993 28.1042 36.8696 28.2698 37.5984 28.6008C38.967 29.215 40.011 30.3227 40.5393 31.7199C41.0709 33.1203 41.0231 34.6449 40.4057 36.0071C39.6386 37.7099 38.079 38.913 36.2394 39.2313C35.9243 39.2854 35.6092 39.3141 35.2973 39.3141Z" fill="#FFC121"/>
<path d="M64.3946 41.3733C63.8631 39.9697 62.8159 38.8589 61.4505 38.2414C60.7216 37.9136 59.945 37.7545 59.1684 37.7545L57.647 28.8808C58.7356 28.2793 59.6013 27.3531 60.1169 26.1977C61.4314 23.2823 60.1296 19.8385 57.2174 18.5272C55.8042 17.8906 54.2287 17.8397 52.7774 18.3903C52.1981 18.6099 51.6666 18.9186 51.1955 19.2974L40.9373 11.6268C40.9755 11.5536 41.0169 11.4804 41.0519 11.404C41.2206 11.0253 41.3447 10.6338 41.4243 10.2328L54.5565 10.6465C54.8144 12.0056 55.7055 13.1737 57.0073 13.7498C57.5738 14.0044 58.1786 14.1349 58.7833 14.1349C59.2989 14.1349 59.8177 14.0394 60.3174 13.8516C61.3932 13.4442 62.2462 12.639 62.7141 11.5918C63.1883 10.5383 63.2265 9.36705 62.8191 8.28807C62.4117 7.2091 61.6096 6.35293 60.5561 5.87869C59.5058 5.40445 58.3313 5.36944 57.2524 5.77684C56.1734 6.18742 55.3204 6.98949 54.8462 8.03982C54.7475 8.25943 54.6711 8.48541 54.6106 8.71457L41.4816 8.30081C41.2206 6.42295 40.0239 4.78699 38.2415 3.98174C36.8792 3.36746 35.3579 3.31653 33.9543 3.84488C32.5506 4.37641 31.4367 5.42355 30.8192 6.78897C30.3004 7.92842 30.1922 9.20154 30.4786 10.3951L15.9587 16.662C15.5258 16.07 14.9529 15.5862 14.2686 15.2775C12.0979 14.2972 9.53578 15.2711 8.55866 17.4418C7.58154 19.6093 8.54593 22.1715 10.7134 23.1518C10.8121 23.1963 10.9203 23.2282 11.0222 23.2663L9.70129 34.1356C7.1996 34.1961 4.92708 35.6634 3.86402 38.0123C3.14153 39.6132 3.08742 41.402 3.71125 43.0443C4.33508 44.6898 5.56046 45.9916 7.16459 46.7109C8.03668 47.1055 8.95651 47.2933 9.86998 47.2933C11.4932 47.2933 13.0782 46.6854 14.2973 45.5683L21.5031 51.4405C21.4204 51.5901 21.3344 51.7365 21.2612 51.8957C20.8029 52.9142 20.6597 54.0281 20.8284 55.1135L14.0076 57.4115C13.562 56.6826 12.9064 56.0906 12.1107 55.7278C11.0572 55.2535 9.88589 55.2185 8.80692 55.6259C7.72795 56.0365 6.87496 56.8417 6.40072 57.8921C5.92648 58.9392 5.88829 60.1137 6.29887 61.1926C6.70627 62.2716 7.51152 63.1278 8.55866 63.5957C9.12838 63.8535 9.72993 63.9808 10.3378 63.9808C10.8535 63.9808 11.3691 63.8885 11.8624 63.7007C12.9414 63.2933 13.7976 62.4912 14.2718 61.4377C14.5837 60.7343 14.6919 59.9768 14.6187 59.2416L21.449 56.9404C22.0378 58.0353 22.9736 58.9201 24.1194 59.4357C24.8705 59.7763 25.6662 59.945 26.4651 59.945C27.1462 59.945 27.8305 59.8208 28.4894 59.5726C29.9153 59.0315 31.042 57.9716 31.6658 56.5808C31.7136 56.4757 31.7454 56.3707 31.7868 56.2657L46.1953 59.0824C46.2303 60.7661 47.2106 62.3066 48.802 63.0227C49.3877 63.2869 50.0083 63.4206 50.6321 63.4206C51.1637 63.4206 51.6984 63.3251 52.2108 63.1278C53.3216 62.7076 54.2001 61.8769 54.687 60.7916C55.174 59.7094 55.2122 58.5 54.7889 57.3892C54.3656 56.2784 53.538 55.3968 52.4559 54.9098C51.4087 54.4324 50.2311 54.3974 49.1712 54.7666L40.8577 41.3065C41.9717 40.4917 42.9011 39.4318 43.5759 38.1905L53.6526 42.2008C53.1084 44.7375 54.3815 47.3634 56.8322 48.4614C57.577 48.7988 58.36 48.9579 59.1302 48.9579C61.2691 48.9579 63.3188 47.7294 64.2545 45.6574C64.872 44.2888 64.9198 42.761 64.3882 41.3574L64.3946 41.3733ZM56.6063 8.84188C56.8704 8.25943 57.3415 7.81384 57.9399 7.58786C58.2136 7.48283 58.5 7.4319 58.7865 7.4319C59.1207 7.4319 59.4517 7.50192 59.7668 7.64515C60.3492 7.90614 60.7917 8.38038 61.0176 8.97556C61.2436 9.57074 61.2213 10.22 60.9572 10.8025C60.6994 11.3818 60.2315 11.8242 59.6363 12.0501C59.0411 12.2761 58.3918 12.257 57.803 11.9897C56.9182 11.595 56.3707 10.7166 56.4089 9.7267C56.4153 9.42434 56.4821 9.12515 56.6094 8.84188H56.6063ZM12.5117 60.6643C11.9706 61.861 10.5575 62.3957 9.35436 61.8515C8.77509 61.5937 8.33268 61.1226 8.10988 60.5243C7.88391 59.9291 7.903 59.283 8.16717 58.7037C8.56503 57.8189 9.4403 57.2937 10.3474 57.2937C10.672 57.2937 11.0031 57.3605 11.3182 57.5038C11.9324 57.7839 12.3844 58.2867 12.5945 58.9328C12.7886 59.493 12.76 60.1105 12.5117 60.6643ZM51.3037 22.2319C51.3992 22.0187 51.5201 21.8182 51.6506 21.6272L51.7589 21.484C52.1949 20.9111 52.7742 20.4623 53.4648 20.1981C53.9104 20.0294 54.3751 19.9435 54.8366 19.9435C55.3777 19.9435 55.9156 20.0581 56.4217 20.2872C58.3632 21.1625 59.2321 23.4605 58.3536 25.4052C57.9335 26.3473 57.1728 27.0634 56.2084 27.4295C55.2408 27.7955 54.1905 27.7636 53.242 27.334C51.8034 26.6974 50.9154 25.2683 50.9759 23.6737C50.9854 23.1772 51.0937 22.6903 51.3037 22.2288V22.2319ZM32.5793 7.59422C32.9835 6.69667 33.7155 6.00919 34.6354 5.65908C35.0587 5.49994 35.4979 5.42037 35.934 5.42037C36.4496 5.42037 36.962 5.53177 37.4426 5.7482C38.8112 6.36566 39.6578 7.72472 39.6069 9.21109V9.22382C39.5942 9.7076 39.4891 10.1755 39.2918 10.6147C39.1804 10.8598 39.0467 11.0889 38.8876 11.3086C38.1683 12.2793 37.0352 12.8395 35.7971 12.7822C35.3229 12.7695 34.8613 12.6644 34.4221 12.4639C33.5819 12.0883 32.9198 11.4136 32.5538 10.5574C32.1432 9.61849 32.1496 8.53952 32.5793 7.59741V7.59422ZM16.7353 18.4412L31.2425 12.1775C31.8218 13.0686 32.6461 13.7816 33.6264 14.2208C33.9988 14.3895 34.3839 14.5136 34.7786 14.5932L34.4444 24.3167C31.8854 24.5554 29.4506 25.8253 27.8114 27.9514L16.5507 20.6883C16.8085 19.9658 16.8721 19.1892 16.7353 18.4412ZM10.3187 18.2471C10.7166 17.3622 11.5919 16.8371 12.5022 16.8371C12.83 16.8371 13.1578 16.9039 13.4729 17.0472C14.014 17.2922 14.4405 17.7283 14.6728 18.2725L14.7397 18.4285C14.9465 19.0078 14.9211 19.6348 14.6665 20.2045C14.6124 20.3191 14.5551 20.4241 14.4978 20.5164C14.0044 21.2835 13.1005 21.7004 12.2093 21.5986C11.9547 21.5635 11.7287 21.4999 11.5123 21.4044C10.3124 20.8601 9.77767 19.4438 10.3187 18.2471ZM14.1063 42.6369V42.6433C13.9376 43.0156 13.7275 43.353 13.4665 43.6649C12.1457 45.2977 9.87952 45.8324 7.95711 44.9667C6.82403 44.4575 5.95831 43.5376 5.5159 42.3759C5.07667 41.2142 5.11487 39.9538 5.62411 38.8239C6.39117 37.1306 8.04305 36.0771 9.85724 36.0771C10.0482 36.0771 10.2424 36.0899 10.4365 36.1121C10.8885 36.1663 11.3404 36.2904 11.7765 36.4845C13.0464 37.0606 13.9853 38.1555 14.3482 39.4986C14.641 40.5522 14.5551 41.6375 14.1031 42.6401L14.1063 42.6369ZM12.569 34.7181C12.2571 34.578 11.9388 34.4666 11.6205 34.3775L12.9414 23.5146C13.9026 23.4096 14.8065 22.9831 15.5004 22.3115L26.8089 29.6065C26.7738 29.6829 26.7293 29.7529 26.6943 29.8325C25.9113 31.5671 25.6726 33.4545 25.9877 35.2878L15.8855 38.0728C15.2394 36.5959 14.0745 35.3992 12.5722 34.7213L12.569 34.7181ZM15.5195 44.0851C15.6436 43.875 15.7645 43.6586 15.8664 43.4294C16.3693 42.3122 16.5443 41.1187 16.3947 39.9347L26.5033 37.1497C27.2958 39.1835 28.7345 40.845 30.6091 41.908L27.751 48.7001C25.9781 48.2832 24.0907 48.7542 22.719 49.951L15.5195 44.0851ZM30.1667 54.9798V54.9862C30.1158 55.2472 30.0235 55.5304 29.9025 55.8041C29.492 56.7208 28.7472 57.4242 27.8051 57.7807C26.8598 58.1403 25.8349 58.1085 24.9119 57.6916C23.9571 57.2651 23.2218 56.4503 22.8876 55.4572C22.5853 54.5533 22.633 53.5762 23.0277 52.6977C23.1614 52.3954 23.3301 52.1248 23.5433 51.8638C24.269 50.9695 25.3543 50.4793 26.4587 50.4793C26.9521 50.4793 27.4486 50.5748 27.9165 50.7753L28.0374 50.8199C29.6288 51.5551 30.5041 53.2579 30.1667 54.9766V54.9798ZM48.1655 58.4745C48.1941 58.2995 48.2482 58.1308 48.3278 57.9525C48.541 57.4815 48.8784 57.1027 49.3113 56.8417C49.7155 56.5903 50.1738 56.463 50.6321 56.463C50.9823 56.463 51.3324 56.5362 51.6602 56.6858C52.2745 56.9627 52.7423 57.4624 52.9811 58.0894C53.2198 58.7196 53.1975 59.4039 52.9238 60.015C52.6469 60.6293 52.1503 61.1003 51.5233 61.339C50.8931 61.5778 50.2088 61.5587 49.5946 61.2786C48.5379 60.8043 47.9363 59.6362 48.1687 58.4745H48.1655ZM47.5321 55.8041C47.1374 56.1861 46.8064 56.6349 46.5709 57.1505C46.5645 57.1664 46.5582 57.1855 46.5518 57.2014L32.1687 54.3878C32.2196 52.4049 31.233 50.543 29.527 49.4513L32.3756 42.6878C33.3241 42.9997 34.3044 43.1557 35.2878 43.1557C35.8226 43.1557 36.3573 43.1079 36.8888 43.0156C37.6972 42.8756 38.4675 42.6305 39.1963 42.2995L47.5321 55.7978V55.8041ZM42.1436 36.7996C41.1124 39.0785 39.0276 40.6922 36.5578 41.1187C35.0969 41.3765 33.5914 41.1824 32.2101 40.5585C30.3831 39.7374 28.9859 38.2542 28.2729 36.3795C27.56 34.5016 27.6237 32.4583 28.4512 30.625C28.6803 30.1126 28.9477 29.6511 29.2692 29.215C30.7173 27.2799 32.9962 26.2073 35.3165 26.2073C36.3541 26.2073 37.4012 26.4205 38.3879 26.8661C40.2148 27.6873 41.6121 29.1704 42.3218 31.0451C43.0348 32.923 42.9711 34.9663 42.1436 36.7964V36.7996ZM54.3656 40.4217L44.3334 36.4304C44.9349 34.4475 44.8776 32.3342 44.1297 30.364C43.2353 28.0055 41.4784 26.1372 39.1804 25.1092C38.2733 24.6986 37.328 24.4535 36.3732 24.3453L36.7074 14.6632C37.8596 14.5041 38.9322 13.9885 39.782 13.1864L49.9128 20.7615C49.776 20.9779 49.6518 21.2039 49.5436 21.4426C49.2222 22.1428 49.0567 22.8876 49.0439 23.6324C48.9548 26.0004 50.2948 28.152 52.4495 29.11C53.2102 29.4569 54.0218 29.6288 54.8334 29.6288C55.1549 29.6288 55.4764 29.6001 55.7978 29.5428L57.2651 38.0982C56.0652 38.5247 55.0403 39.3395 54.3688 40.4312L54.3656 40.4217ZM62.4976 44.8808C61.6637 46.7268 59.4772 47.5543 57.6279 46.7172C55.8233 45.9088 54.9894 43.84 55.7278 42.0099L55.7851 41.8539C56.2912 40.7368 57.316 39.9474 58.535 39.7405C58.7451 39.7023 58.9552 39.6833 59.1652 39.6833C59.6713 39.6833 60.1774 39.7915 60.6548 40.0079C61.5523 40.4121 62.2398 41.141 62.5868 42.0608C62.9337 42.9806 62.905 43.9832 62.4976 44.8808Z" fill="#1A2433"/>
</g>
<defs>
<clipPath id="clip0_1042_3994">
<rect width="69" height="69" fill="white"/>
</clipPath>
</defs>
</svg>
