<?xml version="1.0" encoding="utf-8"?>
<svg width="63" height="63" viewBox="0 0 63 63" fill="none" xmlns="http://www.w3.org/2000/svg">
<path d="M24.4392 27.407C26.553 25.2932 26.553 21.866 24.4392 19.7522C22.3254 17.6384 18.8982 17.6384 16.7844 19.7522C14.6706 21.866 14.6706 25.2932 16.7844 27.407C18.8982 29.5208 22.3254 29.5208 24.4392 27.407Z" fill="white"/>
<path d="M20.6116 29.8462C17.1571 29.8462 14.3457 27.0348 14.3457 23.5803C14.3457 20.1258 17.1571 17.3145 20.6116 17.3145C24.0661 17.3145 26.8775 20.1258 26.8775 23.5803C26.8775 27.0348 24.0661 29.8462 20.6116 29.8462ZM20.6116 19.0207C18.0968 19.0207 16.052 21.0656 16.052 23.5803C16.052 26.0951 18.0968 28.14 20.6116 28.14C23.1263 28.14 25.1712 26.0951 25.1712 23.5803C25.1712 21.0656 23.1263 19.0207 20.6116 19.0207Z" fill="#1A2433"/>
<path d="M43.3439 34.9993C46.3333 34.9993 48.7567 32.576 48.7567 29.5866C48.7567 26.5972 46.3333 24.1738 43.3439 24.1738C40.3545 24.1738 37.9312 26.5972 37.9312 29.5866C37.9312 32.576 40.3545 34.9993 43.3439 34.9993Z" fill="#FFCB65"/>
<path d="M44.9528 19.0781C47.9036 18.5992 49.9074 15.8188 49.4284 12.8681C48.9494 9.9173 46.1691 7.91353 43.2183 8.3925C40.2675 8.87148 38.2638 11.6518 38.7428 14.6026C39.2217 17.5533 42.0021 19.5571 44.9528 19.0781Z" fill="white"/>
<path d="M23.9403 14.1115C26.8497 13.4248 28.6516 10.5096 27.9649 7.60013C27.2782 4.69069 24.363 2.88879 21.4536 3.57548C18.5441 4.26217 16.7422 7.17741 17.4289 10.0869C18.1156 12.9963 21.0308 14.7982 23.9403 14.1115Z" fill="#FFCB65"/>
<path d="M28.6106 35.2268C30.7244 33.113 30.7244 29.6858 28.6106 27.572C26.4968 25.4582 23.0696 25.4582 20.9558 27.572C18.842 29.6858 18.842 33.113 20.9558 35.2268C23.0696 37.3406 26.4968 37.3406 28.6106 35.2268Z" fill="#FFCB65"/>
<path d="M43.344 35.8521C39.8895 35.8521 37.0781 33.0407 37.0781 29.5862C37.0781 26.1317 39.8895 23.3203 43.344 23.3203C46.7985 23.3203 49.6099 26.1317 49.6099 29.5862C49.6099 33.0407 46.7985 35.8521 43.344 35.8521ZM43.344 25.0266C40.8292 25.0266 38.7844 27.0714 38.7844 29.5862C38.7844 32.1009 40.8292 34.1458 43.344 34.1458C45.8587 34.1458 47.9036 32.1009 47.9036 29.5862C47.9036 27.0714 45.8587 25.0266 43.344 25.0266Z" fill="#1A2433"/>
<path d="M44.0842 20.0025C40.6297 20.0025 37.8184 17.1911 37.8184 13.7366C37.8184 10.2821 40.6297 7.4707 44.0842 7.4707C47.5387 7.4707 50.3501 10.2821 50.3501 13.7366C50.3501 17.1911 47.5387 20.0025 44.0842 20.0025ZM44.0842 9.17695C41.5695 9.17695 39.5246 11.2218 39.5246 13.7366C39.5246 16.2513 41.5695 18.2962 44.0842 18.2962C46.599 18.2962 48.6439 16.2513 48.6439 13.7366C48.6439 11.2218 46.599 9.17695 44.0842 9.17695Z" fill="#1A2433"/>
<path d="M22.6958 15.104C19.2413 15.104 16.4299 12.2926 16.4299 8.83814C16.4299 5.38364 19.2413 2.57227 22.6958 2.57227C26.1503 2.57227 28.9617 5.38364 28.9617 8.83814C28.9617 12.2926 26.1503 15.104 22.6958 15.104ZM22.6958 4.27852C20.1811 4.27852 18.1362 6.32339 18.1362 8.83814C18.1362 11.3529 20.1811 13.3978 22.6958 13.3978C25.2106 13.3978 27.2554 11.3529 27.2554 8.83814C27.2554 6.32339 25.2106 4.27852 22.6958 4.27852Z" fill="#1A2433"/>
<path d="M24.7827 37.6636C21.3282 37.6636 18.5168 34.8522 18.5168 31.3977C18.5168 27.9432 21.3282 25.1318 24.7827 25.1318C28.2372 25.1318 31.0486 27.9432 31.0486 31.3977C31.0486 34.8522 28.2372 37.6636 24.7827 37.6636ZM24.7827 26.8381C22.268 26.8381 20.2231 28.883 20.2231 31.3977C20.2231 33.9125 22.268 35.9573 24.7827 35.9573C27.2975 35.9573 29.3423 33.9125 29.3423 31.3977C29.3423 28.883 27.2975 26.8381 24.7827 26.8381Z" fill="#1A2433"/>
<path d="M15.6976 33.0249H49.4157C51.5446 33.0249 53.2744 34.7548 53.2744 36.8837V57.986C53.2744 60.1149 51.5446 61.8448 49.4157 61.8448H16.2856C13.8312 61.8448 11.8362 59.8524 11.8362 57.3954V36.8837C11.8362 34.7548 13.5661 33.0249 15.6949 33.0249H15.6976Z" fill="white"/>
<path d="M53.2769 37.7632H11.8413V56.9913H53.2769V37.7632Z" fill="#FFCB65"/>
<path d="M33.1302 21.9868C32.6603 21.9868 32.2771 21.6036 32.2771 21.1337V2.21006C32.2771 1.74018 32.6577 1.35693 33.1302 1.35693C33.6027 1.35693 33.9834 1.74018 33.9834 2.21006V21.1337C33.9834 21.6036 33.6001 21.9868 33.1302 21.9868Z" fill="#1A2433"/>
<path d="M28.1084 19.6641L33.13 28.3581L38.149 19.6641H28.1084Z" fill="#1A2433"/>
<path d="M25.3182 56.9941V61.8425H15.6924C13.5661 61.8425 11.8389 59.5273 11.8389 57.401V56.9941H25.3182Z" fill="#FFCB65"/>
<path d="M40.2466 56.9941H32.8362V61.8425H40.2466V56.9941Z" fill="#FFCB65"/>
<path d="M31.2216 49.1976C31.2216 50.0717 30.8961 50.7752 30.2425 51.316C29.7175 51.7543 29.056 52.0116 28.2554 52.093V53.4055H26.4704V52.0116C25.402 51.7885 24.4176 51.2556 23.5146 50.4182L24.8035 48.8406C25.8483 49.7515 26.8195 50.2108 27.7094 50.2108C28.1084 50.2108 28.4208 50.1295 28.6439 49.951C28.8723 49.7803 28.9851 49.552 28.9851 49.2606C28.9851 48.9692 28.867 48.7356 28.6308 48.565C28.3866 48.3943 27.9115 48.2237 27.2001 48.0452C26.0661 47.7775 25.2445 47.431 24.7169 46.9926C24.1971 46.5621 23.932 45.8875 23.932 44.9687C23.932 44.05 24.2654 43.3386 24.9243 42.8346C25.3626 42.5012 25.8798 42.2781 26.473 42.1678V40.8711H28.258V42.1521C28.6203 42.2046 28.9851 42.2938 29.3474 42.4198C29.9931 42.643 30.5628 42.9606 31.0431 43.3596L29.9459 44.9451C29.1006 44.3072 28.2265 43.9896 27.3314 43.9896C26.977 43.9896 26.6856 44.071 26.4783 44.2416C26.2709 44.4201 26.1659 44.6406 26.1659 44.9241C26.1659 45.2076 26.2919 45.436 26.5439 45.5987C26.8038 45.7693 27.3891 45.961 28.3079 46.192C29.2345 46.4151 29.9459 46.7563 30.4578 47.2157C30.9696 47.6672 31.2216 48.3261 31.2216 49.195V49.1976Z" fill="#1A2433"/>
<path d="M17.4274 45.5309V52.9412C17.4274 53.4164 17.0494 53.7944 16.5743 53.7944C16.0992 53.7944 15.7212 53.4164 15.7212 52.9412V45.5309C15.7212 45.0636 16.1071 44.6777 16.5743 44.6777C17.0416 44.6777 17.4274 45.0636 17.4274 45.5309Z" fill="white"/>
<path d="M16.5794 43.7795C16.1096 43.7795 15.7263 43.3989 15.7263 42.9264V41.816C15.7263 41.3461 16.1069 40.9629 16.5794 40.9629C17.0519 40.9629 17.4326 41.3435 17.4326 41.816V42.9264C17.4326 43.3963 17.0519 43.7795 16.5794 43.7795Z" fill="white"/>
<path d="M53.2743 41.5959H45.5541C44.0868 41.5959 42.769 42.1891 41.8056 43.1525C40.8423 44.108 40.249 45.4336 40.249 46.901C40.249 48.3684 40.7819 49.5549 41.6718 50.5025C41.7768 50.6285 41.9028 50.7466 42.0288 50.8516C42.0366 50.8726 42.0498 50.8805 42.0655 50.8884C42.1994 50.9986 42.3333 51.1115 42.4724 51.206C42.6063 51.311 42.7454 51.3976 42.895 51.4869C42.9029 51.4948 42.9108 51.5026 42.9239 51.5079C43.0656 51.5814 43.2048 51.6549 43.3544 51.7231C43.4515 51.7756 43.546 51.8124 43.651 51.8491C43.756 51.8938 43.8584 51.9305 43.9634 51.9594C44.029 51.9804 44.1051 52.004 44.1708 52.0198C44.2758 52.0486 44.3781 52.0723 44.4884 52.0933C44.659 52.13 44.8375 52.1589 45.0134 52.1746C45.1919 52.1956 45.3704 52.2035 45.5541 52.2035H53.2743V41.5933V41.5959Z" fill="white"/>
<path d="M53.2744 43.2627V52.2061H45.5543C45.3679 52.2061 45.1921 52.1982 45.0136 52.1772C44.8351 52.1614 44.6592 52.1326 44.4886 52.0958C44.3783 52.0748 44.2733 52.0512 44.1709 52.0223C44.1053 52.0066 44.0292 51.9856 43.9636 51.9619C43.8612 51.9331 43.7562 51.8963 43.6512 51.8517C43.5488 51.8149 43.4517 51.7782 43.3546 51.7257C43.2076 51.6601 43.0658 51.5839 42.9241 51.5104C42.9083 51.5026 42.9031 51.4947 42.8952 51.4894C42.7482 51.4002 42.6064 51.3109 42.4726 51.2086C42.3308 51.1114 42.1996 51.0012 42.0657 50.8909C42.0499 50.8831 42.0368 50.8752 42.0289 50.8542C41.9029 50.7439 41.7848 50.6232 41.6746 50.5051L45.0687 48.0822L47.6464 46.2289L53.2771 43.2653L53.2744 43.2627Z" fill="#FFCB65"/>
<path d="M46.1685 48.5181C47.0629 48.5181 47.7881 47.7929 47.7881 46.8984C47.7881 46.0039 47.0629 45.2788 46.1685 45.2788C45.274 45.2788 44.5488 46.0039 44.5488 46.8984C44.5488 47.7929 45.274 48.5181 46.1685 48.5181Z" fill="#1A2433"/>
<path d="M53.2743 53.0592C52.8044 53.0592 52.4211 52.6759 52.4211 52.2061V41.5958C52.4211 41.1259 52.8044 40.7427 53.2743 40.7427C53.7441 40.7427 54.1274 41.1259 54.1274 41.5958V52.2061C54.1274 52.6759 53.7441 53.0592 53.2743 53.0592Z" fill="#1A2433"/>
<path d="M54.125 53.0592H45.5517C45.3312 53.0592 45.1186 53.0487 44.906 53.0224C44.7249 53.0067 44.5096 52.9725 44.3022 52.9279C44.1841 52.9043 44.0581 52.8754 43.9321 52.8413C43.8875 52.8334 43.7825 52.8019 43.688 52.7704C43.583 52.7415 43.4465 52.6917 43.3074 52.6339C43.2102 52.5998 43.0764 52.5473 42.9425 52.4738C42.8322 52.4265 42.6747 52.3452 42.5199 52.2612L42.3729 52.1693C42.2232 52.0774 42.0815 51.9829 41.945 51.8779C41.8452 51.8123 41.7219 51.7126 41.5932 51.6075L41.3622 51.4947L41.3071 51.3582C41.1942 51.2558 41.0945 51.1508 41.0079 51.0458C39.9762 49.9486 39.3909 48.4628 39.3909 46.9009C39.3909 45.2498 40.034 43.7037 41.1995 42.546C42.3624 41.3832 43.9085 40.7427 45.5491 40.7427H53.2692C53.7391 40.7427 54.1224 41.1259 54.1224 41.5958C54.1224 42.0053 53.8362 42.3465 53.4504 42.4305C53.8336 42.5145 54.1224 42.8558 54.1224 43.2653V53.0618L54.125 53.0592ZM43.4019 50.799C43.5042 50.8542 43.6014 50.9014 43.7011 50.946C43.814 51.0038 43.8717 51.0248 43.9347 51.0458C44.0529 51.0957 44.1237 51.1193 44.1946 51.1403C44.2681 51.1639 44.3101 51.177 44.3495 51.1875C44.4807 51.2243 44.5621 51.24 44.6514 51.2584C44.801 51.2899 44.9427 51.3135 45.0819 51.3267C45.2577 51.3477 45.4021 51.3529 45.5517 51.3529H52.4187V43.2627C52.4187 42.8794 52.6707 42.5566 53.0172 42.4489H45.5517C44.3652 42.4489 43.247 42.9135 42.407 43.7562C41.5644 44.5935 41.0997 45.7092 41.0997 46.9009C41.0997 48.027 41.5224 49.098 42.2915 49.9197C42.386 50.0325 42.47 50.1113 42.5671 50.1927L42.7614 50.3607C42.8244 50.4106 42.8847 50.4578 42.9504 50.5024C43.1 50.6153 43.2129 50.6862 43.331 50.757L43.4019 50.799Z" fill="#1A2433"/>
<path d="M53.2743 57.8474H11.836C11.3662 57.8474 10.9829 57.4641 10.9829 56.9942C10.9829 56.5244 11.3635 56.1411 11.836 56.1411H53.2717C53.7415 56.1411 54.1248 56.5244 54.1248 56.9942C54.1248 57.4641 53.7415 57.8474 53.2717 57.8474H53.2743Z" fill="#1A2433"/>
<path d="M32.2771 33.5029H24.8667V37.7633H32.2771V33.5029Z" fill="#FFCB65"/>
<path d="M52.6941 33.5054H38.6714V37.7657H52.6941V33.5054Z" fill="#FFCB65"/>
<path d="M53.2743 38.6164H11.836C11.3662 38.6164 10.9829 38.2332 10.9829 37.7633C10.9829 37.2934 11.3635 36.9102 11.836 36.9102H53.2717C53.7415 36.9102 54.1248 37.2934 54.1248 37.7633C54.1248 38.2332 53.7415 38.6164 53.2717 38.6164H53.2743Z" fill="#1A2433"/>
<path d="M49.413 62.698H15.6975C12.999 62.698 10.9856 59.8997 10.9856 57.3955V36.8837C10.9856 34.285 13.0987 32.1719 15.6975 32.1719H49.4156C52.0143 32.1719 54.1275 34.285 54.1275 36.8837V57.3955C54.1275 59.8971 52.1115 62.698 49.4156 62.698H49.413ZM15.6975 33.8781C14.0385 33.8781 12.6918 35.2274 12.6918 36.8837V57.3955C12.6918 59.023 14.0332 60.9918 15.6975 60.9918H49.4156C51.0798 60.9918 52.4212 59.0256 52.4212 57.3955V36.8837C52.4212 35.2247 51.072 33.8781 49.4156 33.8781H15.6975Z" fill="#1A2433"/>
</svg>
