<?xml version="1.0" encoding="utf-8"?>
<svg width="69" height="69" viewBox="0 0 69 69" fill="none" xmlns="http://www.w3.org/2000/svg">
<g clip-path="url(#clip0_1042_1540)">
<path d="M14.9747 60.9499H6.67096C6.15764 60.9499 5.75 60.5434 5.75 60.0316V36.8471C5.75 36.3352 6.15764 35.9287 6.67096 35.9287H14.9747C15.488 35.9287 15.8957 36.3352 15.8957 36.8471V60.0316C15.8957 60.5434 15.488 60.9499 14.9747 60.9499ZM7.57682 59.1283H14.0537V37.7654H7.57682V59.1283Z" fill="#2C2F35"/>
<path d="M28.5327 47.6716C28.1401 47.6716 27.7778 47.4157 27.657 47.0243C27.506 46.5425 27.7778 46.0306 28.2609 45.8801L34.2094 44.0434C34.3453 43.9982 34.4812 43.9982 34.602 44.0133L45.7441 45.579C46.3933 45.6693 47.0274 45.2327 47.1783 44.6004L47.2689 44.1789C47.4199 43.5014 46.9972 42.8089 46.3178 42.6433L34.5869 39.8883C34.0886 39.7678 33.5904 39.7528 33.0922 39.8581L15.141 43.1702C14.6428 43.2605 14.1597 42.9293 14.0691 42.4325C13.9785 41.9357 14.3107 41.454 14.8089 41.3636L32.76 38.0516C33.5149 37.9161 34.2698 37.9311 35.0096 38.1118L46.7405 40.8668C48.4012 41.2582 49.443 42.9293 49.0655 44.5703L48.975 44.9919C48.6126 46.5576 47.0877 47.5963 45.5025 47.3856L34.5718 45.85L28.8195 47.6265C28.729 47.6566 28.6384 47.6716 28.5478 47.6716H28.5327Z" fill="#2C2F35"/>
<path d="M27.7622 56.4034C23.4745 56.4034 19.1716 56.1475 14.8688 55.6506C14.3705 55.5904 14.0082 55.1388 14.0686 54.642C14.129 54.1452 14.5819 53.7838 15.0801 53.8441C28.8643 55.4549 42.6334 54.4312 56.0251 50.803L58.2897 50.1857C59.0748 49.975 59.2107 49.2975 59.2258 49.1018C59.256 48.9061 59.2711 48.2135 58.5615 47.8221C58.3803 47.7167 58.169 47.6716 57.9576 47.6716L45.6077 47.3855C45.1095 47.3855 44.7018 46.9489 44.7169 46.4521C44.7169 45.9553 45.1396 45.5488 45.653 45.5639L57.9878 45.8499C58.486 45.8499 58.9842 45.9854 59.4372 46.2263C60.5695 46.8285 61.2036 48.0479 61.0526 49.3125C60.9016 50.5772 60.0109 51.6159 58.7729 51.9622L56.5082 52.5795C47.0722 55.1388 37.4398 56.4184 27.7622 56.4184V56.4034Z" fill="#2C2F35"/>
<path d="M29.6938 27.0985C23.7727 27.0985 18.9604 22.2887 18.9604 16.3707C18.9604 10.4527 23.7727 5.63184 29.6938 5.63184C35.6149 5.63184 40.4271 10.4416 40.4271 16.3596C40.4271 22.2776 35.6149 27.0874 29.6938 27.0874V27.0985ZM29.6938 6.98389C24.5156 6.98389 20.3021 11.1952 20.3021 16.3707C20.3021 21.5462 24.5156 25.7575 29.6938 25.7575C34.872 25.7575 39.0855 21.5462 39.0855 16.3707C39.0855 11.1952 34.872 6.97281 29.6938 6.97281V6.98389Z" fill="#2C2F35"/>
<path d="M24.4499 14.8018V14.0218H30.1979L29.9339 14.8018H24.4499ZM24.4499 16.3258V15.5338H29.7179L29.4659 16.3258H24.4499ZM29.1059 11.0098C29.6259 11.0098 30.0979 11.0858 30.5219 11.2378C30.9459 11.3818 31.3059 11.5938 31.6019 11.8738C31.8979 12.1458 32.1059 12.4818 32.2259 12.8818L30.7139 13.5658C30.6419 13.1818 30.4619 12.9018 30.1739 12.7258C29.8859 12.5418 29.5499 12.4498 29.1659 12.4498C28.7339 12.4498 28.3739 12.5498 28.0859 12.7498C27.8059 12.9498 27.5939 13.2498 27.4499 13.6498C27.3139 14.0418 27.2459 14.5218 27.2459 15.0898C27.2459 15.9378 27.3939 16.5898 27.6899 17.0458C27.9939 17.5018 28.4899 17.7298 29.1779 17.7298C29.5779 17.7298 29.9099 17.6298 30.1739 17.4298C30.4379 17.2218 30.6139 16.9098 30.7019 16.4938L32.2739 16.9618C32.1539 17.4498 31.9459 17.8578 31.6499 18.1858C31.3619 18.5138 30.9979 18.7618 30.5579 18.9298C30.1259 19.0898 29.6459 19.1698 29.1179 19.1698C28.3339 19.1698 27.6619 19.0098 27.1019 18.6898C26.5419 18.3618 26.1099 17.8938 25.8059 17.2858C25.5099 16.6778 25.3619 15.9458 25.3619 15.0898C25.3619 14.2338 25.5139 13.5018 25.8179 12.8938C26.1299 12.2858 26.5659 11.8218 27.1259 11.5018C27.6859 11.1738 28.3459 11.0098 29.1059 11.0098Z" fill="#2C2F35"/>
</g>
<defs>
<clipPath id="clip0_1042_1540">
<rect width="69" height="69" fill="white"/>
</clipPath>
</defs>
</svg>
