<?xml version="1.0" encoding="utf-8"?>
<svg width="63" height="63" viewBox="0 0 63 63" fill="none" xmlns="http://www.w3.org/2000/svg">
<path d="M58.9313 18.3303L31.3452 6.1582L3.75903 18.3303V23.3992H58.9313V18.3303Z" fill="white"/>
<path d="M6.47583 20.6824V20.0996L31.3451 9.12451L56.217 20.0996V20.6824H6.47583Z" fill="#FFCB65"/>
<path d="M56.8968 48.5967H5.7959V52.7206H56.8968V48.5967Z" fill="white"/>
<path d="M60.0811 52.7207H3.25244V56.8446H60.0811V52.7207Z" fill="#FFCB65"/>
<path d="M32.1548 19.8777C34.4693 19.3272 35.8992 17.0047 35.3487 14.6902C34.7982 12.3758 32.4756 10.9458 30.1612 11.4963C27.8467 12.0469 26.4168 14.3694 26.9673 16.6839C27.5178 18.9983 29.8403 20.4283 32.1548 19.8777Z" fill="white"/>
<path d="M59.7843 24.2526H2.90576V17.7741L31.345 5.22656L59.7843 17.7741V24.2526ZM4.61201 22.5463H58.078V18.8871L31.345 7.09031L4.61201 18.8844V22.5437V22.5463Z" fill="#1A2433"/>
<path d="M57.75 53.5736H4.94287V47.7461H57.7474V53.5736H57.75ZM6.64912 51.8673H56.0437V49.4497H6.64912V51.8673Z" fill="#1A2433"/>
<path d="M60.9341 57.6947H2.39917V51.8672H60.9341V57.6947ZM4.10542 55.9884H59.2304V53.5708H4.10542V55.9884Z" fill="#1A2433"/>
<path d="M11.8545 44.7299V27.4312C10.4659 26.7303 9.38442 25.3259 8.9303 23.5908H18.7714C18.3147 25.3259 17.2332 26.7329 15.8419 27.4312V44.7299C17.241 45.4308 18.3278 46.8483 18.7767 48.5966H8.92505C9.3713 46.8483 10.4528 45.4361 11.8545 44.7299Z" fill="#FFCB65"/>
<path d="M23.5621 44.7299V27.4312C22.1734 26.7303 21.0919 25.3259 20.6378 23.5908H30.4789C30.0222 25.3259 28.9407 26.7329 27.5494 27.4312V44.7299C28.9486 45.4308 30.0353 46.8483 30.4842 48.5966H20.6326C21.0788 46.8483 22.1603 45.4361 23.5621 44.7299Z" fill="white"/>
<path d="M35.2696 44.7299V27.4312C33.881 26.7303 32.7995 25.3259 32.3453 23.5908H42.1865C41.7297 25.3259 40.6482 26.7329 39.257 27.4312V44.7299C40.6561 45.4308 41.7428 46.8483 42.1917 48.5966H32.3401C32.7863 46.8483 33.8678 45.4361 35.2696 44.7299Z" fill="#FFCB65"/>
<path d="M19.8764 49.4497H7.82764L8.10064 48.3839C8.55739 46.5963 9.60214 45.1105 11.0039 44.2312V27.9247C9.61264 27.0505 8.57051 25.5779 8.10851 23.8008L7.83026 22.7324H19.8816L19.5981 23.8034C19.1309 25.5805 18.0861 27.0532 16.6975 27.9247V44.2285C18.0993 45.1027 19.1466 46.5884 19.6034 48.3839L19.8764 49.447V49.4497ZM10.135 47.7434H17.5664C17.0886 46.7407 16.3458 45.9348 15.4611 45.4938L14.9886 45.2575V26.9035L15.4585 26.6673C16.3458 26.221 17.0755 25.4362 17.5533 24.4413H10.1429C10.618 25.4362 11.3478 26.221 12.235 26.6673L12.7049 26.9035V45.2549L12.235 45.4912C11.3373 45.9427 10.6023 46.7381 10.1298 47.7434H10.135Z" fill="#1A2433"/>
<path d="M31.5839 49.4497H19.5352L19.8082 48.3839C20.2649 46.5963 21.3097 45.1105 22.7088 44.2312V27.9247C21.3175 27.0532 20.2754 25.5779 19.8134 23.8008L19.5352 22.7324H31.5865L31.303 23.8034C30.8358 25.5805 29.791 27.0532 28.4024 27.9247V44.2285C29.8042 45.1027 30.8515 46.5884 31.3109 48.3839L31.5839 49.4497ZM21.8425 47.7434H29.2739C28.7962 46.7407 28.0533 45.9348 27.1687 45.4938L26.6962 45.2575V26.9035L27.166 26.6673C28.0533 26.221 28.783 25.4362 29.2608 24.4413H21.853C22.3282 25.4362 23.0579 26.221 23.9452 26.6673L24.415 26.9035V45.2549L23.9452 45.4912C23.0474 45.9427 22.3124 46.7381 21.8399 47.7434H21.8425Z" fill="#1A2433"/>
<path d="M46.8431 44.7299V27.4312C45.4544 26.7303 44.373 25.3259 43.9188 23.5908H53.76C53.3032 25.3259 52.2217 26.7329 50.8304 27.4312V44.7299C52.2296 45.4308 53.3163 46.8483 53.7652 48.5966H43.9136C44.3598 46.8483 45.4413 45.4361 46.8431 44.7299Z" fill="white"/>
<path d="M54.8625 49.4497H42.8137L43.0867 48.3839C43.5435 46.5963 44.5882 45.1105 45.9873 44.2312V27.9247C44.5961 27.0532 43.554 25.5779 43.092 23.8008L42.8137 22.7324H54.8651L54.5816 23.8034C54.1143 25.5805 53.0696 27.0532 51.681 27.9247V44.2285C53.0827 45.1027 54.1301 46.5884 54.5895 48.3839L54.8625 49.447V49.4497ZM45.1211 47.7434H52.5525C52.0747 46.7407 51.3318 45.9348 50.4472 45.4938L49.9747 45.2575V26.9035L50.4446 26.6673C51.3318 26.221 52.0616 25.4362 52.5393 24.4413H45.129C45.6041 25.4362 46.3338 26.221 47.2211 26.6673L47.691 26.9035V45.2549L47.2211 45.4912C46.3233 45.9427 45.5883 46.7381 45.1158 47.7434H45.1211Z" fill="#1A2433"/>
<path d="M43.289 49.4497H31.2402L31.5132 48.3839C31.97 46.5963 33.0147 45.1105 34.4165 44.2312V27.9247C33.0252 27.0505 31.9831 25.5779 31.5211 23.8008L31.2429 22.7324H43.2942L43.0107 23.8034C42.5435 25.5805 41.4987 27.0532 40.1101 27.9247V44.2285C41.5119 45.1027 42.5592 46.5884 43.016 48.3839L43.289 49.447V49.4497ZM33.5476 47.7434H40.979C40.5012 46.7407 39.7584 45.9348 38.8737 45.4938L38.4012 45.2575V26.9035L38.8711 26.6673C39.7584 26.221 40.4881 25.4362 40.9659 24.4413H33.5555C34.0306 25.4362 34.7604 26.221 35.6476 26.6673L36.1175 26.9035V45.2549L35.6476 45.4912C34.7499 45.9427 34.0149 46.7381 33.5424 47.7434H33.5476Z" fill="#1A2433"/>
<path d="M35.4663 15.6817C35.4663 18.0652 33.5396 19.992 31.1561 19.992C29.7307 19.992 28.4681 19.299 27.6885 18.228L34.4006 12.8599C35.0647 13.6132 35.4663 14.6055 35.4663 15.6844V15.6817Z" fill="#FFCB65"/>
<path d="M31.1561 20.8479C28.3106 20.8479 25.9954 18.5326 25.9954 15.6871C25.9954 12.8416 28.3106 10.5264 31.1561 10.5264C34.0016 10.5264 36.3169 12.8416 36.3169 15.6871C36.3169 18.5326 34.0016 20.8479 31.1561 20.8479ZM31.1561 12.2326C29.2504 12.2326 27.7016 13.7814 27.7016 15.6871C27.7016 17.5929 29.2504 19.1416 31.1561 19.1416C33.0619 19.1416 34.6106 17.5929 34.6106 15.6871C34.6106 13.7814 33.0619 12.2326 31.1561 12.2326Z" fill="#1A2433"/>
</svg>
