<?xml version="1.0" encoding="utf-8"?>
<svg width="69" height="69" viewBox="0 0 69 69" fill="none" xmlns="http://www.w3.org/2000/svg">
<path d="M28.8115 19.4067H19.3054C18.7773 19.4067 18.3472 18.9737 18.3472 18.4421C18.3472 17.9105 18.7773 17.4775 19.3054 17.4775H28.8169C29.3451 17.4775 29.7752 17.9105 29.7752 18.4421C29.7752 18.9737 29.3451 19.4067 28.8169 19.4067H28.8115Z" fill="black"/>
<path d="M39.3416 19.4067H33.9787C33.4506 19.4067 33.0205 18.9737 33.0205 18.4421C33.0205 17.9105 33.4506 17.4775 33.9787 17.4775H39.3416C39.8697 17.4775 40.2998 17.9105 40.2998 18.4421C40.2998 18.9737 39.8697 19.4067 39.3416 19.4067Z" fill="black"/>
<path d="M31.0437 27.435H19.3054C18.7773 27.435 18.3472 27.0021 18.3472 26.4704C18.3472 25.9388 18.7773 25.5059 19.3054 25.5059H31.0492C31.5773 25.5059 32.0074 25.9388 32.0074 26.4704C32.0074 27.0021 31.5773 27.435 31.0492 27.435H31.0437Z" fill="black"/>
<path d="M50.187 27.435H36.6575C36.1293 27.435 35.6992 27.0021 35.6992 26.4704C35.6992 25.9388 36.1293 25.5059 36.6575 25.5059H50.187C50.7152 25.5059 51.1453 25.9388 51.1453 26.4704C51.1453 27.0021 50.7152 27.435 50.187 27.435Z" fill="black"/>
<path d="M50.1864 35.4648H27.216C26.6879 35.4648 26.2578 35.0318 26.2578 34.5002C26.2578 33.9686 26.6879 33.5356 27.216 33.5356H50.1864C50.7145 33.5356 51.1446 33.9686 51.1446 34.5002C51.1446 35.0318 50.7145 35.4648 50.1864 35.4648Z" fill="black"/>
<path d="M22.6973 35.4648H19.3054C18.7773 35.4648 18.3472 35.0318 18.3472 34.5002C18.3472 33.9686 18.7773 33.5356 19.3054 33.5356H22.6973C23.2254 33.5356 23.6556 33.9686 23.6556 34.5002C23.6556 35.0318 23.2254 35.4648 22.6973 35.4648Z" fill="black"/>
<path d="M31.0437 43.4936H19.3054C18.7773 43.4936 18.3472 43.0606 18.3472 42.529C18.3472 41.9974 18.7773 41.5645 19.3054 41.5645H31.0492C31.5773 41.5645 32.0074 41.9974 32.0074 42.529C32.0074 43.0606 31.5773 43.4936 31.0492 43.4936H31.0437Z" fill="black"/>
<path d="M37.425 43.4936H34.7463C34.2182 43.4936 33.7881 43.0606 33.7881 42.529C33.7881 41.9974 34.2182 41.5645 34.7463 41.5645H37.425C37.9531 41.5645 38.3832 41.9974 38.3832 42.529C38.3832 43.0606 37.9531 43.4936 37.425 43.4936Z" fill="black"/>
<path d="M50.1875 43.4936H41.1496C40.6215 43.4936 40.1914 43.0606 40.1914 42.529C40.1914 41.9974 40.6215 41.5645 41.1496 41.5645H50.1875C50.7156 41.5645 51.1457 41.9974 51.1457 42.529C51.1457 43.0606 50.7156 43.4936 50.1875 43.4936Z" fill="black"/>
<path d="M50.1862 51.5224H47.5075C46.9794 51.5224 46.5493 51.0895 46.5493 50.5578C46.5493 50.0262 46.9794 49.5933 47.5075 49.5933H50.1862C50.7144 49.5933 51.1445 50.0262 51.1445 50.5578C51.1445 51.0895 50.7144 51.5224 50.1862 51.5224Z" fill="black"/>
<path d="M43.3378 51.5224H27.5378C27.0097 51.5224 26.5796 51.0895 26.5796 50.5578C26.5796 50.0262 27.0097 49.5933 27.5378 49.5933H43.3378C43.8659 49.5933 44.296 50.0262 44.296 50.5578C44.296 51.0895 43.8659 51.5224 43.3378 51.5224Z" fill="black"/>
<path d="M56.5457 15.5594H48.5041C47.976 15.5594 47.5459 15.1265 47.5459 14.5949V6.50007C47.5459 6.11095 47.78 5.7602 48.1339 5.61222C48.4932 5.46425 48.9016 5.54646 49.1792 5.82049L57.2208 13.9153C57.493 14.1893 57.5747 14.6058 57.4277 14.9675C57.2807 15.3292 56.9322 15.5649 56.5457 15.5649V15.5594ZM49.4624 13.6303H54.2372L49.4624 8.82383V13.6303Z" fill="black"/>
<path d="M56.5461 63.4646H12.9465C12.4184 63.4646 11.9883 63.0317 11.9883 62.5001V6.49973C11.9883 5.96812 12.4184 5.53516 12.9465 5.53516H48.5045C48.7604 5.53516 49 5.63929 49.1797 5.81466L57.2212 13.9094C57.4009 14.0903 57.4989 14.3369 57.4989 14.589V62.4946C57.4989 63.0262 57.0687 63.4592 56.5406 63.4592L56.5461 63.4646ZM13.8993 61.5355H55.5878V14.9946L48.1071 7.46431H13.9047V61.541L13.8993 61.5355Z" fill="black"/>
</svg>
