<?xml version="1.0" encoding="utf-8"?>
<svg width="69" height="69" viewBox="0 0 69 69" fill="none" xmlns="http://www.w3.org/2000/svg">
<path d="M22.5185 31.1505C22.806 32.9474 24.9371 33.8854 26.45 32.6958C27.4455 32.0669 27.751 31.668 28.6243 32.0669C29.0411 32.261 29.3214 32.6239 29.3933 33.0804L30.5685 40.4404L23.1294 41.6299C22.7089 41.7197 22.3747 41.9929 22.195 42.3882C21.7997 43.2579 22.195 43.5633 22.8239 44.5588C24.0135 46.0789 23.0755 48.21 21.2786 48.4975C19.9346 48.7132 18.6732 47.7932 18.4575 46.4491C18.2347 45.0619 19.4386 44.0054 18.4935 42.9811C18.188 42.6433 17.746 42.4924 17.2932 42.5643L10.0122 43.7286L6.72754 23.1724L27.2838 19.8877L28.1391 25.2496L28.441 27.1722C28.5128 27.625 28.3619 28.0635 28.0241 28.3725C27.0071 29.3177 25.9397 28.1138 24.5561 28.3366C23.2157 28.5522 22.2993 29.81 22.5149 31.1577L22.5185 31.1505Z" fill="#FFCB65"/>
<path d="M27.0107 37.8602L22.479 38.5861L16.8655 39.4737L12.6105 40.153L10.3105 25.7492L24.7143 23.4492L24.991 25.1958C24.9695 25.1886 24.9443 25.1886 24.9227 25.1886C24.6352 25.1886 24.3513 25.2102 24.0818 25.2569C22.6084 25.4869 21.3182 26.2847 20.4449 27.4886C19.5716 28.6925 19.2159 30.1695 19.4566 31.643C19.8879 34.3598 22.2059 36.34 24.9551 36.34C25.566 36.34 26.159 36.2394 26.7232 36.0525L27.0179 37.8602H27.0107Z" fill="white"/>
<path d="M38.6291 49.7303C38.8448 51.0743 37.9248 52.3357 36.5879 52.5514C35.2007 52.7742 34.1369 51.5703 33.1199 52.5154C32.7821 52.8209 32.6312 53.2629 32.703 53.7157L32.9977 55.6025L33.8602 61.0003L13.304 64.285L10.0193 43.7287L17.3002 42.5643C17.753 42.4925 18.1915 42.6434 18.5005 42.9812C19.4457 44.0054 18.2418 45.0656 18.4646 46.4492C18.6802 47.7932 19.9416 48.7132 21.2857 48.4976C23.0826 48.2101 24.0205 46.079 22.831 44.5589C22.2021 43.5634 21.7601 43.3693 22.2021 42.3882C22.3782 41.9929 22.716 41.7234 23.1365 41.63L30.5755 40.4404L31.7507 47.8004C31.8226 48.2568 32.1065 48.6234 32.5198 48.8139C33.3966 49.2092 33.6985 48.8139 34.694 48.185C36.2069 46.999 38.338 47.9334 38.6255 49.7303H38.6291Z" fill="#FFCB65"/>
<path d="M30.2916 58.4128L15.8879 60.7128L13.5879 46.309L15.3273 46.0323C15.3201 46.3198 15.3416 46.6181 15.3884 46.9343C15.8304 49.662 18.1376 51.6386 20.894 51.6386C21.1887 51.6386 21.487 51.617 21.7745 51.5703C23.7115 51.2612 25.3646 49.9315 26.0905 48.0951C26.5757 46.8517 26.6009 45.5148 26.184 44.2965L27.9916 44.009L28.678 48.2892L29.9215 56.0804L30.2916 58.4128Z" fill="white"/>
<path d="M51.1283 37.1557L54.413 57.712L33.8568 60.9967L32.9943 55.5989L32.6996 53.7121C32.6277 53.2593 32.7787 52.8209 33.1165 52.5118C34.1335 51.5667 35.2008 52.7706 36.5844 52.5478C37.9249 52.3321 38.8413 51.0743 38.6257 49.7267C38.3382 47.9298 36.2071 46.9918 34.6941 48.1814C33.6987 48.8103 33.3932 49.2092 32.5199 48.8103C32.103 48.6162 31.8227 48.2532 31.7508 47.7968L30.5757 40.4368L37.9357 39.2617C38.3921 39.1898 38.7586 38.9059 38.9491 38.4926C39.3444 37.6157 38.9491 37.3138 38.3202 36.3184C37.1343 34.8054 38.0687 32.6743 39.8655 32.3868C41.2096 32.1712 42.471 33.0912 42.6866 34.4281C42.9094 35.8153 41.7055 36.879 42.6507 37.896C42.9562 38.2338 43.3982 38.3848 43.851 38.3129L45.7413 38.0182L51.1319 37.1557H51.1283Z" fill="#FFCB65"/>
<path d="M50.8443 55.1281L36.4406 57.4281L36.1638 55.6887H36.2321C36.5196 55.6887 36.7963 55.6672 37.0731 55.6205C38.5465 55.3905 39.8366 54.5926 40.7099 53.3887C41.5832 52.1848 41.939 50.7078 41.6982 49.2344C41.267 46.5175 38.949 44.5373 36.1998 44.5373C35.5888 44.5373 34.9959 44.638 34.4317 44.832L34.137 43.0244L38.4243 42.338L46.2156 41.0945L48.5407 40.7244L50.8407 55.1281H50.8443Z" fill="white"/>
<path d="M60.3355 8.30521L56.7526 28.8111L51.3763 27.8696L49.4896 27.5354C49.0368 27.4563 48.6738 27.1688 48.4905 26.7519C47.9263 25.4833 49.4105 24.8652 49.6549 23.4852C49.8885 22.1483 48.9936 20.869 47.6532 20.6354C45.8599 20.3227 44.2822 22.0333 44.9111 23.8518C45.1807 24.9982 45.4574 25.415 44.7997 26.1158C44.4835 26.4465 44.0451 26.5938 43.5886 26.5147L36.2466 25.2318L37.5296 17.8897C37.6086 17.4333 37.4613 16.9949 37.1307 16.6786C36.4299 16.0174 36.013 16.2977 34.8666 16.5672C33.0482 17.1961 31.3376 15.6185 31.6502 13.8252C31.8838 12.4847 33.1632 11.5899 34.5001 11.8235C35.8836 12.0643 36.4982 13.5485 37.7668 12.9879C38.1836 12.8082 38.4711 12.4416 38.5502 11.9888L38.8916 10.0733L39.826 4.72583L60.3319 8.3088L60.3355 8.30521Z" fill="white"/>
<path d="M57.5969 30.0113L49.3061 28.5558C48.5155 28.4193 47.8542 27.8982 47.538 27.1615C46.9738 25.8893 47.6494 24.9369 48.0986 24.308C48.3538 23.9522 48.5694 23.6468 48.6305 23.3018C48.7671 22.5291 48.246 21.7888 47.4733 21.6522C46.9738 21.566 46.4743 21.7457 46.14 22.1374C45.813 22.5219 45.7232 23.0179 45.8921 23.503L45.9208 23.6036C45.9639 23.7833 46.0071 23.9415 46.043 24.0888C46.2694 24.9369 46.4994 25.8138 45.5543 26.8165C44.9864 27.4094 44.2066 27.6682 43.4088 27.5244L35.0461 26.0618L36.5088 17.6991C36.5268 17.5877 36.498 17.4979 36.4153 17.4152C36.3111 17.3146 36.2608 17.2966 36.2572 17.2966C36.1782 17.2822 35.8835 17.3649 35.6499 17.4296C35.4989 17.4691 35.3372 17.5122 35.1575 17.5554C33.9896 17.9399 32.7461 17.6991 31.8189 16.9085C30.8594 16.0927 30.4174 14.8708 30.633 13.6346C30.7947 12.7146 31.305 11.9096 32.0705 11.3705C32.836 10.835 33.7632 10.6266 34.6832 10.7883C35.4918 10.9285 36.0703 11.3418 36.5375 11.676C37.1557 12.1144 37.2024 12.0929 37.3533 12.0246C37.4575 11.9779 37.5186 11.9024 37.5366 11.7982L38.9885 3.51099L61.5393 7.44974L57.6005 30.0005L57.5969 30.0113ZM47.2182 19.5571C47.4194 19.5571 47.6278 19.5751 47.8327 19.611C49.7338 19.9452 51.0096 21.76 50.6789 23.6611C50.5388 24.4697 50.1255 25.0483 49.7913 25.5155C49.3528 26.1301 49.3744 26.1804 49.4427 26.3313C49.4894 26.4355 49.5649 26.4966 49.6691 26.5146L55.9114 27.6107L59.1386 9.14958L40.6775 5.92239L39.5814 12.1647C39.4449 12.9554 38.9202 13.6166 38.1871 13.9329C36.9149 14.4971 35.9625 13.8215 35.3336 13.3722C34.9778 13.1171 34.6724 12.9015 34.3274 12.8404C33.9536 12.7757 33.5763 12.8583 33.2636 13.0775C32.951 13.2968 32.7425 13.6238 32.6778 13.9976C32.5916 14.5007 32.7713 14.9966 33.163 15.3308C33.5475 15.6579 34.0435 15.7477 34.5286 15.5788L34.6293 15.55C34.8089 15.5069 34.9707 15.4638 35.1144 15.4279C35.9625 15.2015 36.8358 14.9715 37.8421 15.9166C38.435 16.4844 38.6902 17.2643 38.55 18.0621L37.4468 24.3799L43.7646 25.4832C43.876 25.5011 43.9658 25.4724 44.0449 25.3897C44.1455 25.2819 44.1671 25.2316 44.1671 25.2316C44.1778 25.1561 44.0988 24.8615 44.0341 24.6243C43.9946 24.4769 43.9514 24.3116 43.9083 24.1319C43.5238 22.9676 43.7646 21.7205 44.5552 20.7933C45.2344 19.9955 46.1975 19.5535 47.2146 19.5535L47.2182 19.5571Z" fill="#1A2433"/>
<path d="M56.7309 10.8351L54.2225 25.2101L52.4939 24.901C52.5873 24.6315 52.67 24.3368 52.7239 24.0206C52.979 22.5543 52.6556 21.0773 51.7967 19.859C50.9378 18.6371 49.6584 17.8285 48.1886 17.5662C47.8723 17.5123 47.5489 17.4799 47.2219 17.4799C45.4286 17.4799 43.7323 18.3604 42.6794 19.8338C42.0001 20.7826 41.6515 21.8895 41.6515 23.0071L39.8511 22.6981L41.9606 10.6195L42.3631 8.32666L56.7273 10.8351H56.7309Z" fill="#FFCB65"/>
<path d="M51.9907 35.9698L43.682 37.2923C43.5742 37.3103 43.4843 37.2779 43.4053 37.1953C43.2939 37.0767 43.2543 37.0336 43.47 36.3112C43.6317 35.7614 43.8365 35.0786 43.7072 34.27C43.4017 32.3653 41.6048 31.0607 39.7001 31.3662C38.4639 31.5639 37.4504 32.3796 36.9904 33.5512C36.5448 34.6868 36.7245 35.9411 37.4648 36.9186C37.5654 37.0731 37.6589 37.2132 37.7451 37.3426C37.8817 37.5475 38.0506 37.799 38.0686 37.8745C38.0686 37.8745 38.0686 37.9284 38.0075 38.0614C37.9572 38.1656 37.8817 38.2231 37.7703 38.2411L31.4381 39.2545L30.4283 32.9223C30.2989 32.1245 29.8065 31.4704 29.059 31.1254C27.8012 30.5576 27.0465 31.0607 26.3206 31.5495C26.1948 31.6321 26.0583 31.7256 25.9037 31.8226L25.8175 31.8837C25.4114 32.2 24.9118 32.279 24.4447 32.0957C23.9667 31.9089 23.6325 31.4956 23.5498 30.9925C23.4276 30.2162 23.9559 29.4867 24.7322 29.3609C25.0772 29.307 25.4365 29.4112 25.857 29.537C26.5973 29.7562 27.7186 30.0868 28.7392 29.1381C29.3322 28.599 29.6089 27.8048 29.4831 27.0106L28.1606 18.6982L5.55591 22.31L9.16763 44.9146L12.4523 65.4709L35.057 61.8592L55.6133 58.5745L52.0015 35.9698H51.9907ZM7.92419 24.0314L26.4284 21.0773L27.4239 27.334C27.4418 27.4418 27.4095 27.5317 27.3268 27.6107C27.2083 27.7221 27.1651 27.7581 26.4428 27.5461C25.8929 27.3843 25.2101 27.1831 24.4015 27.3089C22.4968 27.6143 21.1923 29.4112 21.4978 31.3159C21.6954 32.5521 22.5112 33.5656 23.6828 34.0256C24.8184 34.4712 26.0726 34.2915 27.0501 33.5512C27.2047 33.4506 27.3448 33.3571 27.4742 33.2709C27.679 33.1343 27.9342 32.9654 28.0061 32.9475C28.0061 32.9475 28.06 32.9475 28.1929 33.0086C28.2972 33.0589 28.3547 33.1343 28.3726 33.2457L29.3861 39.5815L25.0808 40.2715L22.9137 40.6165C22.7628 40.6489 22.6226 40.7028 22.4861 40.7639C22.4537 40.7782 22.4178 40.7818 22.3854 40.7962C22.3783 40.7998 22.3711 40.807 22.3639 40.8106C21.8751 41.0514 21.487 41.4467 21.257 41.957C21.257 41.957 21.257 41.957 21.257 41.9606C21.2354 42.0037 21.2283 42.0432 21.2103 42.0864C21.1672 42.1942 21.1204 42.3056 21.0917 42.4062C20.7862 43.4448 21.2283 44.0665 21.6236 44.6236C21.7242 44.7637 21.8356 44.9218 21.9578 45.1123L22.0189 45.1986C22.3387 45.6082 22.4142 46.1114 22.2309 46.5786C22.044 47.0565 21.6308 47.3907 21.1276 47.4698C20.7503 47.5273 20.3765 47.4411 20.0675 47.2146C19.7584 46.9918 19.5572 46.6576 19.4961 46.2803C19.4422 45.9389 19.5464 45.5759 19.6722 45.159C19.8914 44.4187 20.222 43.3011 19.2733 42.2768C19.1475 42.1403 19.0073 42.0217 18.8564 41.9211C18.8061 41.8851 18.7522 41.8636 18.6983 41.8312C18.594 41.7701 18.4898 41.7162 18.3784 41.6731C18.3137 41.6479 18.2454 41.63 18.1772 41.6084C18.0693 41.5761 17.9615 41.5545 17.8537 41.5401C17.7818 41.5293 17.7136 41.5221 17.6381 41.5186C17.5986 41.5186 17.559 41.5078 17.5231 41.5078C17.3973 41.5078 17.2715 41.5186 17.1422 41.5365L10.8854 42.5356L7.92778 24.0314H7.92419ZM14.1629 63.0918L11.2053 44.5876L17.462 43.5886C17.5698 43.5742 17.6597 43.6029 17.7351 43.6856C17.8501 43.8078 17.8861 43.8509 17.6704 44.5732C17.5087 45.1231 17.3039 45.8023 17.4333 46.6109C17.5806 47.5345 18.0765 48.3467 18.8348 48.8965C19.0073 49.0223 19.1906 49.1265 19.3811 49.2164C19.4386 49.2451 19.4997 49.2667 19.5572 49.2882C19.6937 49.3457 19.8339 49.3961 19.974 49.432C20.0423 49.45 20.1106 49.4679 20.1789 49.4823C20.3262 49.5111 20.4736 49.5326 20.6245 49.5434C20.6856 49.547 20.7467 49.5578 20.8078 49.5578C20.8329 49.5578 20.8581 49.565 20.8868 49.565C21.0737 49.565 21.2606 49.5506 21.4475 49.5218C22.6837 49.3242 23.6936 48.5084 24.1536 47.3368C24.3764 46.769 24.4447 46.1689 24.362 45.5903C24.3009 45.159 24.1572 44.7421 23.9379 44.3504C23.9379 44.3468 23.9379 44.3432 23.9308 44.3396C23.902 44.2893 23.8661 44.2426 23.8337 44.1959C23.7834 44.1168 23.7331 44.0342 23.6756 43.9587C23.575 43.8006 23.4815 43.6604 23.3953 43.5346C23.2587 43.3298 23.0898 43.0782 23.0718 43.0064C23.0718 43.0064 23.0718 42.992 23.0826 42.9632C23.097 42.9237 23.1078 42.8806 23.1401 42.8087C23.1833 42.7153 23.2479 42.6614 23.2911 42.6506L29.7059 41.6264L30.7193 47.9586C30.8487 48.7564 31.3411 49.4104 32.0886 49.7554C33.3464 50.3232 34.0975 49.8201 34.827 49.3314C34.9528 49.2487 35.0893 49.1553 35.2475 49.0582L35.3337 48.9971C35.7398 48.6809 36.2393 48.6018 36.7065 48.7851C37.1845 48.972 37.5187 49.3853 37.6014 49.8884C37.6625 50.2657 37.5726 50.6395 37.3462 50.9486C37.1234 51.2576 36.7928 51.4589 36.419 51.52C36.074 51.5739 35.7147 51.4696 35.2942 51.3439C34.5539 51.1246 33.4326 50.794 32.4156 51.7428C31.8226 52.2818 31.5459 53.076 31.6717 53.8703L32.6672 60.1306L14.1629 63.0846V63.0918ZM34.7192 59.8071L33.7237 53.5504C33.7058 53.4426 33.7381 53.3528 33.8208 53.2737C33.8495 53.2486 33.8711 53.227 33.8998 53.2126C33.8998 53.2126 33.8998 53.2126 33.9034 53.2126C33.9322 53.1982 33.9681 53.1911 34.0112 53.1911C34.0184 53.1911 34.022 53.1911 34.0292 53.1911C34.0436 53.1911 34.0615 53.1911 34.0759 53.1946C34.0939 53.1946 34.1083 53.1946 34.1298 53.2018C34.1478 53.2018 34.1729 53.209 34.1909 53.2126C34.2161 53.2162 34.2376 53.2198 34.27 53.227C34.2987 53.2342 34.3347 53.245 34.3706 53.2521C34.3993 53.2593 34.4245 53.2665 34.4568 53.2737C34.5287 53.2917 34.6078 53.3168 34.7012 53.342C35.2511 53.5037 35.9339 53.705 36.7425 53.5792C37.6625 53.4318 38.4747 52.9359 39.0245 52.1776C39.4378 51.6098 39.6642 50.945 39.6893 50.2621C39.6965 50.0321 39.6858 49.8021 39.6462 49.5721C39.4486 48.3359 38.6328 47.3225 37.4612 46.8625C36.3256 46.4168 35.0714 46.5965 34.0939 47.3368C33.9358 47.4375 33.7992 47.5309 33.6698 47.6171C33.465 47.7537 33.2134 47.9226 33.1379 47.9406C33.1379 47.9406 33.084 47.9406 32.9511 47.8795C32.8468 47.8292 32.7893 47.7537 32.7714 47.6423L31.7579 41.3101L38.0901 40.2967C38.8879 40.1709 39.542 39.675 39.887 38.9275C40.4548 37.6696 39.9517 36.915 39.4629 36.189C39.3803 36.0632 39.2868 35.9267 39.1898 35.7721L39.1287 35.6859C38.8125 35.2798 38.7334 34.7803 38.9167 34.3131C39.1036 33.8351 39.5168 33.5009 40.02 33.4182C40.7962 33.2961 41.5258 33.8243 41.6515 34.6006C41.7054 34.9456 41.6012 35.305 41.4754 35.7254C41.2562 36.4657 40.9256 37.587 41.8743 38.6076C42.4134 39.197 43.2076 39.4737 44.0018 39.3515L50.2622 38.3561L53.2198 56.8603L34.7156 59.8143L34.7192 59.8071Z" fill="#1A2433"/>
<path d="M52.8208 14.2025C52.7598 14.2025 52.6987 14.1953 52.634 14.1882L47.6602 13.2861C47.3835 13.2394 47.1499 13.0849 46.9882 12.8621C46.8337 12.6285 46.7726 12.3518 46.8193 12.0822C46.9199 11.5252 47.4769 11.1478 48.0232 11.2485L52.9969 12.1433C53.2737 12.1972 53.5073 12.3446 53.669 12.5746C53.8235 12.7974 53.8846 13.0777 53.8379 13.3472C53.7444 13.8432 53.3204 14.2061 52.8173 14.2061L52.8208 14.2025ZM44.8032 12.7507C44.7421 12.7507 44.681 12.7507 44.6163 12.7363C44.3468 12.6896 44.106 12.535 43.9515 12.3122C43.7898 12.0786 43.7287 11.8019 43.7826 11.5324C43.8832 10.9753 44.433 10.598 44.9865 10.6986C45.256 10.7453 45.4968 10.8999 45.6513 11.1227C45.813 11.3527 45.8741 11.633 45.8202 11.9025C45.734 12.3985 45.3027 12.7507 44.7996 12.7507H44.8032Z" fill="white"/>
<path d="M19.5105 55.8575C18.9679 55.3868 18.1449 55.4443 17.6705 55.9905C17.1962 56.5368 17.2573 57.3561 17.8035 57.8305C18.3462 58.3013 19.1691 58.2438 19.6435 57.6976C20.1143 57.1549 20.0568 56.3319 19.5105 55.8575Z" fill="#1A2433"/>
</svg>
