<?xml version="1.0" encoding="utf-8"?>
<svg width="63" height="63" viewBox="0 0 63 63" fill="none" xmlns="http://www.w3.org/2000/svg">
<path d="M48.4734 42.1087V47.6476H56.7665V52.1375C56.7665 55.7729 54.127 58.772 50.7493 59.1526C50.6938 59.1585 50.6299 59.1585 50.5744 59.1672C50.3996 59.1817 50.2164 59.1875 50.036 59.1875H15.7675C15.5843 59.1875 15.4094 59.1817 15.2401 59.1672C15.1846 59.1614 15.1208 59.1614 15.0653 59.1526C11.6876 58.772 9.0481 55.7729 9.0481 52.1375V3.44971H48.4706V42.1087H48.4734Z" fill="#FFC121"/>
<path d="M45.9643 44.7357V50.2746H54.2573V52.1374C54.2573 54.3925 52.6531 56.2785 50.516 56.54C50.4633 56.54 50.4133 56.5458 50.3689 56.5516C50.2607 56.5604 50.1469 56.5633 50.0331 56.5633H15.7673C15.6563 56.5633 15.5509 56.5604 15.4482 56.5516C15.3982 56.5458 15.3455 56.5429 15.2927 56.54C13.1584 56.2785 11.5542 54.3954 11.5542 52.1374V6.07666H45.9643V44.7357Z" fill="white"/>
<path d="M56.7608 47.6504V52.1402C56.7608 55.7728 54.1241 58.7689 50.7436 59.1496C50.6881 59.1583 50.6243 59.1583 50.5688 59.1641C50.3939 59.1786 50.2107 59.1874 50.0303 59.1874H15.7812C16.0199 59.1874 16.2559 59.1728 16.4807 59.1496C19.8584 58.7689 22.4978 55.7728 22.4978 52.1402V47.6504H56.7636H56.7608Z" fill="#FFC121"/>
<path d="M62.0564 39.9667L57.2188 41.908C56.894 42.0445 56.5416 42.1114 56.1863 42.1114H54.8291V38.0981H56.3306C56.586 38.0981 56.8496 38.1417 57.0994 38.2144L62.0342 39.65C62.1868 39.6936 62.2007 39.9115 62.0536 39.9696L62.0564 39.9667Z" fill="#FFC121"/>
<path d="M54.829 38.0981H43.6245V42.1114H54.829V38.0981Z" fill="white"/>
<path d="M43.6246 38.0981H17.6353V42.1114H43.6246V38.0981Z" fill="#FFC121"/>
<path d="M48.0818 54.2991H34.1435C33.6772 54.2991 33.3025 53.9039 33.3025 53.4186C33.3025 52.9333 33.68 52.5381 34.1435 52.5381H48.0818C48.5481 52.5381 48.9228 52.9333 48.9228 53.4186C48.9228 53.9039 48.5453 54.2991 48.0818 54.2991ZM31.01 54.2991H29.7555C29.2892 54.2991 28.9146 53.9039 28.9146 53.4186C28.9146 52.9333 29.292 52.5381 29.7555 52.5381H31.01C31.4763 52.5381 31.851 52.9333 31.851 53.4186C31.851 53.9039 31.4735 54.2991 31.01 54.2991Z" fill="white"/>
<path d="M39.9749 33.0794C41.4373 33.0794 42.6227 31.8382 42.6227 30.307C42.6227 28.7759 41.4373 27.5347 39.9749 27.5347C38.5126 27.5347 37.3271 28.7759 37.3271 30.307C37.3271 31.8382 38.5126 33.0794 39.9749 33.0794Z" fill="#FFC121"/>
<path d="M42.6226 10.7642C43.2055 10.7642 43.6801 10.2673 43.6801 9.65701C43.6801 9.04674 43.2055 8.5498 42.6226 8.5498C42.0398 8.5498 41.5652 9.04674 41.5652 9.65701C41.5652 10.2673 42.0398 10.7642 42.6226 10.7642Z" fill="#1A2433"/>
<path d="M21.9232 13.057H35.6007C36.0669 13.057 36.4416 12.6617 36.4416 12.1764C36.4416 11.6911 36.0642 11.2959 35.6007 11.2959H21.9232C21.457 11.2959 21.0823 11.6911 21.0823 12.1764C21.0823 12.6617 21.4597 13.057 21.9232 13.057Z" fill="#1A2433"/>
<path d="M40.0469 22.4172C40.0469 21.9289 39.6695 21.5366 39.206 21.5366H18.3207C17.8544 21.5366 17.4797 21.9318 17.4797 22.4172C17.4797 22.9025 17.8572 23.2977 18.3207 23.2977H39.206C39.6723 23.2977 40.0469 22.9025 40.0469 22.4172Z" fill="#1A2433"/>
<path d="M16.131 18.1771H41.3904C41.8567 18.1771 42.2314 17.7819 42.2314 17.2965C42.2314 16.8112 41.8539 16.416 41.3904 16.416H16.131C15.6647 16.416 15.29 16.8112 15.29 17.2965C15.29 17.7819 15.6675 18.1771 16.131 18.1771Z" fill="#1A2433"/>
<path d="M16.131 28.4183H32.792C33.2583 28.4183 33.633 28.0231 33.633 27.5378C33.633 27.0524 33.2555 26.6572 32.792 26.6572H16.131C15.6647 26.6572 15.29 27.0524 15.29 27.5378C15.29 28.0231 15.6675 28.4183 16.131 28.4183Z" fill="#1A2433"/>
<path d="M15.1762 60.0445C15.3649 60.059 15.562 60.0677 15.7674 60.0677H15.7785H50.0303C50.1941 60.0677 50.3578 60.059 50.5188 60.0474C50.5549 60.0474 50.5937 60.0474 50.6326 60.0445L50.702 60.0387C50.7492 60.0387 50.7936 60.0328 50.838 60.027C54.6959 59.5911 57.6073 56.1998 57.6073 52.1342V46.7639H49.3143V42.9889H53.9881L56.1863 42.9918C56.6609 42.9918 57.1133 42.9017 57.5185 42.7303L62.3561 40.7891C62.7613 40.6263 63.0194 40.2137 62.9972 39.7603C62.975 39.3041 62.6781 38.9176 62.259 38.7955L57.3242 37.3599C56.9856 37.2611 56.6526 37.2117 56.3306 37.2117H53.9853H49.3115V2.56885H8.20703V52.1371C8.20703 56.2027 11.1185 59.594 14.9764 60.0299C15.0208 60.0358 15.0652 60.0387 15.1124 60.0416L15.179 60.0474L15.1762 60.0445ZM16.4002 58.2718C16.2114 58.2892 16.0144 58.3008 15.8145 58.3038H15.7646C15.6036 58.3038 15.451 58.2979 15.3288 58.2892C15.2844 58.2834 15.24 58.2805 15.1512 58.2776C12.1509 57.9405 9.88618 55.2989 9.88618 52.14V4.33281H47.624V37.2175H44.46H23.4221L24.3491 36.4271H33.9133C34.3795 36.4271 34.7542 36.0319 34.7542 35.5466C34.7542 35.0613 34.3768 34.666 33.9133 34.666H23.7496L20.7576 37.2204H16.7887V38.8856H14.6988C14.0521 38.8856 13.5276 39.4348 13.5276 40.112C13.5276 40.7891 14.0521 41.3383 14.6988 41.3383H16.7887V43.0006H44.4628L47.6268 42.9977V46.7755H21.6513V52.1459C21.6513 55.3047 19.3866 57.9405 16.4002 58.2776V58.2718ZM42.7808 38.9786V41.2308H18.4762V38.9786H21.0296C21.0296 38.9786 21.0491 38.9815 21.0574 38.9815C21.0629 38.9815 21.0685 38.9786 21.0768 38.9786H42.7808ZM55.9171 48.5307V52.14C55.9171 55.2989 53.6523 57.9347 50.6076 58.2776C50.5604 58.2805 50.5105 58.2834 50.4994 58.2863C50.4522 58.2892 50.4022 58.2892 50.3523 58.2921C50.244 58.2979 50.1386 58.3038 50.0275 58.3038H20.5328C22.2536 56.8449 23.336 54.616 23.336 52.14V48.5307H55.9171ZM53.9826 41.225H44.4655V38.9786H53.9826V41.225ZM56.8996 41.0884C56.6859 41.1785 56.4388 41.2279 56.1863 41.2279H55.6728V38.9757H56.3334C56.4999 38.9757 56.6886 39.0048 56.8774 39.06L59.8221 39.9173L56.9023 41.0884H56.8996Z" fill="#1A2433"/>
<path d="M41.407 26.9766C39.6556 26.1513 37.5824 26.9708 36.7942 28.8045C36.0059 30.6411 36.7886 32.809 38.5427 33.6373C39.0062 33.8552 39.4919 33.9598 39.972 33.9598C41.3015 33.9598 42.5754 33.1578 43.1583 31.8064C43.9493 29.9698 43.1638 27.8019 41.4097 26.9737L41.407 26.9766ZM41.6179 31.0828C41.2099 32.0331 40.1414 32.4574 39.231 32.0273C38.3234 31.6001 37.9182 30.4784 38.3262 29.5281C38.737 28.5807 39.8055 28.1536 40.7131 28.5837C41.1516 28.79 41.4874 29.1649 41.6595 29.6356C41.8316 30.1093 41.8149 30.6208 41.6179 31.0828Z" fill="#1A2433"/>
</svg>
