<?xml version="1.0" encoding="utf-8"?>
<svg width="69" height="69" viewBox="0 0 69 69" fill="none" xmlns="http://www.w3.org/2000/svg">
<path d="M23.5391 45.6587H16.9697V56.4184H23.5391V45.6587Z" fill="white"/>
<path d="M35.3228 36.9653H28.7534V56.4183H35.3228V36.9653Z" fill="#FFCB65"/>
<path d="M47.1031 40.8394H40.5337V56.4183H47.1031V40.8394Z" fill="white"/>
<path d="M58.8872 26.1985H52.3179V56.4183H58.8872V26.1985Z" fill="#FFCB65"/>
<path d="M66.4269 55.3724H59.933V25.1526H51.272V55.3724H48.1527V39.7935H39.4917V55.3724H36.3723V35.9194H27.7114V55.3724H24.592V44.6127H15.9311V55.3724H11.7444V40.7243H20.5634L32.1641 23.963L41.0622 33.3499L59.4514 11.579L59.1747 14.8493C59.1388 15.2769 59.455 15.6543 59.8862 15.6902C59.9078 15.6902 59.9294 15.6902 59.9545 15.6902C60.3534 15.6902 60.6948 15.3847 60.7308 14.9787L61.3237 7.94928L54.2297 9.22506C53.8056 9.30053 53.5253 9.70662 53.6008 10.1307C53.6762 10.5547 54.0788 10.8315 54.5064 10.7596L57.9277 10.1451L40.9759 30.2162L31.9125 20.6568L19.4709 38.6363H11.748V5.96912C11.748 5.39053 11.2808 4.92334 10.7022 4.92334C10.1236 4.92334 9.65641 5.39053 9.65641 5.96912V12.0138H6.0375C5.45891 12.0138 4.99172 12.481 4.99172 13.0596C4.99172 13.6382 5.45891 14.1054 6.0375 14.1054H9.65641V20.8832H6.0375C5.45891 20.8832 4.99172 21.3504 4.99172 21.929C4.99172 22.5076 5.45891 22.9747 6.0375 22.9747H9.65641V29.7526H6.0375C5.45891 29.7526 4.99172 30.2197 4.99172 30.7983C4.99172 31.3769 5.45891 31.8441 6.0375 31.8441H9.65641V38.6219H6.0375C5.45891 38.6219 4.99172 39.0891 4.99172 39.6677C4.99172 40.2463 5.45891 40.7135 6.0375 40.7135H9.65641V47.4913H6.0375C5.45891 47.4913 4.99172 47.9585 4.99172 48.5371C4.99172 49.1157 5.45891 49.5829 6.0375 49.5829H9.65641V55.3616H2.57312C1.99453 55.3616 1.52734 55.8288 1.52734 56.4074C1.52734 56.986 1.99453 57.4532 2.57312 57.4532H9.64203V63.0199C9.64203 63.5985 10.1092 64.0657 10.6878 64.0657C11.2664 64.0657 11.7336 63.5985 11.7336 63.0199V57.4532H66.4233C67.0019 57.4532 67.4691 56.986 67.4691 56.4074C67.4691 55.8288 67.0019 55.3616 66.4233 55.3616L66.4269 55.3724ZM22.4933 55.3724H18.0191V46.7043H22.4933V55.3724ZM34.2772 55.3724H29.7994V38.011H34.2772V55.3724ZM46.0611 55.3724H41.5833V41.8886H46.0611V55.3724ZM57.845 55.3724H53.3672V27.2441H57.845V55.3724Z" fill="#1A2433"/>
</svg>
