<?xml version="1.0" encoding="utf-8"?>
<svg width="63" height="63" viewBox="0 0 63 63" fill="none" xmlns="http://www.w3.org/2000/svg">
<path d="M28.4208 22.6982H8.16895V50.3001H28.4208V22.6982Z" fill="#FFCB65"/>
<path d="M10.7966 25.3234L10.7966 47.6753H29.0798V25.3234H10.7966Z" fill="white"/>
<path d="M29.3056 51.1825H7.28711V21.814H29.303V51.1825H29.3056ZM9.05373 49.4185H27.5416V23.5806H9.05111V49.4185H9.05373Z" fill="#1A2433"/>
<path d="M18.5221 20.4093V7.70166C25.4941 7.70166 31.2297 13.4373 31.2297 20.4093C31.2297 27.3813 25.4941 33.1169 18.5221 33.1169C11.5501 33.1169 5.81445 27.3813 5.81445 20.4093H18.5221Z" fill="white"/>
<path d="M18.522 30.4892C13.8705 30.4892 9.94351 27.3234 8.78589 23.0315H21.147V10.6704C25.4389 11.828 28.6046 15.755 28.6046 20.4065C28.6046 25.9663 24.0818 30.4892 18.522 30.4892Z" fill="#FFCB65"/>
<path d="M18.522 33.9964C11.0302 33.9964 4.93237 27.9012 4.93237 20.4068V19.5248H17.64V6.81982H18.522C26.0137 6.81982 32.1116 12.9151 32.1116 20.4094C32.1116 27.9038 26.0164 33.9991 18.522 33.9991V33.9964ZM6.7305 21.2888C7.182 27.3998 12.2981 32.2324 18.522 32.2324C24.7459 32.2324 30.3476 26.9273 30.3476 20.4068C30.3476 13.8863 25.515 9.06682 19.404 8.61532V21.2888H6.72787H6.7305Z" fill="#1A2433"/>
<path d="M14.6686 16.5294H1.96094C1.96094 13.1799 3.28394 9.96165 5.64381 7.5834C8.00369 5.20515 11.2062 3.85065 14.5557 3.82178L14.6686 16.5294Z" fill="#FFCB65"/>
<path d="M15.5584 17.4114H1.07886V16.5294C1.07886 12.9227 2.47798 9.52595 5.01636 6.96395C7.55473 4.40195 10.941 2.97395 14.5477 2.94245L15.4297 2.93457L15.5584 17.4141V17.4114ZM2.87698 15.6474H13.7812L13.6841 4.7432C10.878 4.9742 8.27398 6.18432 6.27111 8.20295C4.26823 10.2216 3.08173 12.8387 2.87698 15.6448V15.6474Z" fill="#1A2433"/>
<path d="M28.3762 17.627H59.9917V56.6187C59.9917 58.3643 58.5742 59.7792 56.8312 59.7792H31.5393C29.7937 59.7792 28.3788 58.3617 28.3788 56.6187V17.627H28.3762Z" fill="white"/>
<path d="M28.3762 17.627H59.9917V56.6187C59.9917 58.3643 58.5742 59.7792 56.8312 59.7792H31.5393C29.7937 59.7792 28.3788 58.3617 28.3788 56.6187V17.627H28.3762Z" fill="#FFCB65"/>
<path d="M57.3668 20.2544V56.6212C57.3668 56.9178 57.1253 57.1566 56.8313 57.1566H31.5394C31.2428 57.1566 31.0039 56.9151 31.0039 56.6212L31.0039 20.2544H57.3694H57.3668Z" fill="white"/>
<path d="M54.4189 23.0972H33.9465V31.8725H54.4189V23.0972Z" fill="#FFCB65"/>
<path d="M55.3035 32.7521H33.0671V22.2153H55.3035V32.7521ZM34.8285 30.9881H53.5395V23.9767H34.8285V30.9881Z" fill="#1A2433"/>
<path d="M55.3035 32.7521H33.0671V22.2153H55.3035V32.7521ZM34.8285 30.9881H53.5395V23.9767H34.8285V30.9881Z" fill="#1A2433"/>
<path d="M39.7031 40.4829H33.0959V34.8208H39.7031V40.4829ZM34.8599 38.7189H37.9391V36.5822H34.8599V38.7189Z" fill="#1A2433"/>
<path d="M47.489 40.4829H40.8818V34.8208H47.489V40.4829ZM42.6458 38.7189H45.725V36.5822H42.6458V38.7189Z" fill="#1A2433"/>
<path d="M55.2719 40.4829H48.6648V34.8208H55.2719V40.4829ZM50.4288 38.7189H53.5079V36.5822H50.4288V38.7189Z" fill="#1A2433"/>
<path d="M39.7031 47.8379H33.0959V42.1758H39.7031V47.8379ZM34.8599 46.0739H37.9391V43.9372H34.8599V46.0739Z" fill="#1A2433"/>
<path d="M47.489 47.8379H40.8818V42.1758H47.489V47.8379ZM42.6458 46.0739H45.725V43.9372H42.6458V46.0739Z" fill="#1A2433"/>
<path d="M54.39 43.0581H49.5469V54.3141H54.39V43.0581Z" fill="#FFCB65"/>
<path d="M55.2719 55.1958H48.6648V42.1758H55.2719V55.1958ZM50.4288 53.4318H53.5079V43.9398H50.4288V53.4318Z" fill="#1A2433"/>
<path d="M39.7031 55.196H33.0959V49.5312H39.7031V55.196ZM34.8599 53.432H37.9391V51.2953H34.8599V53.432Z" fill="#1A2433"/>
<path d="M47.489 55.196H40.8818V49.5312H47.489V55.196ZM42.6458 53.432H45.725V51.2953H42.6458V53.432Z" fill="#1A2433"/>
<path d="M49.8567 27.0716H42.9189C42.4306 27.0716 42.0369 26.6752 42.0369 26.1896C42.0369 25.704 42.4332 25.3076 42.9189 25.3076H49.8567C50.345 25.3076 50.7387 25.704 50.7387 26.1896C50.7387 26.6752 50.3424 27.0716 49.8567 27.0716ZM39.6376 27.0716H38.3251C37.8369 27.0716 37.4431 26.6752 37.4431 26.1896C37.4431 25.704 37.8395 25.3076 38.3251 25.3076H39.6376C40.1259 25.3076 40.5196 25.704 40.5196 26.1896C40.5196 26.6752 40.1232 27.0716 39.6376 27.0716Z" fill="white"/>
<path d="M56.8312 60.664H31.5393C29.3107 60.664 27.4968 58.8501 27.4968 56.6215V16.7451H60.8763V56.6189C60.8763 58.8475 59.0625 60.6614 56.8338 60.6614L56.8312 60.664ZM29.2582 18.5091V56.6215C29.2582 57.8789 30.282 58.9 31.5393 58.9H56.8312C58.0886 58.9 59.1123 57.8762 59.1123 56.6215V18.5091H29.2608H29.2582Z" fill="#1A2433"/>
<path d="M46.3733 12.8571L43.1787 7.21856L35.7079 10.6468C35.2643 10.8489 34.7419 10.6547 34.5372 10.2137C34.3324 9.77269 34.5293 9.24769 34.9703 9.04294L43.9137 4.94006L47.0348 10.4499L58.0309 4.18931C58.4562 3.94781 58.9943 4.09744 59.2332 4.52006C59.4747 4.94269 59.3277 5.48081 58.9024 5.72231L46.368 12.8571H46.3733Z" fill="#1A2433"/>
<path d="M38.0549 10.0923C38.1929 8.59234 37.0889 7.26445 35.589 7.12636C34.0891 6.98827 32.7612 8.09227 32.6231 9.59221C32.485 11.0922 33.589 12.42 35.0889 12.5581C36.5889 12.6962 37.9168 11.5922 38.0549 10.0923Z" fill="#FFCB65"/>
<path d="M35.3429 13.4504C34.3087 13.4504 33.2797 13.0094 32.5683 12.1537C31.9514 11.4134 31.66 10.4763 31.7467 9.51553C31.8333 8.55478 32.29 7.68591 33.0303 7.06903C34.558 5.79591 36.8392 6.00066 38.1123 7.53103C39.3854 9.05878 39.178 11.3399 37.6503 12.613C36.9783 13.1748 36.1567 13.4478 35.3429 13.4478V13.4504ZM35.3377 7.99828C34.9203 7.99828 34.5029 8.13741 34.1564 8.42616C33.7784 8.74116 33.5448 9.18478 33.5002 9.67566C33.4555 10.1665 33.6052 10.6443 33.9202 11.0249C34.5712 11.8072 35.7393 11.9122 36.5189 11.2612C37.3012 10.6102 37.4062 9.44466 36.7552 8.66241C36.3903 8.22403 35.8653 7.99828 35.335 7.99828H35.3377Z" fill="#1A2433"/>
<path d="M57.1674 9.78851C57.0702 9.78851 56.9731 9.76751 56.8786 9.72026C56.5531 9.56014 56.4192 9.16901 56.5767 8.84351L58.3329 5.25776L54.293 4.46764C53.9386 4.39939 53.705 4.05289 53.7759 3.69851C53.8441 3.34414 54.188 3.10789 54.545 3.18139L60.2649 4.29964L57.7554 9.42364C57.6425 9.65726 57.4089 9.79114 57.1647 9.79114L57.1674 9.78851Z" fill="#1A2433"/>
<path d="M24.6802 37.3275H14.196C13.7077 37.3275 13.314 36.9311 13.314 36.4455C13.314 35.9599 13.7103 35.5635 14.196 35.5635H24.6802C25.1685 35.5635 25.5622 35.9599 25.5622 36.4455C25.5622 36.9311 25.1658 37.3275 24.6802 37.3275Z" fill="#1A2433"/>
<path d="M24.6802 45.1107H14.196C13.7077 45.1107 13.314 44.7143 13.314 44.2287C13.314 43.7431 13.7103 43.3467 14.196 43.3467H24.6802C25.1685 43.3467 25.5622 43.7431 25.5622 44.2287C25.5622 44.7143 25.1658 45.1107 24.6802 45.1107Z" fill="#1A2433"/>
<path d="M22.4148 41.1546H14.196C13.7077 41.1546 13.314 40.7582 13.314 40.2726C13.314 39.787 13.7103 39.3906 14.196 39.3906H22.4148C22.9031 39.3906 23.2968 39.787 23.2968 40.2726C23.2968 40.7582 22.9005 41.1546 22.4148 41.1546Z" fill="#1A2433"/>
</svg>
