<?xml version="1.0" encoding="utf-8"?>
<svg width="69" height="69" viewBox="0 0 69 69" fill="none" xmlns="http://www.w3.org/2000/svg">
<path d="M24.2562 47.5511C20.8633 50.9344 16.8307 52.8155 13.6702 52.8218C13.6765 49.6645 15.5608 45.6319 18.9409 42.2358C19.4724 42.5414 19.9912 42.8979 20.4814 43.2798C20.9906 43.6681 21.4744 44.0946 21.9327 44.5561C22.3942 45.0176 22.8175 45.5014 23.209 46.0075C23.5941 46.4976 23.9474 47.0164 24.253 47.5479L24.2562 47.5511Z" fill="#FFC121"/>
<path d="M37.8212 61.0272C36.6245 62.2239 35.3227 63.2679 33.9382 64.1336C35.5073 58.3918 35.0394 52.1949 32.5314 46.7109C30.2588 47.5448 27.9195 48.1846 25.5578 48.6206C24.6285 47.0929 23.5018 45.6447 22.1777 44.3175C20.8537 42.9902 19.4023 41.8667 17.8746 40.9373C18.3106 38.5757 18.9503 36.2363 19.7842 33.9638C14.3003 31.4558 8.10335 30.9879 2.36157 32.557C3.22729 31.1725 4.27125 29.8707 5.46799 28.674C11.0729 23.0691 18.8549 20.9811 26.0798 22.4134C30.383 23.2537 34.492 25.3416 37.8244 28.674C41.1568 32.0064 43.2447 36.1154 44.0849 40.4185C45.5172 47.6435 43.4293 55.4223 37.8244 61.0304L37.8212 61.0272Z" fill="#FFC121"/>
<path d="M37.713 56.7653C37.6334 52.9014 36.7677 49.0661 35.1444 45.5173L34.0368 43.0983L31.5383 44.015C30.0138 44.5752 28.4478 45.043 26.8692 45.4122C26.0671 44.3014 25.1759 43.2575 24.2051 42.2867C23.2376 41.316 22.1904 40.428 21.0828 39.6227C21.452 38.0409 21.9199 36.4781 22.4801 34.9535L23.3967 32.455L20.9778 31.3474C17.4767 29.7465 13.5969 28.8617 9.72339 28.7789C13.1481 26.2263 17.2794 24.8481 21.6207 24.8481C22.9257 24.8481 24.237 24.9786 25.5165 25.2301C29.4186 25.994 32.9706 27.8845 35.7874 30.7045C38.6041 33.5213 40.4979 37.0733 41.2586 40.969C42.3662 46.5581 41.0485 52.2744 37.713 56.7653Z" fill="white"/>
<path d="M25.5578 48.6205C23.6481 45.4823 21.0159 42.8469 17.8745 40.9372C20.5131 26.6783 30.2779 14.7269 42.4585 9.04237C42.4839 9.0169 42.5062 9.01054 42.5221 9.01054C48.0379 6.33062 54.8078 4.67238 61.8131 4.68193C61.8227 11.665 60.174 18.4412 57.4845 23.9729C57.4845 23.9888 57.475 24.0143 57.4527 24.0366C52.0419 35.6315 40.3674 45.8801 25.5578 48.6205Z" fill="white"/>
<path d="M26.8693 45.409C25.262 43.1905 23.3014 41.2299 21.083 39.6226C23.8871 27.6712 32.1942 17.1998 43.1717 11.8845H43.1812C43.1812 11.8845 43.6618 11.6521 43.6714 11.6458L44.1106 11.4389L44.1233 11.4262C48.5697 9.3255 53.6908 8.02055 58.8342 7.65771C58.4714 12.7852 57.1728 17.8904 55.0817 22.3304L55.069 22.3432C55.069 22.3432 54.8366 22.8397 54.8335 22.8492L54.6107 23.3107V23.3203C49.2954 34.2978 38.824 42.6049 26.8725 45.409H26.8693Z" fill="#FFC121"/>
<path d="M27.4263 34.005C27.2735 34.005 27.1175 33.97 26.9743 33.8904C26.5032 33.639 26.325 33.0534 26.5765 32.5823C28.3429 29.2626 30.5199 26.1594 33.0407 23.3585C33.3972 22.9607 34.0083 22.9289 34.4061 23.2885C34.804 23.645 34.8358 24.2561 34.4762 24.6539C32.0572 27.337 29.9757 30.313 28.2824 33.4958C28.1074 33.8236 27.7732 34.0082 27.4294 34.0082L27.4263 34.005ZM36.2681 22.4005C36.0135 22.4005 35.7557 22.2987 35.5679 22.0981C35.2018 21.7098 35.2178 21.0987 35.6029 20.7327C35.9594 20.3953 36.319 20.0643 36.685 19.7397C37.0861 19.3864 37.6972 19.4246 38.0473 19.8224C38.4006 20.2203 38.3656 20.8314 37.9645 21.1847C37.6144 21.4966 37.2675 21.8117 36.9269 22.1332C36.7391 22.3114 36.5004 22.3973 36.2617 22.3973L36.2681 22.4005Z" fill="white"/>
<path d="M47.3921 23.4255C49.9198 23.4255 51.9689 21.3763 51.9689 18.8486C51.9689 16.3209 49.9198 14.2717 47.3921 14.2717C44.8643 14.2717 42.8152 16.3209 42.8152 18.8486C42.8152 21.3763 44.8643 23.4255 47.3921 23.4255Z" fill="white"/>
<path d="M47.3919 24.3865C45.9724 24.3865 44.5528 23.8455 43.4739 22.7665C41.3127 20.6054 41.3127 17.0884 43.4739 14.9304C45.635 12.7725 49.152 12.7693 51.3099 14.9304C53.4711 17.0916 53.4711 20.6054 51.3099 22.7665C50.231 23.8455 48.8114 24.3865 47.3919 24.3865ZM47.3919 15.2392C46.4689 15.2392 45.5427 15.5893 44.8393 16.2959C43.4325 17.7027 43.4325 19.9943 44.8393 21.4011C46.2461 22.8079 48.5377 22.8079 49.9445 21.4011C51.3513 19.9943 51.3513 17.7027 49.9445 16.2959C49.2411 15.5925 48.3149 15.2392 47.3919 15.2392Z" fill="#1A2433"/>
<path d="M32.5313 46.7107C30.2588 47.5446 27.9194 48.1844 25.5578 48.6204C24.6284 47.0927 23.5017 45.6445 22.1777 44.3173C20.8536 42.9901 19.4023 41.8665 17.8745 40.9371C18.3106 38.5755 18.9503 36.2361 19.7842 33.9636C22.5087 35.2017 25.0676 36.9491 27.3083 39.1898C29.549 41.4305 31.2964 43.9863 32.5345 46.7139L32.5313 46.7107Z" fill="white"/>
<path d="M2.76256 46.1442C2.5143 46.1442 2.26922 46.0487 2.07825 45.8609C1.6995 45.4853 1.6995 44.8711 2.07825 44.4955L3.09357 43.4802C3.47232 43.1014 4.08342 43.1014 4.45899 43.4802C4.83775 43.8557 4.83775 44.47 4.45899 44.8456L3.44368 45.8609C3.25589 46.0487 3.00763 46.1442 2.75937 46.1442H2.76256ZM6.32093 42.5858C6.07267 42.5858 5.8276 42.4903 5.63663 42.3025C5.25788 41.927 5.25788 41.3127 5.63663 40.9371L10.4745 36.0993C10.8532 35.7205 11.4612 35.7205 11.8399 36.0993C12.2187 36.4748 12.2187 37.0891 11.8399 37.4647L7.00205 42.3025C6.81427 42.4903 6.56601 42.5858 6.31775 42.5858H6.32093Z" fill="#1A2433"/>
<path d="M25.4432 62.4148C25.195 62.4148 24.9499 62.3193 24.7589 62.1315C24.3802 61.7559 24.3802 61.1416 24.7589 60.7661L25.7742 59.7507C26.153 59.372 26.7641 59.372 27.1397 59.7507C27.5184 60.1263 27.5184 60.7406 27.1397 61.1162L26.1243 62.1315C25.9366 62.3193 25.6883 62.4148 25.44 62.4148H25.4432ZM29.0016 58.8564C28.7533 58.8564 28.5083 58.7609 28.3173 58.5731C27.9385 58.1975 27.9385 57.5833 28.3173 57.2077L28.6769 56.848C29.0557 56.4693 29.6668 56.4693 30.0424 56.848C30.4211 57.2236 30.4211 57.8379 30.0424 58.2135L29.6827 58.5731C29.4949 58.7609 29.2467 58.8564 28.9984 58.8564H29.0016Z" fill="#1A2433"/>
<path d="M2.80406 54.0185C2.5558 54.0185 2.31073 53.923 2.11976 53.7352C1.741 53.3597 1.741 52.7454 2.11976 52.3698L3.13507 51.3545C3.51383 50.9758 4.12174 50.9758 4.5005 51.3545C4.87925 51.7301 4.87925 52.3444 4.5005 52.7199L3.48518 53.7352C3.2974 53.923 3.04914 54.0185 2.80088 54.0185H2.80406ZM6.36244 50.4601C6.11418 50.4601 5.8691 50.3647 5.67813 50.1769C5.29938 49.8013 5.29938 49.187 5.67813 48.8114L6.03779 48.4518C6.41654 48.073 7.02764 48.073 7.40321 48.4518C7.78197 48.8274 7.78197 49.4416 7.40321 49.8172L7.04356 50.1769C6.85577 50.3647 6.60751 50.4601 6.35925 50.4601H6.36244Z" fill="#1A2433"/>
<path d="M13.8451 66.371C13.5968 66.371 13.3517 66.2755 13.1608 66.0877C12.782 65.7121 12.782 65.0979 13.1608 64.7223L17.9986 59.8844C18.3774 59.5057 18.9885 59.5057 19.3641 59.8844C19.7428 60.26 19.7428 60.8743 19.3641 61.2498L14.5262 66.0877C14.3384 66.2755 14.0902 66.371 13.8419 66.371H13.8451ZM21.2228 58.9932C20.9746 58.9932 20.7295 58.8978 20.5385 58.71C20.1598 58.3344 20.1598 57.7201 20.5385 57.3445L21.5538 56.3292C21.9326 55.9505 22.5437 55.9505 22.9193 56.3292C23.298 56.7048 23.298 57.3191 22.9193 57.6947L21.9039 58.71C21.7162 58.8978 21.4679 58.9932 21.2196 58.9932H21.2228Z" fill="#1A2433"/>
<path d="M61.8101 3.71753H61.7529C47.9363 3.71753 34.6417 9.8126 25.6853 21.3566C18.053 20.0421 10.2837 22.4929 4.78385 27.9896C3.52664 29.2404 2.44131 30.6059 1.53421 32.0445L0.226074 34.1356L2.61318 33.4895C7.89663 32.0445 13.5302 32.4041 18.5686 34.4889C18.4413 34.8422 18.0179 36.1662 17.8429 36.8187C17.8365 36.8251 17.8365 36.841 17.8365 36.8537C17.4259 38.1777 17.044 40.1129 16.8021 41.4178C17.2986 41.7202 17.4323 41.7998 17.8524 42.064C13.9885 46.2716 13.0209 49.8809 12.9923 53.5634C17.4864 53.5634 21.013 51.8925 24.479 48.7192C24.6477 48.9706 24.9405 49.4576 25.0838 49.6899C28.9477 48.9675 30.3258 48.5155 31.9968 47.9299H32.0032C34.8104 54.6933 34.0465 60.0245 32.3565 66.266C34.6226 64.8496 36.3063 63.9107 38.5025 61.7178C44.0024 56.2179 46.4595 48.4423 45.1354 40.8099C56.8386 31.7453 62.7936 18.2311 62.7809 4.6851C62.7809 4.15357 62.3512 3.72071 61.8101 3.72071V3.71753ZM4.60561 31.0674C5.08622 30.4785 5.59865 29.9025 6.15245 29.3582C10.968 24.5362 17.6965 22.2637 24.3931 23.1263C22.3084 26.0863 20.5769 29.2945 19.2529 32.6715L19.2306 32.6556L19.2242 32.6779C14.5964 30.7745 9.51986 30.2207 4.60561 31.0674ZM14.9975 51.5583C15.3508 48.9197 16.9517 45.8674 19.3897 43.2416C20.7934 44.1901 22.2861 45.7274 22.4166 45.9883C22.6426 46.243 22.999 46.6981 23.3141 47.166C20.6915 49.604 17.636 51.205 14.9975 51.5583ZM26.0227 47.5479C24.9246 45.8356 22.4134 42.9106 21.6973 42.5541C21.6623 42.5191 21.6241 42.4809 21.5891 42.4682C20.7552 41.7266 19.8703 41.0677 18.9441 40.4694C19.3229 38.5724 19.7685 37.0319 20.3318 35.3164C20.3318 35.3164 20.334 35.3111 20.3382 35.3005C22.6457 36.4718 24.7591 38.0091 26.6211 39.871C28.4894 41.7329 30.0203 43.84 31.1916 46.1539C30.6887 46.3639 28.0629 47.1469 26.0227 47.5479ZM35.4247 61.8865C36.2713 56.9627 35.7271 51.8893 33.8142 47.2678L33.8428 47.2615L33.8365 47.2392C37.2071 45.9151 40.4122 44.1837 43.3753 42.099C44.3461 49.6486 41.3097 57.1504 35.4247 61.8865ZM56.6126 23.5496C56.6126 23.5496 56.6063 23.5655 56.6063 23.5782C53.764 29.2595 50.438 34.0592 44.6739 38.6997C44.1265 39.1517 43.5727 39.575 43.0061 39.9919C39.9379 42.2422 36.5737 44.1041 33.0153 45.4823C31.7422 42.9106 30.0458 40.5648 27.9833 38.5024C25.9208 36.4399 23.5783 34.7499 20.9971 33.4799C24.9565 23.3204 32.8562 14.5709 42.8597 9.91127C42.8756 9.9049 42.8947 9.89535 42.9107 9.88899C42.917 9.88262 42.9329 9.88262 42.9393 9.87307C48.2928 7.27272 54.6106 5.78317 60.8362 5.65267C60.6993 11.8687 59.213 18.1866 56.6094 23.5432L56.6126 23.5496Z" fill="#1A2433"/>
</svg>
