<?xml version="1.0" encoding="utf-8"?>
<svg width="69" height="69" viewBox="0 0 69 69" fill="none" xmlns="http://www.w3.org/2000/svg">
<path d="M30.5352 68.933C29.8377 68.8782 29.3138 68.2933 29.3717 67.6262C29.4295 66.956 30.0467 66.4626 30.7442 66.5174C31.4513 66.5722 31.972 67.1571 31.9141 67.8242C31.8563 68.47 31.2841 68.9483 30.6124 68.9361C30.5867 68.9361 30.5609 68.9361 30.5352 68.9361V68.933ZM33.6177 67.8516C33.5823 67.1815 34.132 66.6179 34.8295 66.5844C35.5366 66.5509 36.1376 67.0627 36.1666 67.7328C36.2019 68.3939 35.6619 68.9665 34.9548 69C34.9291 69 34.8937 69 34.868 69C34.2027 68.9879 33.653 68.4913 33.6177 67.8516ZM26.1639 68.3116C25.476 68.1684 25.0421 67.5226 25.1932 66.8707C25.3442 66.2189 26.0192 65.8046 26.7135 65.9508C27.4014 66.094 27.8385 66.7337 27.6842 67.3916C27.5524 67.9613 27.006 68.3543 26.4114 68.3421C26.3342 68.3421 26.2507 68.3299 26.1639 68.3116ZM37.8669 67.5501C37.7383 66.886 38.1948 66.2554 38.889 66.1336C39.5833 66.0117 40.2519 66.4534 40.3837 67.1083C40.5058 67.7633 40.0462 68.3939 39.3551 68.5157C39.2683 68.5309 39.1847 68.537 39.098 68.534C38.5033 68.5218 37.9762 68.1166 37.8669 67.547V67.5501ZM21.9147 67.151C21.2461 66.9195 20.9054 66.2249 21.1497 65.5944C21.3939 64.9699 22.1268 64.647 22.7857 64.8785C23.4543 65.1009 23.795 65.7954 23.5507 66.429C23.3611 66.9256 22.8596 67.2393 22.3229 67.2271C22.1879 67.2271 22.0497 67.1967 21.9147 67.154V67.151ZM42.0358 66.7093C41.8108 66.0757 42.1868 65.3872 42.8554 65.1831C43.524 64.979 44.2407 65.3233 44.4657 65.9599C44.6811 66.5935 44.3147 67.282 43.6461 67.4861C43.5079 67.5318 43.3633 67.5531 43.2186 67.5501C42.6915 67.5379 42.2029 67.215 42.0358 66.7093ZM17.8647 65.4542C17.2412 65.1496 17.0033 64.4124 17.3215 63.8215C17.6494 63.2305 18.4208 63.0051 19.054 63.3158C19.6775 63.6265 19.9154 64.3515 19.5875 64.9486C19.3561 65.3629 18.8997 65.6035 18.4304 65.5944C18.2344 65.5913 18.0479 65.5456 17.8615 65.4542H17.8647ZM46.0439 65.3537C45.7418 64.7506 46.0054 64.0286 46.6418 63.7362C47.2685 63.4498 48.04 63.6996 48.3421 64.3028C48.6507 64.9059 48.3871 65.6279 47.7507 65.9203C47.561 66.0056 47.365 66.0422 47.1689 66.0361C46.6996 66.0269 46.2625 65.7741 46.0439 65.3507V65.3537ZM14.1008 63.2701H14.0912C13.5191 62.8863 13.3841 62.1247 13.7891 61.5855C14.1941 61.0372 14.9976 60.9093 15.5665 61.2901C16.1451 61.68 16.2801 62.4354 15.8783 62.9838C15.6244 63.3249 15.2098 63.5016 14.8016 63.4955C14.5541 63.4894 14.3098 63.4194 14.1008 63.2701ZM49.8271 63.5047C49.4382 62.9472 49.6085 62.1917 50.1967 61.8323C50.7849 61.4576 51.5724 61.6191 51.9613 62.1765C52.3503 62.734 52.1863 63.4803 51.5981 63.8489C51.3731 63.989 51.116 64.056 50.8685 64.053C50.4603 64.0438 50.0714 63.8519 49.8239 63.5077L49.8271 63.5047ZM10.6616 60.6351C10.1441 60.1812 10.1184 59.4136 10.5973 58.9231C11.0763 58.4327 11.8798 58.3992 12.3973 58.8561C12.9148 59.3192 12.9502 60.0777 12.468 60.5681C12.2077 60.8362 11.8541 60.9672 11.5037 60.9611C11.1984 60.955 10.9027 60.8423 10.6584 60.6382L10.6616 60.6351ZM53.321 61.1956C52.8645 60.693 52.916 59.9284 53.4463 59.4867C53.9831 59.0541 54.7931 59.1029 55.2591 59.6116C55.7156 60.1142 55.6545 60.8788 55.1273 61.3205C54.8766 61.5246 54.5681 61.616 54.2595 61.6099C53.9188 61.6038 53.5717 61.4667 53.3242 61.1956H53.321ZM7.63059 57.5859C7.17417 57.0771 7.25131 56.3095 7.79773 55.8861C8.34415 55.4535 9.1445 55.5266 9.59128 56.0445C10.0477 56.5623 9.97055 57.3208 9.42414 57.7534C9.18307 57.9423 8.88093 58.0336 8.58201 58.0276C8.22523 58.0215 7.87166 57.8752 7.63059 57.5889V57.5859ZM56.4677 58.4754C55.9341 58.0276 55.8827 57.269 56.3552 56.7603C56.818 56.2607 57.628 56.212 58.1552 56.6598C58.6919 57.0985 58.7337 57.8661 58.2709 58.3657C58.0073 58.6429 57.6473 58.78 57.2809 58.7739C56.9916 58.7678 56.7055 58.6734 56.4709 58.4754H56.4677ZM5.0367 54.1863C4.65742 53.6136 4.83742 52.8673 5.4417 52.5169C6.03633 52.1666 6.82703 52.3342 7.19667 52.9008C7.57595 53.4643 7.39595 54.2137 6.79168 54.5701C6.57632 54.695 6.32883 54.7529 6.08776 54.7498C5.66991 54.7407 5.26491 54.5488 5.0367 54.1863ZM59.1901 55.3804C58.6019 55.0057 58.4509 54.2502 58.8462 53.7019C59.2351 53.1445 60.0291 52.9921 60.6173 53.3668C61.2055 53.7415 61.3565 54.497 60.9612 55.0453C60.7137 55.4048 60.2926 55.5875 59.8748 55.5814C59.6369 55.5753 59.3991 55.5144 59.1901 55.3804ZM2.94102 50.4851C2.64853 49.8728 2.93781 49.16 3.58387 48.8828C4.22029 48.6056 4.98206 48.8797 5.27456 49.4829C5.55741 50.0952 5.27777 50.8141 4.63171 51.0852C4.45171 51.1614 4.26207 51.1979 4.08529 51.1949C3.60958 51.1857 3.15316 50.9268 2.94424 50.4851H2.94102ZM1.38533 46.5555C1.18605 45.9219 1.56854 45.2426 2.24675 45.0476C2.91531 44.8587 3.63208 45.2212 3.83779 45.864C4.03708 46.5067 3.65458 47.1769 2.97638 47.3719C2.84781 47.4084 2.7096 47.4237 2.58424 47.4206C2.03782 47.4084 1.55247 47.0764 1.38533 46.5555ZM0.395347 42.4735C0.292491 41.8095 0.764984 41.1911 1.45926 41.0814C2.15996 40.9748 2.81567 41.4256 2.92816 42.0897C3.03102 42.7447 2.55853 43.3661 1.86747 43.4727C1.79033 43.4879 1.71318 43.494 1.63604 43.491C1.03177 43.4788 0.504631 43.0554 0.398561 42.4735H0.395347ZM-4.13315e-06 38.3002C-0.0192895 37.63 0.539988 37.0756 1.24712 37.0574C1.94782 37.0391 2.53924 37.5691 2.54888 38.2393H2.55853C2.56817 38.9003 2.01211 39.4547 1.3114 39.473C1.28569 39.473 1.26962 39.4791 1.25033 39.4791C0.568916 39.4639 0.0192813 38.946 -4.13315e-06 38.3002ZM1.30819 35.4459C0.610701 35.3758 0.0964229 34.7757 0.17035 34.1147H0.173565C0.247492 33.4476 0.880696 32.9663 1.57819 33.0363C2.2821 33.1064 2.78995 33.7004 2.71281 34.3675C2.64853 34.9951 2.07639 35.4611 1.42069 35.4459C1.38533 35.4459 1.35319 35.4459 1.3114 35.4459H1.30819ZM1.86747 31.4462C1.18926 31.2878 0.76177 30.6329 0.92891 29.981C1.09605 29.3291 1.78711 28.9331 2.47496 29.0915C3.1628 29.2499 3.58065 29.9048 3.41351 30.5567C3.27209 31.1203 2.73531 31.4858 2.15032 31.4767C2.05711 31.4767 1.96389 31.4645 1.87068 31.4462H1.86747ZM2.98602 27.5531C2.3271 27.3064 2.00246 26.6058 2.26282 25.9813C2.51674 25.3568 3.25602 25.0491 3.91493 25.2959C4.57385 25.5365 4.89849 26.2433 4.63814 26.8616C4.43886 27.349 3.94708 27.6476 3.42959 27.6354C3.2753 27.6323 3.13066 27.6049 2.98923 27.5531H2.98602ZM4.63814 23.8337C4.02422 23.5047 3.80244 22.7767 4.14957 22.1857C4.48707 21.6039 5.26491 21.3937 5.88205 21.7196C6.49597 22.0395 6.72739 22.7797 6.38025 23.3615C6.1424 23.7667 5.69241 23.9921 5.23277 23.983C5.0367 23.9799 4.83421 23.9342 4.64135 23.8337H4.63814ZM60.4566 24.8786C60.1576 24.2754 60.4308 23.5534 61.0737 23.2732C61.7101 22.9899 62.4719 23.2488 62.7676 23.8581C63.0665 24.4612 62.7869 25.1801 62.1505 25.4634C61.9351 25.5579 61.7101 25.5944 61.4883 25.5731C61.0576 25.5335 60.6558 25.2776 60.4566 24.8786ZM6.80775 20.358C6.23883 19.9589 6.1199 19.2065 6.54097 18.6643C6.96203 18.1251 7.76559 18.0185 8.33451 18.4175C8.897 18.8166 9.01593 19.569 8.59486 20.1112C8.34094 20.4372 7.94559 20.6077 7.54381 20.5986C7.28024 20.5925 7.02632 20.5164 6.80775 20.358ZM58.4894 21.4881C58.1102 20.9276 58.2805 20.1721 58.8848 19.8127C59.4762 19.4532 60.2637 19.6147 60.643 20.1843C61.0223 20.7448 60.8519 21.4942 60.2573 21.8506C60.0033 22.006 59.7237 22.0608 59.4441 22.0364C59.0712 22.0029 58.7144 21.808 58.4894 21.4881ZM56.0691 18.3718C55.6095 17.8601 55.677 17.0955 56.217 16.6659C56.757 16.2303 57.5637 16.2943 58.0169 16.8061C58.4702 17.3178 58.4091 18.0824 57.8691 18.5119C57.5895 18.7313 57.2487 18.8196 56.9177 18.7892C56.6059 18.7617 56.2941 18.6186 56.0691 18.3718ZM23.5764 8.51424C23.3964 7.87149 23.795 7.20132 24.47 7.03073C25.1546 6.851 25.8553 7.22874 26.0449 7.87758C26.2249 8.52034 25.8264 9.18746 25.1514 9.36109C25.0325 9.40069 24.9039 9.41288 24.785 9.40983C24.2321 9.39765 23.7371 9.04124 23.5796 8.51424H23.5764ZM41.3094 9.33063C40.6247 9.15395 40.2229 8.49292 40.4062 7.85017C40.5926 7.20132 41.2901 6.8175 41.9747 6.99418C42.6529 7.17086 43.0547 7.83189 42.8683 8.47464C42.7108 9.02905 42.1836 9.38242 41.6115 9.37023C41.5086 9.37023 41.409 9.35805 41.3061 9.33063H41.3094Z" fill="black"/>
<path d="M17.8806 6.53877L9.99023 10.5132L12.4853 14.9623L20.3757 10.9879L17.8806 6.53877Z" fill="white"/>
<path d="M45.5059 10.9912L53.3962 14.9656L55.8913 10.5165L48.0009 6.54206L45.5059 10.9912Z" fill="#F5F5F5"/>
<path d="M52.6748 37.9743C52.6748 48.3162 43.8389 56.6903 32.9362 56.6903C22.0335 56.6903 13.1943 48.3162 13.1943 37.9743C13.1943 27.6324 22.0303 19.2644 32.9362 19.2644C43.8421 19.2644 52.6748 27.6385 52.6748 37.9743Z" fill="white"/>
<path d="M52.6203 21.6161C51.3474 20.2331 49.9042 18.9811 48.3325 17.9058C44.7808 15.4536 40.5508 13.833 35.9545 13.3334C34.9645 13.2177 33.9616 13.1567 32.9395 13.1567C31.9174 13.1567 30.9113 13.2177 29.931 13.3334C25.3443 13.833 21.1111 15.4536 17.553 17.9058C15.9812 18.9903 14.538 20.2331 13.2652 21.6161C9.21202 25.9813 6.75635 31.7113 6.75635 37.9804C6.75635 51.6945 18.4883 62.798 32.9427 62.798C47.3971 62.798 59.1355 51.6945 59.1355 37.9804C59.1355 31.7113 56.6863 25.9783 52.6267 21.6161H52.6203ZM32.9363 56.6903C22.0336 56.6903 13.1977 48.3162 13.1977 37.9743C13.1977 27.6324 22.0336 19.2644 32.9363 19.2644C43.839 19.2644 52.6781 27.6385 52.6781 37.9743C52.6781 48.3102 43.8422 56.6903 32.9363 56.6903Z" fill="white"/>
<path d="M32.9361 19.2673V13.1536C31.9172 13.1536 30.908 13.2175 29.9276 13.3333C25.3409 13.8298 21.1077 15.4535 17.5496 17.9057C15.981 18.9871 14.5346 20.233 13.2586 21.6129C9.20543 25.9782 6.74976 31.7142 6.74976 37.9803C6.74976 51.6974 18.4817 62.7979 32.9361 62.7979V56.6932C22.0302 56.6932 13.1911 48.3161 13.1911 37.9711C13.1911 27.6262 22.0302 19.2673 32.9361 19.2673Z" fill="#F5F5F5"/>
<path d="M32.9363 63.8214C17.9033 63.8214 5.66992 52.2305 5.66992 37.9803C5.66992 31.6959 8.07738 25.6431 12.4487 20.9367C13.3198 19.9954 14.2487 19.1302 15.2098 18.3656C15.7337 17.93 16.3155 17.4914 16.9133 17.0771C20.2658 14.765 24.1936 13.1901 28.2692 12.523C28.7738 12.4377 29.2881 12.3737 29.8024 12.3158C31.8692 12.0691 33.9713 12.0661 36.083 12.3158C40.7276 12.8154 45.1857 14.4634 48.9657 17.0771C50.5889 18.1859 52.0931 19.4867 53.4335 20.9367C57.8016 25.64 60.2091 31.6929 60.2091 37.9772C60.2091 52.2244 47.9725 63.8183 32.9331 63.8183L32.9363 63.8214ZM32.9363 14.1771C31.9881 14.1771 31.0206 14.235 30.0628 14.3507C29.5774 14.4025 29.1049 14.4634 28.6389 14.5426C24.8846 15.158 21.2686 16.608 18.1829 18.7373C17.6365 19.115 17.1062 19.5141 16.6112 19.9253C15.7176 20.6381 14.8659 21.4271 14.0655 22.2922C10.0413 26.624 7.82346 32.1985 7.82346 37.9833C7.82346 51.1034 19.0861 61.7774 32.9299 61.7774C46.7736 61.7774 58.0459 51.1034 58.0459 37.9833C58.0459 32.1955 55.8313 26.624 51.8071 22.2922C50.5728 20.9549 49.1907 19.7608 47.6961 18.7403C44.2118 16.3308 40.1105 14.8168 35.8259 14.3538C34.8488 14.238 33.8781 14.1801 32.9331 14.1801L32.9363 14.1771Z" fill="black"/>
<path d="M32.9361 57.7137C21.4548 57.7137 12.1143 48.8583 12.1143 37.9742C12.1143 27.09 21.4548 18.2407 32.9361 18.2407C44.4173 18.2407 53.7579 27.093 53.7579 37.9742C53.7579 48.8553 44.4173 57.7137 32.9361 57.7137ZM32.9361 20.2878C22.6473 20.2878 14.2742 28.2201 14.2742 37.9742C14.2742 47.7282 22.6441 55.6666 32.9361 55.6666C43.2281 55.6666 51.5947 47.7312 51.5947 37.9742C51.5947 28.2171 43.2248 20.2878 32.9361 20.2878Z" fill="black"/>
<path d="M18.8 38.9977H14.4865C13.8886 38.9977 13.4065 38.5378 13.4065 37.9742C13.4065 37.4107 13.8918 36.9507 14.4865 36.9507H18.8C19.3978 36.9507 19.88 37.4107 19.88 37.9742C19.88 38.5378 19.3946 38.9977 18.8 38.9977Z" fill="black"/>
<path d="M32.9362 56.4801C32.3383 56.4801 31.8562 56.0201 31.8562 55.4565V51.3685C31.8562 50.8019 32.3416 50.345 32.9362 50.345C33.5308 50.345 34.0162 50.805 34.0162 51.3685V55.4565C34.0162 56.0231 33.5308 56.4801 32.9362 56.4801Z" fill="black"/>
<path d="M32.9362 24.9913C32.3383 24.9913 31.8562 24.5313 31.8562 23.9678V19.8797C31.8562 19.3131 32.3416 18.8562 32.9362 18.8562C33.5308 18.8562 34.0162 19.3162 34.0162 19.8797V23.9678C34.0162 24.5344 33.5308 24.9913 32.9362 24.9913Z" fill="black"/>
<path d="M33.0455 39.0587C32.6341 39.0587 32.2419 38.8363 32.0619 38.4586L25.9227 25.6431C25.6752 25.1283 25.9163 24.5221 26.4595 24.2875C27.0027 24.053 27.6424 24.2814 27.8899 24.7963L34.029 37.6117C34.2765 38.1265 34.0355 38.7327 33.4923 38.9673C33.3476 39.0313 33.1966 39.0587 33.0455 39.0587Z" fill="black"/>
<path d="M23.9459 46.9393C23.6534 46.9393 23.3609 46.8266 23.1488 46.6073C22.747 46.19 22.776 45.5442 23.2163 45.1603L32.3126 37.2798C32.7529 36.899 33.4376 36.9264 33.8394 37.3437C34.2411 37.7611 34.2122 38.4069 33.7719 38.7907L24.6756 46.6713C24.4699 46.851 24.2063 46.9393 23.9459 46.9393Z" fill="black"/>
<path d="M32.9394 9.84844C30.0755 9.84844 27.7419 7.63993 27.7419 4.9227C27.7419 2.20547 30.0755 0 32.9394 0C35.8033 0 38.1368 2.20851 38.1368 4.92574C38.1368 7.64297 35.8065 9.85149 32.9394 9.85149V9.84844ZM32.9394 2.04706C31.2647 2.04706 29.9051 3.33866 29.9051 4.9227C29.9051 6.50673 31.268 7.79833 32.9394 7.79833C34.6108 7.79833 35.9736 6.50673 35.9736 4.9227C35.9736 3.33866 34.6108 2.04706 32.9394 2.04706Z" fill="black"/>
<path d="M32.9362 14.1802C32.3383 14.1802 31.8562 13.7203 31.8562 13.1567V8.99253C31.8562 8.42593 32.3416 7.96899 32.9362 7.96899C33.5308 7.96899 34.0162 8.42897 34.0162 8.99253V13.1567C34.0162 13.7233 33.5308 14.1802 32.9362 14.1802Z" fill="black"/>
<path d="M34.8839 39.8202C35.9607 38.7997 35.9607 37.1456 34.8839 36.1282C33.8071 35.1077 32.0618 35.1077 30.9883 36.1282C29.9147 37.1486 29.9115 38.8027 30.9883 39.8202C32.065 40.8407 33.8104 40.8407 34.8839 39.8202Z" fill="white"/>
<path d="M32.9361 41.6083C31.9525 41.6083 30.9722 41.255 30.2233 40.5452C28.7286 39.1287 28.7286 36.8227 30.2233 35.4032C31.7179 33.9867 34.1511 33.9867 35.6489 35.4032C37.1435 36.8197 37.1435 39.1287 35.6489 40.5452C34.9 41.255 33.9196 41.6083 32.9361 41.6083ZM32.9361 36.3902C32.5054 36.3902 32.0779 36.5455 31.75 36.8532C31.0975 37.4716 31.0975 38.4799 31.75 39.0983C32.4025 39.7166 33.4664 39.7166 34.1189 39.0983C34.7714 38.4799 34.7714 37.4716 34.1189 36.8532C33.7911 36.5425 33.3636 36.3902 32.9329 36.3902H32.9361Z" fill="black"/>
<path d="M59.8067 50.0384C66.3684 47.6063 69.6074 40.5935 67.0411 34.3747C64.4749 28.156 57.0753 25.0864 50.5136 27.5185C43.9519 29.9505 40.7129 36.9634 43.2791 43.1821C45.8453 49.4008 53.245 52.4705 59.8067 50.0384Z" fill="#F5F5F5"/>
<path d="M60.4856 41.4437C60.4663 43.3659 59.0264 44.56 56.9757 44.9347L56.95 47.3442C56.3457 47.4569 55.7157 47.5179 55.0696 47.5118C54.6261 47.5087 54.1857 47.4691 53.7582 47.4082L53.7839 44.889C52.2636 44.5965 50.8269 43.9538 49.7629 43.0795L50.9393 40.8497C52.2572 41.9798 54.1182 42.7109 55.4811 42.7231C56.6768 42.7353 57.4 42.321 57.4064 41.5747C57.4321 39.2839 50.5504 40.5512 50.5986 36.2286C50.6179 34.4922 51.9068 33.2676 53.9125 32.8503L53.9607 30.1209C54.3882 30.0752 54.8125 30.0447 55.2561 30.0508C55.9118 30.0569 56.5385 30.13 57.1493 30.2549L57.1043 32.8137C58.3674 33.027 59.5792 33.4687 60.4921 34.0475L59.351 36.3108C57.9946 35.534 56.3875 35.0314 55.3621 35.0223C54.3882 35.0131 53.7197 35.3421 53.7132 35.997C53.6875 38.2482 60.5499 37.0632 60.4856 41.4437Z" fill="black"/>
<path d="M55.1564 51.9044C53.2696 51.9044 51.3893 51.5358 49.6086 50.7956C42.6176 47.8956 39.4227 40.146 42.4826 33.5204C43.9644 30.3128 46.6772 27.8423 50.1196 26.5659C53.5621 25.2895 57.3228 25.3596 60.7106 26.767C67.7015 29.667 70.8965 37.4166 67.8365 44.0421C66.3548 47.2498 63.6419 49.7203 60.1995 50.9966C58.5667 51.6028 56.8599 51.9044 55.1564 51.9044ZM55.1756 27.7143C50.6757 27.7143 46.3783 30.194 44.4594 34.3429C41.8784 39.9327 44.5751 46.473 50.4732 48.9221C53.3307 50.1071 56.5031 50.168 59.4088 49.0897C62.3145 48.0144 64.603 45.9277 65.8533 43.2196C68.4344 37.6298 65.7376 31.0895 59.8395 28.6404C58.3192 28.0098 56.7345 27.7113 55.1724 27.7113L55.1756 27.7143Z" fill="black"/>
<path d="M12.0405 16.3461L8.53052 10.0892L18.3275 5.1543L21.8375 11.4112L12.0405 16.3461ZM11.4523 10.936L12.934 13.5771L18.9157 10.5644L17.434 7.92331L11.4523 10.936Z" fill="black"/>
<path d="M18.5911 18.1495C18.2022 18.1495 17.8261 17.9484 17.6333 17.6012L15.3672 13.504C15.0908 13.0044 15.2933 12.386 15.8236 12.121C16.3508 11.859 17.0033 12.0509 17.2829 12.5536L19.5489 16.6507C19.8254 17.1503 19.6229 17.7687 19.0925 18.0337C18.9318 18.1129 18.7614 18.1495 18.5911 18.1495Z" fill="black"/>
<path d="M53.8417 16.3461L44.0447 11.4112L47.5546 5.1543L57.3516 10.0892L53.8417 16.3461ZM46.9664 10.5644L52.9481 13.5771L54.4299 10.936L48.4482 7.92331L46.9664 10.5644Z" fill="black"/>
<path d="M47.291 18.1494C47.1206 18.1494 46.9503 18.1128 46.7896 18.0336C46.2624 17.7717 46.0567 17.1533 46.3332 16.6507L48.5992 12.5535C48.8756 12.0539 49.5281 11.8589 50.0585 12.1209C50.5856 12.3829 50.7913 13.0013 50.5149 13.5039L48.2488 17.6011C48.056 17.9514 47.6799 18.1494 47.291 18.1494Z" fill="black"/>
</svg>
