<?xml version="1.0" encoding="utf-8"?>
<svg width="69" height="69" viewBox="0 0 69 69" fill="none" xmlns="http://www.w3.org/2000/svg">
<path d="M46.3558 5.38354H24.2578V13.4335H46.3558V5.38354Z" fill="#FFCB65"/>
<path d="M62.8905 51.3474H52.7705V61.4674H62.8905V51.3474Z" fill="white"/>
<path d="M35.3076 18.5237L26.782 27.0493L35.3076 35.5749L43.8332 27.0493L35.3076 18.5237Z" fill="white"/>
<path d="M35.3051 22.6226L30.8784 27.0493L35.3051 31.476L39.7318 27.0493L35.3051 22.6226Z" fill="#FFCB65"/>
<path d="M52.8066 35.9987C51.556 38.7731 52.7922 42.0362 55.5666 43.2868C58.341 44.5375 61.6041 43.3012 62.8547 40.5268C64.1053 37.7525 62.8691 34.4893 60.0947 33.2387C57.3203 31.9881 54.0572 33.2243 52.8066 35.9987Z" fill="#FFCB65"/>
<path d="M13.391 43.8911C16.4314 43.7743 18.8015 41.2149 18.6847 38.1745C18.5679 35.1341 16.0085 32.764 12.968 32.8808C9.92763 32.9976 7.55758 35.557 7.67438 38.5974C7.79118 41.6379 10.3506 44.0079 13.391 43.8911Z" fill="white"/>
<path d="M22.7556 55.5667H9.68516C7.46422 55.5667 5.66016 57.3671 5.66016 59.5917C5.66016 61.8126 7.46063 63.6167 9.68516 63.6167H22.7556C24.9766 63.6167 26.7806 61.8162 26.7806 59.5917C26.7806 57.3707 24.9802 55.5667 22.7556 55.5667Z" fill="#FFCB65"/>
<path d="M40.3651 40.8105H30.2451V50.9305H40.3651V40.8105Z" fill="white"/>
<path d="M30.2451 50.9305L40.3651 40.8105V50.9305H30.2451Z" fill="#FFCB65"/>
<path d="M24.4699 40.1673C25.1387 40.1673 25.681 39.6251 25.681 38.9562C25.681 38.2873 25.1387 37.7451 24.4699 37.7451C23.801 37.7451 23.2588 38.2873 23.2588 38.9562C23.2588 39.6251 23.801 40.1673 24.4699 40.1673Z" fill="#1A2433"/>
<path d="M24.4699 34.4317C25.1387 34.4317 25.681 33.8895 25.681 33.2206C25.681 32.5517 25.1387 32.0095 24.4699 32.0095C23.801 32.0095 23.2588 32.5517 23.2588 33.2206C23.2588 33.8895 23.801 34.4317 24.4699 34.4317Z" fill="#1A2433"/>
<path d="M46.5678 40.0955C47.2367 40.0955 47.7789 39.5533 47.7789 38.8844C47.7789 38.2156 47.2367 37.6733 46.5678 37.6733C45.8989 37.6733 45.3567 38.2156 45.3567 38.8844C45.3567 39.5533 45.8989 40.0955 46.5678 40.0955Z" fill="#1A2433"/>
<path d="M46.5678 34.4317C47.2367 34.4317 47.7789 33.8895 47.7789 33.2206C47.7789 32.5517 47.2367 32.0095 46.5678 32.0095C45.8989 32.0095 45.3567 32.5517 45.3567 33.2206C45.3567 33.8895 45.8989 34.4317 46.5678 34.4317Z" fill="#1A2433"/>
<path d="M46.5678 51.3475C47.2367 51.3475 47.7789 50.8053 47.7789 50.1364C47.7789 49.4675 47.2367 48.9253 46.5678 48.9253C45.8989 48.9253 45.3567 49.4675 45.3567 50.1364C45.3567 50.8053 45.8989 51.3475 46.5678 51.3475Z" fill="#1A2433"/>
<path d="M46.5678 45.8348C47.2367 45.8348 47.7789 45.2926 47.7789 44.6237C47.7789 43.9548 47.2367 43.4126 46.5678 43.4126C45.8989 43.4126 45.3567 43.9548 45.3567 44.6237C45.3567 45.2926 45.8989 45.8348 46.5678 45.8348Z" fill="#1A2433"/>
<path d="M58.7938 44.6596C60.8926 44.3398 62.7973 42.9993 63.7317 40.9221C65.1979 37.6662 63.7424 33.8245 60.4901 32.3582C59.9438 32.1103 59.3724 31.9485 58.7974 31.8623V31.4849C58.7974 28.5057 56.3753 26.0835 53.396 26.0835H44.2284L36.2718 18.127V14.4003H47.319V4.42041H23.2912V14.4003H34.3384V18.127L26.3782 26.0871H17.2178C14.2349 26.0871 11.8092 28.5093 11.8092 31.4885V32.0707C9.87213 32.4948 8.15072 33.7885 7.27385 35.7292C6.56228 37.3068 6.50838 39.0642 7.12291 40.6813C7.73385 42.2985 8.94135 43.5815 10.519 44.2931C11.0653 44.541 11.6367 44.6992 12.2153 44.7854V54.6035H9.68166C6.92885 54.6035 4.68994 56.8424 4.68994 59.5917C4.68994 62.3409 6.92885 64.5834 9.68166 64.5834H22.7521C25.5049 64.5834 27.7438 62.3445 27.7438 59.5917C27.7438 56.8388 25.5049 54.6035 22.7521 54.6035H19.6579V47.7898C19.6579 47.2651 20.082 46.841 20.6067 46.841H29.2784V51.901H34.3384V61.676H31.9485C31.4167 61.676 30.9818 62.1073 30.9818 62.6427C30.9818 63.1782 31.4131 63.6095 31.9485 63.6095H42.9095C43.4413 63.6095 43.8762 63.1782 43.8762 62.6427C43.8762 62.1073 43.4449 61.676 42.9095 61.676H40.6023V58.3626C40.6023 58.2152 40.7209 58.0967 40.8682 58.0967H51.8004V62.4379H63.8503V50.3845H58.7903V44.6632L58.7938 44.6596ZM57.8343 33.7203C58.456 33.7203 59.0921 33.8496 59.6959 34.1227C61.9815 35.1506 63.0021 37.8495 61.9707 40.1315C60.9393 42.4171 58.244 43.4377 55.962 42.4063C53.6763 41.3749 52.6557 38.6796 53.6871 36.3976C54.4454 34.7157 56.1021 33.7203 57.8379 33.7203H57.8343ZM25.221 12.4668V6.35025H45.3856V12.4668H25.221ZM35.3015 19.8915L42.4603 27.0503L35.3015 34.209L28.1428 27.0503L35.3015 19.8915ZM11.3168 42.5285C10.2099 42.029 9.36541 41.1306 8.93416 39.9949C8.50291 38.8593 8.54244 37.6267 9.04197 36.5198C9.80025 34.8379 11.457 33.8424 13.1928 33.8424C13.8145 33.8424 14.4506 33.9718 15.0543 34.2449C17.3399 35.2728 18.3606 37.9717 17.3292 40.2537C16.8296 41.3606 15.9312 42.2051 14.7956 42.6363C13.6599 43.0676 12.4273 43.0281 11.3204 42.5285H11.3168ZM22.7557 56.5334C24.4412 56.5334 25.814 57.9062 25.814 59.5917C25.814 61.2771 24.4412 62.6499 22.7557 62.6499H9.68525C7.99979 62.6499 6.62697 61.2771 6.62697 59.5917C6.62697 57.9062 7.99979 56.5334 9.68525 56.5334H22.7557ZM29.282 44.9076H20.6103C19.0218 44.9076 17.7281 46.2013 17.7281 47.7898V54.6035H14.1487V44.7854C14.5979 44.7171 15.0399 44.6057 15.4748 44.4404C17.092 43.8295 18.3749 42.622 19.0865 41.0443C20.5528 37.7884 19.0973 33.9467 15.8449 32.4804C15.1621 32.1713 14.4542 31.9988 13.7462 31.9378V31.4813C13.7462 29.5695 15.3059 28.0134 17.2213 28.0134H26.3818L34.342 35.9735V39.844H29.282V44.904V44.9076ZM31.2154 49.9676V41.781H39.402V49.9676H31.2154ZM51.8076 56.1632H40.8754C39.6643 56.1632 38.676 57.1479 38.676 58.3626V61.676H36.2754V51.901H41.3354V39.8476H36.2754V35.9771L44.232 28.0206H53.3996C55.3115 28.0206 56.8676 29.5767 56.8676 31.4885V31.8659C56.4184 31.9342 55.9728 32.0456 55.5379 32.2109C53.9207 32.8218 52.6378 34.0293 51.9262 35.607C51.2146 37.1846 51.1607 38.942 51.7753 40.5628C52.3898 42.1835 53.5937 43.4629 55.1713 44.1745C55.7248 44.4224 56.2926 44.5806 56.8676 44.6668V50.3917H51.8076V56.1704V56.1632ZM61.9276 52.3179V60.5081H53.741V52.3179H61.9276Z" fill="#1A2433"/>
</svg>
