<?xml version="1.0" encoding="utf-8"?>
<svg width="63" height="63" viewBox="0 0 63 63" fill="none" xmlns="http://www.w3.org/2000/svg">
<path d="M59.3906 16.6426V53.5107C59.3906 54.984 58.1864 56.1784 56.7131 56.1784H6.93986C5.10236 56.1784 3.61267 54.6854 3.61267 52.8512V16.6426H4.49861L12.5114 27.7857C14.303 30.2827 17.1872 31.756 20.2617 31.756H26.8013V34.0266C26.8013 35.5655 27.533 36.9207 28.6749 37.7804C29.4624 38.3776 30.4402 38.7287 31.4967 38.7287C32.5533 38.7287 33.5311 38.3743 34.3285 37.7804C34.4991 37.6524 34.673 37.508 34.8272 37.3538C35.677 36.504 36.202 35.3293 36.202 34.0266V31.756H42.7317C45.8063 31.756 48.6938 30.2827 50.482 27.7857L58.4949 16.6426H59.3906Z" fill="#FFCB65"/>
<path d="M6.93987 53.2744C6.70362 53.2744 6.51331 53.0841 6.51331 52.8479V24.4125L10.1555 29.4755C12.4819 32.7174 16.2619 34.6533 20.2617 34.6533H23.9236C24.0975 36.8124 25.1705 38.768 26.926 40.0936C28.2483 41.0944 29.8299 41.6293 31.4967 41.6293C33.1636 41.6293 34.7353 41.101 36.0675 40.1002C36.3497 39.8902 36.6286 39.6507 36.878 39.4013C38.161 38.1183 38.9288 36.4514 39.0764 34.6566H42.7317C46.7349 34.6566 50.5149 32.7207 52.8413 29.4755L56.49 24.3994V53.2711H6.93987V53.2744Z" fill="white"/>
<path d="M55.8403 11.8584H7.15641C5.1975 11.8584 3.60938 13.4465 3.60938 15.4054L12.5114 27.7823C14.3063 30.2761 17.1905 31.7559 20.265 31.7559H42.7317C45.8062 31.7559 48.6905 30.2761 50.4853 27.7823L59.3873 15.4054C59.3873 13.4465 57.7992 11.8584 55.8403 11.8584Z" fill="white"/>
<path d="M20.265 28.8552C18.1321 28.8552 16.1142 27.8216 14.8673 26.0891L6.79871 14.8705C6.90042 14.8016 7.02511 14.7622 7.15636 14.7622H55.8403C55.9715 14.7622 56.0962 14.8016 56.1979 14.8705L48.1293 26.0891C46.8825 27.8216 44.8645 28.8552 42.7317 28.8552H20.265Z" fill="#FFCB65"/>
<path d="M34.3284 11.8584H28.6748V26.1843H34.3284V11.8584Z" fill="#FFCB65"/>
<path d="M34.3284 37.7803V56.1323H28.6748V37.7803C29.4623 38.3775 30.4401 38.7286 31.4967 38.7286C32.5532 38.7286 33.5311 38.3742 34.3284 37.7803Z" fill="#FFCB65"/>
<path d="M36.1988 26.1846V34.0268C36.1988 35.3294 35.6738 36.5041 34.8239 37.3539C34.6697 37.5082 34.4991 37.6525 34.3252 37.7805C33.5278 38.3777 32.5533 38.7288 31.4934 38.7288C30.4336 38.7288 29.4591 38.3744 28.6716 37.7805C27.533 36.9208 26.798 35.5657 26.798 34.0268V26.1846H36.1955H36.1988Z" fill="white"/>
<path d="M55.837 10.8905H43.0664V8.32783C43.0664 5.03346 40.3856 2.35596 37.0945 2.35596H25.9054C22.6111 2.35596 19.9336 5.03674 19.9336 8.32783V10.8905H7.15637C4.66918 10.8905 2.64465 12.915 2.64465 15.4022V52.8478C2.64465 55.2169 4.57075 57.143 6.93981 57.143H56.7164C58.7245 57.143 60.3618 55.5122 60.3618 53.5074V15.4022C60.3618 12.915 58.334 10.8905 55.8403 10.8905H55.837ZM43.0664 12.8264H55.837C57.1659 12.8264 58.2618 13.8272 58.4095 15.1135L58.0059 15.6746H58.0026L49.6978 27.2213C48.0965 29.4558 45.4912 30.788 42.7317 30.788H37.17V25.2164H35.2964V12.8264H43.0664ZM27.7068 55.2103H6.93981C5.63715 55.2103 4.57731 54.1505 4.57731 52.8478V18.4111L11.7239 28.35C11.97 28.6913 12.2357 29.0161 12.5147 29.3246C14.4867 31.4738 17.302 32.7239 20.2584 32.7239H25.83V34.0266C25.83 35.6508 26.5092 37.1536 27.7036 38.2266V55.2103H27.7068ZM27.7068 25.2164H25.8332V30.788H20.2617C17.5022 30.788 14.9001 29.4558 13.2956 27.2213L4.59372 15.1135C4.73809 13.8272 5.83075 12.8231 7.15637 12.8231H19.9303H27.7068V25.2131V25.2164ZM21.8662 10.8905V8.32783C21.8662 6.09986 23.6775 4.29189 25.9022 4.29189H37.0912C39.3192 4.29189 41.1272 6.10314 41.1272 8.32783V10.8905H21.8629H21.8662ZM33.3604 12.8264V25.2164H29.6428V12.8264H33.3604ZM33.3604 55.1644H29.6428V39.3849C29.6428 39.3849 29.6592 39.3881 29.669 39.3914C29.9545 39.4899 30.2465 39.5621 30.5451 39.6146C30.5484 39.6146 30.5517 39.6146 30.555 39.6146C30.8634 39.6671 31.1784 39.6933 31.4967 39.6933C31.815 39.6933 32.1332 39.6638 32.4417 39.6113C32.4614 39.608 32.4811 39.6014 32.5007 39.5981C32.7829 39.5489 33.0618 39.48 33.3309 39.3881C33.3407 39.3849 33.3506 39.3849 33.3604 39.3816V55.1644ZM35.234 30.788V34.0266C35.234 35.0274 34.8468 35.9691 34.1414 36.6713C34.0298 36.7828 33.8953 36.8977 33.7476 37.006C32.7567 37.7475 31.4573 37.9346 30.322 37.5638C29.9447 37.4391 29.5837 37.2553 29.2589 37.0092C28.3139 36.2939 27.7725 35.2078 27.7725 34.0266V27.1524H35.234V30.788ZM58.4259 53.5106C58.4259 54.4491 57.6581 55.2103 56.7164 55.2103H35.2964V38.2233C35.3653 38.161 35.4473 38.1052 35.5097 38.0396C36.5793 36.9699 37.1667 35.5458 37.1667 34.0266V32.7239H42.7284C46.1081 32.7239 49.3008 31.0899 51.2662 28.35L58.4226 18.4046V53.5106H58.4259Z" fill="#1A2433"/>
<path d="M23.9531 19.6151H17.9911C17.4563 19.6151 17.0231 19.182 17.0231 18.6472C17.0231 18.1123 17.4563 17.6792 17.9911 17.6792H23.9531C24.488 17.6792 24.9211 18.1123 24.9211 18.6472C24.9211 19.182 24.488 19.6151 23.9531 19.6151ZM15.1134 19.6151H14.3948C13.86 19.6151 13.4269 19.182 13.4269 18.6472C13.4269 18.1123 13.86 17.6792 14.3948 17.6792H15.1134C15.6483 17.6792 16.0814 18.1123 16.0814 18.6472C16.0814 19.182 15.6483 19.6151 15.1134 19.6151Z" fill="white"/>
<path d="M13.1906 41.1633C13.1906 40.6284 13.6959 40.3626 14.4408 40.3626C15.2283 40.3626 16.462 40.7564 17.4989 41.3733L18.3553 39.5358C17.6498 39.0731 16.7278 38.7286 15.7533 38.5678L15.7664 36.2808H13.335L13.3219 38.6203C11.7895 38.9714 10.8183 39.9623 10.8183 41.37C10.8183 44.8514 16.0519 43.7686 16.0519 45.6225C16.0519 46.2262 15.5039 46.5609 14.5917 46.5609C13.5516 46.5609 12.1209 45.9867 11.1103 45.0876L10.2277 46.8989C11.0545 47.5945 12.1538 48.0998 13.3186 48.3197V50.505H15.75V48.3361C17.3119 48.0178 18.4078 47.0498 18.4078 45.4978C18.4209 41.9606 13.1873 42.9712 13.1873 41.1633H13.1906Z" fill="#1A2433"/>
<path d="M52.0242 47.8179C51.3056 47.8179 50.7216 48.4019 50.7216 49.1205C50.7216 49.8391 51.3056 50.4232 52.0242 50.4232C52.7428 50.4232 53.3269 49.8391 53.3269 49.1205C53.3269 48.4019 52.7428 47.8179 52.0242 47.8179Z" fill="#1A2433"/>
</svg>
