<?xml version="1.0" encoding="utf-8"?>
<svg width="69" height="69" viewBox="0 0 69 69" fill="none" xmlns="http://www.w3.org/2000/svg">
<path d="M34.4983 65.4036C51.5667 65.4036 65.4033 51.5669 65.4033 34.4985C65.4033 17.4302 51.5667 3.59351 34.4983 3.59351C17.4299 3.59351 3.59326 17.4302 3.59326 34.4985C3.59326 51.5669 17.4299 65.4036 34.4983 65.4036Z" fill="#FFC121"/>
<path d="M34.4982 62.5294C49.9793 62.5294 62.5292 49.9796 62.5292 34.4985C62.5292 19.0174 49.9793 6.46753 34.4982 6.46753C19.0172 6.46753 6.46729 19.0174 6.46729 34.4985C6.46729 49.9796 19.0172 62.5294 34.4982 62.5294Z" fill="white"/>
<path d="M57.059 39.8254C59.9998 27.3655 52.2831 14.8809 39.8233 11.9401C27.3635 8.99931 14.8788 16.716 11.938 29.1758C8.99726 41.6356 16.714 54.1203 29.1738 57.0611C41.6336 60.0019 54.1183 52.2852 57.059 39.8254Z" fill="#FFC121"/>
<path d="M18.285 25.2905C18.1099 25.2905 17.9317 25.2428 17.7725 25.1409C17.3206 24.8577 17.1837 24.2625 17.4702 23.8105C17.8999 23.1262 18.3741 22.461 18.8833 21.8308C19.2175 21.4171 19.8255 21.3502 20.2424 21.6876C20.6562 22.0218 20.7198 22.6297 20.3856 23.0467C19.9273 23.6164 19.4944 24.2179 19.1061 24.8386C18.9215 25.1314 18.6096 25.2905 18.2882 25.2905H18.285ZM21.7606 21.1688C21.4964 21.1688 21.2323 21.0606 21.0413 20.8473C20.6848 20.4495 20.7198 19.8384 21.1177 19.4851C23.5875 17.2762 26.6048 15.7007 29.8417 14.9305C31.9551 14.4276 34.1385 14.2717 36.2965 14.4626C36.828 14.5104 37.2195 14.9814 37.1717 15.5098C37.124 16.0413 36.6529 16.4423 36.1246 16.385C34.1704 16.21 32.2002 16.3532 30.2905 16.8084C27.3655 17.5054 24.6379 18.9281 22.4067 20.9237C22.2221 21.0892 21.9929 21.1688 21.7638 21.1688H21.7606Z" fill="white"/>
<path d="M34.4984 49.9509C43.0326 49.9509 49.9509 43.0326 49.9509 34.4984C49.9509 25.9642 43.0326 19.0459 34.4984 19.0459C25.9642 19.0459 19.0459 25.9642 19.0459 34.4984C19.0459 43.0326 25.9642 49.9509 34.4984 49.9509Z" fill="white"/>
<path d="M42.0197 36.2757C43.0001 32.1219 40.4275 27.9597 36.2737 26.9794C32.1198 25.999 27.9577 28.5715 26.9773 32.7254C25.9969 36.8792 28.5695 41.0413 32.7233 42.0217C36.8772 43.0021 41.0393 40.4296 42.0197 36.2757Z" fill="#FFC121"/>
<path d="M56.1351 12.8648H63.0895L56.1351 19.8193H49.1807V12.8648L56.1351 5.9104V12.8648Z" fill="white"/>
<path d="M56.3931 34.4985L61.5428 39.4159H51.2401L46.0903 34.4985L51.2401 29.5842H61.5428L56.3931 34.4985Z" fill="white"/>
<path d="M60.8013 16.5155L65.4227 11.9004H58.4651L59.9101 10.4554C60.2825 10.083 60.2825 9.46238 59.9101 9.08999C59.5377 8.7176 58.917 8.70805 58.5447 9.08999L57.0997 10.535V3.58056L52.4782 8.20199C47.3603 4.68817 41.1665 2.63208 34.5018 2.63208C16.9295 2.63208 2.62598 16.9261 2.62598 34.4983C2.62598 52.0706 16.9295 66.3677 34.5018 66.3677C52.074 66.3677 66.3712 52.0706 66.3712 34.4983C66.3712 27.8367 64.3151 21.6334 60.8013 16.5155ZM58.4237 31.2296L56.6541 32.9101L55.9984 33.5339H53.484L56.3963 30.7522L56.6127 30.5453H59.1367L58.4237 31.2296ZM50.8773 33.3557L50.6895 33.5339H48.4965L48.9199 33.1329L50.6386 31.4874L51.6316 30.5453H53.8246L50.8773 33.3557ZM45.702 33.5339H43.1431C42.9553 31.8598 42.2964 30.3288 41.2875 29.078L45.3997 24.9658C46.8574 26.6336 47.9427 28.6388 48.5188 30.8445L45.702 33.5339ZM35.8895 31.7452H35.8863C35.4693 31.5383 35.0015 31.4078 34.5018 31.4078C32.7958 31.4078 31.4113 32.7923 31.4113 34.4983C31.4113 36.2043 32.7958 37.5888 34.5018 37.5888C35.8704 37.5888 37.0162 36.6944 37.4236 35.4627H41.1888C40.721 38.741 37.9042 41.2618 34.5049 41.2618C30.7747 41.2618 27.7415 38.2286 27.7415 34.4983C27.7415 30.7681 30.7747 27.7349 34.5049 27.7349C36.02 27.7349 37.4236 28.2377 38.5503 29.0875L35.8895 31.7484V31.7452ZM37.4236 33.5339C37.3758 33.3875 37.3185 33.2507 37.2517 33.1138L39.9157 30.4498C40.5777 31.3346 41.0297 32.3817 41.1888 33.5339H37.4236ZM39.9221 27.7126C38.4421 26.519 36.5515 25.8093 34.5018 25.8093C29.7085 25.8093 25.8063 29.705 25.8063 34.4983C25.8063 39.2916 29.7085 43.1874 34.5018 43.1874C38.9736 43.1874 42.6593 39.8009 43.1399 35.4595H45.6989L48.5156 38.149C46.8924 44.3745 41.227 48.9864 34.4986 48.9864C26.5066 48.9864 20.0073 42.4808 20.0073 34.4951C20.0073 26.5095 26.5034 20.0038 34.4986 20.0038C38.1493 20.0038 41.4848 21.3629 44.0279 23.5972L39.9157 27.7094L39.9221 27.7126ZM48.4965 35.4595H50.6895L50.8773 35.6378L53.8246 38.4482H51.6316L50.6386 37.5061L48.9199 35.8605L48.4965 35.4595ZM50.855 28.6101L50.0848 29.3422C49.3814 27.2001 48.2387 25.2523 46.7651 23.6004L49.5819 20.7836H51.9594C53.7641 23.0752 55.1295 25.7201 55.9188 28.6101H50.8518H50.855ZM51.517 18.8485L52.2363 18.1292L53.0639 17.3016H57.2843L55.7406 18.8485H51.5202H51.517ZM51.6953 11.719V15.9394L50.8677 16.7669L50.1484 17.4862V13.2658L51.6921 11.719H51.6953ZM48.2165 19.4182L45.3997 22.235C42.497 19.6473 38.6871 18.0814 34.5049 18.0814C25.4499 18.0814 18.0817 25.4401 18.0817 34.4983C18.0817 43.5566 25.4499 50.9152 34.5049 50.9152C41.7586 50.9152 47.93 46.1856 50.0879 39.6449L50.8582 40.3769H55.9252C53.344 49.7853 44.7186 56.7143 34.5049 56.7143C22.2575 56.7143 12.289 46.7457 12.289 34.4983C12.289 22.2509 22.2575 12.2823 34.5049 12.2823C39.6802 12.2823 44.4385 14.0647 48.2196 17.047V19.4182H48.2165ZM56.6127 38.4514L56.3963 38.2445L53.484 35.4627H55.9984L56.6541 36.0865L58.4237 37.7671L59.1367 38.4514H56.6127ZM58.8056 35.4627H61.5429C62.0744 35.4627 62.5136 35.033 62.5136 34.4983C62.5136 33.9636 62.0744 33.5339 61.5429 33.5339H58.7961L63.8695 28.6897C64.2419 30.5644 64.436 32.5122 64.436 34.4983C64.436 36.4844 64.2419 38.4227 63.8695 40.2974L58.8025 35.4595L58.8056 35.4627ZM63.8599 28.6133H57.924C57.2047 25.7679 55.9921 23.1293 54.3593 20.7868H56.5363L59.4104 17.9127C61.546 21.1051 63.0833 24.7176 63.8599 28.6133ZM60.7631 13.8292L59.6491 14.9432L59.2162 15.3728H54.999L56.3358 14.0361L56.5427 13.826H60.7631V13.8292ZM55.1709 8.24336V12.4701L54.9704 12.6706L53.6272 14.0138V9.78702L54.0665 9.3478L55.1741 8.24018L55.1709 8.24336ZM34.5081 64.4421C17.9989 64.4421 4.5643 51.0075 4.5643 34.4983C4.5643 17.9891 17.9926 4.55768 34.5018 4.55768C40.6318 4.55768 46.3386 6.41325 51.0905 9.58969L48.2165 12.4638V14.6472C44.3207 11.9386 39.5911 10.3567 34.5018 10.3567C21.1849 10.3567 10.3506 21.1878 10.3506 34.4983C10.3506 47.8088 21.1817 58.6399 34.5018 58.6399C45.7848 58.6399 55.2887 50.8547 57.9176 40.3769H63.8536C61.1164 54.0821 48.9962 64.4421 34.4986 64.4421H34.5081Z" fill="#1A2433"/>
</svg>
