<?xml version="1.0" encoding="utf-8"?>
<svg width="63" height="63" viewBox="0 0 63 63" fill="none" xmlns="http://www.w3.org/2000/svg">
<g clip-path="url(#clip0_1077_1605)">
<path d="M15.1137 12.2883C17.4061 12.2883 19.2645 10.1332 19.2645 7.47473C19.2645 4.81625 17.4061 2.66113 15.1137 2.66113C12.8213 2.66113 10.9629 4.81625 10.9629 7.47473C10.9629 10.1332 12.8213 12.2883 15.1137 12.2883Z" fill="white"/>
<path d="M47.6962 12.2883C49.9886 12.2883 51.847 10.1332 51.847 7.47473C51.847 4.81625 49.9886 2.66113 47.6962 2.66113C45.4038 2.66113 43.5454 4.81625 43.5454 7.47473C43.5454 10.1332 45.4038 12.2883 47.6962 12.2883Z" fill="white"/>
<path d="M43.5683 41.9145C43.5552 42.0654 43.5486 42.2163 43.5486 42.3738C43.5486 42.5313 43.5552 42.6823 43.5683 42.8332V42.8792C43.5814 42.9973 43.5946 43.1088 43.6143 43.2204C43.6208 43.2795 43.6274 43.332 43.6405 43.3845C43.6602 43.4763 43.6733 43.5617 43.6996 43.647C43.7061 43.6863 43.7127 43.7192 43.7258 43.7585C43.7389 43.8176 43.7586 43.8832 43.7783 43.9423C43.8374 44.1588 43.9161 44.3688 44.008 44.5657C44.0605 44.697 44.1261 44.8217 44.1918 44.9398C44.1983 44.9595 44.2114 44.9792 44.218 44.9923C44.3821 45.2876 44.5789 45.5632 44.7955 45.806C44.8939 45.9242 45.0055 46.0423 45.1236 46.1407C45.1302 46.1473 45.1368 46.1538 45.1433 46.1604C45.8455 46.8035 46.7314 47.1842 47.6961 47.1842H44.7233C43.4305 47.1842 42.2493 47.8667 41.5996 48.9429C41.4486 49.1857 41.3305 49.4482 41.2386 49.7304L40.648 51.5876H22.4502L22.0105 49.8748C21.9252 49.5401 21.8005 49.2317 21.6299 48.9429C20.9933 47.8404 19.7989 47.1251 18.4733 47.1251H15.1133C16.0977 47.1251 16.9968 46.7248 17.7121 46.0554C17.8236 45.9504 17.9352 45.8323 18.0468 45.7142V45.7076C18.1583 45.5895 18.2502 45.4582 18.3421 45.327C18.3618 45.2942 18.3814 45.2679 18.4077 45.2351C18.4733 45.1367 18.5389 45.0317 18.598 44.9201C18.6111 44.8873 18.6308 44.861 18.6439 44.8282C18.7096 44.7167 18.7621 44.5985 18.808 44.4804C18.8933 44.3032 18.9589 44.1195 19.018 43.9292C19.0246 43.9029 19.0377 43.8832 19.0377 43.857C19.0574 43.7979 19.0771 43.7388 19.0902 43.6732C19.123 43.542 19.1558 43.4042 19.1755 43.2663C19.2018 43.1351 19.2214 43.0038 19.2346 42.8726C19.2346 42.8267 19.2411 42.7873 19.2411 42.7479C19.2543 42.6035 19.2608 42.4592 19.2608 42.3082C19.2608 42.1573 19.2543 42.0129 19.2411 41.8685C19.2411 41.8292 19.2346 41.7898 19.2346 41.7438C19.2214 41.6126 19.2018 41.4813 19.1755 41.3501C19.1558 41.2123 19.123 41.0745 19.0902 40.9432C19.0771 40.8776 19.0574 40.8185 19.0377 40.7595C19.0377 40.7332 19.0246 40.7135 19.018 40.6873C18.9589 40.4904 18.8868 40.2935 18.8014 40.1098C18.7621 40.0113 18.7161 39.9195 18.6636 39.8276C18.6439 39.7817 18.6177 39.7357 18.5914 39.6898C18.5455 39.611 18.4996 39.5323 18.4471 39.4535C18.4077 39.3879 18.3683 39.3288 18.3289 39.2632C18.2371 39.1385 18.1452 39.0204 18.0468 38.9088C17.9418 38.7907 17.8302 38.6726 17.7121 38.5676C16.9968 37.8982 16.0977 37.4979 15.1133 37.4979H15.0674V22.6863H19.2018C21.0983 22.6863 22.5946 21.2885 22.8571 19.5495C22.9293 19.077 22.9161 18.5782 22.7849 18.0729L22.4896 16.9048H40.5758L40.2739 17.8629C40.0902 18.4338 40.0574 19.0048 40.1427 19.5495C40.4052 21.2754 41.8883 22.6863 43.798 22.6863H47.788V37.5635C47.7552 37.557 47.7289 37.557 47.6961 37.557C46.7314 37.557 45.8455 37.9376 45.1433 38.5807L45.1236 38.6004C45.0055 38.6988 44.8939 38.817 44.7955 38.9351C44.5921 39.1582 44.4149 39.4142 44.2574 39.6832C44.2246 39.7423 44.1918 39.8013 44.1655 39.8604C44.1064 39.9588 44.0539 40.0638 44.008 40.1688C43.9621 40.2673 43.9227 40.3723 43.8833 40.4773C43.8833 40.4838 43.8768 40.4904 43.8768 40.5035C43.8374 40.6085 43.798 40.7201 43.7718 40.8317C43.7521 40.8842 43.7389 40.9367 43.7258 40.9892C43.7127 41.022 43.7061 41.0482 43.7061 41.081C43.6799 41.1795 43.6536 41.2779 43.6405 41.3829C43.6274 41.4288 43.6208 41.4813 43.6143 41.5273C43.5946 41.6388 43.5814 41.7504 43.5683 41.8685V41.9145Z" fill="#FFCB65"/>
<path d="M44.7958 45.8064C44.9008 45.9245 45.0124 46.0361 45.124 46.1411C45.1305 46.1476 45.1371 46.1542 45.1437 46.1607V47.1845C43.6212 47.1845 42.4071 47.6078 41.5999 48.9432H21.6302C20.4851 46.9614 18.4868 47.1254 17.7124 47.1254V46.0557C17.824 45.9507 17.9355 45.8326 18.0471 45.7145V45.7079C18.4835 45.2453 19.038 44.1461 19.038 43.8573C19.3596 42.8926 19.2874 41.5079 19.038 40.7598C19.038 40.4514 18.4441 39.2176 17.7124 38.5679V22.6867H19.2021C21.0987 22.6867 22.5949 21.2889 22.8574 19.5498H40.143C40.4055 21.2757 41.8887 22.6867 43.7983 22.6867H45.1437V38.5811C44.5301 39.1914 44.2282 39.5621 43.8837 40.4776C43.8837 40.4842 43.8771 40.4907 43.8771 40.5039C43.2373 42.2134 43.5391 44.3987 44.7958 45.8064Z" fill="white"/>
<path d="M51.729 57.4678H47.7324V52.2638L52.2999 47.3091C53.3827 47.7225 54.2359 48.6347 54.5377 49.816L55.3121 52.8544C55.9093 55.1906 54.144 57.4678 51.729 57.4678Z" fill="#FFCB65"/>
<path d="M52.3554 47.4303L47.7879 52.385L42.9448 47.6534C43.4764 47.3516 44.0867 47.1875 44.7233 47.1875H51.0495C51.5089 47.1875 51.9486 47.2728 52.3554 47.4303Z" fill="white"/>
<path d="M47.788 52.5099V57.7139H43.798C41.2912 57.7139 39.5127 55.2727 40.274 52.8905L41.2387 49.8586C41.5274 48.953 42.1508 48.218 42.9449 47.7783L47.788 52.5099Z" fill="white"/>
<path d="M51.8438 42.374C51.8438 44.999 50.0391 47.1253 47.7882 47.1778C47.7554 47.1843 47.7291 47.1843 47.6963 47.1843C46.7316 47.1843 45.8457 46.8037 45.1435 46.1606C44.1723 45.2812 43.5488 43.9162 43.5488 42.374C43.5488 40.8318 44.1723 39.4603 45.1435 38.5809C45.8457 37.9378 46.7316 37.5571 47.6963 37.5571C47.7291 37.5571 47.7554 37.5571 47.7882 37.5637C50.0391 37.6162 51.8438 39.749 51.8438 42.374Z" fill="white"/>
<path d="M51.729 22.565H47.7324V17.3609L52.2999 12.4062C53.3827 12.8197 54.2359 13.7319 54.5377 14.9131L55.3121 17.9516C55.9093 20.2878 54.144 22.565 51.729 22.565Z" fill="#FFCB65"/>
<path d="M52.3554 12.528L47.7879 17.4827L42.9448 12.7511C43.4764 12.4492 44.0867 12.2852 44.7233 12.2852H51.0495C51.5089 12.2852 51.9486 12.3705 52.3554 12.528Z" fill="white"/>
<path d="M47.788 17.6105V22.8145H43.798C41.2912 22.8145 39.5127 20.3733 40.274 17.9911L41.2387 14.9592C41.5274 14.0536 42.1508 13.3186 42.9449 12.8789L47.788 17.6105Z" fill="white"/>
<path d="M19.146 22.565H15.1494V17.3609L19.7169 12.4062C20.7997 12.8197 21.6529 13.7319 21.9547 14.9131L22.7291 17.9516C23.3263 20.2878 21.561 22.565 19.146 22.565Z" fill="white"/>
<path d="M19.7729 12.528L15.2054 17.4827L10.3623 12.7511C10.8939 12.4492 11.5042 12.2852 12.1407 12.2852H18.467C18.9264 12.2852 19.3661 12.3705 19.7729 12.528Z" fill="white"/>
<path d="M15.2055 17.6105V22.8145H11.2155C8.70864 22.8145 6.9302 20.3733 7.69145 17.9911L8.65614 14.9592C8.94489 14.0536 9.56833 13.3186 10.3624 12.8789L15.2055 17.6105Z" fill="#FFCB65"/>
<path d="M19.146 57.4024H15.1494V52.1983L19.7169 47.2437C20.7997 47.6571 21.6529 48.5693 21.9547 49.7505L22.7291 52.789C23.3263 55.1252 21.561 57.4024 19.146 57.4024Z" fill="white"/>
<path d="M19.7729 47.3649L15.2054 52.3196L10.3623 47.588C10.8939 47.2861 11.5042 47.1221 12.1407 47.1221H18.467C18.9264 47.1221 19.3661 47.2074 19.7729 47.3649Z" fill="white"/>
<path d="M15.2055 52.4474V57.6514H11.2155C8.70864 57.6514 6.9302 55.2102 7.69145 52.828L8.65614 49.7961C8.94489 48.8905 9.56833 48.1555 10.3624 47.7158L15.2055 52.4474Z" fill="#FFCB65"/>
<path d="M19.2608 42.3084C19.2608 43.8243 18.6571 45.1762 17.7121 46.0555C16.9968 46.7249 16.0977 47.1252 15.1133 47.1252H15.0674C12.7968 47.0924 10.9658 44.9465 10.9658 42.3084C10.9658 39.6702 12.7968 37.5243 15.0674 37.498H15.1133C16.0977 37.498 16.9968 37.8984 17.7121 38.5677C18.6571 39.4405 19.2608 40.7924 19.2608 42.3084Z" fill="white"/>
<path d="M38.3577 33.3705C38.3577 37.098 35.3324 40.1167 31.6049 40.1167H31.5917C27.8708 40.1102 24.8521 37.0914 24.8521 33.3705C24.8521 29.6495 27.8708 26.6242 31.5917 26.6177H31.6049C35.3324 26.6177 38.3577 29.6364 38.3577 33.3705Z" fill="white"/>
<path d="M31.5917 37.4685C29.3375 37.4652 27.5 35.6244 27.5 33.3669C27.5 31.1094 29.3375 29.2654 31.5983 29.2588C33.8722 29.2588 35.713 31.0996 35.713 33.3669C35.713 35.6343 33.8722 37.4685 31.6081 37.4685H31.595H31.5917Z" fill="#FFCB65"/>
<path d="M55.4464 49.7141C55.0724 48.2539 54.0158 47.1252 52.6705 46.61C52.6607 46.6068 52.6508 46.6002 52.641 46.5969C52.2275 46.4427 51.7846 46.3541 51.3285 46.3246C52.1947 45.3041 52.723 43.9161 52.723 42.3739C52.723 39.5816 51.0003 37.2979 48.6707 36.7925V23.5691H51.7813C53.2053 23.5691 54.5244 22.9227 55.3972 21.8005C56.27 20.675 56.5686 19.2379 56.2175 17.8564L55.4432 14.818C55.0724 13.3644 54.0158 12.2357 52.6771 11.7172C52.6639 11.7107 52.6508 11.7041 52.6344 11.6975C52.2144 11.54 51.7682 11.4514 51.3055 11.4252C52.1816 10.4014 52.7197 9.00691 52.7197 7.47457C52.7197 4.33441 50.4622 1.77832 47.6896 1.77832C44.9169 1.77832 42.6561 4.33441 42.6561 7.47457C42.6561 9.02332 43.2074 10.4244 44.0933 11.4547C42.3772 11.691 40.9302 12.8755 40.3888 14.5654L39.9228 16.0255H23.1622L22.8538 14.818C22.483 13.3644 21.4264 12.2357 20.0877 11.7172C20.0746 11.7107 20.0614 11.7041 20.045 11.6975C19.625 11.54 19.1788 11.4514 18.7161 11.4252C19.5922 10.4014 20.1303 9.00691 20.1303 7.47457C20.1303 4.33441 17.8728 1.77832 15.1002 1.77832C12.3275 1.77832 10.0668 4.33441 10.0668 7.47457C10.0668 9.02332 10.618 10.4244 11.5039 11.4547C9.78785 11.691 8.34081 12.8755 7.79941 14.5654L6.83472 17.5972C6.38519 19.0082 6.628 20.5011 7.50081 21.6922C8.37363 22.8866 9.72222 23.5691 11.1988 23.5691H14.3553V33.3604C14.3553 33.3604 14.3553 33.3669 14.3553 33.3702C14.3553 33.3735 14.3553 33.3768 14.3553 33.38V36.6843C11.9371 37.0944 10.0668 39.4668 10.0668 42.3083C10.0668 43.8538 10.6213 45.2614 11.5203 46.2918C9.79769 46.5214 8.34081 47.706 7.79613 49.3991L6.83144 52.4343C6.38191 53.8419 6.62472 55.3349 7.49753 56.5293C8.37035 57.7236 9.71894 58.4094 11.1955 58.4094H19.1821C20.6061 58.4094 21.9252 57.763 22.798 56.6375C23.6708 55.5121 23.9727 54.0749 23.6183 52.6968L23.5593 52.4704H39.4175L39.411 52.4933C38.9614 53.9043 39.2042 55.3972 40.0771 56.5883C40.9499 57.7794 42.2985 58.4652 43.775 58.4652H47.7585C47.7585 58.4652 47.765 58.4652 47.7683 58.4652C47.7716 58.4652 47.7749 58.4652 47.7782 58.4652H51.7616C53.1857 58.4652 54.5047 57.8221 55.3775 56.6966C56.2503 55.5711 56.5489 54.1339 56.1978 52.7525L55.4235 49.7141H55.4464ZM50.961 42.3739C50.961 44.4969 49.5271 46.2557 47.7683 46.295L47.6699 46.3016C46.9644 46.295 46.2983 46.0227 45.7339 45.5075C44.9038 44.7561 44.428 43.6143 44.428 42.3739C44.428 41.1336 44.9038 39.9852 45.7372 39.2305C46.2917 38.7219 46.9546 38.4496 47.6666 38.4397L47.7683 38.4463C49.5303 38.4857 50.961 40.251 50.961 42.3739ZM47.7552 16.2224L44.6347 13.1741C44.6642 13.1741 44.6905 13.1675 44.72 13.1675H47.66C47.66 13.1675 47.683 13.1675 47.6928 13.1675C47.7027 13.1675 47.7158 13.1675 47.7257 13.1675H50.5672L47.7552 16.2224ZM52.5491 13.6204C53.12 13.9911 53.5564 14.5588 53.7369 15.2544L54.5113 18.2929C54.7278 19.1427 54.5441 20.0286 54.006 20.7177C53.4678 21.41 52.6574 21.8038 51.7813 21.8038H48.6707V17.8302L52.5491 13.6171V13.6204ZM47.6928 3.54363C49.4942 3.54363 50.961 5.30566 50.961 7.47457C50.961 9.64348 49.5107 11.3825 47.7257 11.4055H47.6633C45.875 11.3858 44.428 9.63035 44.428 7.47457C44.428 5.31879 45.8947 3.54363 47.6961 3.54363H47.6928ZM41.1139 18.1288L41.3797 17.2954C41.4092 17.2363 41.4224 17.1739 41.4388 17.1083L42.0753 15.1035C42.2296 14.6277 42.5019 14.2208 42.8497 13.9025L46.9021 17.863V21.8071H43.7914C42.3903 21.8071 41.2189 20.803 41.0057 19.415C40.9367 18.9819 40.9728 18.5521 41.1074 18.1288H41.1139ZM32.4711 17.7875H39.3814C39.2108 18.4077 39.1682 19.0443 39.2666 19.6841C39.6078 21.935 41.5142 23.5691 43.7947 23.5691H46.9053V32.4875H39.1813C38.7744 28.9832 35.9886 26.1941 32.4711 25.7905V17.7875ZM23.7266 19.6841C23.8218 19.0639 23.7922 18.4471 23.638 17.8597L23.6216 17.7908H30.7091V25.7971C27.2113 26.2072 24.4288 28.993 24.0252 32.4941H16.1338V23.5757H19.2018C21.4855 23.5757 23.3886 21.9416 23.7299 19.6907L23.7266 19.6841ZM19.9663 13.6204C20.5372 13.9911 20.9736 14.5588 21.1541 15.2544L21.9285 18.2961C22.0236 18.6604 22.04 19.0377 21.981 19.4183C21.771 20.803 20.6028 21.8071 19.1985 21.8071H16.0846V17.8335L19.963 13.6204H19.9663ZM15.11 3.54363C16.9114 3.54363 18.3782 5.30566 18.3782 7.47457C18.3782 9.64348 16.9278 11.3825 15.1428 11.4055H15.0805C13.2922 11.3858 11.8452 9.63035 11.8452 7.47457C11.8452 5.31879 13.3119 3.54363 15.1133 3.54363H15.11ZM14.3225 21.8071H11.2119C10.303 21.8071 9.47285 21.3871 8.938 20.6521C8.40316 19.9171 8.25222 18.9983 8.53113 18.1321L9.49581 15.1035C9.65003 14.6277 9.92238 14.2208 10.2702 13.9025L14.3225 17.863V21.8071ZM12.0519 13.1774C12.0814 13.1774 12.1077 13.1708 12.1372 13.1708H15.0772C15.0772 13.1708 15.1002 13.1708 15.11 13.1708C15.1199 13.1708 15.133 13.1708 15.1428 13.1708H17.9844L15.1724 16.2257L12.0519 13.1774ZM15.11 38.3839C15.8352 38.3839 16.5243 38.6727 17.1116 39.2207C17.9155 39.9622 18.3782 41.091 18.3782 42.3149C18.3782 43.5388 17.9155 44.6675 17.1083 45.4189C16.5275 45.9636 15.8352 46.2491 15.0772 46.2524C13.2955 46.2261 11.8452 44.4608 11.8452 42.3182C11.8452 40.1755 13.2922 38.4102 15.11 38.3905V38.3839ZM14.3225 56.6507H11.2119C10.303 56.6507 9.47285 56.2307 8.938 55.4957C8.40316 54.7607 8.25222 53.8419 8.53113 52.9757L9.49581 49.9405C9.64675 49.4647 9.92238 49.0611 10.2735 48.7396L14.3258 52.7V56.6507H14.3225ZM12.0552 48.021C12.0814 48.021 12.1077 48.0144 12.1372 48.0144H17.9811L15.1724 51.066L12.0552 48.021ZM21.4232 55.5613C20.885 56.2536 20.0746 56.6507 19.1985 56.6507H16.0878V52.6738L19.9696 48.4607C20.3338 48.6936 20.6455 49.0119 20.8686 49.3991C20.9933 49.6124 21.0885 49.8421 21.1541 50.1013L21.9285 53.1397C22.145 53.9863 21.9613 54.8722 21.4232 55.5646V55.5613ZM30.7091 50.7116H23.1327L22.8636 49.6616C22.7553 49.2383 22.6011 48.8577 22.3911 48.5066C21.8694 47.601 21.0491 46.925 20.0975 46.5575C20.0746 46.5477 20.0549 46.5411 20.0319 46.5346C19.6185 46.3836 19.1821 46.2918 18.7325 46.2655C19.6349 45.2122 20.1402 43.8046 20.1402 42.3116C20.1402 40.5988 19.4708 38.9975 18.3125 37.9279C17.6727 37.3307 16.9377 36.9336 16.1338 36.7466V34.2561H24.0252C24.4321 37.7474 27.2047 40.5266 30.7091 40.9433V50.7116ZM25.7347 33.3735C25.7347 30.1414 28.363 27.5099 31.6049 27.5033C34.8435 27.5033 37.475 30.1382 37.475 33.3735C37.475 36.6088 34.8402 39.2371 31.5917 39.2371C28.3597 39.2305 25.7314 36.6022 25.7314 33.3735H25.7347ZM40.3986 49.468L40.0016 50.7116H32.4744V40.9499C35.9853 40.5496 38.7777 37.7638 39.1846 34.2561H46.9086V36.7532C46.0457 36.9074 45.2286 37.311 44.5527 37.9311C43.355 39.0172 42.666 40.6382 42.666 42.3772C42.666 43.8833 43.1844 45.2975 44.0966 46.3508C42.7578 46.5379 41.5471 47.3188 40.8482 48.4804C40.6644 48.7757 40.5135 49.1071 40.3953 49.4647L40.3986 49.468ZM46.9086 56.7097H43.798C42.8891 56.7097 42.0589 56.2897 41.5241 55.5547C40.9892 54.8197 40.8383 53.9043 41.1139 53.0347L42.0786 50.0094C42.1508 49.7863 42.2394 49.5927 42.3542 49.4057C42.4921 49.1793 42.6627 48.9791 42.853 48.8052L46.9086 52.7657V56.7097ZM47.7585 51.1283L44.638 48.08C44.6675 48.08 44.6971 48.0735 44.7266 48.0735H50.5738L47.7617 51.1283H47.7585ZM54.0092 55.6236C53.4711 56.316 52.6607 56.7097 51.7846 56.7097H48.6739V52.7361L52.5557 48.523C53.1266 48.8938 53.563 49.4614 53.7402 50.1571L54.5146 53.1955C54.7311 54.0454 54.5474 54.9313 54.0092 55.6204V55.6236Z" fill="#1A2433"/>
<path d="M23.4251 26.6177C24.0452 26.6177 24.544 26.1157 24.544 25.4988C24.544 24.8819 24.0419 24.3799 23.4251 24.3799C22.8082 24.3799 22.3062 24.8819 22.3062 25.4988C22.3062 26.1157 22.8082 26.6177 23.4251 26.6177Z" fill="#1A2433"/>
<path d="M39.6931 26.6177C40.3133 26.6177 40.812 26.1157 40.812 25.4988C40.812 24.8819 40.31 24.3799 39.6931 24.3799C39.0763 24.3799 38.5742 24.8819 38.5742 25.4988C38.5742 26.1157 39.0763 26.6177 39.6931 26.6177Z" fill="#1A2433"/>
<path d="M23.4251 41.252C22.8049 41.252 22.3062 41.754 22.3062 42.3709C22.3062 42.9877 22.8082 43.4898 23.4251 43.4898C24.0419 43.4898 24.544 42.9877 24.544 42.3709C24.544 41.754 24.0419 41.252 23.4251 41.252Z" fill="#1A2433"/>
<path d="M39.6931 41.252C39.073 41.252 38.5742 41.754 38.5742 42.3709C38.5742 42.9877 39.0763 43.4898 39.6931 43.4898C40.31 43.4898 40.812 42.9877 40.812 42.3709C40.812 41.754 40.31 41.252 39.6931 41.252Z" fill="#1A2433"/>
</g>
<defs>
<clipPath id="clip0_1077_1605">
<rect width="63" height="63" fill="white"/>
</clipPath>
</defs>
</svg>
