<?xml version="1.0" encoding="utf-8"?>
<svg width="69" height="69" viewBox="0 0 69 69" fill="none" xmlns="http://www.w3.org/2000/svg">
<path d="M59.6241 39.4056C59.6241 54.007 47.7971 65.8268 33.1957 65.8268C18.5943 65.8268 6.77441 54.007 6.77441 39.4056C6.77441 32.732 9.2541 26.6298 13.3438 21.9831C14.6268 20.5096 16.0858 19.1871 17.6707 18.0335C21.2608 15.4245 25.5302 13.6995 30.1625 13.1676C31.1508 13.0454 32.1679 12.9807 33.1957 12.9807C34.2235 12.9807 35.2405 13.0454 36.2396 13.1676C40.8791 13.6995 45.1485 15.4245 48.7314 18.0335C50.3199 19.1799 51.7753 20.5132 53.0583 21.9831C57.1552 26.6298 59.6277 32.732 59.6277 39.4056H59.6241Z" fill="#FFCB65"/>
<path d="M52.8639 42.5979C54.6269 31.7365 47.2512 21.5023 36.3898 19.7392C25.5284 17.9762 15.2942 25.3519 13.5312 36.2133C11.7681 47.0747 19.1438 57.3089 30.0052 59.0719C40.8666 60.835 51.1008 53.4593 52.8639 42.5979Z" fill="white"/>
<path d="M21.7675 20.2221C21.3794 20.2221 20.9985 20.0137 20.8008 19.6471C20.5097 19.1152 20.7074 18.4468 21.2429 18.1557C21.746 17.8826 22.2599 17.6274 22.7738 17.3902C23.3272 17.1351 23.9777 17.3794 24.2293 17.9329C24.4808 18.4863 24.24 19.1368 23.6866 19.3883C23.2194 19.6004 22.7486 19.8376 22.2922 20.0855C22.1269 20.1754 21.9472 20.2185 21.7675 20.2185V20.2221ZM43.1647 19.4854C43.0102 19.4854 42.8557 19.453 42.7083 19.3847C39.7147 18.0155 36.5163 17.3219 33.1993 17.3219C31.2191 17.3219 29.2497 17.5735 27.3558 18.0766C26.7664 18.2312 26.1663 17.879 26.0118 17.2932C25.8572 16.7074 26.2094 16.1037 26.7952 15.9491C28.876 15.4029 31.0286 15.1226 33.1993 15.1226C36.8361 15.1226 40.34 15.8844 43.6211 17.383C44.1746 17.6346 44.4153 18.2887 44.1638 18.8385C43.9805 19.241 43.5816 19.4818 43.1647 19.4818V19.4854Z" fill="white"/>
<path d="M33.1988 47.7034C28.624 47.7034 24.9009 43.9802 24.9009 39.4054C24.9009 34.8305 28.624 31.1074 33.1988 31.1074C37.7737 31.1074 41.4968 34.8305 41.4968 39.4054C41.4968 43.9802 37.7737 47.7034 33.1988 47.7034Z" fill="#FFCB65"/>
<path d="M54.8336 20.2076L53.0583 21.9829C51.7753 20.5095 50.3163 19.1762 48.7314 18.0334L50.6936 16.0712C51.8293 14.9356 53.6944 14.9356 54.8336 16.0712C55.9693 17.2068 55.9693 19.072 54.8336 20.2112V20.2076Z" fill="white"/>
<path d="M17.6707 18.0333C16.0823 19.1869 14.6268 20.513 13.3438 21.9829L11.5685 20.2075C10.4329 19.0719 10.4329 17.2068 11.5685 16.0675C12.1327 15.5033 12.8838 15.2158 13.6385 15.2158C14.3932 15.2158 15.1443 15.5033 15.7085 16.0675L17.6707 18.0297V18.0333Z" fill="white"/>
<path d="M41.4969 5.4662C41.4969 6.88933 40.3361 8.05011 38.9129 8.05011H27.4848C26.7733 8.05011 26.1264 7.76261 25.652 7.28823C25.1848 6.82105 24.8901 6.17417 24.8901 5.46261C24.8901 4.03229 26.0617 2.86792 27.4848 2.86792H38.9129C39.6245 2.86792 40.2714 3.16261 40.7386 3.6298C41.2058 4.09698 41.5004 4.75104 41.5004 5.46261L41.4969 5.4662Z" fill="#FFCB65"/>
<path d="M33.199 40.5015C32.9222 40.5015 32.6455 40.3973 32.4335 40.1924L21.6738 29.7526C21.239 29.3285 21.2282 28.6349 21.6522 28.1965C22.0727 27.7617 22.7699 27.7509 23.2083 28.1749L33.968 38.6148C34.4029 39.0389 34.4136 39.7324 33.9896 40.1709C33.774 40.3937 33.4865 40.5051 33.199 40.5051V40.5015Z" fill="#1A2433"/>
<path d="M33.199 40.5015C32.8181 40.5015 32.4479 40.3038 32.2467 39.9516C31.9412 39.4269 32.1245 38.7549 32.6492 38.4494L43.9839 31.898C44.5121 31.5926 45.1806 31.7758 45.486 32.3005C45.7915 32.8252 45.6082 33.4973 45.0835 33.8027L33.7489 40.3541C33.5764 40.4548 33.3859 40.5015 33.199 40.5015Z" fill="#1A2433"/>
<path d="M35.7676 40.4661C36.3555 39.0468 35.6815 37.4197 34.2622 36.8318C32.8429 36.2439 31.2158 36.9179 30.6279 38.3372C30.0401 39.7564 30.714 41.3836 32.1333 41.9714C33.5526 42.5593 35.1797 41.8853 35.7676 40.4661Z" fill="#1A2433"/>
<path d="M66.1756 48.821L63.739 47.9406C63.4479 46.7295 62.9699 45.5938 62.3338 44.5553L63.4407 42.1942C62.6645 41.1771 61.7588 40.2715 60.7418 39.5024L58.3879 40.6093C57.3493 39.9732 56.2137 39.4953 55.0026 39.2042L54.1221 36.7604C53.5004 36.6706 52.8679 36.6274 52.2174 36.6274C51.567 36.6274 50.9309 36.6706 50.3127 36.7604L49.4323 39.197C48.214 39.4881 47.0712 39.966 46.0398 40.6093L43.6859 39.5024C42.6688 40.2715 41.7632 41.1843 40.987 42.2013L42.0938 44.5553C41.4577 45.5938 40.9798 46.7295 40.6887 47.9406L38.2521 48.821C38.1623 49.4428 38.1191 50.0753 38.1191 50.7257C38.1191 51.3762 38.1623 52.0123 38.2521 52.6304L40.6887 53.5109C40.9798 54.722 41.4577 55.8576 42.0938 56.8962L40.987 59.2501C41.7632 60.2671 42.6688 61.1799 43.6859 61.949L46.0398 60.8421C47.0712 61.4854 48.214 61.9634 49.4323 62.2545L50.3127 64.691C50.9345 64.7809 51.567 64.824 52.2174 64.824C52.8679 64.824 53.504 64.7809 54.1221 64.691L55.0026 62.2473C56.2137 61.9562 57.3493 61.4782 58.3879 60.8421L60.7418 61.949C61.7588 61.1799 62.6645 60.2743 63.4407 59.2573L62.3338 56.8962C62.9699 55.8576 63.4479 54.722 63.739 53.5109L66.1756 52.6304C66.2654 52.0087 66.3085 51.3762 66.3085 50.7257C66.3085 50.0753 66.2654 49.4392 66.1756 48.821Z" fill="white"/>
<path d="M67.2643 48.6629L67.1673 48.0088L64.6553 47.0996C64.3929 46.2012 64.0263 45.3243 63.5771 44.4978L64.7235 42.0504L64.3139 41.5185C63.4729 40.4224 62.499 39.4485 61.4101 38.622L60.8782 38.2195L60.6985 38.3021C60.4613 32.3401 58.3087 26.6368 54.546 22.0404L55.6098 20.9767C56.3717 20.2256 56.7885 19.2085 56.7885 18.1304C56.7885 17.0523 56.3717 16.046 55.6098 15.2842C54.8479 14.5331 53.8417 14.1162 52.7635 14.1162C51.6854 14.1162 50.6792 14.5331 49.9173 15.2842L48.602 16.5995C45.231 14.3103 41.3713 12.8045 37.3392 12.1971V9.14604H38.9168C40.9437 9.14604 42.5968 7.49291 42.5968 5.45525C42.5968 4.48854 42.2051 3.5326 41.5187 2.84619C40.8323 2.15979 39.8979 1.76807 38.9168 1.76807H27.4887C25.451 1.76807 23.7979 3.42838 23.7979 5.45885C23.7979 6.43994 24.1824 7.36354 24.876 8.06072C25.5696 8.7651 26.504 9.14963 27.4851 9.14963H29.0628V12.2007C25.0306 12.8153 21.1673 14.321 17.7999 16.6031L16.4846 15.2878C15.7335 14.5367 14.7165 14.1198 13.6384 14.1198C12.5603 14.1198 11.5432 14.5367 10.7921 15.2878C9.22166 16.8582 9.22166 19.417 10.7921 20.9803L11.8559 22.044C7.86322 26.9279 5.67822 33.0553 5.67822 39.4018C5.67822 54.5854 18.0228 66.9263 33.1956 66.9263C38.4784 66.9263 43.4198 65.4278 47.6173 62.8438C47.9371 62.966 48.257 63.081 48.584 63.1709L49.5004 65.6901L50.1545 65.7799C50.8157 65.877 51.5129 65.9273 52.2173 65.9273C52.9217 65.9273 53.6081 65.877 54.2801 65.7799L54.9342 65.6901L55.8434 63.1637C56.7418 62.9013 57.6187 62.542 58.4453 62.0856L60.8818 63.232L61.4137 62.8295C62.5026 62.0029 63.4765 61.029 64.3174 59.9329L64.7271 59.401L63.5807 56.9537C64.0299 56.1271 64.4001 55.2538 64.6588 54.3518L67.1709 53.4354L67.2679 52.7885C67.3649 52.1165 67.4153 51.4229 67.4153 50.7185C67.4153 50.0142 67.3649 49.3278 67.2679 48.6557L67.2643 48.6629ZM51.4698 16.8438C52.1562 16.1646 53.3673 16.1646 54.0537 16.8438C54.7653 17.5626 54.7653 18.7162 54.0537 19.4278L53.0978 20.3945C52.4365 19.7009 51.7393 19.036 51.0026 18.4215C50.8049 18.249 50.6001 18.0873 50.3988 17.922L51.4698 16.8438ZM27.4851 6.95385C27.0826 6.95385 26.716 6.79932 26.4285 6.51182C26.1518 6.2351 25.9865 5.85775 25.9865 5.46604C25.9865 4.64666 26.6585 3.97822 27.4851 3.97822H38.9132C39.3049 3.97822 39.6751 4.13275 39.959 4.41307C40.2357 4.70057 40.401 5.07432 40.401 5.46963C40.401 6.289 39.729 6.95744 38.9132 6.95744H27.4851V6.95385ZM35.1434 9.15322V11.9492C34.4138 11.8665 32.0851 11.8449 31.2585 11.9492V9.15322H35.1434ZM12.3446 16.8438C12.6896 16.5096 13.146 16.3192 13.6384 16.3192C14.1307 16.3192 14.5871 16.506 14.9321 16.8438L16.0031 17.922C15.0471 18.691 14.1451 19.5176 13.3113 20.3909L12.3446 19.4242C11.6331 18.7126 11.6331 17.559 12.3446 16.8403V16.8438ZM33.1956 64.7306C19.2303 64.7306 7.87041 53.3671 7.87041 39.4054C7.87041 33.2529 10.1129 27.3232 14.1703 22.7088C15.3885 21.3109 16.7865 20.0351 18.3174 18.921C21.8357 16.3695 25.9757 14.7487 30.3026 14.2599C32.2253 14.0228 34.1623 14.0228 36.1101 14.2599L36.2071 14.2671C40.4945 14.7738 44.5985 16.3874 48.0845 18.921C49.5974 20.0171 50.9882 21.2857 52.2317 22.7088C56.271 27.2981 58.5135 33.1954 58.5315 39.3299L58.4417 39.3695C57.6151 38.9131 56.7418 38.5501 55.8398 38.2914L54.9306 35.7649L54.2765 35.6679C54.1363 35.6499 54.007 35.6284 53.8668 35.6176C52.0915 25.8246 43.4953 18.382 33.1956 18.382C21.6057 18.382 12.1793 27.812 12.1793 39.4054C12.1793 50.9988 21.6021 60.4288 33.1956 60.4288C35.4632 60.4288 37.6554 60.0695 39.7003 59.3974L40.1099 59.9293C40.9437 61.0182 41.8924 61.9742 42.949 62.7756C39.9482 64.037 36.6492 64.7306 33.1992 64.7306H33.1956ZM40.8431 44.5014C40.3867 45.3279 40.0237 46.2012 39.7649 47.1032L37.2457 48.0124L37.1559 48.6665C37.0588 49.3385 37.0085 50.0321 37.0085 50.7293C37.0085 51.4265 37.0588 52.1273 37.1559 52.7993L37.2457 53.4462L39.7649 54.3626C39.9949 55.1568 40.304 55.9331 40.6885 56.6698C38.7084 57.5359 36.5485 58.0678 34.2845 58.2007C34.2773 58.2007 34.2701 58.2007 34.2629 58.2007C34.2737 58.1396 34.2988 58.0857 34.2988 58.0246V53.6726C34.2988 53.0653 33.8065 52.5729 33.1992 52.5729C32.5918 52.5729 32.0995 53.0653 32.0995 53.6726V58.0246C32.0995 58.0857 32.1246 58.1432 32.1354 58.2007C32.1282 58.2007 32.121 58.2007 32.1138 58.2007C22.6012 57.6617 14.9429 50.0142 14.4038 40.4907C14.4038 40.4835 14.4038 40.4799 14.4038 40.4728C14.4649 40.4835 14.5188 40.5087 14.5835 40.5087H18.9356C19.5429 40.5087 20.0353 40.0163 20.0353 39.409C20.0353 38.8017 19.5429 38.3093 18.9356 38.3093H14.5835C14.5188 38.3093 14.4649 38.3345 14.4038 38.3453C14.4038 38.3417 14.4038 38.3345 14.4038 38.3273C14.9429 28.8038 22.6012 21.1563 32.1138 20.6173C32.121 20.6173 32.1282 20.6173 32.1318 20.6173C32.121 20.6784 32.0959 20.7323 32.0959 20.7934V25.1454C32.0959 25.7528 32.5882 26.2451 33.1956 26.2451C33.8029 26.2451 34.2953 25.7528 34.2953 25.1454V20.7934C34.2953 20.7323 34.2701 20.6784 34.2593 20.6173C34.2665 20.6173 34.2737 20.6173 34.2809 20.6173C42.852 21.1096 49.8957 27.3484 51.6135 35.5385C51.1212 35.5565 50.6324 35.596 50.1509 35.6679L49.4968 35.7649L48.5804 38.277C47.6712 38.5465 46.7979 38.9059 45.9713 39.3659L43.542 38.2303L43.0101 38.6328C41.932 39.4521 40.9581 40.4224 40.1063 41.5365L39.6967 42.0684L40.8431 44.5049V44.5014ZM65.162 51.829L62.8045 52.6879L62.6643 53.2593C62.4092 54.3374 61.9779 55.3689 61.3885 56.3284L61.0867 56.8351L62.1504 59.1099C61.676 59.6742 61.1513 60.1988 60.5871 60.6732L58.3123 59.6023L57.8128 59.9114C56.846 60.5007 55.8182 60.9248 54.7365 61.1871L54.1651 61.3273L53.3134 63.692C52.5838 63.7495 51.8256 63.7495 51.1032 63.692L50.2515 61.3345L49.9173 61.2518L49.6729 61.1943C48.8787 61.0074 48.1204 60.7271 47.3981 60.3606C47.1285 60.2312 46.8662 60.0731 46.6038 59.9185L46.0971 59.5987L43.8223 60.6696C43.2581 60.1953 42.7442 59.6706 42.259 59.0992L42.7154 58.1253L43.3192 56.8315L43.0101 56.3248C42.8807 56.1056 42.7549 55.8828 42.6435 55.6635C42.241 54.8945 41.9392 54.0931 41.7343 53.2593L41.6049 52.6879L39.2474 51.829C39.2151 51.4696 39.1971 51.0995 39.1971 50.7257C39.1971 50.352 39.2151 49.989 39.2474 49.6296L41.6049 48.7707L41.7343 48.1993C41.9967 47.1212 42.4279 46.0898 43.0101 45.1303L43.3192 44.6235L42.2554 42.3559C42.737 41.7845 43.2545 41.2598 43.8187 40.7854L46.0935 41.8563L46.6003 41.5365C47.5418 40.9543 48.5732 40.5231 49.6693 40.2607L50.2515 40.1206L51.1032 37.7631C51.3728 37.7379 51.6531 37.7235 51.9298 37.7235C52.3862 37.7164 52.8534 37.7235 53.3134 37.7631L54.1651 40.1278L54.1974 40.1349L54.7365 40.2643C55.8146 40.5267 56.846 40.9507 57.8128 41.5401L58.3123 41.8492L58.4093 41.7988L60.5835 40.7746C60.6159 40.7998 60.6482 40.8321 60.6806 40.8573C61.2124 41.3137 61.694 41.806 62.1432 42.3379L61.0795 44.6128L61.3813 45.1195C61.9707 46.0754 62.4056 47.1068 62.6571 48.1885L62.7973 48.7599L65.1548 49.6189C65.1871 49.9782 65.2051 50.3484 65.2051 50.7149C65.2051 51.0815 65.1871 51.4589 65.1548 51.8182L65.162 51.829Z" fill="#1A2433"/>
<path d="M23.4167 47.7717C22.6009 47.7717 21.936 48.433 21.936 49.2524C21.936 50.0717 22.5973 50.733 23.4167 50.733C24.236 50.733 24.8973 50.0717 24.8973 49.2524C24.8973 48.433 24.236 47.7717 23.4167 47.7717Z" fill="#1A2433"/>
<path d="M60.5966 52.7056C61.6899 48.0734 58.8211 43.432 54.1888 42.3387C49.5566 41.2454 44.9152 44.1142 43.8219 48.7464C42.7286 53.3786 45.5974 58.0201 50.2297 59.1134C54.8619 60.2067 59.5033 57.3378 60.5966 52.7056Z" fill="#FFCB65"/>
<path d="M55.929 54.446C57.9823 52.3928 57.9823 49.0638 55.9291 47.0105C53.8758 44.9573 50.5468 44.9573 48.4936 47.0105C46.4404 49.0638 46.4404 52.3928 48.4936 54.446C50.5468 56.4992 53.8758 56.4992 55.929 54.446Z" fill="white"/>
<path d="M52.2099 57.0868C48.7024 57.0868 45.8525 54.2333 45.8525 50.7294C45.8525 47.2255 48.706 44.3721 52.2099 44.3721C55.7138 44.3721 58.5672 47.2255 58.5672 50.7294C58.5672 54.2333 55.7138 57.0868 52.2099 57.0868ZM52.2099 46.5679C49.9171 46.5679 48.0519 48.433 48.0519 50.7258C48.0519 53.0186 49.9171 54.8838 52.2099 54.8838C54.5027 54.8838 56.3679 53.0186 56.3679 50.7258C56.3679 48.433 54.5027 46.5679 52.2099 46.5679Z" fill="#1A2433"/>
</svg>
