<?xml version="1.0" encoding="utf-8"?>
<svg width="63" height="63" viewBox="0 0 63 63" fill="none" xmlns="http://www.w3.org/2000/svg">
<path d="M42.7415 19.1V7.8584H20.2551V19.1C20.2551 23.4739 22.7554 27.2539 26.4042 29.1143H26.3878C28.1268 30.0036 28.1268 32.4875 26.3878 33.3767H26.4042C22.7587 35.2372 20.2551 39.0171 20.2551 43.3878V54.6293H42.7415V43.3878C42.7415 39.0139 40.379 35.4045 36.8779 33.5309L36.389 33.2421C34.65 32.3529 34.8764 30.0003 36.6154 29.1111H36.599C40.2445 27.2506 42.7481 23.4706 42.7481 19.0967L42.7415 19.1Z" fill="white"/>
<path d="M42.7415 49.6289H20.2781V52.9988H42.7415V49.6289Z" fill="#FFCB65"/>
<path d="M31.4999 27.6511C26.7716 27.6511 22.926 23.8055 22.926 19.0772V14.4375H40.0968L40.0738 19.0772C40.0738 23.8055 36.2282 27.6511 31.4999 27.6511Z" fill="#FFCB65"/>
<path d="M45.954 8.37381C45.954 9.27287 45.219 10.0013 44.3199 10.0013H18.6736C18.2274 10.0013 17.8205 9.81756 17.5252 9.52225C17.2299 9.2335 17.0461 8.82662 17.0461 8.37381C17.0461 7.47475 17.7746 6.73975 18.6736 6.73975H44.3199C44.7661 6.73975 45.1796 6.9235 45.4749 7.21881C45.7702 7.51412 45.954 7.921 45.954 8.37381Z" fill="white"/>
<path d="M45.954 54.6326C45.954 55.5251 45.2255 56.2601 44.3265 56.2601H18.6802C18.234 56.2601 17.8205 56.0763 17.5252 55.781C17.2299 55.4857 17.0461 55.0788 17.0461 54.6326C17.0461 53.7335 17.7811 52.9985 18.6802 52.9985H44.3265C44.7727 52.9985 45.1796 53.1823 45.4749 53.4776C45.7702 53.7729 45.954 54.1798 45.954 54.6326Z" fill="white"/>
<path d="M44.3263 52.116H43.6208V43.3912C43.6208 38.8499 41.2551 34.873 37.3241 32.773L36.7893 32.4613C36.1626 32.1397 36.0707 31.618 36.0707 31.3326C36.0707 30.7452 36.4316 30.194 37.0124 29.8954C37.0452 29.879 37.0747 29.8626 37.1043 29.8429C41.1271 27.7429 43.6208 23.638 43.6208 19.1033V10.8838H44.3197C45.7077 10.8838 46.8365 9.75834 46.8365 8.37365C46.8365 7.701 46.574 7.071 46.0982 6.59521C45.629 6.126 44.9826 5.85693 44.3197 5.85693H18.6735C17.2888 5.85693 16.1633 6.98568 16.1633 8.37365C16.1633 9.05287 16.4291 9.68287 16.9016 10.1455C17.3774 10.6213 18.0074 10.8838 18.6735 10.8838H19.3724V19.1033C19.3724 23.6315 21.8596 27.7265 25.8726 29.8297C25.9054 29.856 25.9447 29.8757 25.9808 29.8954C26.496 30.1611 26.8044 30.6632 26.8044 31.244C26.8044 31.8247 26.496 32.3268 25.9808 32.5926C25.9415 32.6122 25.9054 32.6352 25.8726 32.6582C21.8596 34.7615 19.3724 38.8597 19.3724 43.3912V52.116H18.68C17.2921 52.116 16.1633 53.2447 16.1633 54.6327C16.1633 55.2988 16.4258 55.9288 16.9016 56.4046C17.3708 56.8738 18.0172 57.1429 18.68 57.1429H44.3263C45.711 57.1429 46.8365 56.0174 46.8365 54.6327C46.8365 53.9601 46.574 53.3301 46.0982 52.8543C45.6224 52.3785 44.9924 52.116 44.3263 52.116ZM18.6735 9.1185C18.4766 9.1185 18.2896 9.03975 18.1419 8.88881C18.0041 8.75428 17.9286 8.57053 17.9286 8.37037C17.9286 7.95693 18.2633 7.61896 18.6735 7.61896H44.3197C44.5166 7.61896 44.7102 7.69771 44.8513 7.83881C44.9924 7.9799 45.0711 8.17021 45.0711 8.37037C45.0711 8.78053 44.7332 9.11521 44.3197 9.11521H18.6735V9.1185ZM21.1377 43.3912C21.1377 39.4766 23.3099 35.9427 26.8044 34.1643C26.8504 34.1413 26.893 34.1118 26.9357 34.0822C27.9496 33.4949 28.573 32.4252 28.573 31.244C28.573 30.066 27.9496 28.993 26.939 28.409C26.8996 28.3794 26.8536 28.3499 26.8077 28.3269C23.3132 26.5485 21.141 23.0146 21.141 19.1066V10.8871H41.8588V19.1066C41.8588 23.0146 39.6899 26.5485 36.1986 28.3302C36.1626 28.3499 36.1265 28.3696 36.0936 28.3926C34.9911 29.0094 34.3086 30.1251 34.3086 31.3358C34.3086 32.5466 34.9354 33.4949 35.9427 34.0101L36.4644 34.3152C39.8408 36.1199 41.8588 39.516 41.8588 43.3944V52.1193H21.141V43.3944L21.1377 43.3912ZM44.3263 55.3776H18.68C18.4832 55.3776 18.2896 55.2988 18.1485 55.1577C18.0074 55.0166 17.9286 54.8296 17.9286 54.6327C17.9286 54.2193 18.2666 53.8813 18.68 53.8813H44.3263C44.5232 53.8813 44.7069 53.9601 44.8513 54.1011C44.9924 54.2422 45.0711 54.4326 45.0711 54.6327C45.0711 55.0429 44.7365 55.3776 44.3263 55.3776Z" fill="#1A2433"/>
<path d="M31.5099 40.668C31.0242 40.668 30.6272 40.2743 30.6272 39.7854V39.1291C30.6272 38.6435 31.0209 38.2465 31.5099 38.2465C31.9988 38.2465 32.3925 38.6402 32.3925 39.1291V39.7854C32.3925 40.271 31.9988 40.668 31.5099 40.668ZM31.5099 36.7305C31.0242 36.7305 30.6272 36.3368 30.6272 35.8479V20.2127C30.6272 19.7271 31.0209 19.3301 31.5099 19.3301C31.9988 19.3301 32.3925 19.7238 32.3925 20.2127V35.8479C32.3925 36.3335 31.9988 36.7305 31.5099 36.7305Z" fill="#FFCB65"/>
<path d="M22.4766 49.6289C25.8661 49.6289 26.8505 43.3125 31.5 43.3125C36.1496 43.3125 37.0519 49.6289 41.5243 49.6289C45.9966 49.6289 19.0871 49.6289 22.4799 49.6289H22.4766Z" fill="#FFCB65"/>
<path d="M38.9746 43.3125C38.3545 43.3125 37.8557 43.8145 37.8557 44.4314C37.8557 45.0483 38.3577 45.5503 38.9746 45.5503C39.5915 45.5503 40.0935 45.0483 40.0935 44.4314C40.0935 43.8145 39.5915 43.3125 38.9746 43.3125Z" fill="#1A2433"/>
<path d="M51.7584 40.6645C51.614 40.6645 51.4663 40.6284 51.3318 40.5529L47.9948 38.6924C47.5682 38.4562 47.4173 37.9181 47.6535 37.4915C47.8898 37.0649 48.4279 36.9107 48.8545 37.1502L52.1915 39.0107C52.6181 39.247 52.769 39.7851 52.5328 40.2117C52.372 40.5004 52.0701 40.6645 51.7617 40.6645H51.7584ZM45.5535 37.2093C45.4092 37.2093 45.2615 37.1732 45.127 37.0977L43.9818 36.4579C43.5553 36.2216 43.4043 35.6835 43.6406 35.257C43.8768 34.8304 44.4149 34.6795 44.8415 34.9157L45.9867 35.5556C46.4132 35.7918 46.5642 36.3299 46.3279 36.7565C46.1671 37.0452 45.8653 37.2093 45.5568 37.2093H45.5535Z" fill="#1A2433"/>
<path d="M44.4085 28.196C44.1 28.196 43.7982 28.0319 43.6374 27.7432C43.4011 27.3166 43.5521 26.7818 43.9786 26.5423L45.1238 25.9024C45.5504 25.6662 46.0852 25.8204 46.3247 26.2437C46.561 26.6702 46.41 27.2051 45.9835 27.4446L44.8383 28.0844C44.7038 28.1599 44.5561 28.196 44.4118 28.196H44.4085ZM48.4215 25.9615C48.113 25.9615 47.8111 25.7974 47.6504 25.5087C47.4141 25.0821 47.565 24.5473 47.9916 24.3077L51.3286 22.4473C51.7552 22.211 52.29 22.3652 52.5296 22.7885C52.7658 23.2151 52.6149 23.7499 52.1883 23.9894L48.8513 25.8499C48.7168 25.9254 48.5691 25.9615 48.4247 25.9615H48.4215Z" fill="#1A2433"/>
<path d="M54.1866 32.1398H50.2491C49.7635 32.1398 49.3665 31.7461 49.3665 31.2572C49.3665 30.7683 49.7602 30.3745 50.2491 30.3745H54.1866C54.6722 30.3745 55.0693 30.7683 55.0693 31.2572C55.0693 31.7461 54.6755 32.1398 54.1866 32.1398ZM46.9679 32.1398H45.6554C45.1697 32.1398 44.7727 31.7461 44.7727 31.2572C44.7727 30.7683 45.1665 30.3745 45.6554 30.3745H46.9679C47.4535 30.3745 47.8505 30.7683 47.8505 31.2572C47.8505 31.7461 47.4568 32.1398 46.9679 32.1398Z" fill="#1A2433"/>
<path d="M11.2349 40.6645C10.9265 40.6645 10.6246 40.5004 10.4638 40.2117C10.2276 39.7851 10.3785 39.2502 10.8051 39.0107L14.1454 37.1502C14.5687 36.914 15.1068 37.0682 15.3463 37.4915C15.5826 37.9181 15.4316 38.4529 15.0051 38.6924L11.668 40.5529C11.5335 40.6284 11.3858 40.6645 11.2382 40.6645H11.2349ZM17.4397 37.2093C17.1313 37.2093 16.8294 37.0452 16.6687 36.7565C16.4324 36.3299 16.5833 35.7951 17.0099 35.5556L18.1551 34.9157C18.5816 34.6795 19.1165 34.8304 19.356 35.257C19.5922 35.6835 19.4413 36.2184 19.0147 36.4579L17.8696 37.0977C17.7351 37.1732 17.5874 37.2093 17.443 37.2093H17.4397Z" fill="#1A2433"/>
<path d="M18.585 28.1957C18.4406 28.1957 18.293 28.1596 18.1584 28.0841L17.0133 27.4443C16.5867 27.2081 16.4358 26.6699 16.672 26.2434C16.9083 25.8168 17.4464 25.6626 17.873 25.9021L19.0181 26.542C19.4447 26.7782 19.5956 27.3163 19.3594 27.7429C19.1986 28.0316 18.8967 28.1957 18.5883 28.1957H18.585ZM14.572 25.9612C14.4277 25.9612 14.28 25.9251 14.1422 25.8496L10.8019 23.9891C10.3753 23.7529 10.2244 23.2148 10.4606 22.7882C10.6969 22.3616 11.235 22.2107 11.6616 22.447L14.9986 24.3074C15.4252 24.5437 15.5761 25.0818 15.3399 25.5084C15.1791 25.7971 14.8772 25.9612 14.5688 25.9612H14.572Z" fill="#1A2433"/>
<path d="M17.3382 32.1398H16.0257C15.5401 32.1398 15.1431 31.7461 15.1431 31.2572C15.1431 30.7683 15.5368 30.3745 16.0257 30.3745H17.3382C17.8238 30.3745 18.2209 30.7683 18.2209 31.2572C18.2209 31.7461 17.8271 32.1398 17.3382 32.1398ZM12.7445 32.1398H8.80697C8.32135 32.1398 7.92432 31.7461 7.92432 31.2572C7.92432 30.7683 8.31807 30.3745 8.80697 30.3745H12.7445C13.2301 30.3745 13.6271 30.7683 13.6271 31.2572C13.6271 31.7461 13.2334 32.1398 12.7445 32.1398Z" fill="#1A2433"/>
</svg>
