<?xml version="1.0" encoding="utf-8"?>
<svg width="63" height="63" viewBox="0 0 63 63" fill="none" xmlns="http://www.w3.org/2000/svg">
<path d="M49.1662 53.3857H11.6943C11.6943 55.8467 13.6893 57.845 16.1536 57.845H44.7103C47.1712 57.845 49.1695 55.85 49.1695 53.3857H49.1662Z" fill="white"/>
<path d="M47.7913 24.2026H44.6052V29.1245H47.7913C48.8807 29.1245 49.7666 30.0039 49.7666 31.0933V38.6861C49.7666 39.7754 48.8807 40.6548 47.7913 40.6548H44.6052V45.5767H47.7913C51.5943 45.5767 54.6885 42.489 54.6885 38.6861V31.0933C54.6885 27.2903 51.5943 24.2026 47.7913 24.2026Z" fill="#FFCB65"/>
<path d="M29.8988 44.2541C29.8988 48.6017 26.8702 52.2373 22.8014 53.1528C22.1484 53.307 21.4725 53.3858 20.7736 53.3858C15.7336 53.3858 11.6484 49.3006 11.6484 44.2541C11.6484 40.8612 13.5056 37.9016 16.2553 36.3331C17.5908 35.5653 19.1297 35.1289 20.7769 35.1289C25.8169 35.1289 29.902 39.2141 29.902 44.2541H29.8988Z" fill="#FFCB65"/>
<path d="M44.6053 18.8735V44.8742C44.6053 49.5729 40.7925 53.3857 36.1003 53.3857H24.7538C24.0778 53.3857 23.4249 53.307 22.7982 53.1528C26.8669 52.2373 29.8955 48.6017 29.8955 44.254C29.8955 39.214 25.8103 35.1288 20.7703 35.1288C19.1232 35.1288 17.5875 35.5653 16.2488 36.3331V18.8735H44.6053Z" fill="white"/>
<path d="M41.8884 21.5972V44.8744C41.8884 48.0703 39.2897 50.669 36.1003 50.669H18.9722V21.5972H41.8884Z" fill="#FFCB65"/>
<path d="M21.7836 48.5993C24.1796 48.0374 25.6663 45.6395 25.1043 43.2436C24.5424 40.8477 22.1445 39.361 19.7486 39.9229C17.3527 40.4849 15.866 42.8827 16.4279 45.2786C16.9899 47.6746 19.3877 49.1613 21.7836 48.5993Z" fill="white"/>
<path d="M47.7914 23.32H45.4879V17.9912H15.3693V35.8412C12.5179 37.6721 10.7625 40.8484 10.7625 44.2543C10.7625 47.6603 12.4851 50.6954 15.1068 52.5034H10.8084V53.3861C10.8084 56.3293 13.2037 58.7279 16.1503 58.7279H44.707C47.6503 58.7279 50.0489 56.3326 50.0489 53.3861V52.5034H41.5603C43.5257 51.0892 44.9235 48.94 45.3468 46.4561H47.7914C52.0799 46.4561 55.5712 42.9714 55.5712 38.6828V31.09C55.5712 26.8046 52.0832 23.3167 47.7914 23.3167V23.32ZM12.5278 44.2543C12.5278 41.3045 14.1225 38.5646 16.6917 37.0979C17.9254 36.3859 19.3364 36.0118 20.7703 36.0118C25.3148 36.0118 29.0128 39.7098 29.0128 44.2543C29.0128 44.4971 29.0029 44.7367 28.9832 44.9762C28.6814 48.5396 26.1449 51.4928 22.6012 52.2967H22.5881C22.0171 52.4345 21.4167 52.5034 20.8064 52.5067H20.7342C16.206 52.487 12.5278 48.7956 12.5278 44.2576V44.2543ZM48.172 54.2687C47.7782 55.8175 46.3739 56.9626 44.7037 56.9626H16.1503C14.4834 56.9626 13.0757 55.8142 12.682 54.2687H20.7309C20.7309 54.2687 20.7571 54.2687 20.7703 54.2687C20.7801 54.2687 20.7932 54.2687 20.8031 54.2687H24.7209C24.7209 54.2687 24.7439 54.2687 24.7537 54.2687H36.1003C36.1003 54.2687 36.1265 54.2687 36.1396 54.2687H48.172ZM43.7226 23.32V30.0039V39.7689V44.8909C43.7128 49.0778 40.3167 52.4804 36.1396 52.5001H26.4665C29.1407 50.6626 30.7781 47.5979 30.7781 44.2511C30.7781 37.1439 23.5954 32.3992 17.1314 34.929V19.75H43.7226V23.3134V23.32ZM45.4879 30.0039H47.7914C48.3951 30.0039 48.884 30.4928 48.884 31.09V38.6828C48.884 39.2832 48.3918 39.7689 47.7914 39.7689H45.4879V30.0039ZM53.8059 38.6828C53.8059 41.9968 51.1087 44.6907 47.7914 44.6907H45.4879V41.5342H47.7914C49.3664 41.5342 50.6493 40.2545 50.6493 38.6828V31.09C50.6493 29.5182 49.3664 28.2386 47.7914 28.2386H45.4879V25.082H47.7914C51.1087 25.082 53.8059 27.7759 53.8059 31.09V38.6828Z" fill="#1A2433"/>
<path d="M26.1088 44.2575C26.1088 41.3143 23.7135 38.9189 20.7702 38.9189C17.827 38.9189 15.4316 41.3143 15.4316 44.2575C15.4316 47.2008 17.827 49.5961 20.7702 49.5961C23.7135 49.5961 26.1088 47.2008 26.1088 44.2575ZM17.197 44.2575C17.197 42.2855 18.8015 40.6843 20.7702 40.6843C22.739 40.6843 24.3435 42.2888 24.3435 44.2575C24.3435 46.2263 22.739 47.8308 20.7702 47.8308C18.8015 47.8308 17.197 46.2263 17.197 44.2575Z" fill="#1A2433"/>
<path d="M25.2427 15.5927C24.7571 15.5927 24.3601 15.1989 24.3601 14.71C24.3601 13.9455 23.8515 13.5452 22.9524 12.9086C21.9943 12.2294 20.7966 11.3861 20.7966 9.67004C20.7966 7.95394 21.8926 7.00894 22.8605 6.11316C23.6644 5.36832 24.3601 4.72848 24.3601 3.85238C24.3601 3.36676 24.7538 2.96973 25.2427 2.96973C25.7316 2.96973 26.1254 3.36348 26.1254 3.85238C26.1254 5.49629 25.0294 6.51348 24.0615 7.40926C23.2576 8.1541 22.5619 8.79723 22.5619 9.67004C22.5619 10.4346 23.0705 10.8349 23.9696 11.4714C24.9277 12.1507 26.1254 12.9939 26.1254 14.71C26.1254 15.1957 25.7316 15.5927 25.2427 15.5927Z" fill="#1A2433"/>
<path d="M31.034 15.5927C30.5484 15.5927 30.1513 15.1989 30.1513 14.71C30.1513 13.9455 29.6427 13.5452 28.7437 12.9086C27.7855 12.2294 26.5879 11.3861 26.5879 9.67004C26.5879 7.95394 27.6838 7.00894 28.6518 6.11316C29.4557 5.36832 30.1513 4.72848 30.1513 3.85238C30.1513 3.36676 30.5451 2.96973 31.034 2.96973C31.5229 2.96973 31.9166 3.36348 31.9166 3.85238C31.9166 5.49629 30.8207 6.51348 29.8527 7.40926C29.0488 8.1541 28.3532 8.79723 28.3532 9.67004C28.3532 10.4346 28.8618 10.8349 29.7609 11.4714C30.719 12.1507 31.9166 12.9939 31.9166 14.71C31.9166 15.1957 31.5229 15.5927 31.034 15.5927Z" fill="#1A2433"/>
<path d="M36.8255 15.5927C36.3399 15.5927 35.9428 15.1989 35.9428 14.71C35.9428 13.9455 35.4342 13.5452 34.5352 12.9086C33.5738 12.2294 32.3794 11.3861 32.3794 9.67004C32.3794 7.95394 33.4753 7.00894 34.4433 6.11316C35.2472 5.36832 35.9428 4.72848 35.9428 3.85238C35.9428 3.36676 36.3366 2.96973 36.8255 2.96973C37.3144 2.96973 37.7081 3.36348 37.7081 3.85238C37.7081 5.49629 36.6122 6.51348 35.6442 7.40926C34.8403 8.1541 34.1447 8.79723 34.1447 9.67004C34.1447 10.4346 34.6533 10.8349 35.5524 11.4714C36.5138 12.1507 37.7081 12.9939 37.7081 14.71C37.7081 15.1957 37.3144 15.5927 36.8255 15.5927Z" fill="#1A2433"/>
<path d="M37.5999 26.6764H28.0186C27.533 26.6764 27.136 26.2827 27.136 25.7938C27.136 25.3049 27.5297 24.9111 28.0186 24.9111H37.5999C38.0855 24.9111 38.4825 25.3049 38.4825 25.7938C38.4825 26.2827 38.0888 26.6764 37.5999 26.6764ZM24.7374 26.6764H23.4249C22.9393 26.6764 22.5422 26.2827 22.5422 25.7938C22.5422 25.3049 22.936 24.9111 23.4249 24.9111H24.7374C25.223 24.9111 25.6201 25.3049 25.6201 25.7938C25.6201 26.2827 25.2263 26.6764 24.7374 26.6764Z" fill="white"/>
<path d="M38.5745 44.986C38.1118 44.5857 37.4129 44.6349 37.0126 45.0975C36.6123 45.5602 36.6615 46.2591 37.1241 46.6594C37.5868 47.0597 38.2857 47.0105 38.686 46.5478C39.0863 46.0852 39.0371 45.3863 38.5745 44.986Z" fill="#1A2433"/>
</svg>
