<?xml version="1.0" encoding="utf-8"?>
<svg width="63" height="63" viewBox="0 0 63 63" fill="none" xmlns="http://www.w3.org/2000/svg">
<path d="M56.6649 14.5913V56.8132H6.33228V14.5913C6.33228 13.2458 7.07913 12.0776 8.18342 11.4819C8.38103 11.3773 8.59608 11.2843 8.81984 11.2116C9.14823 11.107 9.50276 11.0547 9.86892 11.0547H17.1805V14.9459C17.1805 15.7189 17.8111 16.3495 18.5841 16.3495H19.0317C19.8047 16.3495 20.4411 15.7189 20.4411 14.9459V11.0547H29.537V14.9459C29.537 15.7189 30.1676 16.3495 30.9406 16.3495H31.3881C32.1611 16.3495 32.8005 15.7189 32.8005 14.9459V11.0547H41.8964V14.9459C41.8964 15.7189 42.527 16.3495 43.3 16.3495H43.7475C44.5205 16.3495 45.1598 15.7189 45.1598 14.9459V11.0547H53.134C53.5002 11.0547 53.8547 11.107 54.1831 11.2116C54.4069 11.2843 54.6219 11.3744 54.8195 11.4819C55.9209 12.0805 56.6707 13.2458 56.6707 14.5913H56.6649Z" fill="#FFC121"/>
<path d="M54.0406 23.1758H8.9563V54.189H54.0406V23.1758Z" fill="white"/>
<path d="M39.8795 36.1743H33.3584V41.4255H39.8795V36.1743Z" fill="#FFC121"/>
<path d="M20.441 7.59058V14.9458C20.441 15.7188 19.8046 16.3494 19.0316 16.3494H18.584C17.811 16.3494 17.1804 15.7188 17.1804 14.9458V7.59058C17.1804 6.81757 17.811 6.18115 18.584 6.18115H19.0316C19.8046 6.18115 20.441 6.81757 20.441 7.59058Z" fill="white"/>
<path d="M32.7977 7.59058V14.9458C32.7977 15.7188 32.1612 16.3494 31.3853 16.3494H30.9378C30.1619 16.3494 29.5342 15.7188 29.5342 14.9458V7.59058C29.5342 6.81757 30.1648 6.18115 30.9378 6.18115H31.3853C32.1583 6.18115 32.7977 6.81757 32.7977 7.59058Z" fill="white"/>
<path d="M45.157 7.59058V14.9458C45.157 15.7188 44.5206 16.3494 43.7447 16.3494H43.2972C42.5213 16.3494 41.8936 15.7188 41.8936 14.9458V7.59058C41.8936 6.81757 42.5242 6.18115 43.2972 6.18115H43.7447C44.5177 6.18115 45.157 6.81757 45.157 7.59058Z" fill="white"/>
<path d="M38.8304 20.5164H27.9008C27.4125 20.5164 27.0202 20.1212 27.0202 19.6359C27.0202 19.1506 27.4155 18.7554 27.9008 18.7554H38.8304C39.3186 18.7554 39.7109 19.1506 39.7109 19.6359C39.7109 20.1212 39.3157 20.5164 38.8304 20.5164ZM24.6198 20.5164H23.3063C22.8181 20.5164 22.4258 20.1212 22.4258 19.6359C22.4258 19.1506 22.821 18.7554 23.3063 18.7554H24.6198C25.1081 18.7554 25.5004 19.1506 25.5004 19.6359C25.5004 20.1212 25.1051 20.5164 24.6198 20.5164Z" fill="white"/>
<path d="M30.281 26.4331H21.9958V33.4454H30.281V26.4331ZM28.517 31.6843H23.7598V28.1971H28.517V31.6843Z" fill="#1A2433"/>
<path d="M40.7602 26.4331H32.4751V33.4454H40.7602V26.4331ZM38.9962 31.6843H34.2391V28.1971H38.9962V31.6843Z" fill="#1A2433"/>
<path d="M51.2392 26.4331H42.9541V33.4454H51.2392V26.4331ZM49.4752 31.6843H44.7181V28.1971H49.4752V31.6843Z" fill="#1A2433"/>
<path d="M30.281 35.2939H21.9958V42.3062H30.281V35.2939ZM28.517 40.5452H23.7598V37.0579H28.517V40.5452Z" fill="#1A2433"/>
<path d="M20.0459 35.2939H11.7607V42.3062H20.0459V35.2939ZM18.2819 40.5452H13.5247V37.0579H18.2819V40.5452Z" fill="#1A2433"/>
<path d="M40.7602 35.2939H32.4751V42.3062H40.7602V35.2939ZM38.9962 40.5452H34.2391V37.0579H38.9962V40.5452Z" fill="#1A2433"/>
<path d="M51.2392 35.2939H42.9541V42.3062H51.2392V35.2939ZM49.4752 40.5452H44.7181V37.0579H49.4752V40.5452Z" fill="#1A2433"/>
<path d="M30.281 44.4858H21.9958V51.4981H30.281V44.4858ZM28.517 49.737H23.7598V46.2498H28.517V49.737Z" fill="#1A2433"/>
<path d="M20.0459 44.4858H11.7607V51.4981H20.0459V44.4858ZM18.2819 49.737H13.5247V46.2498H18.2819V49.737Z" fill="#1A2433"/>
<path d="M40.7602 44.4858H32.4751V51.4981H40.7602V44.4858ZM38.9962 49.737H34.2391V46.2498H38.9962V49.737Z" fill="#1A2433"/>
<path d="M55.2496 10.7147C55.2496 10.7147 55.2437 10.7118 55.2408 10.7089C55.2379 10.7089 55.235 10.7031 55.2292 10.7031C55.2234 10.7002 55.2147 10.6972 55.2089 10.6943C54.988 10.5723 54.7468 10.4706 54.4475 10.3718C54.0348 10.2381 53.5902 10.1713 53.1282 10.1713H46.0374V7.58779C46.0374 6.32366 45.0087 5.29492 43.7446 5.29492H43.2999C42.0387 5.29492 41.0129 6.32366 41.0129 7.58779V10.1713H33.6809V7.58779C33.6809 6.32366 32.6522 5.29492 31.3881 5.29492H30.9435C29.6822 5.29492 28.6564 6.32366 28.6564 7.58779V10.1713H21.3245V7.58779C21.3245 6.32366 20.2957 5.29492 19.0316 5.29492H18.587C17.3258 5.29492 16.2999 6.32366 16.2999 7.58779V10.1713H9.87177C9.40971 10.1713 8.96799 10.2381 8.54952 10.3718C8.23276 10.4735 7.97994 10.5839 7.76489 10.7031C6.33803 11.4761 5.45459 12.964 5.45459 14.5884V57.6937H57.5511V14.5913C57.5511 12.9669 56.6648 11.479 55.2525 10.7147H55.2496ZM42.7739 10.1742V7.59069C42.7739 7.30299 43.0122 7.06179 43.297 7.06179H43.7416C44.0293 7.06179 44.2705 7.30299 44.2705 7.59069V14.9459C44.2705 15.2278 44.0293 15.469 43.7416 15.469H43.297C43.0093 15.469 42.7739 15.2336 42.7739 14.9459V10.1713V10.1742ZM30.4175 10.1742V7.59069C30.4175 7.30299 30.6558 7.06179 30.9405 7.06179H31.3852C31.6729 7.06179 31.9141 7.30299 31.9141 7.59069V14.9459C31.9141 15.2278 31.6729 15.469 31.3852 15.469H30.9405C30.6528 15.469 30.4175 15.2336 30.4175 14.9459V10.1713V10.1742ZM18.061 10.1742V7.59069C18.061 7.30299 18.2993 7.06179 18.5841 7.06179H19.0287C19.3164 7.06179 19.5576 7.30299 19.5576 7.59069V14.9459C19.5576 15.2278 19.3164 15.469 19.0287 15.469H18.5841C18.2964 15.469 18.061 15.2336 18.061 14.9459V10.1713V10.1742ZM55.7843 55.9355H7.21274V24.0592H55.7814V55.9355H55.7843ZM55.7843 22.2952H7.21274V14.5942C7.21274 13.6236 7.73874 12.7344 8.60183 12.2578C8.75004 12.1793 8.91859 12.1067 9.08714 12.0515C9.32543 11.9759 9.58988 11.9352 9.86886 11.9352H16.297V14.9459C16.297 16.2071 17.3229 17.2329 18.5841 17.2329H19.0287C20.2928 17.2329 21.3216 16.2071 21.3216 14.9459V11.9352H28.6535V14.9459C28.6535 16.2071 29.6793 17.2329 30.9405 17.2329H31.3852C32.6493 17.2329 33.678 16.2071 33.678 14.9459V11.9352H41.01V14.9459C41.01 16.2071 42.0358 17.2329 43.297 17.2329H43.7416C45.0058 17.2329 46.0345 16.2071 46.0345 14.9459V11.9352H53.1252C53.4042 11.9352 53.6658 11.973 53.9041 12.0486C54.0755 12.1038 54.247 12.1764 54.3923 12.2549C55.2496 12.7198 55.7814 13.6149 55.7814 14.5913V22.2923L55.7843 22.2952Z" fill="#1A2433"/>
<path d="M50.3557 49.6611C49.7455 49.6611 49.2485 50.1581 49.2485 50.7683C49.2485 51.3786 49.7455 51.8755 50.3557 51.8755C50.966 51.8755 51.4629 51.3786 51.4629 50.7683C51.4629 50.1581 50.966 49.6611 50.3557 49.6611Z" fill="#1A2433"/>
</svg>
