<?xml version="1.0" encoding="utf-8"?>
<svg width="69" height="69" viewBox="0 0 69 69" fill="none" xmlns="http://www.w3.org/2000/svg">
<path d="M34.7403 65.642C34.581 65.642 34.4217 65.6101 34.2942 65.5304L5.10987 50.0404C4.79126 49.8649 4.6001 49.5459 4.6001 49.179V19.9698C4.6001 19.6348 4.77533 19.3157 5.06208 19.1403C5.34882 18.9648 5.71522 18.9488 6.0179 19.1084L35.1863 34.5983C35.5049 34.7738 35.6961 35.0929 35.6961 35.4598V64.6689C35.6961 65.0039 35.5209 65.323 35.2341 65.4985C35.0748 65.5942 34.9155 65.642 34.7403 65.642ZM6.52767 48.6047L33.7685 63.0737V36.05L6.52767 21.581V48.6047Z" fill="#2C2F35"/>
<path d="M34.26 65.642C34.0848 65.642 33.9096 65.5942 33.7662 65.4985C33.4794 65.323 33.3042 65.0039 33.3042 64.6689V35.4598C33.3042 35.1088 33.4954 34.7738 33.814 34.5983L62.9824 19.1084C63.2851 18.9488 63.6355 18.9648 63.9382 19.1403C64.225 19.3157 64.4002 19.6348 64.4002 19.9698V49.179C64.4002 49.5299 64.209 49.8649 63.8904 50.0404L34.722 65.5304C34.5786 65.6101 34.4193 65.642 34.276 65.642H34.26ZM35.2318 36.05V63.0737L62.4726 48.6047V21.581L35.2318 36.05Z" fill="#2C2F35"/>
<path d="M34.5001 36.9382C34.3421 36.9382 34.184 36.9053 34.0576 36.8232L5.10581 20.8659C4.78974 20.6852 4.6001 20.34 4.6001 19.9785C4.6001 19.6005 4.80554 19.2719 5.12161 19.0911L34.0576 3.56112C34.3263 3.41322 34.6581 3.41322 34.9426 3.56112L63.8786 19.0911C64.1947 19.2554 64.4001 19.6005 64.4001 19.9785C64.4001 20.3565 64.2105 20.6852 63.8944 20.8659L34.9584 36.8232C34.8162 36.9053 34.6581 36.9382 34.5159 36.9382H34.5001ZM7.61854 19.9949L34.4843 34.8182L61.35 19.9949L34.5001 5.56605L7.61854 19.9949Z" fill="#2C2F35"/>
<path d="M47.4783 35.7422C47.2986 35.7422 47.1188 35.6957 46.9717 35.6026C46.6776 35.432 46.4978 35.1219 46.4978 34.7962V28.919L17.0993 14.3266C16.7725 14.156 16.5601 13.8459 16.5601 13.4892C16.5601 13.1325 16.7725 12.8224 17.0993 12.6518L23.4725 9.53485C23.7504 9.39528 24.0935 9.39528 24.3877 9.53485L54.2928 24.2513C54.6196 24.4063 54.8321 24.732 54.8321 25.0887V31.6017C54.8321 31.9429 54.636 32.2685 54.3091 32.4391L47.9522 35.6336C47.8052 35.7112 47.6418 35.7422 47.4947 35.7422H47.4783ZM19.6976 13.4892L47.9359 27.5078C48.2627 27.6629 48.4752 27.9885 48.4752 28.3452V33.23L52.8547 31.028V25.6469L23.9301 11.4267L19.6976 13.5047V13.4892Z" fill="#2C2F35"/>
</svg>
