<?xml version="1.0" encoding="utf-8"?>
<svg width="69" height="69" viewBox="0 0 69 69" fill="none" xmlns="http://www.w3.org/2000/svg">
<path d="M60.2657 50.9849H9.17921C8.73754 50.9849 8.36279 50.6219 8.36279 50.1647V15.8366C8.36279 14.0752 9.78149 12.6499 11.5348 12.6499H57.8834C59.6367 12.6499 61.0554 14.0752 61.0554 15.8366V50.1647C61.0554 50.6084 60.694 50.9849 60.239 50.9849H60.2657ZM9.99563 49.3579H59.4493V15.8366C59.4493 14.9761 58.7533 14.2769 57.8968 14.2769H11.5482C10.6916 14.2769 9.99563 14.9761 9.99563 15.8366V49.3579Z" fill="#2C2F35"/>
<path d="M61.6978 56.3504H7.74707C4.73568 56.3504 2.2998 53.8898 2.2998 50.8778V50.1786C2.2998 49.7349 2.66117 49.3584 3.11623 49.3584H66.342C66.7836 49.3584 67.1584 49.7214 67.1584 50.1786V50.8778C67.1584 53.9032 64.7091 56.3504 61.7111 56.3504H61.6978ZM3.91926 50.9854C3.9728 53.0561 5.67256 54.7234 7.74707 54.7234H61.6844C63.7589 54.7234 65.4586 53.0561 65.5122 50.9854H3.91926Z" fill="#2C2F35"/>
<path d="M43.8306 43.6569H25.6151C24.638 43.6569 23.7949 42.9577 23.6075 42.003L21.5865 31.6629C21.5464 31.4209 21.5999 31.1789 21.7605 30.9906C21.9211 30.8024 22.1486 30.6948 22.3895 30.6948H47.0695C47.3104 30.6948 47.538 30.8024 47.6986 30.9906C47.8592 31.1789 47.9127 31.4209 47.8726 31.6629L45.8516 42.003C45.6642 42.9577 44.821 43.6569 43.844 43.6569H43.8306ZM23.3666 32.3084L25.2002 41.6803C25.2403 41.882 25.4143 42.0165 25.6151 42.0165H43.8306C44.0314 42.0165 44.2054 41.8686 44.2455 41.6803L46.0791 32.3084H23.3666Z" fill="#2C2F35"/>
<path d="M47.2696 32.3213H22.1747C20.7961 32.3213 19.6719 31.1919 19.6719 29.8069C19.6719 28.422 20.7961 27.2925 22.1747 27.2925H47.2696C48.6481 27.2925 49.7724 28.422 49.7724 29.8069C49.7724 31.1919 48.6481 32.3213 47.2696 32.3213ZM22.1747 28.9195C21.6929 28.9195 21.2913 29.3229 21.2913 29.8069C21.2913 30.291 21.6929 30.6944 22.1747 30.6944H47.2696C47.7514 30.6944 48.1529 30.291 48.1529 29.8069C48.1529 29.3229 47.7514 28.9195 47.2696 28.9195H22.1747Z" fill="#2C2F35"/>
<path d="M24.0615 28.9064C23.8474 28.9064 23.6466 28.8257 23.486 28.6644C23.1648 28.3416 23.1648 27.8307 23.486 27.508L30.9944 19.9647C31.3156 19.642 31.8242 19.642 32.1454 19.9647C32.4667 20.2874 32.4667 20.7983 32.1454 21.1211L24.637 28.6644C24.4764 28.8257 24.2757 28.9064 24.0615 28.9064Z" fill="#2C2F35"/>
<path d="M45.3824 28.9064C45.1683 28.9064 44.9675 28.8257 44.8069 28.6644L37.2985 21.1211C36.9773 20.7983 36.9773 20.2874 37.2985 19.9647C37.6197 19.642 38.1283 19.642 38.4495 19.9647L45.9579 27.508C46.2792 27.8307 46.2792 28.3416 45.9579 28.6644C45.7973 28.8257 45.5966 28.9064 45.3824 28.9064Z" fill="#2C2F35"/>
<path d="M34.729 41.0751C34.2873 41.0751 33.9126 40.7121 33.9126 40.2549V34.0966C33.9126 33.6529 34.274 33.2764 34.729 33.2764C35.1841 33.2764 35.5454 33.6394 35.5454 34.0966V40.2549C35.5454 40.6987 35.1841 41.0751 34.729 41.0751Z" fill="#2C2F35"/>
<path d="M29.1079 41.0618C28.693 41.0618 28.3316 40.7391 28.3048 40.3088L27.7962 34.1639C27.7561 33.7202 28.0907 33.3168 28.5324 33.2899C28.974 33.2496 29.3755 33.5857 29.4023 34.0294L29.9109 40.1743C29.9511 40.6181 29.6165 41.0215 29.1748 41.0483C29.148 41.0483 29.1346 41.0483 29.1079 41.0483V41.0618Z" fill="#2C2F35"/>
<path d="M40.3507 41.0615C40.3507 41.0615 40.3106 41.0615 40.2838 41.0615C39.8421 41.0212 39.5076 40.6313 39.5477 40.1875L40.0563 34.0426C40.0964 33.5989 40.4846 33.2628 40.9262 33.3031C41.3679 33.3434 41.7025 33.7334 41.6624 34.1771L41.1538 40.322C41.1136 40.7523 40.7656 41.075 40.3507 41.075V41.0615Z" fill="#2C2F35"/>
</svg>
