<?xml version="1.0" encoding="utf-8"?>
<svg width="63" height="63" viewBox="0 0 63 63" fill="none" xmlns="http://www.w3.org/2000/svg">
<path d="M61.6613 17.8765H8.6311V37.1833H61.6613V17.8765Z" fill="#FFCB65"/>
<path d="M54.3059 9.93018H1.27563V30.1138H54.3059V9.93018Z" fill="white"/>
<path d="M57.8759 14.3979H4.8457V33.5657H57.8759V14.3979Z" fill="white"/>
<path d="M51.6809 27.4888V12.5552L3.90066 12.5552V27.4888L51.6809 27.4888Z" fill="#FFCB65"/>
<path d="M30.5052 7.42625C22.9006 5.67276 14.4402 11.8074 14.4402 20.7088C14.4402 32.7969 29.5103 39.2859 38.1649 29.5681V29.5603C44.7904 22.0633 41.0971 9.55513 30.5052 7.42363V7.42625ZM35.2906 26.6754C31.9306 30.731 25.9114 31.2875 21.8637 27.9275C17.8081 24.5596 17.2489 18.551 20.6116 14.4928C23.9768 10.4371 29.9907 9.878 34.0437 13.2459C38.0914 16.6059 38.6584 22.6171 35.2906 26.6728V26.6754Z" fill="white"/>
<path d="M62.6063 37.9285H7.68604V32.6864H23.7668C24.255 32.6864 24.6777 33.0828 24.6777 33.5684C24.6777 34.054 24.3128 34.4504 23.8245 34.4504H9.45003V36.1645H60.8423V18.7581H58.8919V34.4504H32.172C31.6838 34.4504 31.2664 34.054 31.2664 33.5684C31.2664 33.0828 31.6392 32.6864 32.1248 32.6864H57.1253V16.9941H62.6037V37.9285H62.6063Z" fill="#1A2433"/>
<path d="M58.8919 34.4505H32.172C31.6838 34.4505 31.29 34.0541 31.29 33.5685C31.29 33.0829 31.6864 32.6865 32.172 32.6865H57.1253V15.2801H54.306C53.8178 15.2801 53.424 14.8837 53.424 14.3981C53.424 13.9125 53.8204 13.5161 54.306 13.5161H58.8893V34.4505H58.8919Z" fill="#1A2433"/>
<path d="M23.8246 34.4507H3.96387V30.1169C3.96387 29.6286 4.36024 29.2349 4.84587 29.2349C5.33149 29.2349 5.72787 29.6312 5.72787 30.1169V32.6867H23.8246C24.3129 32.6867 24.7066 33.0831 24.7066 33.5687C24.7066 34.0544 24.3102 34.4507 23.8246 34.4507Z" fill="#1A2433"/>
<path d="M55.1881 30.996H41.5092C41.0209 30.996 40.6272 30.5996 40.6272 30.114C40.6272 29.6283 41.0236 29.232 41.5092 29.232H53.4241V10.8123H40.2177C39.7294 10.8123 39.3357 10.416 39.3357 9.93034C39.3357 9.44471 39.7321 9.04834 40.2177 9.04834H55.1881V30.9933V30.996Z" fill="#1A2433"/>
<path d="M14.1121 30.9989H2.64347C2.15522 30.9989 1.76147 30.6025 1.76147 30.1169C1.76147 29.6312 2.15785 29.2349 2.64347 29.2349H14.1121C14.6004 29.2349 14.9941 29.6312 14.9941 30.1169C14.9941 30.6025 14.5977 30.9989 14.1121 30.9989Z" fill="#1A2433"/>
<path d="M4.8458 30.9986H0.393799V9.04834H15.9548C16.4431 9.04834 16.8368 9.44471 16.8368 9.93034C16.8368 10.416 16.4404 10.8123 15.9548 10.8123H2.1578V29.2346H4.8458C5.33405 29.2346 5.7278 29.631 5.7278 30.1166C5.7278 30.6022 5.33142 30.9986 4.8458 30.9986Z" fill="#1A2433"/>
<path d="M36.0496 25.6643C38.8594 21.2095 37.5257 15.3203 33.0708 12.5106C28.6159 9.70085 22.7268 11.0345 19.9171 15.4894C17.1073 19.9443 18.441 25.8334 22.8959 28.6431C27.3507 31.4529 33.2399 30.1192 36.0496 25.6643Z" fill="#FFCB65"/>
<path d="M31.9435 22.7088C31.9146 24.2261 30.8305 25.158 29.2949 25.4388L29.2581 27.3393C28.8066 27.4233 28.3341 27.468 27.8511 27.4575C27.5204 27.4522 27.1896 27.4181 26.872 27.3656L26.9088 25.3785C25.7748 25.137 24.7038 24.6198 23.9163 23.9242L24.8114 22.1733C25.7879 23.0737 27.1739 23.6617 28.1924 23.6827C29.0849 23.7011 29.6283 23.3782 29.6388 22.7902C29.6729 20.9816 24.5226 21.9371 24.5883 18.5272C24.6145 17.157 25.5858 16.2015 27.0899 15.8865L27.145 13.734C27.4626 13.6998 27.7829 13.6788 28.1136 13.6867C28.6045 13.6972 29.0718 13.7576 29.5285 13.86L29.476 15.8786C30.421 16.0545 31.3214 16.4115 32.0013 16.8735L31.1324 18.6506C30.1244 18.0285 28.9274 17.6216 28.1583 17.6058C27.4311 17.5927 26.9271 17.8473 26.9193 18.3645C26.8851 20.139 32.0223 19.2491 31.9435 22.7062V22.7088Z" fill="#1A2433"/>
<path d="M27.9641 30.9958C25.5412 30.9958 23.2181 30.161 21.3307 28.5939C16.9102 24.9241 16.296 18.3433 19.9657 13.9228C23.6328 9.50226 30.2163 8.88801 34.6368 12.5578C39.06 16.2249 39.6716 22.8084 36.0018 27.2289C34.2247 29.3709 31.7205 30.6913 28.9485 30.9511C28.6203 30.9826 28.2896 30.9958 27.9641 30.9958ZM27.9903 11.9225C25.5018 11.9225 23.0317 12.9883 21.3202 15.0489C18.2726 18.7213 18.7818 24.1891 22.4542 27.2368C24.234 28.712 26.4862 29.4103 28.7831 29.1924C31.0852 28.9771 33.1668 27.8799 34.6421 26.1001C36.1173 24.3204 36.813 22.0734 36.5977 19.7713C36.3825 17.4691 35.2852 15.3875 33.5055 13.9123C31.8937 12.5735 29.9328 11.9225 27.9851 11.9225H27.9903Z" fill="#1A2433"/>
<path d="M43.5672 39.2017L38.3933 42.5695L35.5793 38.2462C36.5558 37.834 37.4903 37.33 38.4117 36.7289C39.2622 36.175 40.0576 35.5792 40.7742 34.915L43.5646 39.2043L43.5672 39.2017Z" fill="white"/>
<path d="M45.3904 38.007L36.5825 43.7422L43.0525 53.6785L51.8604 47.9433L45.3904 38.007Z" fill="#FFCB65"/>
<path d="M55.9467 57.0519C55.6685 58.3723 54.8889 59.5851 53.684 60.3778C51.2611 61.9476 47.993 61.2572 46.4127 58.8422L43.0527 53.6814L51.8622 47.9458L55.2222 53.1066C56.0019 54.3167 56.225 55.7421 55.9467 57.0546V57.0519Z" fill="white"/>
<path d="M46.872 17.6872C44.9636 5.87209 33.075 -1.09991 21.9608 2.54884H21.9529C19.9316 3.22347 18.0128 4.21572 16.0256 5.77234H16.0204C15.6975 6.03484 15.3904 6.29734 15.0964 6.56772C15.0964 6.42597 13.1171 8.64934 13.0279 8.75959V8.76747C12.8126 9.03784 12.6026 9.31347 12.4058 9.59434C12.4058 9.59434 12.4005 9.59434 12.4005 9.59959C12.2036 9.88309 12.0068 10.164 11.8309 10.4527C11.8309 10.4527 11.823 10.4527 11.823 10.4606C7.01664 18.0993 8.1979 27.7882 14.2564 34.0331C19.7374 39.6847 28.2083 41.4093 35.4664 38.2987C35.5005 38.2856 35.5373 38.2672 35.5766 38.2541H35.5845C36.6476 37.8078 37.548 37.2828 38.4143 36.7395V36.7316H38.4195C39.2726 36.1803 40.0601 35.5897 40.7741 34.9203C40.866 34.8363 40.9526 34.7576 41.0366 34.671C44.5463 31.4028 46.6095 27.0112 47.0216 22.4385C47.166 20.8635 47.1214 19.2675 46.8694 17.6925L46.872 17.6872ZM38.1964 29.5522V29.5601C31.9883 36.5452 21.4043 35.3955 16.6451 28.077C13.0515 22.5592 14.0201 15.3903 18.5614 11.0092C19.1704 10.4055 19.8529 9.85947 20.5958 9.37384C30.2899 3.06072 42.882 11.1011 41.3858 22.4332C41.0471 25.1422 39.8396 27.6911 38.1964 29.5522Z" fill="#FFCB65"/>
<path d="M50.8305 62.1022C48.8197 62.1022 46.851 61.123 45.6723 59.3249L41.8293 53.4239L52.1167 46.7275L55.9571 52.6259C56.8443 54.0014 57.1436 55.6368 56.805 57.2354C56.4663 58.8419 55.5292 60.2174 54.1642 61.1152C53.1326 61.7819 51.975 62.1022 50.8278 62.1022H50.8305ZM44.2732 53.941L47.1502 58.3615C48.468 60.3749 51.1822 60.9472 53.2035 59.6399C54.1695 59.0047 54.8388 58.0203 55.083 56.8732C55.3245 55.7313 55.1092 54.5658 54.4792 53.5867L51.6048 49.1688L44.2732 53.941Z" fill="#1A2433"/>
<path d="M42.7953 54.9019L35.3613 43.491L45.6487 36.792L53.0827 48.2029L42.7953 54.8992V54.9019ZM37.8026 44.0055L43.3124 52.4606L50.6441 47.6884L45.1342 39.2332L37.8052 44.0055H37.8026Z" fill="#1A2433"/>
<path d="M38.1387 43.7904L34.2668 37.8421L35.2407 37.4326C36.1516 37.0494 37.0336 36.5769 37.934 35.9915C38.8107 35.4219 39.5431 34.8575 40.1783 34.2695L40.9448 33.5581L44.7878 39.4644L38.1361 43.7956L38.1387 43.7904ZM36.8813 38.6217L38.6558 41.3491L42.3492 38.9446L40.5905 36.2435C40.0812 36.6582 39.5195 37.0625 38.8973 37.4694C38.2227 37.9077 37.556 38.291 36.8813 38.6244V38.6217Z" fill="#1A2433"/>
<path d="M28.022 40.6982C22.709 40.6982 17.4537 38.5877 13.6239 34.6397C7.25035 28.072 6.13998 17.8345 10.9411 10.1957V9.57097H11.348C11.4031 9.48435 11.4609 9.40035 11.5186 9.31635V8.70997H11.9544C12.0567 8.57085 12.1591 8.43697 12.2641 8.30572L12.3297 8.21647C12.4164 8.1036 13.0359 7.41585 13.4112 7.00635C13.9914 6.37372 14.3352 5.99835 14.6161 5.80935C14.8891 5.56522 15.1726 5.32372 15.4666 5.08485L15.7212 4.88535C17.4144 3.55447 19.6719 2.3496 21.6905 1.70647L21.764 1.68285C27.0901 -0.141529 33.2589 0.556721 38.2884 3.5571C43.4255 6.62047 46.7855 11.5896 47.7462 17.5457C48.0035 19.1758 48.056 20.8453 47.9037 22.5122C47.4601 27.4183 45.2367 31.9622 41.6405 35.3091C41.5722 35.3773 41.4804 35.4613 41.3832 35.5532C40.6692 36.22 39.8581 36.8447 38.9 37.4642L38.6742 37.606C37.8027 38.1625 36.7921 38.6953 35.9259 39.0602L35.7526 39.1285C33.2694 40.1863 30.6365 40.6982 28.0194 40.6982H28.022ZM12.314 11.3297C8.08248 18.265 9.13248 27.4787 14.8891 33.4112C20.1102 38.7951 28.2399 40.4305 35.12 37.48C35.1961 37.4458 35.2486 37.4248 35.2985 37.4091C36.1227 37.0573 37.1255 36.5166 37.9261 35.9863L38.1545 35.8393C38.9315 35.3248 39.5904 34.8077 40.1705 34.267C40.2624 34.183 40.3359 34.1121 40.412 34.0386C43.7116 30.9673 45.7381 26.8225 46.1424 22.3495C46.2815 20.8296 46.2342 19.3071 45.998 17.824C45.1212 12.3928 42.0605 7.8621 37.3775 5.0691C32.7627 2.3181 27.1085 1.68285 22.247 3.37597L22.0895 3.42585C20.2021 4.04797 18.1047 5.19772 16.5849 6.44722L16.3355 6.64672C16.1124 6.8331 15.8971 7.01947 15.6871 7.2111L15.2724 7.58647C14.8077 8.07472 14.0281 8.93835 13.7761 9.2271L13.7131 9.30847C13.5084 9.5631 13.3115 9.82035 13.1251 10.0881L12.8652 10.4582C12.8101 10.5422 12.7524 10.6236 12.6999 10.7076L12.6185 10.8336C12.6054 10.8572 12.5896 10.8808 12.5765 10.9018L12.3087 11.3218L12.314 11.3297ZM27.9984 35.1043C20.0551 35.1043 13.5897 28.6416 13.5897 20.6957C13.5897 12.7498 20.0525 6.2871 27.9984 6.2871C35.9442 6.2871 42.407 12.7498 42.407 20.6957C42.407 28.6416 35.9442 35.1043 27.9984 35.1043ZM27.9984 8.05372C21.0264 8.05372 15.3537 13.7263 15.3537 20.6957C15.3537 27.6651 21.0264 33.3377 27.9984 33.3377C34.9704 33.3377 40.6404 27.6651 40.6404 20.6957C40.6404 13.7263 34.9677 8.05372 27.9984 8.05372Z" fill="#1A2433"/>
<path d="M50.7177 53.7626C49.8593 53.5815 49.0167 54.1301 48.8356 54.9885C48.6545 55.8468 49.2031 56.6895 50.0615 56.8706C50.9198 57.0517 51.7625 56.5031 51.9436 55.6447C52.1247 54.7863 51.5761 53.9437 50.7177 53.7626Z" fill="#1A2433"/>
<path d="M20.475 7.11905C20.1653 7.11905 19.866 6.9563 19.7033 6.66755C19.467 6.2423 19.6193 5.70418 20.0445 5.46793C20.4488 5.24218 20.8662 5.03218 21.2809 4.84318C21.7245 4.64105 22.2469 4.83793 22.449 5.28155C22.6512 5.72518 22.4543 6.24755 22.0107 6.44968C21.6405 6.61768 21.2678 6.80668 20.9055 7.0088C20.769 7.08493 20.622 7.12168 20.4777 7.12168L20.475 7.11905ZM34.1224 6.5678C34.0017 6.5678 33.8757 6.54155 33.7575 6.48905C30.9855 5.23168 27.8145 4.8668 24.9402 5.48368C24.4624 5.58605 23.9952 5.28155 23.8928 4.80643C23.7904 4.32868 24.0949 3.86143 24.57 3.75905C27.8119 3.06343 31.3767 3.4703 34.4873 4.88255C34.9309 5.08468 35.1278 5.60705 34.9257 6.05068C34.7787 6.37618 34.4584 6.5678 34.1224 6.5678Z" fill="white"/>
<path d="M29.3238 57.7865C28.9117 57.7865 28.5416 57.4952 28.4602 57.0752L27.0165 49.7147C26.922 49.2369 27.2343 48.7723 27.7121 48.6804C28.1898 48.5859 28.6545 48.8983 28.7464 49.376L30.1901 56.7365C30.2846 57.2143 29.9722 57.6789 29.4945 57.7708C29.4367 57.7813 29.379 57.7865 29.3238 57.7865ZM27.2475 47.2052C26.8354 47.2052 26.4652 46.9138 26.3839 46.4938L26.1319 45.2049C26.0374 44.7272 26.3497 44.2625 26.8275 44.1707C27.3026 44.0762 27.7698 44.3885 27.8617 44.8663L28.1137 46.1552C28.2082 46.6329 27.8958 47.0975 27.4181 47.1894C27.3603 47.1999 27.3026 47.2052 27.2475 47.2052Z" fill="#1A2433"/>
<path d="M6.68316 50.4237C6.44691 50.4237 6.21066 50.3292 6.03741 50.1402C5.70666 49.7832 5.72766 49.2241 6.08466 48.8933L11.584 43.7903C11.941 43.4596 12.5002 43.4806 12.8309 43.8376C13.1617 44.1946 13.1407 44.7537 12.7837 45.0844L7.28428 50.1874C7.11366 50.3449 6.89841 50.4237 6.68578 50.4237H6.68316ZM14.587 43.0894C14.3508 43.0894 14.1145 42.9949 13.9413 42.8059C13.6105 42.4489 13.6315 41.8898 13.9885 41.5591L14.9493 40.6666C15.3063 40.3358 15.8654 40.3568 16.1962 40.7138C16.5269 41.0708 16.5059 41.6299 16.1489 41.9607L15.1882 42.8532C15.0175 43.0107 14.8023 43.0894 14.5897 43.0894H14.587Z" fill="#1A2433"/>
<path d="M16.5953 57.3143C16.5034 57.3143 16.4141 57.3012 16.3223 57.2723C15.8576 57.1201 15.6056 56.624 15.7553 56.162L18.1257 48.8697C18.2753 48.4051 18.774 48.1531 19.236 48.3027C19.7006 48.4523 19.9527 48.9511 19.803 49.4131L17.4327 56.7053C17.3119 57.0781 16.9654 57.3143 16.5953 57.3143ZM19.9815 46.901C19.8897 46.901 19.7978 46.8878 19.7085 46.859C19.2439 46.7067 18.9919 46.2106 19.1415 45.7486L19.5484 44.5017C19.698 44.0371 20.1994 43.7851 20.6588 43.9347C21.1234 44.087 21.3754 44.5831 21.2258 45.0451L20.8189 46.292C20.6981 46.6647 20.3517 46.901 19.9815 46.901Z" fill="#1A2433"/>
</svg>
