<?xml version="1.0" encoding="utf-8"?>
<svg width="69" height="69" viewBox="0 0 69 69" fill="none" xmlns="http://www.w3.org/2000/svg">
<path d="M58.8207 59.7999H10.1639C9.62673 59.7999 9.2002 59.3614 9.2002 58.8092V25.1406C9.2002 24.6047 9.62673 24.1499 10.1639 24.1499C10.701 24.1499 11.1275 24.5884 11.1275 25.1406V57.8184H57.8729V25.1406C57.8729 24.6047 58.2994 24.1499 58.8365 24.1499C59.3737 24.1499 59.8002 24.5884 59.8002 25.1406V58.8092C59.8002 59.3614 59.3737 59.7999 58.8365 59.7999H58.8207Z" fill="#2C2F35"/>
<path d="M40.3859 59.7999H28.6143C28.0656 59.7999 27.6001 59.377 27.6001 58.8445V36.6053C27.6001 36.0884 28.049 35.6499 28.6143 35.6499H40.3859C40.9346 35.6499 41.4001 36.0728 41.4001 36.6053V58.8445C41.4001 59.377 40.9512 59.7999 40.3859 59.7999ZM29.6285 57.9049H39.3717V37.5606H29.6285V57.9049Z" fill="#2C2F35"/>
<path d="M64.5714 59.8H4.42903C3.8995 59.8 3.4502 59.291 3.4502 58.65C3.4502 58.009 3.88345 57.5 4.42903 57.5H64.5714C65.1009 57.5 65.5502 58.009 65.5502 58.65C65.5502 59.291 65.1169 59.8 64.5714 59.8Z" fill="#2C2F35"/>
<path d="M8.2398 26.4501C6.4456 26.4501 4.87569 25.5133 4.02665 23.9573C3.17761 22.3854 3.27373 20.5753 4.26694 19.0987L9.84176 10.7788C10.018 10.5089 10.3223 10.3501 10.6427 10.3501H17.435C17.7714 10.3501 18.0758 10.5248 18.252 10.7947C18.4283 11.0805 18.4443 11.4298 18.3161 11.7156L12.5491 23.735C11.7641 25.3863 10.066 26.4342 8.22378 26.4342L8.2398 26.4501ZM11.1714 12.2713L5.88492 20.1625C5.29219 21.0358 5.24414 22.1155 5.74074 23.0523C6.23735 23.9891 7.1825 24.5448 8.2398 24.5448C9.29709 24.5448 10.3384 23.9097 10.8029 22.9411L15.9132 12.2713H11.1714Z" fill="#2C2F35"/>
<path d="M16.7868 26.4501C14.957 26.4501 13.2951 25.5768 12.3214 24.1161C11.3478 22.6553 11.2303 20.8611 12.0193 19.3051L16.2328 10.9058C16.4007 10.5724 16.7532 10.3501 17.1561 10.3501H24.2906C24.6096 10.3501 24.9117 10.493 25.0964 10.7312C25.2811 10.9693 25.3482 11.2869 25.2643 11.5727L21.8733 22.8141C21.2354 24.9576 19.137 26.4501 16.7868 26.4501ZM17.794 12.2713L13.8491 20.1308C13.3622 21.0834 13.4462 22.1949 14.0337 23.0999C14.638 23.9891 15.6621 24.5289 16.7868 24.5289C18.2305 24.5289 19.5231 23.608 19.9092 22.2901L22.9309 12.2713H17.794Z" fill="#2C2F35"/>
<path d="M26.1612 26.4342H25.7448C24.1434 26.4342 22.6862 25.7046 21.7253 24.4515C20.7645 23.1984 20.4602 21.5963 20.8926 20.0735L23.4869 11.048C23.599 10.6356 23.9833 10.3501 24.4157 10.3501H31.2216C31.4939 10.3501 31.7501 10.4611 31.9422 10.6673C32.1184 10.8735 32.2145 11.1432 32.1985 11.4129L31.1896 21.9294C30.9494 24.5149 28.7875 26.4501 26.1772 26.4501L26.1612 26.4342ZM25.1523 12.2694L22.7502 20.597C22.478 21.5329 22.6702 22.5163 23.2627 23.2935C23.8552 24.0708 24.752 24.5149 25.7448 24.5149H26.1612C27.7626 24.5149 29.0918 23.3253 29.2519 21.7391L30.1647 12.2853H25.1683L25.1523 12.2694Z" fill="#2C2F35"/>
<path d="M34.8206 26.4501H34.2141C32.6717 26.4501 31.2161 25.8473 30.1763 24.8163C29.1365 23.7853 28.634 22.3735 28.7726 20.9777L29.7777 11.2225C29.8297 10.7308 30.2803 10.3501 30.8175 10.3501H38.1825C38.7197 10.3501 39.1703 10.7308 39.2223 11.2225L40.2274 20.9777C40.366 22.3735 39.8635 23.7694 38.8237 24.8163C37.7839 25.8473 36.3283 26.4501 34.7859 26.4501H34.8206ZM31.7879 12.2853L30.8695 21.168C30.7828 22.0404 31.0774 22.8811 31.736 23.5315C32.3771 24.1818 33.2609 24.5308 34.2141 24.5308H34.8206C35.7737 24.5308 36.6575 24.1818 37.2987 23.5315C37.9399 22.8811 38.2518 22.0404 38.1652 21.168L37.2467 12.2853H31.8053H31.7879Z" fill="#2C2F35"/>
<path d="M43.2398 26.4501H42.8237C40.2151 26.4501 38.0546 24.4991 37.8146 21.9294L36.8064 11.4129C36.7744 11.1432 36.8704 10.8735 37.0624 10.6673C37.2385 10.4611 37.5105 10.3501 37.7826 10.3501H44.5842C45.0163 10.3501 45.4003 10.6356 45.5124 11.048L48.105 20.0735C48.5371 21.5963 48.249 23.1825 47.2728 24.4515C46.3126 25.7204 44.8402 26.4342 43.2559 26.4342L43.2398 26.4501ZM38.8388 12.2853L39.751 21.7391C39.9111 23.3253 41.2234 24.5149 42.8398 24.5149H43.2559C44.2321 24.5149 45.1443 24.0708 45.7364 23.2935C46.3286 22.5163 46.5046 21.5329 46.2485 20.597L43.848 12.2694H38.8548L38.8388 12.2853Z" fill="#2C2F35"/>
<path d="M52.2043 26.4342C49.8574 26.4342 47.7788 24.9432 47.1251 22.8018L43.739 11.5715C43.6552 11.286 43.7055 10.9687 43.9066 10.7308C44.091 10.4929 44.3927 10.3501 44.7112 10.3501H51.8355C52.221 10.3501 52.5898 10.5563 52.7574 10.9053L56.9817 19.3122C57.7695 20.8667 57.6522 22.6749 56.6799 24.1184C55.7077 25.5777 54.0314 26.4501 52.221 26.4501L52.2043 26.4342ZM46.069 12.2694L49.0864 22.2784C49.4887 23.5949 50.7626 24.5149 52.2043 24.5149C53.3274 24.5149 54.3499 23.9756 54.9534 23.0873C55.5568 22.1991 55.6239 21.0887 55.1378 20.1211L51.1985 12.2694H46.069Z" fill="#2C2F35"/>
<path d="M60.7738 26.4501C58.9342 26.4501 57.2545 25.3852 56.4547 23.7482L50.6959 11.7169C50.5519 11.415 50.5679 11.0653 50.7599 10.7951C50.9358 10.509 51.2398 10.3501 51.5757 10.3501H58.3743C58.6942 10.3501 58.9982 10.509 59.1741 10.7792L64.741 19.0915C65.7328 20.5695 65.8128 22.3973 64.981 23.9548C64.1331 25.5283 62.5654 26.4501 60.7738 26.4501ZM53.1114 12.2573L58.1983 22.9059C58.6622 23.8754 59.67 24.5111 60.7578 24.5111C61.8456 24.5111 62.7574 23.9548 63.2533 23.0171C63.7492 22.0794 63.7012 20.9987 63.1093 20.1245L57.8304 12.2414H53.0954L53.1114 12.2573Z" fill="#2C2F35"/>
<path d="M23.105 47.1503H14.8456C14.2801 47.1503 13.8003 46.6876 13.8003 46.105V37.8456C13.8003 37.263 14.263 36.8003 14.8456 36.8003H23.105C23.6705 36.8003 24.1503 37.263 24.1503 37.8456V46.105C24.1503 46.6705 23.6876 47.1503 23.105 47.1503ZM15.8737 45.0769H22.0597V38.8909H15.8737V45.0769Z" fill="#2C2F35"/>
<path d="M54.1548 47.1503H45.8954C45.3299 47.1503 44.8501 46.6876 44.8501 46.105V37.8456C44.8501 37.263 45.3128 36.8003 45.8954 36.8003H54.1548C54.7203 36.8003 55.2001 37.263 55.2001 37.8456V46.105C55.2001 46.6705 54.7374 47.1503 54.1548 47.1503ZM46.9235 45.0769H53.1095V38.8909H46.9235V45.0769Z" fill="#2C2F35"/>
</svg>
