<?xml version="1.0" encoding="utf-8"?>
<svg width="63" height="63" viewBox="0 0 63 63" fill="none" xmlns="http://www.w3.org/2000/svg">
<path d="M24.4392 27.407C26.553 25.2932 26.553 21.866 24.4392 19.7522C22.3254 17.6384 18.8982 17.6384 16.7844 19.7522C14.6706 21.866 14.6706 25.2932 16.7844 27.407C18.8982 29.5208 22.3254 29.5208 24.4392 27.407Z" fill="white"/>
<path d="M20.6116 29.8462C17.1571 29.8462 14.3457 27.0348 14.3457 23.5803C14.3457 20.1258 17.1571 17.3145 20.6116 17.3145C24.0661 17.3145 26.8775 20.1258 26.8775 23.5803C26.8775 27.0348 24.0661 29.8462 20.6116 29.8462ZM20.6116 19.0207C18.0968 19.0207 16.052 21.0656 16.052 23.5803C16.052 26.0951 18.0968 28.14 20.6116 28.14C23.1263 28.14 25.1712 26.0951 25.1712 23.5803C25.1712 21.0656 23.1263 19.0207 20.6116 19.0207Z" fill="black"/>
<path d="M43.3439 34.9993C46.3333 34.9993 48.7567 32.576 48.7567 29.5866C48.7567 26.5972 46.3333 24.1738 43.3439 24.1738C40.3545 24.1738 37.9312 26.5972 37.9312 29.5866C37.9312 32.576 40.3545 34.9993 43.3439 34.9993Z" fill="#F5F5F5"/>
<path d="M44.9528 19.0781C47.9036 18.5992 49.9074 15.8188 49.4284 12.8681C48.9494 9.9173 46.1691 7.91353 43.2183 8.3925C40.2675 8.87148 38.2638 11.6518 38.7428 14.6026C39.2217 17.5533 42.0021 19.5571 44.9528 19.0781Z" fill="white"/>
<path d="M23.9403 14.1115C26.8497 13.4248 28.6516 10.5096 27.9649 7.60013C27.2782 4.69069 24.363 2.88879 21.4536 3.57548C18.5441 4.26217 16.7422 7.17741 17.4289 10.0869C18.1156 12.9963 21.0308 14.7982 23.9403 14.1115Z" fill="#F5F5F5"/>
<path d="M28.6106 35.2268C30.7244 33.113 30.7244 29.6858 28.6106 27.572C26.4968 25.4582 23.0696 25.4582 20.9558 27.572C18.842 29.6858 18.842 33.113 20.9558 35.2268C23.0696 37.3406 26.4968 37.3406 28.6106 35.2268Z" fill="#F5F5F5"/>
<path d="M43.344 35.8521C39.8895 35.8521 37.0781 33.0407 37.0781 29.5862C37.0781 26.1317 39.8895 23.3203 43.344 23.3203C46.7985 23.3203 49.6099 26.1317 49.6099 29.5862C49.6099 33.0407 46.7985 35.8521 43.344 35.8521ZM43.344 25.0266C40.8292 25.0266 38.7844 27.0714 38.7844 29.5862C38.7844 32.1009 40.8292 34.1458 43.344 34.1458C45.8587 34.1458 47.9036 32.1009 47.9036 29.5862C47.9036 27.0714 45.8587 25.0266 43.344 25.0266Z" fill="black"/>
<path d="M44.0842 20.0025C40.6297 20.0025 37.8184 17.1911 37.8184 13.7366C37.8184 10.2821 40.6297 7.4707 44.0842 7.4707C47.5387 7.4707 50.3501 10.2821 50.3501 13.7366C50.3501 17.1911 47.5387 20.0025 44.0842 20.0025ZM44.0842 9.17695C41.5695 9.17695 39.5246 11.2218 39.5246 13.7366C39.5246 16.2513 41.5695 18.2962 44.0842 18.2962C46.599 18.2962 48.6439 16.2513 48.6439 13.7366C48.6439 11.2218 46.599 9.17695 44.0842 9.17695Z" fill="black"/>
<path d="M22.6956 15.104C19.2411 15.104 16.4297 12.2926 16.4297 8.83814C16.4297 5.38364 19.2411 2.57227 22.6956 2.57227C26.1501 2.57227 28.9614 5.38364 28.9614 8.83814C28.9614 12.2926 26.1501 15.104 22.6956 15.104ZM22.6956 4.27852C20.1808 4.27852 18.1359 6.32339 18.1359 8.83814C18.1359 11.3529 20.1808 13.3978 22.6956 13.3978C25.2103 13.3978 27.2552 11.3529 27.2552 8.83814C27.2552 6.32339 25.2103 4.27852 22.6956 4.27852Z" fill="black"/>
<path d="M24.7825 37.6636C21.328 37.6636 18.5166 34.8522 18.5166 31.3977C18.5166 27.9432 21.328 25.1318 24.7825 25.1318C28.237 25.1318 31.0484 27.9432 31.0484 31.3977C31.0484 34.8522 28.237 37.6636 24.7825 37.6636ZM24.7825 26.8381C22.2677 26.8381 20.2229 28.883 20.2229 31.3977C20.2229 33.9125 22.2677 35.9573 24.7825 35.9573C27.2972 35.9573 29.3421 33.9125 29.3421 31.3977C29.3421 28.883 27.2972 26.8381 24.7825 26.8381Z" fill="black"/>
<path d="M15.6973 33.0249H49.4128C51.5417 33.0249 53.2716 34.7548 53.2716 36.8837V57.986C53.2716 60.1149 51.5417 61.8448 49.4128 61.8448H16.2853C13.8309 61.8448 11.8359 59.8524 11.8359 57.3954V36.8837C11.8359 34.7548 13.5658 33.0249 15.6947 33.0249H15.6973Z" fill="white"/>
<path d="M53.2769 37.7632H11.8413V56.9913H53.2769V37.7632Z" fill="#F5F5F5"/>
<path d="M33.13 21.9868C32.6601 21.9868 32.2769 21.6036 32.2769 21.1337V2.21006C32.2769 1.74018 32.6575 1.35693 33.13 1.35693C33.6025 1.35693 33.9831 1.74018 33.9831 2.21006V21.1337C33.9831 21.6036 33.5999 21.9868 33.13 21.9868Z" fill="black"/>
<path d="M28.1084 19.6636L33.13 28.3576L38.149 19.6636H28.1084Z" fill="black"/>
<path d="M25.3182 56.9941V61.8425H15.6924C13.5661 61.8425 11.8389 59.5273 11.8389 57.401V56.9941H25.3182Z" fill="#F5F5F5"/>
<path d="M40.2463 56.9941H32.8359V61.8425H40.2463V56.9941Z" fill="#F5F5F5"/>
<path d="M31.2216 49.1976C31.2216 50.0717 30.8961 50.7752 30.2425 51.316C29.7175 51.7543 29.056 52.0116 28.2554 52.093V53.4055H26.4704V52.0116C25.402 51.7885 24.4176 51.2556 23.5146 50.4182L24.8035 48.8406C25.8483 49.7515 26.8195 50.2108 27.7094 50.2108C28.1084 50.2108 28.4208 50.1295 28.6439 49.951C28.8723 49.7803 28.9851 49.552 28.9851 49.2606C28.9851 48.9692 28.867 48.7356 28.6308 48.565C28.3866 48.3943 27.9115 48.2237 27.2001 48.0452C26.0661 47.7775 25.2445 47.431 24.7169 46.9926C24.1971 46.5621 23.932 45.8875 23.932 44.9687C23.932 44.05 24.2654 43.3386 24.9243 42.8346C25.3626 42.5012 25.8798 42.2781 26.473 42.1678V40.8711H28.258V42.1521C28.6203 42.2046 28.9851 42.2938 29.3474 42.4198C29.9931 42.643 30.5628 42.9606 31.0431 43.3596L29.9459 44.9451C29.1006 44.3072 28.2265 43.9896 27.3314 43.9896C26.977 43.9896 26.6856 44.071 26.4783 44.2416C26.2709 44.4201 26.1659 44.6406 26.1659 44.9241C26.1659 45.2076 26.2919 45.436 26.5439 45.5987C26.8038 45.7693 27.3891 45.961 28.3079 46.192C29.2345 46.4151 29.9459 46.7563 30.4578 47.2157C30.9696 47.6672 31.2216 48.3261 31.2216 49.195V49.1976Z" fill="black"/>
<path d="M17.4274 45.5304V52.9407C17.4274 53.4159 17.0494 53.7939 16.5743 53.7939C16.0992 53.7939 15.7212 53.4159 15.7212 52.9407V45.5304C15.7212 45.0631 16.1071 44.6772 16.5743 44.6772C17.0416 44.6772 17.4274 45.0631 17.4274 45.5304Z" fill="white"/>
<path d="M16.5797 43.7795C16.1098 43.7795 15.7266 43.3989 15.7266 42.9264V41.816C15.7266 41.3461 16.1072 40.9629 16.5797 40.9629C17.0522 40.9629 17.4328 41.3435 17.4328 41.816V42.9264C17.4328 43.3963 17.0522 43.7795 16.5797 43.7795Z" fill="white"/>
<path d="M53.2743 41.5959H45.5541C44.0868 41.5959 42.769 42.1891 41.8056 43.1525C40.8423 44.108 40.249 45.4336 40.249 46.901C40.249 48.3684 40.7819 49.5549 41.6718 50.5025C41.7768 50.6285 41.9028 50.7466 42.0288 50.8516C42.0366 50.8726 42.0498 50.8805 42.0655 50.8884C42.1994 50.9986 42.3333 51.1115 42.4724 51.206C42.6063 51.311 42.7454 51.3976 42.895 51.4869C42.9029 51.4948 42.9108 51.5026 42.9239 51.5079C43.0656 51.5814 43.2048 51.6549 43.3544 51.7231C43.4515 51.7756 43.546 51.8124 43.651 51.8491C43.756 51.8938 43.8584 51.9305 43.9634 51.9594C44.029 51.9804 44.1051 52.004 44.1708 52.0198C44.2758 52.0486 44.3781 52.0723 44.4884 52.0933C44.659 52.13 44.8375 52.1589 45.0134 52.1746C45.1919 52.1956 45.3704 52.2035 45.5541 52.2035H53.2743V41.5933V41.5959Z" fill="white"/>
<path d="M53.2742 43.2627V52.2061H45.5541C45.3677 52.2061 45.1918 52.1982 45.0133 52.1772C44.8348 52.1614 44.6589 52.1326 44.4883 52.0958C44.3781 52.0748 44.2731 52.0512 44.1707 52.0223C44.1051 52.0066 44.0289 51.9856 43.9633 51.9619C43.8609 51.9331 43.7559 51.8963 43.6509 51.8517C43.5486 51.8149 43.4514 51.7782 43.3543 51.7257C43.2073 51.6601 43.0656 51.5839 42.9238 51.5104C42.9081 51.5026 42.9028 51.4947 42.8949 51.4894C42.7479 51.4002 42.6062 51.3109 42.4723 51.2086C42.3306 51.1114 42.1993 51.0012 42.0654 50.8909C42.0497 50.8831 42.0366 50.8752 42.0287 50.8542C41.9027 50.7439 41.7846 50.6232 41.6743 50.5051L45.0684 48.0822L47.6462 46.2289L53.2768 43.2653L53.2742 43.2627Z" fill="#F5F5F5"/>
<path d="M46.1685 48.5181C47.0629 48.5181 47.7881 47.7929 47.7881 46.8984C47.7881 46.0039 47.0629 45.2788 46.1685 45.2788C45.274 45.2788 44.5488 46.0039 44.5488 46.8984C44.5488 47.7929 45.274 48.5181 46.1685 48.5181Z" fill="black"/>
<path d="M53.274 53.0592C52.8041 53.0592 52.4209 52.6759 52.4209 52.2061V41.5958C52.4209 41.1259 52.8041 40.7427 53.274 40.7427C53.7439 40.7427 54.1271 41.1259 54.1271 41.5958V52.2061C54.1271 52.6759 53.7439 53.0592 53.274 53.0592Z" fill="black"/>
<path d="M54.1248 53.0592H45.5515C45.331 53.0592 45.1184 53.0487 44.9058 53.0224C44.7246 53.0067 44.5094 52.9726 44.302 52.9279C44.1839 52.9043 44.0579 52.8754 43.9319 52.8413C43.8873 52.8334 43.7822 52.8019 43.6877 52.7704C43.5827 52.7415 43.4462 52.6917 43.3071 52.6339C43.21 52.5998 43.0761 52.5473 42.9423 52.4738C42.832 52.4265 42.6745 52.3452 42.5196 52.2612L42.3726 52.1693C42.223 52.0774 42.0812 51.9829 41.9447 51.8779C41.845 51.8123 41.7216 51.7126 41.593 51.6076L41.362 51.4947L41.3069 51.3582C41.194 51.2558 41.0943 51.1508 41.0076 51.0458C39.976 49.9486 39.3906 48.4628 39.3906 46.9009C39.3906 45.2498 40.0337 43.7037 41.1992 42.546C42.3621 41.3832 43.9083 40.7427 45.5489 40.7427H53.269C53.7389 40.7427 54.1221 41.1259 54.1221 41.5958C54.1221 42.0053 53.836 42.3465 53.4501 42.4305C53.8334 42.5145 54.1221 42.8558 54.1221 43.2653V53.0618L54.1248 53.0592ZM43.4016 50.7991C43.504 50.8542 43.6011 50.9014 43.7009 50.9461C43.8137 51.0038 43.8715 51.0248 43.9345 51.0458C44.0526 51.0957 44.1235 51.1193 44.1944 51.1403C44.2679 51.1639 44.3099 51.177 44.3493 51.1875C44.4805 51.2243 44.5619 51.2401 44.6511 51.2584C44.8008 51.2899 44.9425 51.3135 45.0816 51.3267C45.2575 51.3477 45.4019 51.3529 45.5515 51.3529H52.4185V43.2627C52.4185 42.8794 52.6705 42.5566 53.017 42.4489H45.5515C44.365 42.4489 43.2468 42.9135 42.4068 43.7562C41.5641 44.5935 41.0995 45.7092 41.0995 46.9009C41.0995 48.027 41.5221 49.098 42.2913 49.9197C42.3858 50.0325 42.4698 50.1113 42.5669 50.1927L42.7611 50.3607C42.8241 50.4106 42.8845 50.4578 42.9501 50.5024C43.0997 50.6153 43.2126 50.6862 43.3308 50.757L43.4016 50.7991Z" fill="black"/>
<path d="M53.2743 57.8474H11.836C11.3662 57.8474 10.9829 57.4641 10.9829 56.9942C10.9829 56.5244 11.3635 56.1411 11.836 56.1411H53.2743C53.7442 56.1411 54.1274 56.5244 54.1274 56.9942C54.1274 57.4641 53.7442 57.8474 53.2743 57.8474Z" fill="black"/>
<path d="M32.2771 33.5029H24.8667V37.7633H32.2771V33.5029Z" fill="#F5F5F5"/>
<path d="M52.6941 33.5054H38.6714V37.7657H52.6941V33.5054Z" fill="#F5F5F5"/>
<path d="M53.2743 38.6164H11.836C11.3662 38.6164 10.9829 38.2332 10.9829 37.7633C10.9829 37.2934 11.3635 36.9102 11.836 36.9102H53.2743C53.7442 36.9102 54.1274 37.2934 54.1274 37.7633C54.1274 38.2332 53.7442 38.6164 53.2743 38.6164Z" fill="black"/>
<path d="M49.4132 62.698H15.6977C12.9992 62.698 10.9858 59.8997 10.9858 57.3955V36.8837C10.9858 34.285 13.099 32.1719 15.6977 32.1719H49.4132C52.012 32.1719 54.1251 34.285 54.1251 36.8837V57.3955C54.1251 59.8971 52.1091 62.698 49.4132 62.698ZM15.6977 33.8781C14.0387 33.8781 12.6921 35.2274 12.6921 36.8837V57.3955C12.6921 59.023 14.0335 60.9918 15.6977 60.9918H49.4132C51.0775 60.9918 52.4188 59.0256 52.4188 57.3955V36.8837C52.4188 35.2247 51.0696 33.8781 49.4132 33.8781H15.6977Z" fill="black"/>
</svg>
